<svg width="228" height="269" viewBox="0 0 228 269" fill="none" xmlns="http://www.w3.org/2000/svg">
<path fill-rule="evenodd" clip-rule="evenodd" d="M166.647 80.3788C166.588 67.0834 167.24 54.7407 181.545 54.7407C182.271 54.7407 182.352 55.8078 182.584 56.473C183.766 70.0549 187.42 96.7592 201.64 130.962C206.231 141.876 198.936 167.65 201.64 181.892C204.43 196.246 208.738 199.882 225.545 229.01C242.273 257.868 168.364 286.986 159.025 252.569C149.359 218.031 148.667 207.92 133.387 197.482C118.439 187.092 98.3947 159.718 98.3947 159.718H152.789C152.789 159.718 166.619 86.8257 166.647 80.3788Z" fill="#DD784D"/>
<mask id="mask0" mask-type="alpha" maskUnits="userSpaceOnUse" x="98" y="54" width="130" height="215">
<path fill-rule="evenodd" clip-rule="evenodd" d="M166.647 80.3788C166.588 67.0834 167.24 54.7407 181.545 54.7407C182.271 54.7407 182.352 55.8078 182.584 56.473C183.766 70.0549 187.42 96.7592 201.64 130.962C206.231 141.876 198.936 167.65 201.64 181.892C204.43 196.246 208.738 199.882 225.545 229.01C242.273 257.868 168.364 286.986 159.025 252.569C149.359 218.031 148.667 207.92 133.387 197.482C118.439 187.092 98.3947 159.718 98.3947 159.718H152.789C152.789 159.718 166.619 86.8257 166.647 80.3788Z" fill="white"/>
</mask>
<g mask="url(#mask0)">
<path fill-rule="evenodd" clip-rule="evenodd" d="M134.427 179.466C120.312 179.466 112.246 170.253 106.434 159.718L154.175 159.718C157.449 159.718 160.767 159.46 162.949 157.35C160.891 169.633 152.717 179.466 134.427 179.466Z" fill="url(#paint0_linear)"/>
</g>
<path fill-rule="evenodd" clip-rule="evenodd" d="M100.82 0H155.907C162.604 0 168.033 5.42904 168.033 12.1261V147.592C168.033 154.289 162.604 159.718 155.907 159.718H100.82C94.1228 159.718 88.6937 154.289 88.6937 147.592V12.1261C88.6937 5.42904 94.1228 0 100.82 0Z" fill="#393E41"/>
<path fill-rule="evenodd" clip-rule="evenodd" d="M100.82 0H155.907C162.604 0 168.033 5.42904 168.033 12.1261V147.592C168.033 154.289 162.604 159.718 155.907 159.718H100.82C94.1228 159.718 88.6937 154.289 88.6937 147.592V12.1261C88.6937 5.42904 94.1228 0 100.82 0Z" fill="url(#paint1_linear)"/>
<path fill-rule="evenodd" clip-rule="evenodd" d="M107.749 4.85046C107.749 4.85046 108.788 4.85046 108.788 5.88984C108.788 9.04965 110.857 10.3938 113.985 10.3938C119.102 10.3938 139.022 10.3938 142.742 10.3938C146.088 10.3938 147.938 9.04965 147.938 5.88984C147.938 4.85046 148.978 4.85046 148.978 4.85046L156.253 4.85046C160.08 4.85046 163.183 7.95277 163.183 11.7797V147.938C163.183 151.765 160.08 154.868 156.253 154.868H100.473C96.6465 154.868 93.5442 151.765 93.5442 147.938V11.7797C93.5442 7.95277 96.6465 4.85046 100.473 4.85046L107.749 4.85046Z" fill="white"/>
<mask id="mask1" mask-type="alpha" maskUnits="userSpaceOnUse" x="93" y="4" width="71" height="151">
<path fill-rule="evenodd" clip-rule="evenodd" d="M107.749 4.85046C107.749 4.85046 108.788 4.85046 108.788 5.88984C108.788 9.04965 110.857 10.3938 113.985 10.3938C119.102 10.3938 139.022 10.3938 142.742 10.3938C146.088 10.3938 147.938 9.04965 147.938 5.88984C147.938 4.85046 148.978 4.85046 148.978 4.85046L156.253 4.85046C160.08 4.85046 163.183 7.95277 163.183 11.7797V147.938C163.183 151.765 160.08 154.868 156.253 154.868H100.473C96.6465 154.868 93.5442 151.765 93.5442 147.938V11.7797C93.5442 7.95277 96.6465 4.85046 100.473 4.85046L107.749 4.85046Z" fill="white"/>
</mask>
<g mask="url(#mask1)">
<path fill-rule="evenodd" clip-rule="evenodd" d="M98.7411 146.899H157.986C158.942 146.899 159.718 147.675 159.718 148.631C159.718 149.588 158.942 150.364 157.986 150.364H98.7411C97.7844 150.364 97.0088 149.588 97.0088 148.631C97.0088 147.675 97.7844 146.899 98.7411 146.899Z" fill="#ECDFF7"/>
<path fill-rule="evenodd" clip-rule="evenodd" d="M98.7411 138.238H157.986C158.942 138.238 159.718 139.013 159.718 139.97C159.718 140.927 158.942 141.702 157.986 141.702H98.7411C97.7844 141.702 97.0088 140.927 97.0088 139.97C97.0088 139.013 97.7844 138.238 98.7411 138.238Z" fill="#ECDFF7"/>
<path fill-rule="evenodd" clip-rule="evenodd" d="M98.7411 129.576H157.986C158.942 129.576 159.718 130.352 159.718 131.308C159.718 132.265 158.942 133.041 157.986 133.041H98.7411C97.7844 133.041 97.0088 132.265 97.0088 131.308C97.0088 130.352 97.7844 129.576 98.7411 129.576Z" fill="#ECDFF7"/>
<path fill-rule="evenodd" clip-rule="evenodd" d="M98.7411 120.915H157.986C158.942 120.915 159.718 121.69 159.718 122.647C159.718 123.604 158.942 124.379 157.986 124.379H98.7411C97.7844 124.379 97.0088 123.604 97.0088 122.647C97.0088 121.69 97.7844 120.915 98.7411 120.915Z" fill="#ECDFF7"/>
<path fill-rule="evenodd" clip-rule="evenodd" d="M98.7411 112.253H157.986C158.942 112.253 159.718 113.029 159.718 113.985C159.718 114.942 158.942 115.718 157.986 115.718H98.7411C97.7844 115.718 97.0088 114.942 97.0088 113.985C97.0088 113.029 97.7844 112.253 98.7411 112.253Z" fill="#ECDFF7"/>
<path fill-rule="evenodd" clip-rule="evenodd" d="M98.7411 103.592H157.986C158.942 103.592 159.718 104.367 159.718 105.324C159.718 106.281 158.942 107.056 157.986 107.056H98.7411C97.7844 107.056 97.0088 106.281 97.0088 105.324C97.0088 104.367 97.7844 103.592 98.7411 103.592Z" fill="#ECDFF7"/>
<path fill-rule="evenodd" clip-rule="evenodd" d="M101.166 90.0796H155.561C157.857 90.0796 159.718 91.941 159.718 94.2371C159.718 96.5332 157.857 98.3946 155.561 98.3946H101.166C98.8702 98.3946 97.0088 96.5332 97.0088 94.2371C97.0088 91.941 98.8702 90.0796 101.166 90.0796Z" fill="#287CA6"/>
<path fill-rule="evenodd" clip-rule="evenodd" d="M119.529 76.2212H140.663C141.619 76.2212 142.395 76.9968 142.395 77.9535C142.395 78.9102 141.619 79.6858 140.663 79.6858H119.529C118.572 79.6858 117.796 78.9102 117.796 77.9535C117.796 76.9968 118.572 76.2212 119.529 76.2212Z" fill="#ECDFF7"/>
<path fill-rule="evenodd" clip-rule="evenodd" d="M119.529 69.292H157.986C158.942 69.292 159.718 70.0676 159.718 71.0243C159.718 71.981 158.942 72.7566 157.986 72.7566H119.529C118.572 72.7566 117.796 71.981 117.796 71.0243C117.796 70.0676 118.572 69.292 119.529 69.292Z" fill="#ECDFF7"/>
<path fill-rule="evenodd" clip-rule="evenodd" d="M105.67 83.1504C110.454 83.1504 114.332 79.2725 114.332 74.4889C114.332 69.7053 110.454 65.8274 105.67 65.8274C100.887 65.8274 97.0088 69.7053 97.0088 74.4889C97.0088 79.2725 100.887 83.1504 105.67 83.1504Z" fill="#ECDFF7"/>
<mask id="mask2" mask-type="alpha" maskUnits="userSpaceOnUse" x="97" y="65" width="18" height="19">
<path fill-rule="evenodd" clip-rule="evenodd" d="M105.67 83.1504C110.454 83.1504 114.332 79.2725 114.332 74.4889C114.332 69.7053 110.454 65.8274 105.67 65.8274C100.887 65.8274 97.0088 69.7053 97.0088 74.4889C97.0088 79.2725 100.887 83.1504 105.67 83.1504Z" fill="white"/>
</mask>
<g mask="url(#mask2)">
<path fill-rule="evenodd" clip-rule="evenodd" d="M114.134 82.8865C112.568 88.988 102.595 89.8767 97.9657 85.7901C93.2736 81.7521 92.5881 76.2778 94.6661 71.7998C96.6893 67.3374 100.828 65.1345 105.423 65.1345C110.07 65.1345 113.128 69.8863 109.778 72.3277C106.382 74.7576 115.732 76.8267 114.134 82.8865Z" fill="#287CA6"/>
<path fill-rule="evenodd" clip-rule="evenodd" d="M114.134 82.8865C112.568 88.988 102.595 89.8767 97.9657 85.7901C93.2736 81.7521 92.5881 76.2778 94.6661 71.7998C96.6893 67.3374 100.828 65.1345 105.423 65.1345C110.07 65.1345 113.128 69.8863 109.778 72.3277C106.382 74.7576 115.732 76.8267 114.134 82.8865Z" fill="url(#paint2_linear)"/>
<path fill-rule="evenodd" clip-rule="evenodd" d="M109.96 75.0136C111.694 76.7636 115.157 79.0074 114.134 82.8864C113.251 86.3264 109.696 88.1094 105.933 88.2781C101.946 87.1619 99.0216 83.5014 99.0216 79.1579C99.0216 77.4426 99.4776 75.8339 100.275 74.4463C100.425 75.1763 100.836 75.7592 101.529 75.7592C102.148 77.4943 103.632 78.8609 105.885 78.8609C108.138 78.8609 109.345 77.3686 109.778 76.3532C109.966 75.9147 109.991 75.5083 109.96 75.0136Z" fill="url(#paint3_linear)"/>
<path fill-rule="evenodd" clip-rule="evenodd" d="M103.839 90.2116C104.135 91.1566 104.247 91.2076 104.235 91.3335C104.247 91.4511 104.089 91.7505 103.773 91.9274C103.491 92.1643 103.046 92.2455 102.981 92.1254C102.859 91.9811 101.067 88.6295 101.067 87.5059C101.067 86.6359 101.176 84.2617 101.661 82.5565C102.136 80.8237 103.076 79.8621 104.565 79.3888C104.618 79.3438 105.507 79.1249 105.885 79.1249C108.356 79.1249 110.372 81.1419 110.372 83.6124C110.372 83.9229 110.344 84.2151 110.306 84.4703L109.382 89.1557C108.696 89.7352 107.706 90.0213 106.413 90.0136C105.089 90.0213 104.116 89.7721 103.509 89.2877C103.593 89.5639 103.708 89.8863 103.839 90.2116Z" fill="#287CA6"/>
<path fill-rule="evenodd" clip-rule="evenodd" d="M103.839 90.2116C104.135 91.1566 104.247 91.2076 104.235 91.3335C104.247 91.4511 104.089 91.7505 103.773 91.9274C103.491 92.1643 103.046 92.2455 102.981 92.1254C102.859 91.9811 101.067 88.6295 101.067 87.5059C101.067 86.6359 101.176 84.2617 101.661 82.5565C102.136 80.8237 103.076 79.8621 104.565 79.3888C104.618 79.3438 105.507 79.1249 105.885 79.1249C108.356 79.1249 110.372 81.1419 110.372 83.6124C110.372 83.9229 110.344 84.2151 110.306 84.4703L109.382 89.1557C108.696 89.7352 107.706 90.0213 106.413 90.0136C105.089 90.0213 104.116 89.7721 103.509 89.2877C103.593 89.5639 103.708 89.8863 103.839 90.2116Z" fill="url(#paint4_linear)"/>
<path fill-rule="evenodd" clip-rule="evenodd" d="M107.139 78.6244V79.3559C107.139 79.9937 106.622 80.5107 105.984 80.5107C105.346 80.5107 104.829 79.9937 104.829 79.3559V78.687C105.159 78.7574 105.512 78.7949 105.885 78.7949C106.346 78.7949 106.763 78.7325 107.139 78.6244L107.139 78.6244Z" fill="#DD784D"/>
<path fill-rule="evenodd" clip-rule="evenodd" d="M107.124 79.5409C106.889 79.6549 106.625 79.7188 106.347 79.7188C105.705 79.7188 105.143 79.3797 104.829 78.8708L104.829 78.687C105.159 78.7574 105.512 78.7949 105.885 78.7949C106.346 78.7949 106.763 78.7325 107.139 78.6244L107.139 79.3559C107.139 79.4188 107.134 79.4806 107.124 79.5409Z" fill="url(#paint5_linear)"/>
<mask id="mask3" mask-type="alpha" maskUnits="userSpaceOnUse" x="104" y="78" width="4" height="2">
<path fill-rule="evenodd" clip-rule="evenodd" d="M107.124 79.5409C106.889 79.6549 106.625 79.7188 106.347 79.7188C105.705 79.7188 105.143 79.3797 104.829 78.8708L104.829 78.687C105.159 78.7574 105.512 78.7949 105.885 78.7949C106.346 78.7949 106.763 78.7325 107.139 78.6244L107.139 79.3559C107.139 79.4188 107.134 79.4806 107.124 79.5409Z" fill="white"/>
</mask>
<g mask="url(#mask3)">
</g>
<path fill-rule="evenodd" clip-rule="evenodd" d="M100.209 73.7795C100.209 72.7573 101.159 72.5289 101.529 72.6576C103.514 73.3469 107.125 73.5605 109.778 72.3276C109.778 74.4939 110.212 75.3377 109.778 76.3532C109.345 77.3686 108.138 78.8609 105.885 78.8609C103.632 78.8609 102.148 77.4943 101.529 75.7592C100.633 75.7592 100.209 74.7858 100.209 73.7795Z" fill="#DD784D"/>
<path fill-rule="evenodd" clip-rule="evenodd" d="M101.53 72.6577C103.515 73.3469 107.125 73.5604 109.778 72.3276C109.778 73.2571 109.858 73.9431 109.915 74.5037C109.913 74.5043 109.912 74.5048 109.91 74.5054C107.296 75.4366 103.816 74.7567 101.53 72.6577Z" fill="url(#paint6_linear)"/>
<path fill-rule="evenodd" clip-rule="evenodd" d="M101.232 74.7694C101.579 74.7694 101.859 74.4887 101.859 74.1424C101.859 73.7962 101.579 73.5155 101.232 73.5155C100.886 73.5155 100.605 73.7962 100.605 74.1424C100.605 74.4887 100.886 74.7694 101.232 74.7694Z" fill="url(#paint7_linear)"/>
</g>
<rect x="93.5442" y="4.85046" width="69.6385" height="51.969" fill="#D8D8D8"/>
<mask id="mask4" mask-type="alpha" maskUnits="userSpaceOnUse" x="93" y="4" width="71" height="53">
<rect x="93.5442" y="4.85046" width="69.6385" height="51.969" fill="white"/>
</mask>
<g mask="url(#mask4)">
<path fill-rule="evenodd" clip-rule="evenodd" d="M115.544 66.5203C135.157 66.5203 151.057 50.6209 151.057 31.0081C151.057 11.3953 135.157 -4.50403 115.544 -4.50403C95.9316 -4.50403 80.0322 11.3953 80.0322 31.0081C80.0322 50.6209 95.9316 66.5203 115.544 66.5203Z" fill="#66D4F2"/>
<path fill-rule="evenodd" clip-rule="evenodd" d="M160.238 42.2681C175.067 42.2681 187.088 30.2466 187.088 15.4174C187.088 0.588222 175.067 -11.4332 160.238 -11.4332C145.409 -11.4332 133.387 0.588222 133.387 15.4174C133.387 30.2466 145.409 42.2681 160.238 42.2681Z" fill="#287CA6"/>
<path fill-rule="evenodd" clip-rule="evenodd" d="M150.017 92.5048C170.108 92.5048 186.396 76.2177 186.396 56.1265C186.396 36.0353 170.108 19.7482 150.017 19.7482C129.926 19.7482 113.639 36.0353 113.639 56.1265C113.639 76.2177 129.926 92.5048 150.017 92.5048Z" fill="#287CA6"/>
</g>
<rect x="93.5442" y="56.8195" width="69.6385" height="1.7323" fill="#ECDFF7"/>
<rect x="93.5442" y="56.8195" width="30.142" height="1.7323" fill="#66D4F2"/>
<path fill-rule="evenodd" clip-rule="evenodd" d="M120.741 60.6305C122.368 60.6305 123.686 59.3121 123.686 57.6856C123.686 56.0592 122.368 54.7407 120.741 54.7407C119.115 54.7407 117.796 56.0592 117.796 57.6856C117.796 59.3121 119.115 60.6305 120.741 60.6305Z" fill="#66D4F2"/>
</g>
<path fill-rule="evenodd" clip-rule="evenodd" d="M88.6938 82.804C79.7473 84.3194 72.7566 90.5458 72.7566 96.6624C72.7566 102.964 82.194 110.153 86.2685 112.946C90.2949 115.628 98.0156 113.139 97.3553 105.67C96.5006 97.9571 88.6644 92.9072 88.6938 89.7332C88.6644 86.5513 88.6644 87.4411 88.6938 82.804Z" fill="#DD784D"/>
<path fill-rule="evenodd" clip-rule="evenodd" d="M88.6938 82.804C79.7473 84.3194 72.7566 90.5458 72.7566 96.6624C72.7566 102.964 82.194 110.153 86.2685 112.946C90.2949 115.628 98.0156 113.139 97.3553 105.67C96.5006 97.9571 88.6644 92.9072 88.6938 89.7332C88.6644 86.5513 88.6644 87.4411 88.6938 82.804Z" fill="url(#paint8_linear)"/>
<path fill-rule="evenodd" clip-rule="evenodd" d="M88.6938 54.0478C84.2468 53.5158 77.4485 52.8876 75.1818 57.8588C72.5843 63.1519 77.7785 68.4875 88.6938 74.1425V54.0478Z" fill="#DD784D"/>
<path fill-rule="evenodd" clip-rule="evenodd" d="M88.6938 54.0478C84.2468 53.5158 77.4485 52.8876 75.1818 57.8588C72.5843 63.1519 77.7785 68.4875 88.6938 74.1425V54.0478Z" fill="url(#paint9_linear)"/>
<path fill-rule="evenodd" clip-rule="evenodd" d="M182.584 56.473C183.959 70.0695 187.624 96.8024 201.64 130.962C206.489 141.968 199.173 167.769 201.64 181.892C201.928 182.256 152.685 176.884 160.065 134.773C167.806 92.8042 166.782 87.0544 166.647 80.3788C166.782 67.2006 167.429 54.9077 181.545 54.7407C182.465 54.7886 182.547 55.8227 182.584 56.473Z" fill="#DD784D"/>
<path fill-rule="evenodd" clip-rule="evenodd" d="M174.377 56.1891C176.27 55.2559 178.623 54.7407 181.545 54.7407C182.272 54.7407 182.352 55.8078 182.584 56.473C183.766 70.0549 187.42 96.7592 201.64 130.962C206.231 141.876 198.936 167.65 201.64 181.892C204.43 196.246 208.738 199.882 225.546 229.01C229.925 236.565 228.092 244.137 222.832 250.583C209.116 227.756 198.794 210.118 191.864 197.67C180.193 176.702 194.48 158.291 186.48 135.639C179.119 114.798 174.99 70.2031 174.377 56.1891H174.377Z" fill="url(#paint10_linear)"/>
<path fill-rule="evenodd" clip-rule="evenodd" d="M69.6385 224.506C77.1197 212.514 98.7426 209.815 109.828 193.671C120.668 177.617 140.844 130.815 139.277 126.112C137.547 121.386 124.48 120.855 117.796 133.387C111.367 145.96 105.106 160.205 102.552 159.025C99.9285 157.836 113.097 131.404 117.796 122.993C122.751 114.452 153.381 83.3564 150.364 73.4496C147.664 63.4827 137.036 71.2371 122.647 85.5757C108.465 99.7737 100.381 108.689 97.0088 109.828C93.7926 110.634 84.6901 106.198 75.1818 111.907C66.0105 117.331 64.2862 121.282 59.2447 122.993C54.4963 124.574 42.4909 126.1 37.7641 138.931C32.6935 151.8 27.0473 196.766 23.9057 202.333C20.59 207.739 3.18088 230.423 0.346462 242.176C-4.46584 261.863 43.7211 280.695 59.2447 257.42C67.8845 244.669 62.3087 236.598 69.6385 224.506Z" fill="#DD784D"/>
<mask id="mask5" mask-type="alpha" maskUnits="userSpaceOnUse" x="0" y="68" width="151" height="201">
<path fill-rule="evenodd" clip-rule="evenodd" d="M69.6385 224.506C77.1197 212.514 98.7426 209.815 109.828 193.671C120.668 177.617 140.844 130.815 139.277 126.112C137.547 121.386 124.48 120.855 117.796 133.387C111.367 145.96 105.106 160.205 102.552 159.025C99.9285 157.836 113.097 131.404 117.796 122.993C122.751 114.452 153.381 83.3564 150.364 73.4496C147.664 63.4827 137.036 71.2371 122.647 85.5757C108.465 99.7737 100.381 108.689 97.0088 109.828C93.7926 110.634 84.6901 106.198 75.1818 111.907C66.0105 117.331 64.2862 121.282 59.2447 122.993C54.4963 124.574 42.4909 126.1 37.7641 138.931C32.6935 151.8 27.0473 196.766 23.9057 202.333C20.59 207.739 3.18088 230.423 0.346462 242.176C-4.46584 261.863 43.7211 280.695 59.2447 257.42C67.8845 244.669 62.3087 236.598 69.6385 224.506Z" fill="white"/>
<path fill-rule="evenodd" clip-rule="evenodd" d="M69.6385 224.506C77.1197 212.514 98.7426 209.815 109.828 193.671C120.668 177.617 140.844 130.815 139.277 126.112C137.547 121.386 124.48 120.855 117.796 133.387C111.367 145.96 105.106 160.205 102.552 159.025C99.9285 157.836 113.097 131.404 117.796 122.993C122.751 114.452 153.381 83.3564 150.364 73.4496C147.664 63.4827 137.036 71.2371 122.647 85.5757C108.465 99.7737 100.381 108.689 97.0088 109.828C93.7926 110.634 84.6901 106.198 75.1818 111.907C66.0105 117.331 64.2862 121.282 59.2447 122.993C54.4963 124.574 42.4909 126.1 37.7641 138.931C32.6935 151.8 27.0473 196.766 23.9057 202.333C20.59 207.739 3.18088 230.423 0.346462 242.176C-4.46584 261.863 43.7211 280.695 59.2447 257.42C67.8845 244.669 62.3087 236.598 69.6385 224.506Z" stroke="white"/>
</mask>
<g mask="url(#mask5)">
<path fill-rule="evenodd" clip-rule="evenodd" d="M41.4331 267.846C48.575 240.532 55.2051 222.736 61.3235 214.459C73.4501 198.469 91.9824 193.479 99.7806 185.703C106.637 178.609 124.259 140.339 138.455 124.848C138.827 125.223 139.107 125.647 139.277 126.112C140.844 130.815 120.668 177.617 109.828 193.671C98.7427 209.815 77.1197 212.514 69.6385 224.506C62.3088 236.598 67.8845 244.669 59.2447 257.42C55.0957 263.641 48.6133 266.854 41.4331 267.846Z" fill="url(#paint11_linear)"/>
<path fill-rule="evenodd" clip-rule="evenodd" d="M117.796 122.993C113.492 130.638 102.955 153.512 102.552 159.025C96.779 159.025 101.697 135.098 113.639 118.489C121.61 107.311 136.984 86.3017 150.364 74.8354C150.699 85.9496 122.407 114.928 117.796 122.993Z" fill="url(#paint12_linear)"/>
<path d="M100.895 105.24C101.176 104.98 101.614 104.997 101.874 105.277C102.135 105.558 102.118 105.996 101.838 106.256C101.636 106.444 101.428 106.634 101.212 106.83C101.271 106.776 94.6381 112.528 92.5295 114.56C88.875 118.082 85.6651 121.83 82.5073 126.473C82.2921 126.79 81.8611 126.872 81.5446 126.657C81.2282 126.442 81.1461 126.011 81.3614 125.694C84.575 120.969 87.8469 117.148 91.5679 113.562C93.7077 111.5 100.365 105.727 100.282 105.802C100.494 105.61 100.698 105.423 100.895 105.24Z" fill="white"/>
<path d="M67.4135 117.169C63.2871 120.639 59.7833 124.166 56.3693 128.509C56.1328 128.81 55.6972 128.862 55.3963 128.626C55.0955 128.389 55.0433 127.954 55.2798 127.653C58.7567 123.23 62.3264 119.636 66.5216 116.108C68.252 114.653 69.1156 115.737 67.4135 117.169Z" fill="white"/>
</g>
<defs>
<linearGradient id="paint0_linear" x1="191.206" y1="168.185" x2="175.663" y2="129.254" gradientUnits="userSpaceOnUse">
<stop stop-color="#FF6663" stop-opacity="0.01"/>
<stop offset="1" stop-opacity="0.3"/>
</linearGradient>
<linearGradient id="paint1_linear" x1="88.6937" y1="0" x2="88.6937" y2="159.718" gradientUnits="userSpaceOnUse">
<stop stop-color="#393E41" stop-opacity="0.01"/>
<stop offset="1" stop-opacity="0.3"/>
</linearGradient>
<linearGradient id="paint2_linear" x1="93.5442" y1="65.1345" x2="93.5442" y2="88.2978" gradientUnits="userSpaceOnUse">
<stop stop-color="#1F1845" stop-opacity="0.01"/>
<stop offset="1" stop-opacity="0.2"/>
</linearGradient>
<linearGradient id="paint3_linear" x1="92.5024" y1="76.5817" x2="98.6518" y2="93.2656" gradientUnits="userSpaceOnUse">
<stop stop-opacity="0.646003"/>
<stop offset="1" stop-color="#1F1845" stop-opacity="0.01"/>
</linearGradient>
<linearGradient id="paint4_linear" x1="101.067" y1="79.1249" x2="101.067" y2="92.1804" gradientUnits="userSpaceOnUse">
<stop stop-color="#403F9F" stop-opacity="0.01"/>
<stop offset="1" stop-opacity="0.1"/>
</linearGradient>
<linearGradient id="paint5_linear" x1="103.674" y1="79.1716" x2="104.521" y2="80.9592" gradientUnits="userSpaceOnUse">
<stop stop-opacity="0.2"/>
<stop offset="1" stop-color="#FF6663" stop-opacity="0.01"/>
</linearGradient>
<linearGradient id="paint6_linear" x1="97.337" y1="73.6207" x2="98.7937" y2="78.3438" gradientUnits="userSpaceOnUse">
<stop stop-opacity="0.2"/>
<stop offset="1" stop-color="#FF6663" stop-opacity="0.01"/>
</linearGradient>
<linearGradient id="paint7_linear" x1="99.0085" y1="70.0336" x2="99.0085" y2="74.4812" gradientUnits="userSpaceOnUse">
<stop/>
<stop offset="1" stop-opacity="0.01"/>
</linearGradient>
<linearGradient id="paint8_linear" x1="80.0623" y1="101.326" x2="80.0623" y2="113.985" gradientUnits="userSpaceOnUse">
<stop stop-color="#C74D75" stop-opacity="0.01"/>
<stop offset="1" stop-color="#AF3B6E" stop-opacity="0.28943"/>
</linearGradient>
<linearGradient id="paint9_linear" x1="78.7077" y1="65.8432" x2="78.7077" y2="74.1424" gradientUnits="userSpaceOnUse">
<stop stop-color="#C74D75" stop-opacity="0.01"/>
<stop offset="1" stop-color="#AF3B6E" stop-opacity="0.28943"/>
</linearGradient>
<linearGradient id="paint10_linear" x1="147.565" y1="152.662" x2="247.332" y2="179.979" gradientUnits="userSpaceOnUse">
<stop stop-color="#FF6663" stop-opacity="0.01"/>
<stop offset="1" stop-opacity="0.1"/>
</linearGradient>
<linearGradient id="paint11_linear" x1="-7.53192" y1="196.347" x2="125.797" y2="287.656" gradientUnits="userSpaceOnUse">
<stop stop-color="#FF6663" stop-opacity="0.01"/>
<stop offset="1" stop-opacity="0.1"/>
</linearGradient>
<linearGradient id="paint12_linear" x1="175.482" y1="116.93" x2="101.39" y2="72.719" gradientUnits="userSpaceOnUse">
<stop stop-color="#FF6663" stop-opacity="0.01"/>
<stop offset="1" stop-opacity="0.1"/>
</linearGradient>
</defs>
</svg>
