<svg width="466" height="795" viewBox="0 0 466 795" fill="none" xmlns="http://www.w3.org/2000/svg">
<path fill-rule="evenodd" clip-rule="evenodd" d="M190.621 84.2458C190.621 61.3513 166.883 22.3824 171.714 18.9968C181.961 11.8159 197.828 44.1042 201.509 53.5305C205.189 62.9569 189.063 0 196.526 0C209.041 0 213.829 37.9299 213.829 43.0441C213.829 48.1583 229.204 30.1786 245.652 46.5382C262.1 62.8978 190.621 87.4086 190.621 84.2458Z" fill="#DD784D"/>
<path fill-rule="evenodd" clip-rule="evenodd" d="M190.621 84.2458C190.621 61.3513 166.883 22.3824 171.714 18.9968C181.961 11.8159 197.828 44.1042 201.509 53.5305C205.189 62.9569 189.063 0 196.526 0C209.041 0 213.829 37.9299 213.829 43.0441C213.829 48.1583 229.204 30.1786 245.652 46.5382C262.1 62.8978 190.621 87.4086 190.621 84.2458Z" fill="url(#paint0_linear)"/>
<path fill-rule="evenodd" clip-rule="evenodd" d="M174.67 733.095C180.826 737.533 197.248 735.167 207.103 739.345C219.258 743.759 231.299 768.51 212.508 771.845C192.815 773.211 163.807 768.51 151.968 763.095C139.978 758.139 142.038 743.177 143.319 731.845C146.96 734.222 152.421 735.399 159.535 735.595C165.965 735.399 171.043 734.564 174.67 733.095Z" fill="#282828"/>
<path fill-rule="evenodd" clip-rule="evenodd" d="M174.67 733.095C180.826 737.533 197.248 735.167 207.103 739.345C219.258 743.759 231.299 768.51 212.508 771.845C192.815 773.211 163.807 768.51 151.968 763.095C139.978 758.139 142.038 743.177 143.319 731.845C146.96 734.222 152.421 735.399 159.535 735.595C165.965 735.399 171.043 734.564 174.67 733.095Z" fill="url(#paint1_linear)"/>
<path fill-rule="evenodd" clip-rule="evenodd" d="M89.4425 731.845C88.4313 736.295 88.4589 742.205 90.6101 749.603C92.9676 763.158 78.4431 796.965 57.9186 794C36.5531 790.136 34.7576 763.158 46.2431 752.933C55.9945 744.723 57.3745 739.653 57.9186 732.955C61.3473 733.759 66.032 734.253 71.9293 734.065C78.9786 734.253 84.6757 733.447 89.4425 731.845Z" fill="#282828"/>
<path fill-rule="evenodd" clip-rule="evenodd" d="M89.4425 731.845C88.4313 736.295 88.4589 742.205 90.6101 749.603C92.9676 763.158 78.4431 796.965 57.9186 794C36.5531 790.136 34.7576 763.158 46.2431 752.933C55.9945 744.723 57.3745 739.653 57.9186 732.955C61.3473 733.759 66.032 734.253 71.9293 734.065C78.9786 734.253 84.6757 733.447 89.4425 731.845Z" fill="url(#paint2_linear)"/>
<path fill-rule="evenodd" clip-rule="evenodd" d="M53.2378 419.845C67.9164 375.687 149.694 395.976 163.238 419.845C173.202 436.743 178.893 534.89 195.238 722.845C192.701 732.784 183.225 738.444 167.238 739.845C150.394 742.095 139.931 739.578 135.238 732.845L114.238 515.845L101.238 729.845C100.265 736.849 90.2957 740.269 72.2378 739.845C53.1819 740.269 43.2121 736.849 42.2378 729.845C41.8295 565.449 34.0722 475.066 53.2378 419.845Z" fill="#287CA6"/>
<path fill-rule="evenodd" clip-rule="evenodd" d="M53.2378 419.845C67.9164 375.687 149.694 395.976 163.238 419.845C173.202 436.743 178.893 534.89 195.238 722.845C192.701 732.784 183.225 738.444 167.238 739.845C150.394 742.095 139.931 739.578 135.238 732.845L114.238 515.845L101.238 729.845C100.265 736.849 90.2957 740.269 72.2378 739.845C53.1819 740.269 43.2121 736.849 42.2378 729.845C41.8295 565.449 34.0722 475.066 53.2378 419.845Z" fill="url(#paint3_linear)"/>
<mask id="mask0" mask-type="alpha" maskUnits="userSpaceOnUse" x="40" y="393" width="156" height="348">
<path fill-rule="evenodd" clip-rule="evenodd" d="M53.2378 419.845C67.9164 375.687 149.694 395.976 163.238 419.845C173.202 436.743 178.893 534.89 195.238 722.845C192.701 732.784 183.225 738.444 167.238 739.845C150.394 742.095 139.931 739.578 135.238 732.845L114.238 515.845L101.238 729.845C100.265 736.849 90.2957 740.269 72.2378 739.845C53.1819 740.269 43.2121 736.849 42.2378 729.845C41.8295 565.449 34.0722 475.066 53.2378 419.845Z" fill="white"/>
<path fill-rule="evenodd" clip-rule="evenodd" d="M53.2378 419.845C67.9164 375.687 149.694 395.976 163.238 419.845C173.202 436.743 178.893 534.89 195.238 722.845C192.701 732.784 183.225 738.444 167.238 739.845C150.394 742.095 139.931 739.578 135.238 732.845L114.238 515.845L101.238 729.845C100.265 736.849 90.2957 740.269 72.2378 739.845C53.1819 740.269 43.2121 736.849 42.2378 729.845C41.8295 565.449 34.0722 475.066 53.2378 419.845Z" stroke="white"/>
</mask>
<g mask="url(#mask0)">
<path d="M115.696 543.692C115.696 544.244 115.248 544.692 114.696 544.692C114.143 544.692 113.696 544.244 113.696 543.692C113.696 541.651 113.678 540.801 113.529 534.584C113.343 526.841 113.301 522.104 113.444 516.927C113.92 499.838 116.493 488.744 122.54 484.394C122.988 484.071 123.613 484.173 123.936 484.622C124.258 485.07 124.156 485.695 123.708 486.017C118.381 489.85 115.901 500.543 115.444 516.983C115.301 522.115 115.343 526.825 115.528 534.536C115.678 540.776 115.696 541.627 115.696 543.692Z" fill="white"/>
</g>
<path fill-rule="evenodd" clip-rule="evenodd" d="M117.238 281.845C61.4409 288.817 53.2378 398.09 53.2378 419.845C53.2378 441.946 164.238 437.276 164.238 419.845C164.238 403.393 195.238 300.845 195.238 300.845C195.238 300.845 173.074 275.905 117.238 281.845Z" fill="#66D4F2"/>
<path fill-rule="evenodd" clip-rule="evenodd" d="M117.238 281.845C61.4409 288.817 53.2378 398.09 53.2378 419.845C53.2378 441.946 164.238 437.276 164.238 419.845C164.238 403.393 195.238 300.845 195.238 300.845C195.238 300.845 173.074 275.905 117.238 281.845Z" fill="url(#paint4_linear)"/>
<mask id="mask1" mask-type="alpha" maskUnits="userSpaceOnUse" x="53" y="280" width="143" height="155">
<path fill-rule="evenodd" clip-rule="evenodd" d="M117.238 281.845C61.4409 288.817 53.2378 398.09 53.2378 419.845C53.2378 441.946 164.238 437.276 164.238 419.845C164.238 403.393 195.238 300.845 195.238 300.845C195.238 300.845 173.074 275.905 117.238 281.845Z" fill="white"/>
<path fill-rule="evenodd" clip-rule="evenodd" d="M117.238 281.845C61.4409 288.817 53.2378 398.09 53.2378 419.845C53.2378 441.946 164.238 437.276 164.238 419.845C164.238 403.393 195.238 300.845 195.238 300.845C195.238 300.845 173.074 275.905 117.238 281.845Z" stroke="white"/>
</mask>
<g mask="url(#mask1)">
<path fill-rule="evenodd" clip-rule="evenodd" d="M63.1604 349.361C70.761 343.716 74.5906 430.07 68.4918 439.184C62.3929 448.299 47.2092 430.708 47.2092 430.708C47.2092 430.708 55.5599 355.005 63.1604 349.361Z" fill="url(#paint5_linear)"/>
<path fill-rule="evenodd" clip-rule="evenodd" d="M125.837 265.845C98.5097 283.004 136.516 319.423 153.207 345.843C169.898 372.263 147.742 387.102 151.751 400.406C155.76 413.711 174.643 416.964 184.62 400.406C194.598 383.849 184.524 359.354 175.626 345.843C166.727 332.332 172.014 318.727 161.489 297.281C150.963 275.835 149.833 273.835 125.837 265.845Z" fill="url(#paint6_linear)"/>
</g>
<path fill-rule="evenodd" clip-rule="evenodd" d="M265.79 722.631C276.672 727.811 297.319 756.46 290.158 772.812C282.25 790.868 250.238 780.265 242.513 768.885C234.789 757.504 238.886 726.958 238.693 721.333C245.94 725.667 258.155 730.462 265.79 722.631Z" fill="#282828"/>
<path fill-rule="evenodd" clip-rule="evenodd" d="M265.79 722.631C276.672 727.811 297.319 756.46 290.158 772.812C282.25 790.868 250.238 780.265 242.513 768.885C234.789 757.504 238.886 726.958 238.693 721.333C245.94 725.667 258.155 730.462 265.79 722.631Z" fill="url(#paint7_linear)"/>
<path fill-rule="evenodd" clip-rule="evenodd" d="M360.96 722.631C371.842 727.811 402.002 747.043 394.841 763.394C386.933 781.451 350.164 770.847 342.44 759.467C334.716 748.087 329.299 726.958 329.106 721.333C336.353 725.667 353.325 730.462 360.96 722.631Z" fill="#282828"/>
<path fill-rule="evenodd" clip-rule="evenodd" d="M360.96 722.631C371.842 727.811 402.002 747.043 394.841 763.394C386.933 781.451 350.164 770.847 342.44 759.467C334.716 748.087 329.299 726.958 329.106 721.333C336.353 725.667 353.325 730.462 360.96 722.631Z" fill="url(#paint8_linear)"/>
<path fill-rule="evenodd" clip-rule="evenodd" d="M262.735 49.2593C146.747 49.2593 166.238 173.833 166.238 218.844C166.238 263.532 174.45 362.059 237.712 367.793C300.673 374.156 335.222 354.08 344.563 299.212C354.8 244.758 378.722 49.2593 262.735 49.2593Z" fill="#287CA6"/>
<path fill-rule="evenodd" clip-rule="evenodd" d="M262.735 49.2593C146.747 49.2593 166.238 173.833 166.238 218.844C166.238 263.532 174.45 362.059 237.712 367.793C300.673 374.156 335.222 354.08 344.563 299.212C354.8 244.758 378.722 49.2593 262.735 49.2593Z" fill="url(#paint9_linear)"/>
<path fill-rule="evenodd" clip-rule="evenodd" d="M407.195 26.5813L426.182 7.74506C430.103 3.8554 436.434 3.88063 440.324 7.8014C441.704 9.19199 442.644 10.9571 443.03 12.8777L458.317 89.0951C458.977 92.3891 457.94 95.7948 455.555 98.1609L436.568 116.997C432.647 120.887 426.316 120.862 422.426 116.941C421.046 115.55 420.106 113.785 419.72 111.865L404.433 35.6471C403.773 32.3531 404.81 28.9474 407.195 26.5813Z" fill="#282828"/>
<path fill-rule="evenodd" clip-rule="evenodd" d="M434.225 4.89431C431.357 4.60774 428.388 5.55692 426.182 7.74529L407.195 26.5815C404.81 28.9477 403.773 32.3533 404.433 35.6473L419.72 111.865C420.106 113.785 421.046 115.55 422.426 116.941C424.364 118.895 426.909 119.881 429.46 119.898C420.624 120.467 414.946 119.481 412.426 116.941C411.046 115.55 410.106 113.785 409.72 111.865L394.433 35.6473C393.773 32.3533 394.81 28.9477 397.195 26.5815L416.182 7.74529C418.796 5.15219 424.814 4.18525 434.238 4.84447C434.233 4.86111 434.229 4.87772 434.225 4.89431V4.89431Z" fill="#4E4E4E"/>
<path fill-rule="evenodd" clip-rule="evenodd" d="M456.073 123.065C455.264 129.125 454.653 134.718 454.238 139.845C431.828 143.877 422.828 141.544 427.238 132.845C433.759 121.674 434.388 124.132 432.075 119.57C433.719 119.138 435.275 118.281 436.568 116.998L443.89 109.734C446.559 97.7021 455.353 86.601 450.89 82.6686C445.661 78.0619 442.192 88.8969 431.959 82.6686C421.726 76.4403 417.657 52.1579 424.924 46.7803C432.191 41.4027 450.297 48.5601 455.911 52.1579C461.525 55.7557 460.067 78.0429 464.222 89.255C468.378 100.467 458.187 105.084 456.238 121.845C456.189 122.267 456.134 122.674 456.073 123.065V123.065Z" fill="#DD784D"/>
<path fill-rule="evenodd" clip-rule="evenodd" d="M456.073 123.065C455.264 129.125 454.653 134.718 454.238 139.845C431.828 143.877 422.828 141.544 427.238 132.845C433.759 121.674 434.388 124.132 432.075 119.57C433.719 119.138 435.275 118.281 436.568 116.998L443.89 109.734C446.559 97.7021 455.353 86.601 450.89 82.6686C445.661 78.0619 442.192 88.8969 431.959 82.6686C421.726 76.4403 417.657 52.1579 424.924 46.7803C432.191 41.4027 450.297 48.5601 455.911 52.1579C461.525 55.7557 460.067 78.0429 464.222 89.255C468.378 100.467 458.187 105.084 456.238 121.845C456.189 122.267 456.134 122.674 456.073 123.065V123.065Z" fill="url(#paint10_linear)"/>
<path fill-rule="evenodd" clip-rule="evenodd" d="M344.238 398.845C365.643 454.435 369.686 686.333 368.391 712.099C368.151 736.659 328.138 730.367 322.727 722.458C318.05 713.303 295.676 483.101 290.263 483.142C285.111 483.101 281.025 708.394 276.111 722.458C269.707 735.276 238.011 732.174 233.301 722.458C226.676 711.496 193.4 479.42 229.238 398.845C233.152 390.045 339.278 385.965 344.238 398.845Z" fill="#287CA6"/>
<path fill-rule="evenodd" clip-rule="evenodd" d="M344.238 398.845C365.643 454.435 369.686 686.333 368.391 712.099C368.151 736.659 328.138 730.367 322.727 722.458C318.05 713.303 295.676 483.101 290.263 483.142C285.111 483.101 281.025 708.394 276.111 722.458C269.707 735.276 238.011 732.174 233.301 722.458C226.676 711.496 193.4 479.42 229.238 398.845C233.152 390.045 339.278 385.965 344.238 398.845Z" fill="url(#paint11_linear)"/>
<path fill-rule="evenodd" clip-rule="evenodd" d="M299.238 242.845C312.073 230.777 377.264 224.362 393.238 204.845C397.189 189.342 418.204 144.09 427.238 132.845C435.006 122.611 454.238 129.745 454.238 139.845C454.238 149.956 436.574 228.107 423.238 240.845C411.116 251.571 373.829 271.341 353.238 283.845C353.548 289.626 353.018 296.698 352.238 304.845C343.894 361.974 336.518 361.974 344.238 398.845C351.906 436.947 215.658 421.394 229.238 398.845C242.818 376.295 244.645 360.515 240.238 345.845C238.81 338.174 231.669 324.961 227.238 310.845C200.19 301.146 162.51 294.997 159.238 289.845C156.958 283.92 174.088 257.744 185.238 256.845C196.51 255.441 240.789 250.222 269.238 246.845C272.585 245.528 298.668 244.072 299.238 242.845Z" fill="#4DB2DD"/>
<path fill-rule="evenodd" clip-rule="evenodd" d="M299.238 242.845C312.073 230.777 377.264 224.362 393.238 204.845C397.189 189.342 418.204 144.09 427.238 132.845C435.006 122.611 454.238 129.745 454.238 139.845C454.238 149.956 436.574 228.107 423.238 240.845C411.116 251.571 373.829 271.341 353.238 283.845C353.548 289.626 353.018 296.698 352.238 304.845C343.894 361.974 336.518 361.974 344.238 398.845C351.906 436.947 215.658 421.394 229.238 398.845C242.818 376.295 244.645 360.515 240.238 345.845C238.81 338.174 231.669 324.961 227.238 310.845C200.19 301.146 162.51 294.997 159.238 289.845C156.958 283.92 174.088 257.744 185.238 256.845C196.51 255.441 240.789 250.222 269.238 246.845C272.585 245.528 298.668 244.072 299.238 242.845Z" fill="url(#paint12_linear)"/>
<mask id="mask2" mask-type="alpha" maskUnits="userSpaceOnUse" x="159" y="127" width="296" height="295">
<path fill-rule="evenodd" clip-rule="evenodd" d="M299.238 242.845C312.073 230.777 377.264 224.362 393.238 204.845C397.189 189.342 418.204 144.09 427.238 132.845C435.006 122.611 454.238 129.745 454.238 139.845C454.238 149.956 436.574 228.107 423.238 240.845C411.116 251.571 373.829 271.341 353.238 283.845C353.548 289.626 353.018 296.698 352.238 304.845C343.894 361.974 336.518 361.974 344.238 398.845C351.906 436.947 215.658 421.394 229.238 398.845C242.818 376.295 244.645 360.515 240.238 345.845C238.81 338.174 231.669 324.961 227.238 310.845C200.19 301.146 162.51 294.997 159.238 289.845C156.958 283.92 174.088 257.744 185.238 256.845C196.51 255.441 240.789 250.222 269.238 246.845C272.585 245.528 298.668 244.072 299.238 242.845Z" fill="white"/>
<path fill-rule="evenodd" clip-rule="evenodd" d="M299.238 242.845C312.073 230.777 377.264 224.362 393.238 204.845C397.189 189.342 418.204 144.09 427.238 132.845C435.006 122.611 454.238 129.745 454.238 139.845C454.238 149.956 436.574 228.107 423.238 240.845C411.116 251.571 373.829 271.341 353.238 283.845C353.548 289.626 353.018 296.698 352.238 304.845C343.894 361.974 336.518 361.974 344.238 398.845C351.906 436.947 215.658 421.394 229.238 398.845C242.818 376.295 244.645 360.515 240.238 345.845C238.81 338.174 231.669 324.961 227.238 310.845C200.19 301.146 162.51 294.997 159.238 289.845C156.958 283.92 174.088 257.744 185.238 256.845C196.51 255.441 240.789 250.222 269.238 246.845C272.585 245.528 298.668 244.072 299.238 242.845Z" stroke="white"/>
</mask>
<g mask="url(#mask2)">
<path fill-rule="evenodd" clip-rule="evenodd" d="M310.238 273.845C300.497 277.253 289.653 270.6 285.238 258.845C281.729 247.747 286.149 235.875 295.238 232.845C304.978 229.437 315.823 236.09 320.238 247.845C323.747 258.942 319.327 270.815 310.238 273.845Z" fill="white"/>
<path fill-rule="evenodd" clip-rule="evenodd" d="M278.238 278.845C269.071 282.168 258.319 275.34 254.238 263.845C250.779 252.394 255.418 240.621 265.238 237.845C274.405 234.522 285.157 241.35 289.238 252.845C292.697 264.295 288.057 276.068 278.238 278.845Z" fill="white"/>
</g>
<path fill-rule="evenodd" clip-rule="evenodd" d="M159.248 286.739C161.172 277.736 175.49 257.63 185.238 256.845C190.541 256.184 203.149 254.68 217.977 252.919C212.333 264.273 202.248 275.45 185.238 281.845C176.209 285.315 167.495 286.837 159.248 286.739Z" fill="url(#paint13_linear)"/>
<mask id="mask3" mask-type="alpha" maskUnits="userSpaceOnUse" x="159" y="252" width="59" height="35">
<path fill-rule="evenodd" clip-rule="evenodd" d="M159.248 286.739C161.172 277.736 175.49 257.63 185.238 256.845C190.541 256.184 203.149 254.68 217.977 252.919C212.333 264.273 202.248 275.45 185.238 281.845C176.209 285.315 167.495 286.837 159.248 286.739Z" fill="white"/>
</mask>
<g mask="url(#mask3)">
</g>
<path fill-rule="evenodd" clip-rule="evenodd" d="M33.2378 417.845C32.7383 425.437 23.9549 433.39 20.2378 433.845C16.346 433.39 20.0032 418.182 13.2378 417.845C5.54124 418.182 -3.83948 437.535 2.23779 449.845C8.12246 462.128 26.2948 465.969 40.2378 459.845C54.5116 454.52 57.2378 425.159 57.2378 417.845C57.2378 411.205 32.7383 410.927 33.2378 417.845Z" fill="#DD784D"/>
<path fill-rule="evenodd" clip-rule="evenodd" d="M33.2378 417.845C32.7383 425.437 23.9549 433.39 20.2378 433.845C16.346 433.39 20.0032 418.182 13.2378 417.845C5.54124 418.182 -3.83948 437.535 2.23779 449.845C8.12246 462.128 26.2948 465.969 40.2378 459.845C54.5116 454.52 57.2378 425.159 57.2378 417.845C57.2378 411.205 32.7383 410.927 33.2378 417.845Z" fill="url(#paint14_linear)"/>
<path fill-rule="evenodd" clip-rule="evenodd" d="M120.238 281.845C90.2805 281.845 4.23779 305.493 4.23779 325.845C4.23779 346.555 33.6827 408.992 33.2378 417.845C33.6827 426.474 57.2626 422.237 57.2378 417.845C57.2626 413.228 49.5496 355.274 44.2378 349.845C38.698 344.554 74.9857 354.734 91.2378 344.845C107.42 335.096 151.476 281.845 120.238 281.845Z" fill="#66D4F2"/>
<path fill-rule="evenodd" clip-rule="evenodd" d="M120.238 281.845C90.2805 281.845 4.23779 305.493 4.23779 325.845C4.23779 346.555 33.6827 408.992 33.2378 417.845C33.6827 426.474 57.2626 422.237 57.2378 417.845C57.2626 413.228 49.5496 355.274 44.2378 349.845C38.698 344.554 74.9857 354.734 91.2378 344.845C107.42 335.096 151.476 281.845 120.238 281.845Z" fill="url(#paint15_linear)"/>
<path d="M265.27 206.194H306.177V241.42C306.177 252.717 297.02 261.874 285.723 261.874V261.874C274.427 261.874 265.27 252.717 265.27 241.42V206.194Z" fill="#DD784D"/>
<path d="M265.27 206.194H306.177V241.42C306.177 252.717 297.02 261.874 285.723 261.874V261.874C274.427 261.874 265.27 252.717 265.27 241.42V206.194Z" fill="url(#paint16_linear)"/>
<path fill-rule="evenodd" clip-rule="evenodd" d="M306.177 232.885C301.335 235.594 295.843 237.682 289.706 238.916C283.122 240.24 274.416 240.21 265.27 238.079V206.194H306.177V232.885V232.885Z" fill="url(#paint17_linear)"/>
<path fill-rule="evenodd" clip-rule="evenodd" d="M215.8 182.651C215.881 171.021 207.238 167.419 207.238 160.049C207.238 152.272 215.113 149.1 219.347 154.079C219.431 153.869 219.517 153.661 219.605 153.456C223.445 145.231 223.689 149.704 252.216 141.732C281.442 131.273 290.844 107.908 314.594 118.124C314.721 122.439 319.167 136.112 321.533 146.132C322.566 150.505 331.007 156.181 332.85 175.947C334.694 195.713 320.122 222.799 289.706 228.916C271.805 232.516 238.223 226.105 222.745 194.696C219.257 194.417 215.86 191.035 215.8 182.651Z" fill="#DD784D"/>
<path fill-rule="evenodd" clip-rule="evenodd" d="M215.8 182.651C215.881 171.021 207.238 167.419 207.238 160.049C207.238 152.272 215.113 149.1 219.347 154.079C219.431 153.869 219.517 153.661 219.605 153.456C223.445 145.231 223.689 149.704 252.216 141.732C281.442 131.273 290.844 107.908 314.594 118.124C314.721 122.439 319.167 136.112 321.533 146.132C322.566 150.505 331.007 156.181 332.85 175.947C334.694 195.713 320.122 222.799 289.706 228.916C271.805 232.516 238.223 226.105 222.745 194.696C219.257 194.417 215.86 191.035 215.8 182.651Z" fill="url(#paint18_linear)"/>
<mask id="mask4" mask-type="alpha" maskUnits="userSpaceOnUse" x="207" y="115" width="127" height="115">
<path fill-rule="evenodd" clip-rule="evenodd" d="M215.8 182.651C215.881 171.021 207.238 167.419 207.238 160.049C207.238 152.272 215.113 149.1 219.347 154.079C219.431 153.869 219.517 153.661 219.605 153.456C223.445 145.231 223.689 149.704 252.216 141.732C281.442 131.273 290.844 107.908 314.594 118.124C314.721 122.439 319.167 136.112 321.533 146.132C322.566 150.505 331.007 156.181 332.85 175.947C334.694 195.713 320.122 222.799 289.706 228.916C271.805 232.516 238.223 226.105 222.745 194.696C219.257 194.417 215.86 191.035 215.8 182.651Z" fill="white"/>
<path fill-rule="evenodd" clip-rule="evenodd" d="M215.8 182.651C215.881 171.021 207.238 167.419 207.238 160.049C207.238 152.272 215.113 149.1 219.347 154.079C219.431 153.869 219.517 153.661 219.605 153.456C223.445 145.231 223.689 149.704 252.216 141.732C281.442 131.273 290.844 107.908 314.594 118.124C314.721 122.439 319.167 136.112 321.533 146.132C322.566 150.505 331.007 156.181 332.85 175.947C334.694 195.713 320.122 222.799 289.706 228.916C271.805 232.516 238.223 226.105 222.745 194.696C219.257 194.417 215.86 191.035 215.8 182.651Z" stroke="white"/>
</mask>
<g mask="url(#mask4)">
<path fill-rule="evenodd" clip-rule="evenodd" d="M219.238 152.845C219.238 152.845 254.29 156.766 275.199 146.937C296.109 137.108 305.632 130.879 330.111 137.039C354.591 143.199 316.238 95.8447 316.238 95.8447L224.238 109.845L219.238 152.845Z" fill="url(#paint19_linear)"/>
</g>
<path d="M130.238 264.9H166.389V292.388C166.389 302.371 158.296 310.463 148.313 310.463V310.463C138.33 310.463 130.238 302.371 130.238 292.388V264.9Z" fill="#DD784D"/>
<path d="M130.238 264.9H166.389V292.388C166.389 302.371 158.296 310.463 148.313 310.463V310.463C138.33 310.463 130.238 302.371 130.238 292.388V264.9Z" fill="url(#paint20_linear)"/>
<mask id="mask5" mask-type="alpha" maskUnits="userSpaceOnUse" x="130" y="264" width="37" height="47">
<path d="M130.238 264.9H166.389V292.388C166.389 302.371 158.296 310.463 148.313 310.463V310.463C138.33 310.463 130.238 302.371 130.238 292.388V264.9Z" fill="white"/>
<path d="M130.238 264.9H166.389V292.388C166.389 302.371 158.296 310.463 148.313 310.463V310.463C138.33 310.463 130.238 302.371 130.238 292.388V264.9Z" stroke="white"/>
</mask>
<g mask="url(#mask5)">
<path fill-rule="evenodd" clip-rule="evenodd" d="M130.238 267.335V254.9H166.389V279.66C161.856 280.802 157.42 281.456 153.101 281.668C155.643 285.402 158.07 290.316 161.489 297.281C172.014 318.727 166.727 332.332 175.626 345.843C184.524 359.354 194.598 383.849 184.62 400.406C174.643 416.964 155.76 413.711 151.751 400.406C147.742 387.102 169.898 372.263 153.207 345.843C136.516 319.423 98.5097 283.004 125.837 265.845C127.398 266.364 128.862 266.859 130.238 267.335Z" fill="url(#paint21_linear)"/>
</g>
<path fill-rule="evenodd" clip-rule="evenodd" d="M115.837 265.845C90.1976 281.944 122.071 314.998 139.891 340.84C141.064 342.541 161.551 337.694 160.625 333.394C158.477 323.423 158.843 312.266 151.489 297.281C140.963 275.835 139.833 273.835 115.837 265.845Z" fill="#4DB2DD"/>
<path fill-rule="evenodd" clip-rule="evenodd" d="M115.837 265.845C90.1976 281.944 122.071 314.998 139.891 340.84C141.064 342.541 161.551 337.694 160.625 333.394C158.477 323.423 158.843 312.266 151.489 297.281C140.963 275.835 139.833 273.835 115.837 265.845Z" fill="url(#paint22_linear)"/>
<path fill-rule="evenodd" clip-rule="evenodd" d="M160.625 333.394C161.551 337.693 162.945 341.772 165.626 345.843C174.524 359.354 184.598 383.849 174.62 400.406C164.643 416.964 145.76 413.711 141.751 400.406C137.742 387.101 159.898 372.263 143.207 345.843C142.176 344.211 141.064 342.541 139.891 340.84C141.064 342.541 161.551 337.693 160.625 333.394V333.394Z" fill="#DD784D"/>
<path fill-rule="evenodd" clip-rule="evenodd" d="M160.625 333.394C161.551 337.693 162.945 341.772 165.626 345.843C174.524 359.354 184.598 383.849 174.62 400.406C164.643 416.964 145.76 413.711 141.751 400.406C137.742 387.101 159.898 372.263 143.207 345.843C142.176 344.211 141.064 342.541 139.891 340.84C141.064 342.541 161.551 337.693 160.625 333.394V333.394Z" fill="url(#paint23_linear)"/>
<path fill-rule="evenodd" clip-rule="evenodd" d="M72.2378 233.845C67.3141 219.948 78.8716 212.071 84.2378 211.845C73.3116 188.74 69.2427 158.112 108.238 133.845C147 109.606 180.138 133.036 193.238 165.845C204.638 194.214 214.799 203.216 214.238 218.845C213.628 234.625 205.116 260.613 175.238 271.845C144.666 283.595 117.712 273.008 100.238 252.845C88.4568 257.677 77.7608 246.903 72.2378 233.845Z" fill="#DD784D"/>
<path fill-rule="evenodd" clip-rule="evenodd" d="M72.2378 233.845C67.3141 219.948 78.8716 212.071 84.2378 211.845C73.3116 188.74 69.2427 158.112 108.238 133.845C147 109.606 180.138 133.036 193.238 165.845C204.638 194.214 214.799 203.216 214.238 218.845C213.628 234.625 205.116 260.613 175.238 271.845C144.666 283.595 117.712 273.008 100.238 252.845C88.4568 257.677 77.7608 246.903 72.2378 233.845Z" fill="url(#paint24_linear)"/>
<mask id="mask6" mask-type="alpha" maskUnits="userSpaceOnUse" x="71" y="123" width="144" height="154">
<path fill-rule="evenodd" clip-rule="evenodd" d="M72.2378 233.845C67.3141 219.948 78.8716 212.071 84.2378 211.845C73.3116 188.74 69.2427 158.112 108.238 133.845C147 109.606 180.138 133.036 193.238 165.845C204.638 194.214 214.799 203.216 214.238 218.845C213.628 234.625 205.116 260.613 175.238 271.845C144.666 283.595 117.712 273.008 100.238 252.845C88.4568 257.677 77.7608 246.903 72.2378 233.845Z" fill="white"/>
<path fill-rule="evenodd" clip-rule="evenodd" d="M72.2378 233.845C67.3141 219.948 78.8716 212.071 84.2378 211.845C73.3116 188.74 69.2427 158.112 108.238 133.845C147 109.606 180.138 133.036 193.238 165.845C204.638 194.214 214.799 203.216 214.238 218.845C213.628 234.625 205.116 260.613 175.238 271.845C144.666 283.595 117.712 273.008 100.238 252.845C88.4568 257.677 77.7608 246.903 72.2378 233.845Z" stroke="white"/>
</mask>
<g mask="url(#mask6)">
<path fill-rule="evenodd" clip-rule="evenodd" d="M78.2104 214.323C78.2104 214.323 69.2427 158.112 108.238 133.845C145.793 110.361 178.069 131.623 191.956 162.808C187.619 165.392 182.576 166.876 177.238 166.876C174.024 166.876 170.942 166.401 168.059 165.519C162.191 172.05 153.95 176.535 144.651 177.625C139.851 190.89 128.802 201.309 115.165 205.221C115.213 205.773 115.238 206.332 115.238 206.897C115.238 217.395 106.731 225.906 96.2378 225.906C81.9117 225.906 78.2104 214.323 78.2104 214.323Z" fill="url(#paint25_linear)"/>
</g>
<path fill-rule="evenodd" clip-rule="evenodd" d="M193.755 139.55C198.87 143.196 202.238 149.173 202.238 155.845C202.238 161.95 199.743 167.258 195.365 170.958C194.662 169.326 193.952 167.623 193.238 165.845C191.08 160.441 188.379 155.292 185.199 150.568C180.23 154.517 173.968 156.876 167.238 156.876C164.024 156.876 160.942 156.4 158.059 155.519C152.191 162.05 143.95 166.535 134.651 167.625C129.851 180.89 118.802 191.309 105.165 195.221C105.213 195.773 105.238 196.332 105.238 196.896C105.238 207.395 96.7312 215.906 86.2378 215.906C83.4008 215.906 80.709 215.284 78.2912 214.169C74.8879 216.447 71.6417 220.401 71.1177 225.845C57.4097 218.243 48.2378 203.784 48.2378 186.891C48.2378 180.871 49.4773 175.119 51.7252 169.875C49.4766 164.629 48.2378 158.881 48.2378 152.874C48.2378 127.785 68.1611 107.851 93.2378 107.851C96.009 107.851 98.7252 108.115 101.362 108.621C108.143 100.186 118.559 94.8447 130.238 94.8447C138.701 94.8447 146.501 97.6493 152.735 102.404C157.013 100.136 161.947 98.8468 167.238 98.8468C183.03 98.8468 196.238 111.837 196.238 127.861C196.238 132.02 195.348 135.974 193.755 139.55V139.55Z" fill="#282828"/>
<path fill-rule="evenodd" clip-rule="evenodd" d="M193.755 139.55C198.87 143.196 202.238 149.173 202.238 155.845C202.238 161.95 199.743 167.258 195.365 170.958C194.662 169.326 193.952 167.623 193.238 165.845C191.08 160.441 188.379 155.292 185.199 150.568C180.23 154.517 173.968 156.876 167.238 156.876C164.024 156.876 160.942 156.4 158.059 155.519C152.191 162.05 143.95 166.535 134.651 167.625C129.851 180.89 118.802 191.309 105.165 195.221C105.213 195.773 105.238 196.332 105.238 196.896C105.238 207.395 96.7312 215.906 86.2378 215.906C83.4008 215.906 80.709 215.284 78.2912 214.169C74.8879 216.447 71.6417 220.401 71.1177 225.845C57.4097 218.243 48.2378 203.784 48.2378 186.891C48.2378 180.871 49.4773 175.119 51.7252 169.875C49.4766 164.629 48.2378 158.881 48.2378 152.874C48.2378 127.785 68.1611 107.851 93.2378 107.851C96.009 107.851 98.7252 108.115 101.362 108.621C108.143 100.186 118.559 94.8447 130.238 94.8447C138.701 94.8447 146.501 97.6493 152.735 102.404C157.013 100.136 161.947 98.8468 167.238 98.8468C183.03 98.8468 196.238 111.837 196.238 127.861C196.238 132.02 195.348 135.974 193.755 139.55V139.55Z" fill="url(#paint26_linear)"/>
<defs>
<linearGradient id="paint0_linear" x1="171.065" y1="0" x2="171.065" y2="84.524" gradientUnits="userSpaceOnUse">
<stop stop-color="#FFC62C" stop-opacity="0.01"/>
<stop offset="1" stop-color="#FF6663" stop-opacity="0.3"/>
</linearGradient>
<linearGradient id="paint1_linear" x1="142.238" y1="731.845" x2="142.238" y2="771.845" gradientUnits="userSpaceOnUse">
<stop stop-color="#A7A7EE" stop-opacity="0.01"/>
<stop offset="1" stop-color="#4C55A0" stop-opacity="0.2"/>
</linearGradient>
<linearGradient id="paint2_linear" x1="39.2378" y1="731.845" x2="39.2378" y2="794" gradientUnits="userSpaceOnUse">
<stop stop-color="#A7A7EE" stop-opacity="0.01"/>
<stop offset="1" stop-color="#4C55A0" stop-opacity="0.2"/>
</linearGradient>
<linearGradient id="paint3_linear" x1="40.2378" y1="393.845" x2="40.2378" y2="740.845" gradientUnits="userSpaceOnUse">
<stop stop-color="#403F9F" stop-opacity="0.01"/>
<stop offset="1" stop-opacity="0.2"/>
</linearGradient>
<linearGradient id="paint4_linear" x1="53.2378" y1="280.845" x2="53.2378" y2="434.845" gradientUnits="userSpaceOnUse">
<stop stop-color="#A7A7EE" stop-opacity="0.01"/>
<stop offset="1" stop-color="#4C55A0" stop-opacity="0.2"/>
</linearGradient>
<linearGradient id="paint5_linear" x1="35.058" y1="395.695" x2="80.5685" y2="407.563" gradientUnits="userSpaceOnUse">
<stop stop-color="#464D89" stop-opacity="0.3"/>
<stop offset="1" stop-color="#A7A7EE" stop-opacity="0.01"/>
</linearGradient>
<linearGradient id="paint6_linear" x1="79.9765" y1="338.741" x2="196.251" y2="396.58" gradientUnits="userSpaceOnUse">
<stop stop-color="#464D89" stop-opacity="0.3"/>
<stop offset="1" stop-color="#A7A7EE" stop-opacity="0.01"/>
</linearGradient>
<linearGradient id="paint7_linear" x1="237.778" y1="721.333" x2="237.778" y2="782.514" gradientUnits="userSpaceOnUse">
<stop stop-color="#403F9F" stop-opacity="0.01"/>
<stop offset="1" stop-opacity="0.1"/>
</linearGradient>
<linearGradient id="paint8_linear" x1="329.106" y1="721.333" x2="329.106" y2="773.097" gradientUnits="userSpaceOnUse">
<stop stop-color="#403F9F" stop-opacity="0.01"/>
<stop offset="1" stop-opacity="0.1"/>
</linearGradient>
<linearGradient id="paint9_linear" x1="165.004" y1="49.2593" x2="165.004" y2="368.927" gradientUnits="userSpaceOnUse">
<stop stop-color="#1F1845" stop-opacity="0.01"/>
<stop offset="1" stop-opacity="0.2"/>
</linearGradient>
<linearGradient id="paint10_linear" x1="421.238" y1="44.8447" x2="421.238" y2="141.76" gradientUnits="userSpaceOnUse">
<stop stop-color="#FF6663" stop-opacity="0.01"/>
<stop offset="1" stop-opacity="0.05"/>
</linearGradient>
<linearGradient id="paint11_linear" x1="212.888" y1="390.644" x2="212.888" y2="730.948" gradientUnits="userSpaceOnUse">
<stop stop-color="#1F1845" stop-opacity="0.01"/>
<stop offset="1" stop-opacity="0.2"/>
</linearGradient>
<linearGradient id="paint12_linear" x1="159.031" y1="127.863" x2="159.031" y2="421.952" gradientUnits="userSpaceOnUse">
<stop stop-color="#403F9F" stop-opacity="0.01"/>
<stop offset="1" stop-opacity="0.1"/>
</linearGradient>
<linearGradient id="paint13_linear" x1="129.884" y1="269.832" x2="159.14" y2="320.63" gradientUnits="userSpaceOnUse">
<stop stop-opacity="0.288581"/>
<stop offset="1" stop-color="#3E3D9C" stop-opacity="0.01"/>
</linearGradient>
<linearGradient id="paint14_linear" x1="0.237793" y1="412.845" x2="0.237793" y2="462.845" gradientUnits="userSpaceOnUse">
<stop stop-color="#FFC62C" stop-opacity="0.01"/>
<stop offset="1" stop-color="#FF6663" stop-opacity="0.3"/>
</linearGradient>
<linearGradient id="paint15_linear" x1="4.23779" y1="281.845" x2="4.23779" y2="422.845" gradientUnits="userSpaceOnUse">
<stop stop-color="#A7A7EE" stop-opacity="0.01"/>
<stop offset="1" stop-color="#4C55A0" stop-opacity="0.2"/>
</linearGradient>
<linearGradient id="paint16_linear" x1="265.27" y1="206.194" x2="265.27" y2="261.874" gradientUnits="userSpaceOnUse">
<stop stop-color="#FF6663" stop-opacity="0.01"/>
<stop offset="1" stop-opacity="0.05"/>
</linearGradient>
<linearGradient id="paint17_linear" x1="285.723" y1="189.385" x2="252.741" y2="229.517" gradientUnits="userSpaceOnUse">
<stop stop-opacity="0.3"/>
<stop offset="1" stop-color="#FF6663" stop-opacity="0.01"/>
</linearGradient>
<linearGradient id="paint18_linear" x1="207.238" y1="115.596" x2="207.238" y2="229.814" gradientUnits="userSpaceOnUse">
<stop stop-color="#FF6663" stop-opacity="0.01"/>
<stop offset="1" stop-opacity="0.05"/>
</linearGradient>
<linearGradient id="paint19_linear" x1="271.581" y1="77.1054" x2="231.892" y2="160.02" gradientUnits="userSpaceOnUse">
<stop stop-opacity="0.2"/>
<stop offset="1" stop-color="#FF6663" stop-opacity="0.01"/>
</linearGradient>
<linearGradient id="paint20_linear" x1="130.238" y1="264.9" x2="130.238" y2="310.463" gradientUnits="userSpaceOnUse">
<stop stop-color="#FFC62C" stop-opacity="0.01"/>
<stop offset="1" stop-color="#FF6663" stop-opacity="0.3"/>
</linearGradient>
<linearGradient id="paint21_linear" x1="152.499" y1="176.531" x2="33.0309" y2="231.809" gradientUnits="userSpaceOnUse">
<stop stop-opacity="0.2"/>
<stop offset="1" stop-color="#FFC42C" stop-opacity="0.01"/>
</linearGradient>
<linearGradient id="paint22_linear" x1="106.238" y1="265.845" x2="106.238" y2="341.189" gradientUnits="userSpaceOnUse">
<stop stop-color="#403F9F" stop-opacity="0.01"/>
<stop offset="1" stop-opacity="0.1"/>
</linearGradient>
<linearGradient id="paint23_linear" x1="139.891" y1="333.394" x2="139.891" y2="411.638" gradientUnits="userSpaceOnUse">
<stop stop-color="#FF6663" stop-opacity="0.01"/>
<stop offset="1" stop-opacity="0.05"/>
</linearGradient>
<linearGradient id="paint24_linear" x1="71.2378" y1="123.845" x2="71.2378" y2="276.845" gradientUnits="userSpaceOnUse">
<stop stop-color="#FFC62C" stop-opacity="0.01"/>
<stop offset="1" stop-color="#FF6663" stop-opacity="0.3"/>
</linearGradient>
<linearGradient id="paint25_linear" x1="134.245" y1="72.8213" x2="32.9563" y2="187.375" gradientUnits="userSpaceOnUse">
<stop stop-opacity="0.3"/>
<stop offset="1" stop-color="#FFC42C" stop-opacity="0.01"/>
</linearGradient>
<linearGradient id="paint26_linear" x1="48.2378" y1="94.8447" x2="48.2378" y2="225.845" gradientUnits="userSpaceOnUse">
<stop stop-color="#403F9F" stop-opacity="0.01"/>
<stop offset="1" stop-opacity="0.3"/>
</linearGradient>
</defs>
</svg>
