<svg width="304" height="599" viewBox="0 0 304 599" fill="none" xmlns="http://www.w3.org/2000/svg">
<path fill-rule="evenodd" clip-rule="evenodd" d="M43.6181 568.049C54.1905 525.32 149.267 500.443 214.66 500.443C280.181 500.443 325.598 544.764 266.678 574.04C208.1 603.327 33.8964 610.659 43.6181 568.049Z" fill="#F0F0F6"/>
<path fill-rule="evenodd" clip-rule="evenodd" d="M143.294 526.928C151.622 530.934 167.423 553.082 161.942 565.723C155.89 579.682 131.392 571.484 125.48 562.687C119.569 553.889 122.704 530.274 122.557 525.925C128.103 529.276 137.451 532.983 143.294 526.928Z" fill="#68CBED"/>
<path fill-rule="evenodd" clip-rule="evenodd" d="M143.294 526.928C151.622 530.934 167.423 553.082 161.942 565.723C155.89 579.682 131.392 571.484 125.48 562.687C119.569 553.889 122.704 530.274 122.557 525.925C128.103 529.276 137.451 532.983 143.294 526.928Z" fill="url(#paint0_linear)"/>
<path fill-rule="evenodd" clip-rule="evenodd" d="M216.127 526.928C224.454 530.934 247.536 545.801 242.056 558.442C236.004 572.401 207.865 564.204 201.953 555.406C196.042 546.608 191.897 530.274 191.75 525.925C197.295 529.276 210.284 532.983 216.127 526.928Z" fill="#68CBED"/>
<path fill-rule="evenodd" clip-rule="evenodd" d="M216.127 526.928C224.454 530.934 247.536 545.801 242.056 558.442C236.004 572.401 207.865 564.204 201.953 555.406C196.042 546.608 191.897 530.274 191.75 525.925C197.295 529.276 210.284 532.983 216.127 526.928Z" fill="url(#paint1_linear)"/>
<path fill-rule="evenodd" clip-rule="evenodd" d="M116.032 3.18415C69.4317 14.8135 69.051 47.034 41.7709 75.2613C14.4357 103.306 -19.2573 133.952 16.2891 162.627C44.46 184.46 12.8206 224.233 64.3405 260.186C116.388 296.569 263.827 227.628 263.827 162.627C263.827 96.9209 189.008 105.052 196.846 66.5246C204.466 28.0387 163.344 -8.42373 116.032 3.18415Z" fill="#287AA5"/>
<path fill-rule="evenodd" clip-rule="evenodd" d="M116.032 3.18415C69.4317 14.8135 69.051 47.034 41.7709 75.2613C14.4357 103.306 -19.2573 133.952 16.2891 162.627C44.46 184.46 12.8206 224.233 64.3405 260.186C116.388 296.569 263.827 227.628 263.827 162.627C263.827 96.9209 189.008 105.052 196.846 66.5246C204.466 28.0387 163.344 -8.42373 116.032 3.18415Z" fill="url(#paint2_linear)"/>
<mask id="mask0" mask-type="alpha" maskUnits="userSpaceOnUse" x="0" y="0" width="264" height="271">
<path fill-rule="evenodd" clip-rule="evenodd" d="M116.032 3.18415C69.4317 14.8135 69.051 47.034 41.7709 75.2613C14.4357 103.306 -19.2573 133.952 16.2891 162.627C44.46 184.46 12.8206 224.233 64.3405 260.186C116.388 296.569 263.827 227.628 263.827 162.627C263.827 96.9209 189.008 105.052 196.846 66.5246C204.466 28.0387 163.344 -8.42373 116.032 3.18415Z" fill="white"/>
<path fill-rule="evenodd" clip-rule="evenodd" d="M116.032 3.18415C69.4317 14.8135 69.051 47.034 41.7709 75.2613C14.4357 103.306 -19.2573 133.952 16.2891 162.627C44.46 184.46 12.8206 224.233 64.3405 260.186C116.388 296.569 263.827 227.628 263.827 162.627C263.827 96.9209 189.008 105.052 196.846 66.5246C204.466 28.0387 163.344 -8.42373 116.032 3.18415Z" stroke="white"/>
</mask>
<g mask="url(#mask0)">
<path fill-rule="evenodd" clip-rule="evenodd" d="M190.293 62.8843C190.293 62.8843 265.051 101.646 271.835 114.576C283.207 136.926 287.002 145.198 292.221 194.662C297.148 243.607 198.602 261.628 190.293 268.113C177.686 277.519 68.337 271.008 76.2197 168.055C80.3781 109.483 111.664 87.638 111.664 87.638L190.293 62.8843Z" fill="url(#paint3_linear)"/>
</g>
<path fill-rule="evenodd" clip-rule="evenodd" d="M202.67 279.116C234.688 314.084 224.774 499.453 223.784 519.373C223.6 538.359 192.978 533.495 188.837 527.381C185.258 520.303 173.323 348.249 169.18 348.28C165.237 348.249 156.923 516.508 153.163 527.381C148.262 537.29 124.005 534.892 120.4 527.381C115.33 518.906 90.8384 333.839 126.225 280.572C129.682 274.843 197.343 273.387 202.67 279.116Z" fill="#2879A4"/>
<path fill-rule="evenodd" clip-rule="evenodd" d="M202.67 279.116C234.688 314.084 224.774 499.453 223.784 519.373C223.6 538.359 192.978 533.495 188.837 527.381C185.258 520.303 173.323 348.249 169.18 348.28C165.237 348.249 156.923 516.508 153.163 527.381C148.262 537.29 124.005 534.892 120.4 527.381C115.33 518.906 90.8384 333.839 126.225 280.572C129.682 274.843 197.343 273.387 202.67 279.116Z" fill="url(#paint4_linear)"/>
<path fill-rule="evenodd" clip-rule="evenodd" d="M172.82 153.163C204.449 153.163 231.808 188.791 236.161 225.968C240.544 262.855 246.769 273.636 231.792 271.835C212.39 267.538 141.101 153.163 172.82 153.163Z" fill="#6ABFE8"/>
<path fill-rule="evenodd" clip-rule="evenodd" d="M172.82 153.163C204.449 153.163 231.808 188.791 236.161 225.968C240.544 262.855 246.769 273.636 231.792 271.835C212.39 267.538 141.101 153.163 172.82 153.163Z" fill="url(#paint5_linear)"/>
<path fill-rule="evenodd" clip-rule="evenodd" d="M172.82 153.163C204.449 153.163 231.808 188.791 236.161 225.968C240.544 262.855 246.769 273.636 231.792 271.835C212.39 267.538 141.101 153.163 172.82 153.163Z" fill="url(#paint6_linear)"/>
<path fill-rule="evenodd" clip-rule="evenodd" d="M100.015 176.46C100.364 200.586 102.082 270.527 121.857 279.116C142.024 287.203 192.685 283.485 202.67 279.116C212.196 274.488 220.623 168.64 190.293 156.803C160.741 145.269 100.364 152.055 100.015 176.46Z" fill="#68C2E9"/>
<path fill-rule="evenodd" clip-rule="evenodd" d="M100.015 176.46C100.364 200.586 102.082 270.527 121.857 279.116C142.024 287.203 192.685 283.485 202.67 279.116C212.196 274.488 220.623 168.64 190.293 156.803C160.741 145.269 100.364 152.055 100.015 176.46Z" fill="url(#paint7_linear)"/>
<mask id="mask1" mask-type="alpha" maskUnits="userSpaceOnUse" x="100" y="151" width="112" height="133">
<path fill-rule="evenodd" clip-rule="evenodd" d="M100.015 176.46C100.364 200.586 102.082 270.527 121.857 279.116C142.024 287.203 192.685 283.485 202.67 279.116C212.196 274.488 220.623 168.64 190.293 156.803C160.741 145.269 100.364 152.055 100.015 176.46Z" fill="white"/>
<path fill-rule="evenodd" clip-rule="evenodd" d="M100.015 176.46C100.364 200.586 102.082 270.527 121.857 279.116C142.024 287.203 192.685 283.485 202.67 279.116C212.196 274.488 220.623 168.64 190.293 156.803C160.741 145.269 100.364 152.055 100.015 176.46Z" stroke="white"/>
</mask>
<g mask="url(#mask1)">
<path fill-rule="evenodd" clip-rule="evenodd" d="M130.593 285.668C124.473 285.668 129.9 204.281 130.593 203.398C144.661 201.5 135.133 264.573 172.82 235.433C173.648 235.233 217.671 226.26 215.775 235.433C213.752 245.082 186.19 240.46 177.917 244.897C158.35 254.381 153.798 285.668 130.593 285.668Z" fill="url(#paint8_linear)"/>
</g>
<path fill-rule="evenodd" clip-rule="evenodd" d="M132.393 241.219C142.035 237.336 152.272 233.852 157.531 231.792C163.776 230.291 169.59 241.864 165.54 245.625C152.671 258.39 141.899 283.484 126.225 283.484C120.985 283.484 116.301 280.621 112.989 276.455C107.056 269.797 102.604 257.985 100.015 241.257C94.4176 205.998 91.0788 170.984 110.208 162.627C129.518 154.883 130.307 204.675 130.593 227.424C130.535 231.976 131.289 236.633 132.393 241.219Z" fill="#66C6EA"/>
<path fill-rule="evenodd" clip-rule="evenodd" d="M132.393 241.219C142.035 237.336 152.272 233.852 157.531 231.792C163.776 230.291 169.59 241.864 165.54 245.625C152.671 258.39 141.899 283.484 126.225 283.484C120.985 283.484 116.301 280.621 112.989 276.455C107.056 269.797 102.604 257.985 100.015 241.257C94.4176 205.998 91.0788 170.984 110.208 162.627C129.518 154.883 130.307 204.675 130.593 227.424C130.535 231.976 131.289 236.633 132.393 241.219Z" fill="url(#paint9_linear)"/>
<path fill-rule="evenodd" clip-rule="evenodd" d="M231.792 271.835C245.055 274.109 252.906 261.187 252.906 223.784C252.906 200.897 236.757 206.365 230.336 217.959C220.828 235.128 218.165 268.922 231.792 271.835Z" fill="#6ABFE8"/>
<path fill-rule="evenodd" clip-rule="evenodd" d="M231.792 271.835C245.055 274.109 252.906 261.187 252.906 223.784C252.906 200.897 236.757 206.365 230.336 217.959C220.828 235.128 218.165 268.922 231.792 271.835Z" fill="url(#paint10_linear)"/>
<path fill-rule="evenodd" clip-rule="evenodd" d="M232.52 212.863C232.52 212.863 251.986 212.873 252.906 212.863C253.775 212.873 271.522 211.316 291.493 203.398C304.114 198.818 305.715 205.609 302.413 212.863C300 216.938 296.074 221.258 291.493 223.784C279.21 229.225 253.183 216.098 252.906 223.784C253.183 234.679 230.864 225.979 230.336 217.96C230.321 216.544 231.316 214.669 232.52 212.863Z" fill="#DD784D"/>
<path fill-rule="evenodd" clip-rule="evenodd" d="M232.52 212.863C232.52 212.863 251.986 212.873 252.906 212.863C253.775 212.873 271.522 211.316 291.493 203.398C304.114 198.818 305.715 205.609 302.413 212.863C300 216.938 296.074 221.258 291.493 223.784C279.21 229.225 253.183 216.098 252.906 223.784C253.183 234.679 230.864 225.979 230.336 217.96C230.321 216.544 231.316 214.669 232.52 212.863Z" fill="url(#paint11_linear)"/>
<path fill-rule="evenodd" clip-rule="evenodd" d="M157.531 231.793C162.486 229.539 168.134 225.875 169.18 223.784C173.586 215.695 167.422 203.279 172.82 201.214C177.553 198.085 180.719 208.232 179.373 215.775C177.578 222.419 189.063 221.049 196.846 217.232C205.248 212.651 230.11 226.053 217.231 233.977C204.449 241.286 182.274 237.578 174.276 237.617C172.497 237.578 165.54 245.626 165.54 245.626C165.54 245.626 150.67 235.059 157.531 231.793Z" fill="#DD784D"/>
<path fill-rule="evenodd" clip-rule="evenodd" d="M157.531 231.793C162.486 229.539 168.134 225.875 169.18 223.784C173.586 215.695 167.422 203.279 172.82 201.214C177.553 198.085 180.719 208.232 179.373 215.775C177.578 222.419 189.063 221.049 196.846 217.232C205.248 212.651 230.11 226.053 217.231 233.977C204.449 241.286 182.274 237.578 174.276 237.617C172.497 237.578 165.54 245.626 165.54 245.626C165.54 245.626 150.67 235.059 157.531 231.793Z" fill="url(#paint12_linear)"/>
<path d="M142.242 127.681H173.548V153.527C173.548 162.172 166.54 169.18 157.895 169.18C149.25 169.18 142.242 162.172 142.242 153.527V127.681Z" fill="#DD784D"/>
<path d="M142.242 127.681H173.548V153.527C173.548 162.172 166.54 169.18 157.895 169.18C149.25 169.18 142.242 162.172 142.242 153.527V127.681Z" fill="url(#paint13_linear)"/>
<path fill-rule="evenodd" clip-rule="evenodd" d="M173.548 145.976C169.035 148.64 164.083 150.251 158.987 150.251C154.114 150.251 148.215 149.282 142.242 147.345V127.681H173.548V145.976V145.976Z" fill="url(#paint14_linear)"/>
<path fill-rule="evenodd" clip-rule="evenodd" d="M114.067 118.792C111.397 118.575 108.798 115.961 108.752 109.479C108.814 100.488 102.199 97.7038 102.199 92.0061C102.199 85.9942 108.226 83.5419 111.466 87.3909C111.531 87.2284 111.597 87.068 111.664 86.9097C114.602 80.551 119.683 82.8801 141.514 76.717C163.541 71.1759 172.117 54.9868 190.293 62.884C190.391 66.2205 190.272 77.3081 190.293 81.0853C190.272 84.542 194.662 89.0812 194.662 105.111C194.662 121.022 177.799 142.97 158.987 142.97C144.932 142.97 122.339 134.914 114.067 118.792Z" fill="#DD784D"/>
<path fill-rule="evenodd" clip-rule="evenodd" d="M114.067 118.792C111.397 118.575 108.798 115.961 108.752 109.479C108.814 100.488 102.199 97.7038 102.199 92.0061C102.199 85.9942 108.226 83.5419 111.466 87.3909C111.531 87.2284 111.597 87.068 111.664 86.9097C114.602 80.551 119.683 82.8801 141.514 76.717C163.541 71.1759 172.117 54.9868 190.293 62.884C190.391 66.2205 190.272 77.3081 190.293 81.0853C190.272 84.542 194.662 89.0812 194.662 105.111C194.662 121.022 177.799 142.97 158.987 142.97C144.932 142.97 122.339 134.914 114.067 118.792Z" fill="url(#paint15_linear)"/>
<path fill-rule="evenodd" clip-rule="evenodd" d="M111.506 87.291C111.558 87.1626 111.61 87.0355 111.664 86.9097C114.602 80.551 119.683 82.8801 141.514 76.717C163.541 71.1759 172.118 54.9868 190.293 62.884C190.347 64.7143 190.335 68.877 190.317 72.8859C183.26 71.9478 175.728 74.0367 167.724 79.1524C143.457 94.6612 121.95 89.1696 111.506 87.291H111.506Z" fill="url(#paint16_linear)"/>
<mask id="mask2" mask-type="alpha" maskUnits="userSpaceOnUse" x="111" y="60" width="80" height="30">
<path fill-rule="evenodd" clip-rule="evenodd" d="M111.506 87.291C111.558 87.1626 111.61 87.0355 111.664 86.9097C114.602 80.551 119.683 82.8801 141.514 76.717C163.541 71.1759 172.118 54.9868 190.293 62.884C190.347 64.7143 190.335 68.877 190.317 72.8859C183.26 71.9478 175.728 74.0367 167.724 79.1524C143.457 94.6612 121.95 89.1696 111.506 87.291H111.506Z" fill="white"/>
</mask>
<g mask="url(#mask2)">
</g>
<defs>
<linearGradient id="paint0_linear" x1="121.857" y1="525.925" x2="121.857" y2="573.224" gradientUnits="userSpaceOnUse">
<stop stop-color="#A7A7EE" stop-opacity="0.01"/>
<stop offset="1" stop-color="#4C55A0" stop-opacity="0.2"/>
</linearGradient>
<linearGradient id="paint1_linear" x1="191.75" y1="525.925" x2="191.75" y2="565.943" gradientUnits="userSpaceOnUse">
<stop stop-color="#A7A7EE" stop-opacity="0.01"/>
<stop offset="1" stop-color="#4C55A0" stop-opacity="0.2"/>
</linearGradient>
<linearGradient id="paint2_linear" x1="1" y1="1" x2="1" y2="270.379" gradientUnits="userSpaceOnUse">
<stop stop-color="#403F9F" stop-opacity="0.01"/>
<stop offset="1" stop-opacity="0.2"/>
</linearGradient>
<linearGradient id="paint3_linear" x1="-32.4792" y1="167.044" x2="175.682" y2="383.466" gradientUnits="userSpaceOnUse">
<stop stop-opacity="0.3"/>
<stop offset="1" stop-color="#1F1845" stop-opacity="0.01"/>
</linearGradient>
<linearGradient id="paint4_linear" x1="107.427" y1="275.479" x2="107.427" y2="533.944" gradientUnits="userSpaceOnUse">
<stop stop-color="#403F9F" stop-opacity="0.01"/>
<stop offset="1" stop-opacity="0.2"/>
</linearGradient>
<linearGradient id="paint5_linear" x1="164.812" y1="153.163" x2="164.812" y2="271.835" gradientUnits="userSpaceOnUse">
<stop stop-color="#A7A7EE" stop-opacity="0.01"/>
<stop offset="1" stop-color="#4C55A0" stop-opacity="0.2"/>
</linearGradient>
<linearGradient id="paint6_linear" x1="171.301" y1="259.506" x2="239.499" y2="261.931" gradientUnits="userSpaceOnUse">
<stop stop-color="#464D89" stop-opacity="0.6"/>
<stop offset="1" stop-color="#A7A7EE" stop-opacity="0.01"/>
</linearGradient>
<linearGradient id="paint7_linear" x1="100.015" y1="151.335" x2="100.015" y2="283.887" gradientUnits="userSpaceOnUse">
<stop stop-color="#A7A7EE" stop-opacity="0.01"/>
<stop offset="1" stop-color="#4C55A0" stop-opacity="0.2"/>
</linearGradient>
<linearGradient id="paint8_linear" x1="83.6339" y1="244.533" x2="165.712" y2="332.422" gradientUnits="userSpaceOnUse">
<stop stop-color="#464D89" stop-opacity="0.3"/>
<stop offset="1" stop-color="#A7A7EE" stop-opacity="0.01"/>
</linearGradient>
<linearGradient id="paint9_linear" x1="95.6535" y1="161.817" x2="95.6535" y2="283.484" gradientUnits="userSpaceOnUse">
<stop stop-color="#A7A7EE" stop-opacity="0.01"/>
<stop offset="1" stop-color="#4C55A0" stop-opacity="0.2"/>
</linearGradient>
<linearGradient id="paint10_linear" x1="222.383" y1="207.941" x2="222.383" y2="272.087" gradientUnits="userSpaceOnUse">
<stop stop-color="#A7A7EE" stop-opacity="0.01"/>
<stop offset="1" stop-color="#4C55A0" stop-opacity="0.2"/>
</linearGradient>
<linearGradient id="paint11_linear" x1="230.336" y1="201.942" x2="230.336" y2="228.88" gradientUnits="userSpaceOnUse">
<stop stop-color="#FFC62C" stop-opacity="0.01"/>
<stop offset="1" stop-color="#FF6663" stop-opacity="0.1"/>
</linearGradient>
<linearGradient id="paint12_linear" x1="155.347" y1="200.486" x2="155.347" y2="245.626" gradientUnits="userSpaceOnUse">
<stop stop-color="#FFC62C" stop-opacity="0.01"/>
<stop offset="1" stop-color="#FF6663" stop-opacity="0.1"/>
</linearGradient>
<linearGradient id="paint13_linear" x1="142.242" y1="127.681" x2="142.242" y2="169.18" gradientUnits="userSpaceOnUse">
<stop stop-color="#FFC62C" stop-opacity="0.01"/>
<stop offset="1" stop-color="#FF6663" stop-opacity="0.1"/>
</linearGradient>
<linearGradient id="paint14_linear" x1="157.895" y1="116.396" x2="136.482" y2="146.098" gradientUnits="userSpaceOnUse">
<stop stop-opacity="0.2"/>
<stop offset="1" stop-color="#FFC42C" stop-opacity="0.01"/>
</linearGradient>
<linearGradient id="paint15_linear" x1="102.199" y1="60.7529" x2="102.199" y2="142.97" gradientUnits="userSpaceOnUse">
<stop stop-color="#FFC62C" stop-opacity="0.01"/>
<stop offset="1" stop-color="#FF6663" stop-opacity="0.1"/>
</linearGradient>
<linearGradient id="paint16_linear" x1="150.919" y1="46.2388" x2="132.093" y2="97.3623" gradientUnits="userSpaceOnUse">
<stop stop-opacity="0.1"/>
<stop offset="1" stop-color="#FFC42C" stop-opacity="0.01"/>
</linearGradient>
</defs>
</svg>
