<svg width="505" height="552" viewBox="0 0 505 552" fill="none" xmlns="http://www.w3.org/2000/svg">
<path fill-rule="evenodd" clip-rule="evenodd" d="M164.236 0H354.319C377.428 0 396.161 18.7333 396.161 41.842V509.277C396.161 532.385 377.428 551.119 354.319 551.119H164.236C141.127 551.119 122.394 532.385 122.394 509.277V41.842C122.394 18.7333 141.127 0 164.236 0Z" fill="#282828"/>
<path fill-rule="evenodd" clip-rule="evenodd" d="M187.849 16.4833C187.849 16.4833 191.433 16.4833 191.433 20.0683C191.433 30.9671 198.565 35.6033 209.349 35.6033C226.99 35.6033 295.667 35.6033 308.489 35.6033C320.025 35.6033 326.405 30.9671 326.405 20.0683C326.405 16.4833 329.989 16.4833 329.989 16.4833L355.072 16.4833C368.266 16.4833 378.961 27.1837 378.961 40.3833V510.019C378.961 523.218 368.266 533.919 355.072 533.919H162.766C149.572 533.919 138.877 523.218 138.877 510.019V40.3833C138.877 27.1837 149.572 16.4833 162.766 16.4833L187.849 16.4833Z" fill="white"/>
<mask id="mask0" mask-type="alpha" maskUnits="userSpaceOnUse" x="138" y="16" width="241" height="518">
<path fill-rule="evenodd" clip-rule="evenodd" d="M187.849 16.4833C187.849 16.4833 191.433 16.4833 191.433 20.0683C191.433 30.9671 198.565 35.6033 209.349 35.6033C226.99 35.6033 295.667 35.6033 308.489 35.6033C320.025 35.6033 326.405 30.9671 326.405 20.0683C326.405 16.4833 329.989 16.4833 329.989 16.4833L355.072 16.4833C368.266 16.4833 378.961 27.1837 378.961 40.3833V510.019C378.961 523.218 368.266 533.919 355.072 533.919H162.766C149.572 533.919 138.877 523.218 138.877 510.019V40.3833C138.877 27.1837 149.572 16.4833 162.766 16.4833L187.849 16.4833Z" fill="white"/>
</mask>
<g mask="url(#mask0)">
<path fill-rule="evenodd" clip-rule="evenodd" d="M378.961 10.1894V553.829C378.961 554.707 378.727 555.419 378.438 555.419H139.4C139.111 555.419 138.877 554.707 138.877 553.829V10.1894C138.877 9.31154 139.111 8.59985 139.4 8.59985L378.438 8.59985C378.727 8.59985 378.961 9.31154 378.961 10.1894Z" fill="#4DB2DD"/>
<mask id="mask1" mask-type="alpha" maskUnits="userSpaceOnUse" x="138" y="8" width="241" height="548">
<path fill-rule="evenodd" clip-rule="evenodd" d="M378.961 10.1894V553.829C378.961 554.707 378.727 555.419 378.438 555.419H139.4C139.111 555.419 138.877 554.707 138.877 553.829V10.1894C138.877 9.31154 139.111 8.59985 139.4 8.59985L378.438 8.59985C378.727 8.59985 378.961 9.31154 378.961 10.1894Z" fill="white"/>
</mask>
<g mask="url(#mask1)">
<path fill-rule="evenodd" clip-rule="evenodd" d="M468.332 615.726C454.116 571.561 519.265 425.14 495.542 387.89C471.818 350.64 397.04 449.863 371.462 367.838C345.885 285.814 365.362 246.58 332.46 227.235C299.559 207.89 305.731 356.235 271.664 322.771C237.597 289.308 267.343 179.271 233.38 165.154C199.418 151.036 215.214 225.972 189.584 235.902C163.954 245.832 168.989 148.4 144.317 126.156C119.644 103.913 82.562 139.333 110.289 227.235C138.016 315.138 47.299 227.156 28.7351 267.841C10.1711 308.527 157.166 326.453 144.317 367.838C131.467 409.223 -43.5961 336.217 -7.43053 418.562C28.7351 500.907 189.584 405.907 189.584 469.627C189.584 533.347 110.289 483.746 110.289 551.739C110.289 619.732 482.548 659.89 468.332 615.726Z" fill="#287CA6"/>
</g>
<rect width="331.818" height="131.15" rx="65.5752" transform="matrix(-1 0 0 1 361.044 78.8336)" fill="url(#paint0_linear)"/>
<rect x="181.877" y="316.768" width="331.818" height="131.15" rx="65.5752" fill="url(#paint1_linear)"/>
</g>
<path d="M280.061 476.504C280.061 467.841 287.084 460.818 295.747 460.818H320.911C343.472 460.818 361.761 479.107 361.761 501.668V513.852H317.408C296.782 513.852 280.061 497.131 280.061 476.504Z" fill="url(#paint2_linear)"/>
<path d="M269.311 476.585C269.311 461.94 281.183 450.068 295.828 450.068H326.846C340.192 450.068 351.011 460.887 351.011 474.233V503.102H295.828C281.183 503.102 269.311 491.23 269.311 476.585Z" fill="#EDEDF3"/>
<path fill-rule="evenodd" clip-rule="evenodd" d="M310.161 492.352C318.869 492.352 325.928 485.293 325.928 476.585C325.928 467.877 318.869 460.818 310.161 460.818C301.453 460.818 294.394 467.877 294.394 476.585C294.394 485.293 301.453 492.352 310.161 492.352Z" fill="#FFC62C"/>
<path fill-rule="evenodd" clip-rule="evenodd" d="M310.161 492.352C318.869 492.352 325.928 485.293 325.928 476.585C325.928 467.877 318.869 460.818 310.161 460.818C301.453 460.818 294.394 467.877 294.394 476.585C294.394 485.293 301.453 492.352 310.161 492.352Z" fill="url(#paint3_linear)"/>
<path fill-rule="evenodd" clip-rule="evenodd" d="M304.428 476.585C306.011 476.585 307.294 475.301 307.294 473.718C307.294 472.135 306.011 470.851 304.428 470.851C302.844 470.851 301.561 472.135 301.561 473.718C301.561 475.301 302.844 476.585 304.428 476.585Z" fill="#313131"/>
<path fill-rule="evenodd" clip-rule="evenodd" d="M304.427 480.885C304.427 483.732 306.994 486.619 310.161 486.619C313.327 486.619 315.894 483.732 315.894 480.885C315.894 478.021 304.427 478.021 304.427 480.885Z" fill="#FD6563"/>
<path fill-rule="evenodd" clip-rule="evenodd" d="M315.894 476.585C317.477 476.585 318.761 475.301 318.761 473.718C318.761 472.135 317.477 470.851 315.894 470.851C314.311 470.851 313.027 472.135 313.027 473.718C313.027 475.301 314.311 476.585 315.894 476.585Z" fill="#313131"/>
<rect x="167.544" y="302.435" width="331.818" height="131.15" rx="65.5752" fill="#F0F0F6"/>
<rect x="167.544" y="302.435" width="331.818" height="131.15" rx="65.5752" fill="url(#paint4_linear)"/>
<path fill-rule="evenodd" clip-rule="evenodd" d="M426.62 419.252C454.92 419.252 477.861 396.31 477.861 368.01C477.861 339.71 454.92 316.768 426.62 316.768C398.319 316.768 375.378 339.71 375.378 368.01C375.378 396.31 398.319 419.252 426.62 419.252Z" fill="white"/>
<mask id="mask2" mask-type="alpha" maskUnits="userSpaceOnUse" x="375" y="316" width="103" height="104">
<path fill-rule="evenodd" clip-rule="evenodd" d="M426.62 419.252C454.92 419.252 477.861 396.31 477.861 368.01C477.861 339.71 454.92 316.768 426.62 316.768C398.319 316.768 375.378 339.71 375.378 368.01C375.378 396.31 398.319 419.252 426.62 419.252Z" fill="white"/>
</mask>
<g mask="url(#mask2)">
<path fill-rule="evenodd" clip-rule="evenodd" d="M425.084 369.19H466.72L464.118 419.933C463.866 431.59 454.219 440.751 442.649 440.751C431.444 440.751 422.482 431.845 422.482 420.584C422.482 420.557 422.489 420.256 422.482 419.933L425.084 369.19Z" fill="#DE794C"/>
<path fill-rule="evenodd" clip-rule="evenodd" d="M425.084 369.19H466.72L464.118 419.933C463.866 431.59 454.219 440.751 442.649 440.751C431.444 440.751 422.482 431.845 422.482 420.584C422.482 420.557 422.489 420.256 422.482 419.933L425.084 369.19Z" fill="url(#paint5_linear)"/>
<path fill-rule="evenodd" clip-rule="evenodd" d="M465.419 394.562C456.848 406.568 441.874 414.729 432.241 414.729C429.802 414.729 426.561 414.019 423.133 412.777L425.084 369.19H466.72L465.419 394.562Z" fill="url(#paint6_linear)"/>
</g>
<rect x="217.71" y="373.385" width="71.6669" height="10.75" rx="5.37502" fill="#DBDBE8"/>
<rect x="217.71" y="351.885" width="136.167" height="10.75" rx="5.37502" fill="#DBDBE8"/>
<rect x="217.71" y="330.385" width="136.167" height="10.75" rx="5.37502" fill="#DBDBE8"/>
<path fill-rule="evenodd" clip-rule="evenodd" d="M466.069 345.26C471.907 347.252 475.935 352.744 475.828 358.782C475.707 365.833 471.38 371.413 465.633 373.169C462.163 392.928 438.818 408.224 426.06 408.224C412.255 408.224 386.051 390.312 386.051 368.215C387.352 358.01 388.003 352.52 388.003 351.747C388.003 350.975 387.352 345.188 386.051 334.386C386.051 312.29 403.964 294.377 426.06 294.377C448.157 294.377 466.069 312.29 466.069 334.386V345.26Z" fill="#DD784D"/>
<path fill-rule="evenodd" clip-rule="evenodd" d="M466.069 345.26C471.907 347.252 475.935 352.744 475.828 358.782C475.707 365.833 471.38 371.413 465.633 373.169C462.163 392.928 438.818 408.224 426.06 408.224C412.255 408.224 386.051 390.312 386.051 368.215C387.352 358.01 388.003 352.52 388.003 351.747C388.003 350.975 387.352 345.188 386.051 334.386C386.051 312.29 403.964 294.377 426.06 294.377C448.157 294.377 466.069 312.29 466.069 334.386V345.26Z" fill="url(#paint7_linear)"/>
<path fill-rule="evenodd" clip-rule="evenodd" d="M465.953 384.147L466.72 369.191L466.07 358.046C459.474 354.382 455.01 347.345 455.01 339.265C455.01 337.463 455.232 335.712 455.651 334.039C455.331 334.053 455.009 334.061 454.685 334.061C443.797 334.061 434.831 325.83 433.669 315.251C430.398 316.881 426.71 317.797 422.808 317.797C417.007 317.797 411.68 315.773 407.493 312.392C405.652 313.351 403.559 313.893 401.339 313.893C398.364 313.893 395.617 312.919 393.399 311.273C390.122 315.895 387.801 321.244 386.726 327.03C381.536 322.615 378.245 316.036 378.245 308.689C378.245 296.177 387.791 285.894 399.998 284.728C403.495 275.537 412.389 269.005 422.808 269.005C427.159 269.005 431.245 270.144 434.782 272.141C440.039 267.363 447.022 264.451 454.685 264.451C470.405 264.451 483.263 276.705 484.227 292.182C495.734 294.296 504.452 304.378 504.452 316.496C504.452 323.29 501.711 329.445 497.274 333.913C497.713 335.624 497.947 337.417 497.947 339.265C497.947 346.392 494.474 352.708 489.128 356.613C489.366 357.95 489.49 359.327 489.49 360.733C489.49 373.49 478.659 383.864 465.953 384.147Z" fill="#282828"/>
<path fill-rule="evenodd" clip-rule="evenodd" d="M465.953 384.147L466.72 369.191L466.07 358.046C459.474 354.382 455.01 347.345 455.01 339.265C455.01 337.463 455.232 335.712 455.651 334.039C455.331 334.053 455.009 334.061 454.685 334.061C443.797 334.061 434.831 325.83 433.669 315.251C430.398 316.881 426.71 317.797 422.808 317.797C417.007 317.797 411.68 315.773 407.493 312.392C405.652 313.351 403.559 313.893 401.339 313.893C398.364 313.893 395.617 312.919 393.399 311.273C390.122 315.895 387.801 321.244 386.726 327.03C381.536 322.615 378.245 316.036 378.245 308.689C378.245 296.177 387.791 285.894 399.998 284.728C403.495 275.537 412.389 269.005 422.808 269.005C427.159 269.005 431.245 270.144 434.782 272.141C440.039 267.363 447.022 264.451 454.685 264.451C470.405 264.451 483.263 276.705 484.227 292.182C495.734 294.296 504.452 304.378 504.452 316.496C504.452 323.29 501.711 329.445 497.274 333.913C497.713 335.624 497.947 337.417 497.947 339.265C497.947 346.392 494.474 352.708 489.128 356.613C489.366 357.95 489.49 359.327 489.49 360.733C489.49 373.49 478.659 383.864 465.953 384.147Z" fill="url(#paint8_linear)"/>
<path fill-rule="evenodd" clip-rule="evenodd" d="M456.543 347.059C455.939 347.068 454.932 347.072 454.685 347.072C443.797 347.072 434.831 338.842 433.669 328.263C430.398 329.892 426.71 330.808 422.808 330.808C417.007 330.808 411.68 328.784 407.493 325.403C405.652 326.363 403.559 326.905 401.339 326.905C398.364 326.905 395.617 325.931 393.399 324.284C390.122 328.906 387.802 334.253 386.727 340.037C386.525 338.337 386.3 336.454 386.051 334.386C386.051 325.776 388.771 317.801 393.399 311.273C395.617 312.92 398.364 313.894 401.339 313.894C403.559 313.894 405.652 313.352 407.493 312.392C411.68 315.773 417.007 317.797 422.808 317.797C426.71 317.797 430.398 316.881 433.669 315.252C434.831 325.831 443.797 334.061 454.685 334.061C455.008 334.061 455.33 334.054 455.651 334.039C455.232 335.712 455.509 337.54 455.651 339.341C456.291 347.474 456.729 347.057 456.543 347.059Z" fill="url(#paint9_linear)"/>
<path d="M161.81 275.917C161.81 253.356 180.1 235.067 202.66 235.067H216.994C231.639 235.067 243.511 246.939 243.511 261.584C243.511 276.229 231.639 288.101 216.994 288.101H161.81V275.917Z" fill="url(#paint10_linear)"/>
<path d="M151.06 265.167C151.06 242.606 169.349 224.317 191.91 224.317H206.244C220.889 224.317 232.761 236.189 232.761 250.834C232.761 265.479 220.889 277.351 206.244 277.351H151.06V265.167Z" fill="#EDEDF3"/>
<path fill-rule="evenodd" clip-rule="evenodd" d="M191.91 266.601C200.618 266.601 207.677 259.542 207.677 250.834C207.677 242.126 200.618 235.067 191.91 235.067C183.203 235.067 176.144 242.126 176.144 250.834C176.144 259.542 183.203 266.601 191.91 266.601Z" fill="#FFC62C"/>
<path fill-rule="evenodd" clip-rule="evenodd" d="M191.91 266.601C200.618 266.601 207.677 259.542 207.677 250.834C207.677 242.126 200.618 235.067 191.91 235.067C183.203 235.067 176.144 242.126 176.144 250.834C176.144 259.542 183.203 266.601 191.91 266.601Z" fill="url(#paint11_linear)"/>
<path fill-rule="evenodd" clip-rule="evenodd" d="M186.177 250.834C187.76 250.834 189.044 249.551 189.044 247.967C189.044 246.384 187.76 245.101 186.177 245.101C184.594 245.101 183.311 246.384 183.311 247.967C183.311 249.551 184.594 250.834 186.177 250.834Z" fill="#313131"/>
<path d="M186.177 255.134C186.177 258.3 188.744 260.867 191.911 260.867C195.077 260.867 197.644 258.3 197.644 255.134" stroke="#313131" stroke-width="3" stroke-linecap="round" stroke-linejoin="round"/>
<path fill-rule="evenodd" clip-rule="evenodd" d="M197.644 250.834C199.227 250.834 200.511 249.551 200.511 247.967C200.511 246.384 199.227 245.101 197.644 245.101C196.061 245.101 194.777 246.384 194.777 247.967C194.777 249.551 196.061 250.834 197.644 250.834Z" fill="#313131"/>
<rect x="18.4765" y="68.0836" width="331.818" height="131.15" rx="65.5752" fill="#F0F0F6"/>
<rect x="18.4765" y="68.0836" width="331.818" height="131.15" rx="65.5752" fill="url(#paint12_linear)"/>
<rect x="163.96" y="160.534" width="78.8336" height="10.75" rx="5.37502" fill="#DBDBE8"/>
<rect x="163.96" y="139.034" width="136.167" height="10.75" rx="5.37502" fill="#DBDBE8"/>
<rect x="163.96" y="117.534" width="136.167" height="10.75" rx="5.37502" fill="#DBDBE8"/>
<rect x="163.96" y="96.034" width="136.167" height="10.75" rx="5.37502" fill="#DBDBE8"/>
<path fill-rule="evenodd" clip-rule="evenodd" d="M84.0516 184.901C112.352 184.901 135.293 161.959 135.293 133.659C135.293 105.359 112.352 82.4174 84.0516 82.4174C55.7515 82.4174 32.8098 105.359 32.8098 133.659C32.8098 161.959 55.7515 184.901 84.0516 184.901Z" fill="white"/>
<mask id="mask3" mask-type="alpha" maskUnits="userSpaceOnUse" x="32" y="82" width="104" height="103">
<path fill-rule="evenodd" clip-rule="evenodd" d="M84.0516 184.901C112.352 184.901 135.293 161.959 135.293 133.659C135.293 105.359 112.352 82.4174 84.0516 82.4174C55.7515 82.4174 32.8098 105.359 32.8098 133.659C32.8098 161.959 55.7515 184.901 84.0516 184.901Z" fill="white"/>
</mask>
<g mask="url(#mask3)">
<path fill-rule="evenodd" clip-rule="evenodd" d="M84.0517 144.767C92.1657 144.767 98.7434 155.801 98.7434 169.411V183.907C98.7434 197.518 92.1657 208.551 84.0517 208.551C75.9377 208.551 69.36 197.518 69.36 183.907V169.411C69.36 155.801 75.9377 144.767 84.0517 144.767Z" fill="#DE794C"/>
<path fill-rule="evenodd" clip-rule="evenodd" d="M84.0517 144.767C92.1657 144.767 98.7434 155.801 98.7434 169.411V183.907C98.7434 197.518 92.1657 208.551 84.0517 208.551C75.9377 208.551 69.36 197.518 69.36 183.907V169.411C69.36 155.801 75.9377 144.767 84.0517 144.767Z" fill="url(#paint13_linear)"/>
<path fill-rule="evenodd" clip-rule="evenodd" d="M98.7434 178.53C96.7564 178.947 94.7355 179.168 92.6939 179.168C85.8713 179.168 77.6014 177.294 69.36 173.765V167.343C69.36 159.229 75.9377 152.651 84.0517 152.651C92.1657 152.651 98.7434 159.229 98.7434 167.343V178.53Z" fill="url(#paint14_linear)"/>
</g>
<path fill-rule="evenodd" clip-rule="evenodd" d="M28.9471 64.3752C39.5243 34.6705 83.4213 26.0837 106.515 48.8544C129.814 72.0095 140.7 57.3144 153.056 67.6087C165.495 78.2166 153.098 97.6047 140.774 108.351C128.567 119.257 156.757 139.251 149.177 165.26C141.692 191.215 97.5305 149.538 51.3579 168.945C5.18533 188.352 -15.2712 133.566 12.7871 114.171C40.8455 94.7755 18.7765 94.4058 28.9471 64.3752Z" fill="#272728"/>
<path fill-rule="evenodd" clip-rule="evenodd" d="M28.9471 64.3752C39.5243 34.6705 83.4213 26.0837 106.515 48.8544C129.814 72.0095 140.7 57.3144 153.056 67.6087C165.495 78.2166 153.098 97.6047 140.774 108.351C128.567 119.257 156.757 139.251 149.177 165.26C141.692 191.215 97.5305 149.538 51.3579 168.945C5.18533 188.352 -15.2712 133.566 12.7871 114.171C40.8455 94.7755 18.7765 94.4058 28.9471 64.3752Z" fill="url(#paint15_linear)"/>
<mask id="mask4" mask-type="alpha" maskUnits="userSpaceOnUse" x="0" y="35" width="159" height="140">
<path fill-rule="evenodd" clip-rule="evenodd" d="M28.9471 64.3752C39.5243 34.6705 83.4213 26.0837 106.515 48.8544C129.814 72.0095 140.7 57.3144 153.056 67.6087C165.495 78.2166 153.098 97.6047 140.774 108.351C128.567 119.257 156.757 139.251 149.177 165.26C141.692 191.215 97.5305 149.538 51.3579 168.945C5.18533 188.352 -15.2712 133.566 12.7871 114.171C40.8455 94.7755 18.7765 94.4058 28.9471 64.3752Z" fill="white"/>
<path fill-rule="evenodd" clip-rule="evenodd" d="M28.9471 64.3752C39.5243 34.6705 83.4213 26.0837 106.515 48.8544C129.814 72.0095 140.7 57.3144 153.056 67.6087C165.495 78.2166 153.098 97.6047 140.774 108.351C128.567 119.257 156.757 139.251 149.177 165.26C141.692 191.215 97.5305 149.538 51.3579 168.945C5.18533 188.352 -15.2712 133.566 12.7871 114.171C40.8455 94.7755 18.7765 94.4058 28.9471 64.3752Z" stroke="white"/>
</mask>
<g mask="url(#mask4)">
<path fill-rule="evenodd" clip-rule="evenodd" d="M100.124 192.569C98.3296 193.761 96.771 195.191 95.5263 196.949C92.7116 200.802 89.0295 201.89 84.5998 201.317C73.9203 199.384 58.8383 186.401 37.8685 181.251C16.4034 157.137 33.5725 104.005 45.7535 125.812C55.2125 142.555 78.6901 136.086 116.211 106.411C133.399 134.25 138.38 156.519 131.078 173.021C129.007 177.768 127.187 181.483 125.311 184.578C116.252 186.929 106.672 188.166 100.124 192.569Z" fill="url(#paint16_linear)"/>
</g>
<path fill-rule="evenodd" clip-rule="evenodd" d="M39.1026 131.896C33.1537 121.84 42.1568 115.743 44.9035 120.274C46.2745 122.225 46.7193 124.081 46.8372 126.085C52.1092 135.054 72.0731 115.927 78.42 108.651C85.3469 100.977 86.3407 92.8951 91.311 108.651C94.8138 119.078 107.411 114.953 117.093 106.714C117.197 109.766 117.093 113.027 117.093 116.399C117.093 119.445 120.96 123.472 120.96 137.708C120.96 151.811 106.102 171.284 89.3773 171.284C76.6345 171.284 57.1217 162.7 48.1263 148.039C40.6315 148.03 45.3141 141.923 39.1026 131.896Z" fill="#DE794C"/>
<path fill-rule="evenodd" clip-rule="evenodd" d="M39.1026 131.896C33.1537 121.84 42.1568 115.743 44.9035 120.274C46.2745 122.225 46.7193 124.081 46.8372 126.085C52.1092 135.054 72.0731 115.927 78.42 108.651C85.3469 100.977 86.3407 92.8951 91.311 108.651C94.8138 119.078 107.411 114.953 117.093 106.714C117.197 109.766 117.093 113.027 117.093 116.399C117.093 119.445 120.96 123.472 120.96 137.708C120.96 151.811 106.102 171.284 89.3773 171.284C76.6345 171.284 57.1217 162.7 48.1263 148.039C40.6315 148.03 45.3141 141.923 39.1026 131.896Z" fill="url(#paint17_linear)"/>
<path d="M44.635 144.051C45.0308 144.051 45.3516 144.371 45.3516 144.767C45.3516 145.163 45.0308 145.484 44.635 145.484C44.3637 145.484 43.9144 146.027 43.5377 147.103C43.0989 148.357 42.8433 150.084 42.8433 151.934C42.8433 153.784 43.0989 155.511 43.5377 156.765C43.9144 157.841 44.3637 158.384 44.635 158.384C44.9062 158.384 45.3555 157.841 45.7322 156.765C46.171 155.511 46.4266 153.784 46.4266 151.934C46.4266 151.373 46.4033 150.821 46.3576 150.287C46.3238 149.893 46.6161 149.546 47.0105 149.512C47.4049 149.478 47.7519 149.77 47.7857 150.165C47.8349 150.74 47.86 151.332 47.86 151.934C47.86 156.276 46.6206 159.817 44.635 159.817C42.6493 159.817 41.4099 156.276 41.4099 151.934C41.4099 147.592 42.6493 144.051 44.635 144.051Z" fill="white"/>
<path fill-rule="evenodd" clip-rule="evenodd" d="M91.3283 121.689C86.3076 105.863 85.3055 114.012 78.3133 121.689C71.9226 129.084 55.2834 141.069 46.4266 126.229C51.7946 135.347 71.9226 116.064 78.3133 108.715C85.3055 100.992 86.3076 92.8432 91.3283 108.715C94.8503 119.241 107.551 115.082 117.358 106.769C117.417 109.852 117.312 113.14 117.358 116.499C117.312 119.61 94.8503 132.261 91.3283 121.689Z" fill="url(#paint18_linear)"/>
<defs>
<linearGradient id="paint0_linear" x1="165.909" y1="-65.5752" x2="76.2427" y2="161.285" gradientUnits="userSpaceOnUse">
<stop stop-opacity="0.18266"/>
<stop offset="1" stop-opacity="0.01"/>
</linearGradient>
<linearGradient id="paint1_linear" x1="347.786" y1="251.193" x2="258.12" y2="478.053" gradientUnits="userSpaceOnUse">
<stop stop-opacity="0.18266"/>
<stop offset="1" stop-opacity="0.01"/>
</linearGradient>
<linearGradient id="paint2_linear" x1="320.911" y1="434.301" x2="272.471" y2="508.925" gradientUnits="userSpaceOnUse">
<stop stop-opacity="0.18266"/>
<stop offset="1" stop-opacity="0.01"/>
</linearGradient>
<linearGradient id="paint3_linear" x1="294.394" y1="460.818" x2="294.394" y2="492.352" gradientUnits="userSpaceOnUse">
<stop stop-color="#FFC62C" stop-opacity="0.01"/>
<stop offset="1" stop-color="#FF6663" stop-opacity="0.1"/>
</linearGradient>
<linearGradient id="paint4_linear" x1="167.544" y1="302.435" x2="167.544" y2="433.585" gradientUnits="userSpaceOnUse">
<stop stop-color="#F0F0F6" stop-opacity="0.01"/>
<stop offset="1" stop-opacity="0.03"/>
</linearGradient>
<linearGradient id="paint5_linear" x1="422.482" y1="369.19" x2="422.482" y2="440.751" gradientUnits="userSpaceOnUse">
<stop stop-color="#FFC62C" stop-opacity="0.01"/>
<stop offset="1" stop-color="#FF6663" stop-opacity="0.1"/>
</linearGradient>
<linearGradient id="paint6_linear" x1="441.452" y1="430.239" x2="486.608" y2="393.909" gradientUnits="userSpaceOnUse">
<stop stop-opacity="0.1"/>
<stop offset="1" stop-color="#FF6663" stop-opacity="0.01"/>
</linearGradient>
<linearGradient id="paint7_linear" x1="386.051" y1="294.377" x2="386.051" y2="408.224" gradientUnits="userSpaceOnUse">
<stop stop-color="#FFC62C" stop-opacity="0.01"/>
<stop offset="1" stop-color="#FF6663" stop-opacity="0.1"/>
</linearGradient>
<linearGradient id="paint8_linear" x1="378.245" y1="264.451" x2="378.245" y2="384.147" gradientUnits="userSpaceOnUse">
<stop stop-color="#1F1845" stop-opacity="0.01"/>
<stop offset="1" stop-opacity="0.2"/>
</linearGradient>
<linearGradient id="paint9_linear" x1="404.037" y1="308.036" x2="387.343" y2="347.617" gradientUnits="userSpaceOnUse">
<stop stop-opacity="0.1"/>
<stop offset="1" stop-color="#FF6663" stop-opacity="0.01"/>
</linearGradient>
<linearGradient id="paint10_linear" x1="202.661" y1="208.55" x2="154.221" y2="283.174" gradientUnits="userSpaceOnUse">
<stop stop-opacity="0.18266"/>
<stop offset="1" stop-opacity="0.01"/>
</linearGradient>
<linearGradient id="paint11_linear" x1="176.144" y1="235.067" x2="176.144" y2="266.601" gradientUnits="userSpaceOnUse">
<stop stop-color="#FFC62C" stop-opacity="0.01"/>
<stop offset="1" stop-color="#FF6663" stop-opacity="0.1"/>
</linearGradient>
<linearGradient id="paint12_linear" x1="18.4765" y1="68.0836" x2="18.4765" y2="199.234" gradientUnits="userSpaceOnUse">
<stop stop-color="#F0F0F6" stop-opacity="0.01"/>
<stop offset="1" stop-opacity="0.03"/>
</linearGradient>
<linearGradient id="paint13_linear" x1="69.36" y1="144.767" x2="69.36" y2="208.551" gradientUnits="userSpaceOnUse">
<stop stop-color="#FFC62C" stop-opacity="0.01"/>
<stop offset="1" stop-color="#FF6663" stop-opacity="0.1"/>
</linearGradient>
<linearGradient id="paint14_linear" x1="83.3797" y1="139.392" x2="57.1221" y2="169.82" gradientUnits="userSpaceOnUse">
<stop stop-opacity="0.35"/>
<stop offset="1" stop-color="#FFC62C" stop-opacity="0.01"/>
</linearGradient>
<linearGradient id="paint15_linear" x1="0" y1="35.9133" x2="0" y2="174.057" gradientUnits="userSpaceOnUse">
<stop stop-color="#403F9F" stop-opacity="0.01"/>
<stop offset="1" stop-opacity="0.2"/>
</linearGradient>
<linearGradient id="paint16_linear" x1="-25.6837" y1="153.936" x2="68.7357" y2="259.908" gradientUnits="userSpaceOnUse">
<stop stop-opacity="0.3"/>
<stop offset="1" stop-color="#1F1845" stop-opacity="0.01"/>
</linearGradient>
<linearGradient id="paint17_linear" x1="37.1689" y1="99.611" x2="37.1689" y2="171.278" gradientUnits="userSpaceOnUse">
<stop stop-color="#FFC62C" stop-opacity="0.01"/>
<stop offset="1" stop-color="#FF6663" stop-opacity="0.1"/>
</linearGradient>
<linearGradient id="paint18_linear" x1="81.9017" y1="82.7918" x2="55.802" y2="137.768" gradientUnits="userSpaceOnUse">
<stop stop-opacity="0.2"/>
<stop offset="1" stop-color="#FFC62C" stop-opacity="0.01"/>
</linearGradient>
</defs>
</svg>
