<svg width="326" height="294" viewBox="0 0 326 294" fill="none" xmlns="http://www.w3.org/2000/svg">
<path fill-rule="evenodd" clip-rule="evenodd" d="M4.49275 178.362H305.507C307.989 178.362 310 180.374 310 182.855V233.174C310 235.655 307.989 237.667 305.507 237.667H4.49275C2.01147 237.667 0 235.655 0 233.174V182.855C0 180.374 2.01147 178.362 4.49275 178.362Z" fill="#4E565C"/>
<path fill-rule="evenodd" clip-rule="evenodd" d="M4.49275 178.362H305.507C307.989 178.362 310 180.374 310 182.855V233.174C310 235.655 307.989 237.667 305.507 237.667H4.49275C2.01147 237.667 0 235.655 0 233.174V182.855C0 180.374 2.01147 178.362 4.49275 178.362Z" fill="url(#paint0_linear)"/>
<path fill-rule="evenodd" clip-rule="evenodd" d="M155 219.696C161.451 219.696 166.681 214.466 166.681 208.014C166.681 201.563 161.451 196.333 155 196.333C148.549 196.333 143.319 201.563 143.319 208.014C143.319 214.466 148.549 219.696 155 219.696Z" fill="#F2F5F9"/>
<rect x="153.203" y="202.623" width="3.5942" height="10.7826" rx="1.7971" fill="#B6C5D9"/>
<path fill-rule="evenodd" clip-rule="evenodd" d="M22.4638 237.667H56.6087V249.797C56.6087 250.542 56.0053 251.145 55.2609 251.145H23.8116C23.0672 251.145 22.4638 250.542 22.4638 249.797V237.667Z" fill="#393E41"/>
<path fill-rule="evenodd" clip-rule="evenodd" d="M22.4638 237.667H56.6087V249.797C56.6087 250.542 56.0053 251.145 55.2609 251.145H23.8116C23.0672 251.145 22.4638 250.542 22.4638 249.797V237.667Z" fill="url(#paint1_linear)"/>
<path fill-rule="evenodd" clip-rule="evenodd" d="M253.391 237.667H287.536V249.797C287.536 250.542 286.933 251.145 286.188 251.145H254.739C253.995 251.145 253.391 250.542 253.391 249.797V237.667Z" fill="#393E41"/>
<path fill-rule="evenodd" clip-rule="evenodd" d="M253.391 237.667H287.536V249.797C287.536 250.542 286.933 251.145 286.188 251.145H254.739C253.995 251.145 253.391 250.542 253.391 249.797V237.667Z" fill="url(#paint2_linear)"/>
<path fill-rule="evenodd" clip-rule="evenodd" d="M148.261 135.681H285.29C287.771 135.681 289.783 137.693 289.783 140.174V178.362H143.768V140.174C143.768 137.693 145.78 135.681 148.261 135.681Z" fill="#393E41"/>
<path fill-rule="evenodd" clip-rule="evenodd" d="M148.261 135.681H285.29C287.771 135.681 289.783 137.693 289.783 140.174V178.362H143.768V140.174C143.768 137.693 145.78 135.681 148.261 135.681Z" fill="url(#paint3_linear)"/>
<path fill-rule="evenodd" clip-rule="evenodd" d="M158.594 0L274.957 0C277.438 0 279.449 2.01147 279.449 4.49275V160.391C279.449 162.873 277.438 164.884 274.957 164.884H158.594C156.113 164.884 154.101 162.873 154.101 160.391V4.49275C154.101 2.01147 156.113 0 158.594 0Z" fill="#B6C5D9"/>
<path fill-rule="evenodd" clip-rule="evenodd" d="M158.594 0L274.957 0C277.438 0 279.449 2.01147 279.449 4.49275V160.391C279.449 162.873 277.438 164.884 274.957 164.884H158.594C156.113 164.884 154.101 162.873 154.101 160.391V4.49275C154.101 2.01147 156.113 0 158.594 0Z" fill="url(#paint4_linear)"/>
<path fill-rule="evenodd" clip-rule="evenodd" d="M164.429 8.98547H269.122C269.863 8.98547 270.464 9.55212 270.464 10.2511V146.097C270.464 146.796 269.863 147.362 269.122 147.362H164.429C163.688 147.362 163.087 146.796 163.087 146.097V10.2511C163.087 9.55212 163.688 8.98547 164.429 8.98547Z" fill="#F2F5F9"/>
<path fill-rule="evenodd" clip-rule="evenodd" d="M169.826 14.3767H263.275C264.02 14.3767 264.623 15.1282 264.623 16.0551V42.3505C264.623 43.2774 264.02 44.0289 263.275 44.0289H169.826C169.082 44.0289 168.478 43.2774 168.478 42.3505V16.0551C168.478 15.1282 169.082 14.3767 169.826 14.3767Z" fill="#287CA6"/>
<path fill-rule="evenodd" clip-rule="evenodd" d="M169.826 45.826H198.13C198.875 45.826 199.478 46.4295 199.478 47.1739V75.4782C199.478 76.2226 198.875 76.8261 198.13 76.8261H169.826C169.082 76.8261 168.478 76.2226 168.478 75.4782V47.1739C168.478 46.4295 169.082 45.826 169.826 45.826Z" fill="#4DB2DD"/>
<path fill-rule="evenodd" clip-rule="evenodd" d="M202.623 45.826H230.928C231.672 45.826 232.275 46.4295 232.275 47.1739V75.4782C232.275 76.2226 231.672 76.8261 230.928 76.8261H202.623C201.879 76.8261 201.275 76.2226 201.275 75.4782V47.1739C201.275 46.4295 201.879 45.826 202.623 45.826Z" fill="#4DB2DD"/>
<path fill-rule="evenodd" clip-rule="evenodd" d="M235.42 45.826H263.725C264.469 45.826 265.072 46.4295 265.072 47.1739V75.4782C265.072 76.2226 264.469 76.8261 263.725 76.8261H235.42C234.676 76.8261 234.072 76.2226 234.072 75.4782V47.1739C234.072 46.4295 234.676 45.826 235.42 45.826Z" fill="#4DB2DD"/>
<path fill-rule="evenodd" clip-rule="evenodd" d="M169.826 78.174H198.13C198.875 78.174 199.478 78.7774 199.478 79.5218V107.826C199.478 108.571 198.875 109.174 198.13 109.174H169.826C169.082 109.174 168.478 108.571 168.478 107.826V79.5218C168.478 78.7774 169.082 78.174 169.826 78.174Z" fill="#4DB2DD"/>
<path fill-rule="evenodd" clip-rule="evenodd" d="M202.623 78.174H230.928C231.672 78.174 232.275 78.7774 232.275 79.5218V107.826C232.275 108.571 231.672 109.174 230.928 109.174H202.623C201.879 109.174 201.275 108.571 201.275 107.826V79.5218C201.275 78.7774 201.879 78.174 202.623 78.174Z" fill="#4DB2DD"/>
<path fill-rule="evenodd" clip-rule="evenodd" d="M235.42 78.174H263.725C264.469 78.174 265.072 78.7774 265.072 79.5218V107.826C265.072 108.571 264.469 109.174 263.725 109.174H235.42C234.676 109.174 234.072 108.571 234.072 107.826V79.5218C234.072 78.7774 234.676 78.174 235.42 78.174Z" fill="#4DB2DD"/>
<path fill-rule="evenodd" clip-rule="evenodd" d="M169.826 110.971H198.13C198.875 110.971 199.478 111.575 199.478 112.319V140.623C199.478 141.368 198.875 141.971 198.13 141.971H169.826C169.082 141.971 168.478 141.368 168.478 140.623V112.319C168.478 111.575 169.082 110.971 169.826 110.971Z" fill="#4DB2DD"/>
<path fill-rule="evenodd" clip-rule="evenodd" d="M202.623 110.971H230.928C231.672 110.971 232.275 111.575 232.275 112.319V140.623C232.275 141.368 231.672 141.971 230.928 141.971H202.623C201.879 141.971 201.275 141.368 201.275 140.623V112.319C201.275 111.575 201.879 110.971 202.623 110.971Z" fill="#4DB2DD"/>
<path fill-rule="evenodd" clip-rule="evenodd" d="M235.42 110.971H263.725C264.469 110.971 265.072 111.575 265.072 112.319V140.623C265.072 141.368 264.469 141.971 263.725 141.971H235.42C234.676 141.971 234.072 141.368 234.072 140.623V112.319C234.072 111.575 234.676 110.971 235.42 110.971Z" fill="#4DB2DD"/>
<path fill-rule="evenodd" clip-rule="evenodd" d="M24.7102 116.362H130.29C132.771 116.362 134.783 118.374 134.783 120.855V178.362H20.2174V120.855C20.2174 118.374 22.2289 116.362 24.7102 116.362Z" fill="#393E41"/>
<path fill-rule="evenodd" clip-rule="evenodd" d="M24.7102 116.362H130.29C132.771 116.362 134.783 118.374 134.783 120.855V178.362H20.2174V120.855C20.2174 118.374 22.2289 116.362 24.7102 116.362Z" fill="url(#paint5_linear)"/>
<path fill-rule="evenodd" clip-rule="evenodd" d="M40.4348 129.841H87.6087C91.3306 129.841 94.3479 132.858 94.3479 136.58C94.3479 140.302 91.3306 143.319 87.6087 143.319H40.4348C36.7129 143.319 33.6957 140.302 33.6957 136.58C33.6957 132.858 36.7129 129.841 40.4348 129.841Z" fill="#6F7981"/>
<path fill-rule="evenodd" clip-rule="evenodd" d="M109.174 129.841H119.957C120.701 129.841 121.304 130.444 121.304 131.188V141.971C121.304 142.715 120.701 143.319 119.957 143.319H109.174C108.43 143.319 107.826 142.715 107.826 141.971V131.188C107.826 130.444 108.43 129.841 109.174 129.841Z" fill="#DD784D"/>
<path fill-rule="evenodd" clip-rule="evenodd" d="M99.5145 46.7247C92.9391 46.7247 87.6087 52.0551 87.6087 58.6305V143.319H40.4348V60.6523C40.4348 52.9603 46.6704 46.7247 54.3623 46.7247H99.7391C99.6632 46.7254 99.5889 46.7247 99.5145 46.7247Z" fill="#F2F5F9"/>
<path fill-rule="evenodd" clip-rule="evenodd" d="M99.5145 46.7247C92.9391 46.7247 87.6087 52.0551 87.6087 58.6305V143.319H40.4348V60.6523C40.4348 52.9603 46.6704 46.7247 54.3623 46.7247H99.7391C99.6632 46.7254 99.5889 46.7247 99.5145 46.7247Z" fill="url(#paint6_linear)"/>
<path fill-rule="evenodd" clip-rule="evenodd" d="M111.42 58.6305V91.2311C111.42 97.5237 116.408 102.651 122.646 102.876L122.652 102.884H87.6087V58.6305C87.6087 52.0551 92.9391 46.7247 99.5145 46.7247C106.09 46.7247 111.42 52.0551 111.42 58.6305Z" fill="#B6C5D9"/>
<path fill-rule="evenodd" clip-rule="evenodd" d="M146.688 58.8551C140.113 58.8551 134.783 64.1855 134.783 70.7609V71.3843L134.726 91.231C134.726 97.6668 129.509 102.884 123.073 102.884C116.638 102.884 111.42 97.6668 111.42 91.231V58.8551C111.42 58.8551 147.321 58.8551 146.688 58.8551Z" fill="#F2F5F9"/>
<path fill-rule="evenodd" clip-rule="evenodd" d="M146.688 58.8551C140.113 58.8551 134.783 64.1855 134.783 70.7609V71.3843L134.726 91.231C134.726 97.6668 129.509 102.884 123.073 102.884C116.638 102.884 111.42 97.6668 111.42 91.231V58.8551C111.42 58.8551 147.321 58.8551 146.688 58.8551Z" fill="url(#paint7_linear)"/>
<path fill-rule="evenodd" clip-rule="evenodd" d="M47.1739 92.1014H80.8695C82.1102 92.1014 83.1159 93.1072 83.1159 94.3478C83.1159 95.5885 82.1102 96.5942 80.8695 96.5942H47.1739C45.9333 96.5942 44.9275 95.5885 44.9275 94.3478C44.9275 93.1072 45.9333 92.1014 47.1739 92.1014Z" fill="#D6DFEA"/>
<path fill-rule="evenodd" clip-rule="evenodd" d="M47.1739 83.116H80.8695C82.1102 83.116 83.1159 84.1217 83.1159 85.3623C83.1159 86.603 82.1102 87.6087 80.8695 87.6087H47.1739C45.9333 87.6087 44.9275 86.603 44.9275 85.3623C44.9275 84.1217 45.9333 83.116 47.1739 83.116Z" fill="#D6DFEA"/>
<path fill-rule="evenodd" clip-rule="evenodd" d="M47.1739 74.1304H69.6377C70.8783 74.1304 71.884 75.1361 71.884 76.3767C71.884 77.6174 70.8783 78.6231 69.6377 78.6231H47.1739C45.9333 78.6231 44.9275 77.6174 44.9275 76.3767C44.9275 75.1361 45.9333 74.1304 47.1739 74.1304Z" fill="#D6DFEA"/>
<path fill-rule="evenodd" clip-rule="evenodd" d="M74.1304 65.1449H80.8695C82.1102 65.1449 83.1159 66.1506 83.1159 67.3913C83.1159 68.6319 82.1102 69.6377 80.8695 69.6377H74.1304C72.8898 69.6377 71.884 68.6319 71.884 67.3913C71.884 66.1506 72.8898 65.1449 74.1304 65.1449Z" fill="#D6DFEA"/>
<rect x="44.9275" y="65.1449" width="22.4638" height="4.49275" rx="2.24638" fill="#D6DFEA"/>
<path fill-rule="evenodd" clip-rule="evenodd" d="M255.934 249.549C248.453 237.557 226.83 234.858 215.744 218.714C204.904 202.66 184.729 155.857 186.295 151.154C188.025 146.428 201.092 145.898 207.776 158.43C214.205 171.003 220.466 185.248 223.02 184.068C225.644 182.878 212.475 156.446 207.776 148.036C202.822 139.495 172.192 108.399 175.209 98.4921C177.908 88.5252 188.536 96.2796 202.925 110.618C217.107 124.816 225.191 133.731 228.563 134.87C231.78 135.677 240.882 131.24 250.39 136.949C259.562 142.373 261.286 146.324 266.328 148.036C271.076 149.617 283.081 151.143 287.808 163.973C292.879 176.842 298.525 221.809 301.667 227.375C304.982 232.782 322.391 255.465 325.226 267.218C330.038 286.905 281.851 305.738 266.328 282.462C257.688 269.711 263.264 261.641 255.934 249.549Z" fill="#DD784D"/>
<mask id="mask0" mask-type="alpha" maskUnits="userSpaceOnUse" x="175" y="94" width="151" height="200">
<path fill-rule="evenodd" clip-rule="evenodd" d="M255.934 249.549C248.453 237.557 226.83 234.858 215.744 218.714C204.904 202.66 184.729 155.857 186.295 151.154C188.025 146.428 201.092 145.898 207.776 158.43C214.205 171.003 220.466 185.248 223.02 184.068C225.644 182.878 212.475 156.446 207.776 148.036C202.822 139.495 172.192 108.399 175.209 98.4921C177.908 88.5252 188.536 96.2796 202.925 110.618C217.107 124.816 225.191 133.731 228.563 134.87C231.78 135.677 240.882 131.24 250.39 136.949C259.562 142.373 261.286 146.324 266.328 148.036C271.076 149.617 283.081 151.143 287.808 163.973C292.879 176.842 298.525 221.809 301.667 227.375C304.982 232.782 322.391 255.465 325.226 267.218C330.038 286.905 281.851 305.738 266.328 282.462C257.688 269.711 263.264 261.641 255.934 249.549Z" fill="white"/>
<path fill-rule="evenodd" clip-rule="evenodd" d="M255.934 249.549C248.453 237.557 226.83 234.858 215.744 218.714C204.904 202.66 184.729 155.857 186.295 151.154C188.025 146.428 201.092 145.898 207.776 158.43C214.205 171.003 220.466 185.248 223.02 184.068C225.644 182.878 212.475 156.446 207.776 148.036C202.822 139.495 172.192 108.399 175.209 98.4921C177.908 88.5252 188.536 96.2796 202.925 110.618C217.107 124.816 225.191 133.731 228.563 134.87C231.78 135.677 240.882 131.24 250.39 136.949C259.562 142.373 261.286 146.324 266.328 148.036C271.076 149.617 283.081 151.143 287.808 163.973C292.879 176.842 298.525 221.809 301.667 227.375C304.982 232.782 322.391 255.465 325.226 267.218C330.038 286.905 281.851 305.738 266.328 282.462C257.688 269.711 263.264 261.641 255.934 249.549Z" stroke="white"/>
</mask>
<g mask="url(#mask0)">
<path fill-rule="evenodd" clip-rule="evenodd" d="M284.139 292.889C276.997 265.574 270.367 247.779 264.249 239.501C252.122 223.512 233.59 218.521 225.792 210.745C218.936 203.652 201.314 165.381 187.117 149.891C186.745 150.266 186.465 150.69 186.295 151.154C184.729 155.857 204.904 202.66 215.744 218.714C226.83 234.858 248.453 237.557 255.934 249.549C263.264 261.641 257.688 269.711 266.328 282.462C270.477 288.683 276.959 291.896 284.139 292.889Z" fill="url(#paint8_linear)"/>
<path fill-rule="evenodd" clip-rule="evenodd" d="M207.776 148.036C212.081 155.68 222.617 178.554 223.02 184.068C228.793 184.068 223.875 160.141 211.933 143.532C203.962 132.354 188.589 111.344 175.209 99.8779C174.873 110.992 203.165 139.971 207.776 148.036Z" fill="url(#paint9_linear)"/>
<path d="M224.677 130.283C224.396 130.023 223.958 130.039 223.698 130.32C223.438 130.6 223.454 131.039 223.735 131.299C223.937 131.486 224.145 131.677 224.361 131.872C224.301 131.818 230.934 137.57 233.043 139.602C236.697 143.124 239.907 146.873 243.065 151.516C243.28 151.832 243.711 151.914 244.028 151.699C244.344 151.484 244.426 151.053 244.211 150.737C240.997 146.011 237.725 142.19 234.004 138.604C231.865 136.542 225.207 130.769 225.291 130.845C225.079 130.653 224.875 130.466 224.677 130.283Z" fill="white"/>
<path d="M258.159 142.211C262.285 145.682 265.789 149.209 269.203 153.552C269.439 153.852 269.875 153.905 270.176 153.668C270.477 153.432 270.529 152.996 270.292 152.695C266.815 148.272 263.246 144.679 259.051 141.151C257.32 139.695 256.457 140.78 258.159 142.211Z" fill="white"/>
</g>
<defs>
<linearGradient id="paint0_linear" x1="0" y1="178.362" x2="0" y2="237.667" gradientUnits="userSpaceOnUse">
<stop stop-color="#4E565C" stop-opacity="0.01"/>
<stop offset="1" stop-opacity="0.1"/>
</linearGradient>
<linearGradient id="paint1_linear" x1="22.4638" y1="237.667" x2="22.4638" y2="251.145" gradientUnits="userSpaceOnUse">
<stop stop-color="#393E41" stop-opacity="0.01"/>
<stop offset="1" stop-opacity="0.104252"/>
</linearGradient>
<linearGradient id="paint2_linear" x1="253.391" y1="237.667" x2="253.391" y2="251.145" gradientUnits="userSpaceOnUse">
<stop stop-color="#393E41" stop-opacity="0.01"/>
<stop offset="1" stop-opacity="0.104252"/>
</linearGradient>
<linearGradient id="paint3_linear" x1="143.768" y1="135.681" x2="143.768" y2="178.362" gradientUnits="userSpaceOnUse">
<stop stop-color="#393E41" stop-opacity="0.01"/>
<stop offset="1" stop-opacity="0.104252"/>
</linearGradient>
<linearGradient id="paint4_linear" x1="154.101" y1="0" x2="154.101" y2="164.884" gradientUnits="userSpaceOnUse">
<stop stop-color="#B6C5D9" stop-opacity="0.01"/>
<stop offset="1" stop-opacity="0.05"/>
</linearGradient>
<linearGradient id="paint5_linear" x1="20.2174" y1="116.362" x2="20.2174" y2="178.362" gradientUnits="userSpaceOnUse">
<stop stop-color="#393E41" stop-opacity="0.01"/>
<stop offset="1" stop-opacity="0.104252"/>
</linearGradient>
<linearGradient id="paint6_linear" x1="40.4348" y1="46.7247" x2="40.4348" y2="143.319" gradientUnits="userSpaceOnUse">
<stop stop-color="#F2F5F9" stop-opacity="0.01"/>
<stop offset="1" stop-color="#B6C5D9" stop-opacity="0.1"/>
</linearGradient>
<linearGradient id="paint7_linear" x1="111.42" y1="58.8551" x2="111.42" y2="102.884" gradientUnits="userSpaceOnUse">
<stop stop-color="#F2F5F9" stop-opacity="0.01"/>
<stop offset="1" stop-color="#B6C5D9" stop-opacity="0.1"/>
</linearGradient>
<linearGradient id="paint8_linear" x1="333.104" y1="221.39" x2="199.775" y2="312.698" gradientUnits="userSpaceOnUse">
<stop stop-color="#FF6663" stop-opacity="0.01"/>
<stop offset="1" stop-opacity="0.1"/>
</linearGradient>
<linearGradient id="paint9_linear" x1="150.09" y1="141.973" x2="224.182" y2="97.7615" gradientUnits="userSpaceOnUse">
<stop stop-color="#FF6663" stop-opacity="0.01"/>
<stop offset="1" stop-opacity="0.1"/>
</linearGradient>
</defs>
</svg>
