<svg width="116" height="265" viewBox="0 0 116 265" fill="none" xmlns="http://www.w3.org/2000/svg">
<path fill-rule="evenodd" clip-rule="evenodd" d="M21.3128 240.244C18.6279 244.652 14.8318 258.341 14.8318 261.89C14.8318 265.438 26.2328 261.525 28.4065 252.364C30.5803 243.203 32.7454 246.428 32.7454 241.669C32.7454 236.911 23.9978 235.836 21.3128 240.244Z" fill="#287CA6"/>
<path fill-rule="evenodd" clip-rule="evenodd" d="M21.3128 240.244C18.6279 244.652 14.8318 258.341 14.8318 261.89C14.8318 265.438 26.2328 261.525 28.4065 252.364C30.5803 243.203 32.7454 246.428 32.7454 241.669C32.7454 236.911 23.9978 235.836 21.3128 240.244Z" fill="url(#paint0_linear)"/>
<path fill-rule="evenodd" clip-rule="evenodd" d="M68.3059 240.258C66.2469 245.376 68.8442 257.218 73.7808 262.649C78.7174 268.081 83.6816 257.339 81.8714 254.937C80.0612 252.535 75.7769 247.828 75.7769 241.385C75.7769 234.943 70.365 235.139 68.3059 240.258Z" fill="#287CA6"/>
<path fill-rule="evenodd" clip-rule="evenodd" d="M68.3059 240.258C66.2469 245.376 68.8442 257.218 73.7808 262.649C78.7174 268.081 83.6816 257.339 81.8714 254.937C80.0612 252.535 75.7769 247.828 75.7769 241.385C75.7769 234.943 70.365 235.139 68.3059 240.258Z" fill="url(#paint1_linear)"/>
<path fill-rule="evenodd" clip-rule="evenodd" d="M58.476 93.4954C63.8651 100.05 59.0982 119.131 62.7101 123.786C66.622 128.354 74.8508 133.653 78.6696 143.002C82.3882 152.463 56.6282 133.088 54.2419 129.648C51.5499 125.925 53.2892 87.0927 58.476 93.4954Z" fill="white"/>
<path fill-rule="evenodd" clip-rule="evenodd" d="M58.476 93.4954C63.8651 100.05 59.0982 119.131 62.7101 123.786C66.622 128.354 74.8508 133.653 78.6696 143.002C82.3882 152.463 56.6282 133.088 54.2419 129.648C51.5499 125.925 53.2892 87.0927 58.476 93.4954Z" fill="url(#paint2_linear)"/>
<path fill-rule="evenodd" clip-rule="evenodd" d="M58.476 93.4954C63.8651 100.05 59.0982 119.131 62.7101 123.786C66.622 128.354 74.8508 133.653 78.6696 143.002C82.3882 152.463 56.6282 133.088 54.2419 129.648C51.5499 125.925 53.2892 87.0927 58.476 93.4954Z" fill="url(#paint3_linear)"/>
<path fill-rule="evenodd" clip-rule="evenodd" d="M26.5571 130.626C18.1326 145.963 14.1804 167.428 14.1804 184.482C14.1804 201.536 19.3193 240.392 19.3193 240.392C19.3193 240.392 20.4363 243.645 26.0418 243.645C31.6474 243.645 32.6921 240.392 32.6921 240.392C32.6921 240.392 35.4508 209.527 35.4508 199.905C35.4508 190.283 40.7567 156.679 43.4348 156.679C46.113 156.679 52.3063 183.929 55.8265 199.905C59.3468 215.881 66.6331 240.392 66.6331 240.392C66.6331 240.392 67.3683 243.645 72.8005 243.645C78.2328 243.645 79.321 240.392 79.321 240.392C79.321 240.392 76.9019 179.701 72.8005 162.19C69.1375 146.55 60.1045 130.626 60.1045 130.626C60.1045 130.626 34.9815 115.288 26.5571 130.626Z" fill="#282828"/>
<path fill-rule="evenodd" clip-rule="evenodd" d="M26.5571 130.626C18.1326 145.963 14.1804 167.428 14.1804 184.482C14.1804 201.536 19.3193 240.392 19.3193 240.392C19.3193 240.392 20.4363 243.645 26.0418 243.645C31.6474 243.645 32.6921 240.392 32.6921 240.392C32.6921 240.392 35.4508 209.527 35.4508 199.905C35.4508 190.283 40.7567 156.679 43.4348 156.679C46.113 156.679 52.3063 183.929 55.8265 199.905C59.3468 215.881 66.6331 240.392 66.6331 240.392C66.6331 240.392 67.3683 243.645 72.8005 243.645C78.2328 243.645 79.321 240.392 79.321 240.392C79.321 240.392 76.9019 179.701 72.8005 162.19C69.1375 146.55 60.1045 130.626 60.1045 130.626C60.1045 130.626 34.9815 115.288 26.5571 130.626Z" fill="url(#paint4_linear)"/>
<path fill-rule="evenodd" clip-rule="evenodd" d="M30.7785 99.5791C14.4856 97.0757 -9.43504 76.6273 3.88174 50.1676C17.1985 23.708 38.559 39.0878 50.8672 16.4195C63.1753 -6.24868 92.2244 -3.38683 106.2 12.5084C120.175 28.4037 120.175 53.1169 97.6207 76.234C75.066 99.351 47.0713 102.082 30.7785 99.5791Z" fill="black"/>
<path fill-rule="evenodd" clip-rule="evenodd" d="M30.7785 99.5791C14.4856 97.0757 -9.43504 76.6273 3.88174 50.1676C17.1985 23.708 38.559 39.0878 50.8672 16.4195C63.1753 -6.24868 92.2244 -3.38683 106.2 12.5084C120.175 28.4037 120.175 53.1169 97.6207 76.234C75.066 99.351 47.0713 102.082 30.7785 99.5791Z" fill="url(#paint5_linear)"/>
<path fill-rule="evenodd" clip-rule="evenodd" d="M112.702 53.6958C109.833 61.1412 104.902 68.7708 97.6207 76.2339C83.1473 91.0682 66.4338 97.508 52.0098 99.5569C36.8327 95.8319 25.6337 87.2378 27.7114 71.07C32.7573 31.8044 88.154 93.8493 112.702 53.6958V53.6958Z" fill="url(#paint6_linear)"/>
<mask id="mask0" mask-type="alpha" maskUnits="userSpaceOnUse" x="27" y="53" width="86" height="47">
<path fill-rule="evenodd" clip-rule="evenodd" d="M112.702 53.6958C109.833 61.1412 104.902 68.7708 97.6207 76.2339C83.1473 91.0682 66.4338 97.508 52.0098 99.5569C36.8327 95.8319 25.6337 87.2378 27.7114 71.07C32.7573 31.8044 88.154 93.8493 112.702 53.6958V53.6958Z" fill="white"/>
</mask>
<g mask="url(#mask0)">
</g>
<path fill-rule="evenodd" clip-rule="evenodd" d="M26.5571 130.626C29.9896 123.798 30.4869 124.996 27.8599 117.597C25.8025 110.01 22.6456 109.451 21.0201 100.335C19.9249 91.3979 28.5162 82.1829 39.5852 87.6328C50.4381 93.1186 49.2451 89.5638 55.8704 92.5183C62.5263 95.729 61.3787 102.74 58.476 109.781C55.3995 116.833 55.2982 123.662 60.1045 130.626C64.4401 137.64 23.3166 137.504 26.5571 130.626Z" fill="white"/>
<path fill-rule="evenodd" clip-rule="evenodd" d="M26.5571 130.626C29.9896 123.798 30.4869 124.996 27.8599 117.597C25.8025 110.01 22.6456 109.451 21.0201 100.335C19.9249 91.3979 28.5162 82.1829 39.5852 87.6328C50.4381 93.1186 49.2451 89.5638 55.8704 92.5183C62.5263 95.729 61.3787 102.74 58.476 109.781C55.3995 116.833 55.2982 123.662 60.1045 130.626C64.4401 137.64 23.3166 137.504 26.5571 130.626Z" fill="url(#paint7_linear)"/>
<rect x="38.9338" y="77.8618" width="9.44539" height="17.2623" rx="4.7227" fill="#DF794C"/>
<rect x="38.9338" y="77.8618" width="9.44539" height="17.2623" rx="4.7227" fill="url(#paint8_linear)"/>
<path fill-rule="evenodd" clip-rule="evenodd" d="M25.2139 74.6171C24.0217 74.5365 22.7709 73.3691 22.7709 70.29C22.7709 66.2926 19.7959 65.036 19.7959 62.3657C19.7959 59.6953 22.6197 58.5997 24.0778 60.3711C25.3752 57.429 27.641 58.4709 37.4214 55.8529C47.2017 53.2349 51.0269 45.9925 59.124 49.4792C59.1767 51.018 59.124 55.9783 59.124 57.6789C59.124 59.2144 61.0816 61.2451 61.0816 68.4229C61.0816 75.5341 53.5607 85.3528 45.0947 85.3528C38.9612 85.3528 29.0264 81.8207 25.2139 74.6171V74.6171Z" fill="#DF794D"/>
<path fill-rule="evenodd" clip-rule="evenodd" d="M25.2139 74.6171C24.0217 74.5365 22.7709 73.3691 22.7709 70.29C22.7709 66.2926 19.7959 65.036 19.7959 62.3657C19.7959 59.6953 22.6197 58.5997 24.0778 60.3711C25.3752 57.429 27.641 58.4709 37.4214 55.8529C47.2017 53.2349 51.0269 45.9925 59.124 49.4792C59.1767 51.018 59.124 55.9783 59.124 57.6789C59.124 59.2144 61.0816 61.2451 61.0816 68.4229C61.0816 75.5341 53.5607 85.3528 45.0947 85.3528C38.9612 85.3528 29.0264 81.8207 25.2139 74.6171V74.6171Z" fill="url(#paint9_linear)"/>
<path fill-rule="evenodd" clip-rule="evenodd" d="M48.4445 58.6641C42.62 61.7277 28.9191 63.6498 24.0326 56.8007C25.6368 55.6569 29.0086 58.1049 37.4214 55.8529C47.2017 53.2349 51.0269 45.9925 59.124 49.4792C59.1663 50.7149 59.1407 54.1569 59.1289 56.3455C57.1487 56.3567 54.2689 55.6006 48.4445 58.6641Z" fill="url(#paint10_linear)"/>
<path fill-rule="evenodd" clip-rule="evenodd" d="M25.2134 107.798C15.7441 103.198 23.8877 73.5335 25.2134 62.3107C26.5391 51.088 28.4555 32.8737 28.4555 29.1245C28.4555 25.3753 36.0025 24.7534 36.0025 29.1245C36.0025 33.4956 34.6828 53.8185 34.6828 62.3107C34.6828 70.8029 34.6828 112.398 25.2134 107.798Z" fill="white"/>
<path fill-rule="evenodd" clip-rule="evenodd" d="M25.2134 107.798C15.7441 103.198 23.8877 73.5335 25.2134 62.3107C26.5391 51.088 28.4555 32.8737 28.4555 29.1245C28.4555 25.3753 36.0025 24.7534 36.0025 29.1245C36.0025 33.4956 34.6828 53.8185 34.6828 62.3107C34.6828 70.8029 34.6828 112.398 25.2134 107.798Z" fill="url(#paint11_linear)"/>
<path fill-rule="evenodd" clip-rule="evenodd" d="M28.5113 28.6806C28.5113 24.7236 26.0451 21.9234 20.3317 22.6999C14.6183 23.4764 11.452 24.6777 12.389 22.6999C12.8487 21.7297 15.4811 19.8896 20.9898 19.0183C22.9677 18.7054 29.4712 19.4185 29.4712 19.4185C29.4712 19.4185 33.1005 18.1197 35.6873 19.0183C38.2741 19.9169 41.9166 16.9247 43.6113 19.0183C45.306 21.1118 35.3616 21.7545 35.6873 23.95C36.013 26.1455 36.013 28.0602 36.013 29.6981C36.013 31.3361 28.5113 32.6375 28.5113 28.6806Z" fill="#DF794D"/>
<path fill-rule="evenodd" clip-rule="evenodd" d="M28.5113 28.6806C28.5113 24.7236 26.0451 21.9234 20.3317 22.6999C14.6183 23.4764 11.452 24.6777 12.389 22.6999C12.8487 21.7297 15.4811 19.8896 20.9898 19.0183C22.9677 18.7054 29.4712 19.4185 29.4712 19.4185C29.4712 19.4185 33.1005 18.1197 35.6873 19.0183C38.2741 19.9169 41.9166 16.9247 43.6113 19.0183C45.306 21.1118 35.3616 21.7545 35.6873 23.95C36.013 26.1455 36.013 28.0602 36.013 29.6981C36.013 31.3361 28.5113 32.6375 28.5113 28.6806Z" fill="url(#paint12_linear)"/>
<path fill-rule="evenodd" clip-rule="evenodd" d="M73.0908 143.733C77.5031 147.307 80.392 147.274 78.9455 152.211C77.499 157.149 74.3939 157.356 75.7645 159.007C77.1352 160.657 80.4188 154.535 84.0013 153.722C87.5839 152.909 98.2379 154.357 99.76 152.211C101.282 150.066 98.5305 149.359 91.395 148.534C84.2595 147.709 77.2695 139.31 75.1321 136.776C73.6504 135.019 70.2787 141.455 73.0908 143.733Z" fill="#DF794D"/>
<path fill-rule="evenodd" clip-rule="evenodd" d="M73.0908 143.733C77.5031 147.307 80.392 147.274 78.9455 152.211C77.499 157.149 74.3939 157.356 75.7645 159.007C77.1352 160.657 80.4188 154.535 84.0013 153.722C87.5839 152.909 98.2379 154.357 99.76 152.211C101.282 150.066 98.5305 149.359 91.395 148.534C84.2595 147.709 77.2695 139.31 75.1321 136.776C73.6504 135.019 70.2787 141.455 73.0908 143.733Z" fill="url(#paint13_linear)"/>
<path fill-rule="evenodd" clip-rule="evenodd" d="M38.9338 84.4287C41.1483 85.0461 43.2866 85.3531 45.0947 85.3531C46.211 85.3531 47.3108 85.1824 48.3792 84.8697V88.1267C47.3108 88.4394 46.211 88.6101 45.0947 88.6101C43.2866 88.6101 41.1483 88.3032 38.9338 87.6857L38.9338 84.4287Z" fill="url(#paint14_linear)"/>
<defs>
<linearGradient id="paint0_linear" x1="14.8318" y1="237.456" x2="14.8318" y2="263.187" gradientUnits="userSpaceOnUse">
<stop stop-color="#A7A7EE" stop-opacity="0.01"/>
<stop offset="1" stop-color="#4C55A0" stop-opacity="0.2"/>
</linearGradient>
<linearGradient id="paint1_linear" x1="67.5957" y1="236.479" x2="67.5957" y2="264.164" gradientUnits="userSpaceOnUse">
<stop stop-color="#A7A7EE" stop-opacity="0.01"/>
<stop offset="1" stop-color="#4C55A0" stop-opacity="0.2"/>
</linearGradient>
<linearGradient id="paint2_linear" x1="52.939" y1="92.844" x2="52.939" y2="145.608" gradientUnits="userSpaceOnUse">
<stop stop-color="#A7A7EE" stop-opacity="0.01"/>
<stop offset="1" stop-color="#4C55A0" stop-opacity="0.2"/>
</linearGradient>
<linearGradient id="paint3_linear" x1="55.151" y1="140.126" x2="78.4083" y2="140.76" gradientUnits="userSpaceOnUse">
<stop stop-color="#464D89" stop-opacity="0.6"/>
<stop offset="1" stop-color="#A7A7EE" stop-opacity="0.01"/>
</linearGradient>
<linearGradient id="paint4_linear" x1="14.1804" y1="123.809" x2="14.1804" y2="243.645" gradientUnits="userSpaceOnUse">
<stop stop-color="#403F9F" stop-opacity="0.01"/>
<stop offset="1" stop-opacity="0.2"/>
</linearGradient>
<linearGradient id="paint5_linear" x1="0" y1="0" x2="0" y2="100.335" gradientUnits="userSpaceOnUse">
<stop stop-color="#403F9F" stop-opacity="0.01"/>
<stop offset="1" stop-opacity="0.2"/>
</linearGradient>
<linearGradient id="paint6_linear" x1="-15.1565" y1="76.6263" x2="23.1143" y2="147.758" gradientUnits="userSpaceOnUse">
<stop stop-color="#BCBCBC" stop-opacity="0.3"/>
<stop offset="1" stop-color="#1F1845" stop-opacity="0.01"/>
</linearGradient>
<linearGradient id="paint7_linear" x1="20.9259" y1="86.001" x2="20.9259" y2="135.836" gradientUnits="userSpaceOnUse">
<stop stop-color="#A7A7EE" stop-opacity="0.01"/>
<stop offset="1" stop-color="#4C55A0" stop-opacity="0.2"/>
</linearGradient>
<linearGradient id="paint8_linear" x1="38.9338" y1="77.8618" x2="38.9338" y2="95.1241" gradientUnits="userSpaceOnUse">
<stop stop-color="#FFC62C" stop-opacity="0.01"/>
<stop offset="1" stop-color="#FF6663" stop-opacity="0.1"/>
</linearGradient>
<linearGradient id="paint9_linear" x1="19.7959" y1="48.5483" x2="19.7959" y2="85.3528" gradientUnits="userSpaceOnUse">
<stop stop-color="#FFC62C" stop-opacity="0.01"/>
<stop offset="1" stop-color="#FF6663" stop-opacity="0.1"/>
</linearGradient>
<linearGradient id="paint10_linear" x1="41.59" y1="42.0977" x2="33.2375" y2="64.8316" gradientUnits="userSpaceOnUse">
<stop stop-opacity="0.2"/>
<stop offset="1" stop-color="#FFC42C" stop-opacity="0.01"/>
</linearGradient>
<linearGradient id="paint11_linear" x1="20.6944" y1="26.075" x2="20.6944" y2="108.152" gradientUnits="userSpaceOnUse">
<stop stop-color="#A7A7EE" stop-opacity="0.01"/>
<stop offset="1" stop-color="#4C55A0" stop-opacity="0.2"/>
</linearGradient>
<linearGradient id="paint12_linear" x1="12.2262" y1="18.2581" x2="12.2262" y2="31.2888" gradientUnits="userSpaceOnUse">
<stop stop-color="#FFC62C" stop-opacity="0.01"/>
<stop offset="1" stop-color="#FF6663" stop-opacity="0.1"/>
</linearGradient>
<linearGradient id="paint13_linear" x1="72.0058" y1="136.476" x2="72.0058" y2="159.288" gradientUnits="userSpaceOnUse">
<stop stop-color="#FFC62C" stop-opacity="0.01"/>
<stop offset="1" stop-color="#FF6663" stop-opacity="0.1"/>
</linearGradient>
<linearGradient id="paint14_linear" x1="53.5539" y1="86.9196" x2="50.6371" y2="79.7003" gradientUnits="userSpaceOnUse">
<stop stop-opacity="0.2"/>
<stop offset="1" stop-color="#DF794C"/>
</linearGradient>
</defs>
</svg>
