<svg width="779" height="596" viewBox="0 0 779 596" fill="none" xmlns="http://www.w3.org/2000/svg">
<path fill-rule="evenodd" clip-rule="evenodd" d="M33.4223 563.597L743.302 563.597C748.014 563.597 751.834 569.731 751.834 577.298C751.834 584.866 748.014 591 743.302 591H33.4223C28.7101 591 24.8901 584.866 24.8901 577.298C24.8901 569.731 28.7101 563.597 33.4223 563.597Z" fill="#D3E0F1"/>
<path fill-rule="evenodd" clip-rule="evenodd" d="M742.734 563.597H40.2482C-16.798 358.456 -11.6792 221.708 55.6061 153.459C156.624 50.4652 250.033 209.021 322.949 209.179C395.77 209.021 483.391 -81.9113 662.531 22.8362C782.061 92.1148 808.793 272.415 742.734 563.597Z" fill="#F2F5F9"/>
<mask id="mask0" mask-type="alpha" maskUnits="userSpaceOnUse" x="0" y="0" width="779" height="564">
<path fill-rule="evenodd" clip-rule="evenodd" d="M742.734 563.597H40.2482C-16.798 358.456 -11.6792 221.708 55.6061 153.459C156.624 50.4652 250.033 209.021 322.949 209.179C395.77 209.021 483.391 -81.9113 662.531 22.8362C782.061 92.1148 808.793 272.415 742.734 563.597Z" fill="white"/>
</mask>
<g mask="url(#mask0)">
<path fill-rule="evenodd" clip-rule="evenodd" d="M405.427 -188.17H697.797C698.111 -188.17 698.366 -187.761 698.366 -187.257V480.473C698.366 480.977 698.111 481.386 697.797 481.386H405.427C405.113 481.386 404.858 480.977 404.858 480.473V-187.257C404.858 -187.761 405.113 -188.17 405.427 -188.17Z" fill="white"/>
<path fill-rule="evenodd" clip-rule="evenodd" d="M416.803 -188.17H686.421C686.735 -188.17 686.99 -187.761 686.99 -187.257V480.473C686.99 480.977 686.735 481.386 686.421 481.386H416.803C416.489 481.386 416.234 480.977 416.234 480.473V-187.257C416.234 -187.761 416.489 -188.17 416.803 -188.17Z" fill="#E2EAF5"/>
<mask id="mask1" mask-type="alpha" maskUnits="userSpaceOnUse" x="416" y="-189" width="271" height="671">
<path fill-rule="evenodd" clip-rule="evenodd" d="M416.803 -188.17H686.421C686.735 -188.17 686.99 -187.761 686.99 -187.257V480.473C686.99 480.977 686.735 481.386 686.421 481.386H416.803C416.489 481.386 416.234 480.977 416.234 480.473V-187.257C416.234 -187.761 416.489 -188.17 416.803 -188.17Z" fill="white"/>
</mask>
<g mask="url(#mask1)">
<path fill-rule="evenodd" clip-rule="evenodd" d="M530.566 109.614H686.99V481.386H530.566V109.614Z" fill="#D3E0F1"/>
<path fill-rule="evenodd" clip-rule="evenodd" d="M313.853 197.839C334.59 197.839 577.993 197.839 577.993 197.839C577.993 197.839 585.151 151.991 534.998 167.274C484.844 182.557 492.694 139.438 462.678 129.483C432.661 119.529 418.275 160.094 372.516 139.438C326.758 118.781 293.116 197.839 313.853 197.839Z" fill="#F2F5F9"/>
<path fill-rule="evenodd" clip-rule="evenodd" d="M340.582 243.89H757.523V262.159H340.582V243.89Z" fill="white"/>
</g>
<path fill-rule="evenodd" clip-rule="evenodd" d="M596.548 397.349H656.843C657.785 397.349 658.549 398.576 658.549 400.09V481.386H594.842V400.09C594.842 398.576 595.606 397.349 596.548 397.349Z" fill="#B6C5D9"/>
<path fill-rule="evenodd" clip-rule="evenodd" d="M623.263 360.765C622.766 293.725 631.367 197.796 644.329 212.833C667.038 238.504 671.014 310.308 641.485 404.657C637.102 418.749 633.591 423.657 630.865 421.917C629.372 423.148 626.75 421.123 622.714 414.705C592.797 366.844 585.677 320.802 595.411 295.957C600.412 284.229 614.014 323.121 623.263 360.765Z" fill="#B6C5D9"/>
<path fill-rule="evenodd" clip-rule="evenodd" d="M92.579 99.5656H272.324C273.267 99.5656 274.031 100.793 274.031 102.306V403.743C274.031 405.257 273.267 406.484 272.324 406.484H92.579C91.6366 406.484 90.8726 405.257 90.8726 403.743V102.306C90.8726 100.793 91.6366 99.5656 92.579 99.5656Z" fill="#D3E0F1"/>
<path fill-rule="evenodd" clip-rule="evenodd" d="M109.643 231.102H173.919C174.862 231.102 175.626 232.329 175.626 233.842V337.062C175.626 338.575 174.862 339.802 173.919 339.802H109.643C108.701 339.802 107.937 338.575 107.937 337.062V233.842C107.937 232.329 108.701 231.102 109.643 231.102Z" fill="#F2F5F9"/>
<path fill-rule="evenodd" clip-rule="evenodd" d="M119.313 267.64H164.25C165.82 267.64 167.094 269.685 167.094 272.207C167.094 274.73 165.82 276.774 164.25 276.774H119.313C117.743 276.774 116.469 274.73 116.469 272.207C116.469 269.685 117.743 267.64 119.313 267.64Z" fill="#B6C5D9"/>
<path fill-rule="evenodd" clip-rule="evenodd" d="M119.313 285.909H147.185C148.756 285.909 150.029 287.954 150.029 290.476C150.029 292.998 148.756 295.043 147.185 295.043H119.313C117.743 295.043 116.469 292.998 116.469 290.476C116.469 287.954 117.743 285.909 119.313 285.909Z" fill="#B6C5D9"/>
<path fill-rule="evenodd" clip-rule="evenodd" d="M139.791 216.487H143.772C144.715 216.487 145.479 217.714 145.479 219.227V243.89C145.479 245.404 144.715 246.631 143.772 246.631H139.791C138.848 246.631 138.084 245.404 138.084 243.89V219.227C138.084 217.714 138.848 216.487 139.791 216.487Z" fill="white"/>
<path fill-rule="evenodd" clip-rule="evenodd" d="M190.984 276.774H255.26C256.202 276.774 256.966 278.001 256.966 279.515V376.34C256.966 377.853 256.202 379.08 255.26 379.08H190.984C190.041 379.08 189.277 377.853 189.277 376.34V279.515C189.277 278.001 190.041 276.774 190.984 276.774Z" fill="#F2F5F9"/>
<path fill-rule="evenodd" clip-rule="evenodd" d="M212.03 301.438H245.59C247.161 301.438 248.434 303.482 248.434 306.005C248.434 308.527 247.161 310.572 245.59 310.572H212.03C210.459 310.572 209.186 308.527 209.186 306.005C209.186 303.482 210.459 301.438 212.03 301.438Z" fill="#B6C5D9"/>
<path fill-rule="evenodd" clip-rule="evenodd" d="M200.654 301.438C202.225 301.438 203.498 303.482 203.498 306.005C203.498 308.527 202.225 310.572 200.654 310.572C199.083 310.572 197.81 308.527 197.81 306.005C197.81 303.482 199.083 301.438 200.654 301.438Z" fill="#B6C5D9"/>
<path fill-rule="evenodd" clip-rule="evenodd" d="M212.03 319.706H245.59C247.161 319.706 248.434 321.751 248.434 324.274C248.434 326.796 247.161 328.841 245.59 328.841H212.03C210.459 328.841 209.186 326.796 209.186 324.274C209.186 321.751 210.459 319.706 212.03 319.706Z" fill="#B6C5D9"/>
<path fill-rule="evenodd" clip-rule="evenodd" d="M200.654 319.706C202.224 319.706 203.498 321.751 203.498 324.274C203.498 326.796 202.224 328.841 200.654 328.841C199.083 328.841 197.81 326.796 197.81 324.274C197.81 321.751 199.083 319.706 200.654 319.706Z" fill="#B6C5D9"/>
<path fill-rule="evenodd" clip-rule="evenodd" d="M212.03 337.975H245.59C247.161 337.975 248.434 340.02 248.434 342.543C248.434 345.065 247.161 347.11 245.59 347.11H212.03C210.459 347.11 209.186 345.065 209.186 342.543C209.186 340.02 210.459 337.975 212.03 337.975Z" fill="#B6C5D9"/>
<path fill-rule="evenodd" clip-rule="evenodd" d="M200.654 337.975C202.224 337.975 203.498 340.02 203.498 342.543C203.498 345.065 202.224 347.11 200.654 347.11C199.083 347.11 197.81 345.065 197.81 342.543C197.81 340.02 199.083 337.975 200.654 337.975Z" fill="#B6C5D9"/>
<path fill-rule="evenodd" clip-rule="evenodd" d="M221.131 262.159H225.113C226.055 262.159 226.819 263.386 226.819 264.9V289.563C226.819 291.076 226.055 292.303 225.113 292.303H221.131C220.189 292.303 219.425 291.076 219.425 289.563V264.9C219.425 263.386 220.189 262.159 221.131 262.159Z" fill="white"/>
<path fill-rule="evenodd" clip-rule="evenodd" d="M389.5 481.386H713.724C714.666 481.386 715.43 482.613 715.43 484.127V518.838C715.43 520.351 714.666 521.578 713.724 521.578H389.5C388.557 521.578 387.793 520.351 387.793 518.838V484.127C387.793 482.613 388.557 481.386 389.5 481.386Z" fill="white"/>
</g>
<path fill-rule="evenodd" clip-rule="evenodd" d="M497.798 557.882V594.495C497.798 595.326 497.125 596 496.294 596H469.617C469.058 596 468.545 595.69 468.285 595.196L448.646 557.882H497.798Z" fill="#4E565C"/>
<path fill-rule="evenodd" clip-rule="evenodd" d="M497.798 557.882V594.495C497.798 595.326 497.125 596 496.294 596H469.617C469.058 596 468.545 595.69 468.285 595.196L448.646 557.882H497.798Z" fill="url(#paint0_linear)"/>
<mask id="mask2" mask-type="alpha" maskUnits="userSpaceOnUse" x="448" y="557" width="50" height="39">
<path fill-rule="evenodd" clip-rule="evenodd" d="M497.798 557.882V594.495C497.798 595.326 497.125 596 496.294 596H469.617C469.058 596 468.545 595.69 468.285 595.196L448.646 557.882H497.798Z" fill="white"/>
<path fill-rule="evenodd" clip-rule="evenodd" d="M497.798 557.882V594.495C497.798 595.326 497.125 596 496.294 596H469.617C469.058 596 468.545 595.69 468.285 595.196L448.646 557.882H497.798Z" stroke="white"/>
</mask>
<g mask="url(#mask2)">
<path fill-rule="evenodd" clip-rule="evenodd" d="M497.798 557.882V567.411H453.662L448.646 557.882H497.798Z" fill="url(#paint1_linear)"/>
</g>
<path fill-rule="evenodd" clip-rule="evenodd" d="M270.093 557.882H319.245L299.606 595.196C299.346 595.69 298.833 596 298.275 596H271.598C270.767 596 270.093 595.326 270.093 594.495V557.882Z" fill="#4E565C"/>
<path fill-rule="evenodd" clip-rule="evenodd" d="M270.093 557.882H319.245L299.606 595.196C299.346 595.69 298.833 596 298.275 596H271.598C270.767 596 270.093 595.326 270.093 594.495V557.882Z" fill="url(#paint2_linear)"/>
<mask id="mask3" mask-type="alpha" maskUnits="userSpaceOnUse" x="270" y="557" width="50" height="39">
<path fill-rule="evenodd" clip-rule="evenodd" d="M270.093 557.882H319.245L299.606 595.196C299.346 595.69 298.833 596 298.275 596H271.598C270.767 596 270.093 595.326 270.093 594.495V557.882Z" fill="white"/>
<path fill-rule="evenodd" clip-rule="evenodd" d="M270.093 557.882H319.245L299.606 595.196C299.346 595.69 298.833 596 298.275 596H271.598C270.767 596 270.093 595.326 270.093 594.495V557.882Z" stroke="white"/>
</mask>
<g mask="url(#mask3)">
<path fill-rule="evenodd" clip-rule="evenodd" d="M270.093 557.882H319.245L314.23 567.411H270.093V557.882Z" fill="url(#paint3_linear)"/>
</g>
<rect x="240" y="273" width="287.891" height="284.882" rx="30" fill="#393E41"/>
<rect x="240" y="273" width="287.891" height="284.882" rx="30" fill="url(#paint4_linear)"/>
<path fill-rule="evenodd" clip-rule="evenodd" d="M502.814 469.609C505.584 469.609 507.829 471.854 507.829 474.624V532.804C507.829 535.574 505.584 537.82 502.814 537.82H275.109C272.339 537.82 270.093 535.574 270.093 532.804H497.798C500.568 532.804 502.814 530.559 502.814 527.789V469.609Z" fill="url(#paint5_linear)"/>
<rect x="265.078" y="464.593" width="237.736" height="68.2112" rx="10" fill="#4E565C"/>
<rect x="265.078" y="464.593" width="237.736" height="68.2112" rx="10" fill="url(#paint6_linear)"/>
<rect x="357.363" y="495.689" width="67.2081" height="14.0435" rx="7.02174" fill="url(#paint7_linear)"/>
<rect x="353.351" y="491.677" width="67.2081" height="14.0435" rx="7.02174" fill="#E6E6EF"/>
<path fill-rule="evenodd" clip-rule="evenodd" d="M502.814 386.351C505.584 386.351 507.829 388.596 507.829 391.366V449.547C507.829 452.317 505.584 454.562 502.814 454.562H275.109C272.339 454.562 270.093 452.317 270.093 449.547H497.798C500.568 449.547 502.814 447.301 502.814 444.531V386.351Z" fill="url(#paint8_linear)"/>
<rect x="265.078" y="381.335" width="237.736" height="68.2112" rx="10" fill="#4E565C"/>
<rect x="265.078" y="381.335" width="237.736" height="68.2112" rx="10" fill="url(#paint9_linear)"/>
<rect x="354.354" y="412.432" width="67.2081" height="14.0435" rx="7.02174" fill="url(#paint10_linear)"/>
<rect x="350.342" y="408.419" width="67.2081" height="14.0435" rx="7.02174" fill="#E6E6EF"/>
<path fill-rule="evenodd" clip-rule="evenodd" d="M502.814 303.093C505.584 303.093 507.829 305.339 507.829 308.109V366.289C507.829 369.059 505.584 371.304 502.814 371.304H275.109C272.339 371.304 270.093 369.059 270.093 366.289H497.798C500.568 366.289 502.814 364.043 502.814 361.273V303.093Z" fill="url(#paint11_linear)"/>
<rect x="265.078" y="298.078" width="237.736" height="68.2112" rx="10" fill="#4E565C"/>
<rect x="265.078" y="298.078" width="237.736" height="68.2112" rx="10" fill="url(#paint12_linear)"/>
<rect x="354.354" y="329.174" width="67.2081" height="14.0435" rx="7.02174" fill="url(#paint13_linear)"/>
<rect x="350.342" y="325.161" width="67.2081" height="14.0435" rx="7.02174" fill="#E6E6EF"/>
<path fill-rule="evenodd" clip-rule="evenodd" d="M461.956 14.3512C435.857 20.4015 407.278 43.068 422.478 108.048C437.783 172.689 552.495 224.379 552.495 224.379L518.28 43.3024C518.28 43.3024 488.576 8.04762 461.956 14.3512Z" fill="#287CA6"/>
<path fill-rule="evenodd" clip-rule="evenodd" d="M461.956 14.3512C435.857 20.4015 407.278 43.068 422.478 108.048C437.783 172.689 552.495 224.379 552.495 224.379L518.28 43.3024C518.28 43.3024 488.576 8.04762 461.956 14.3512Z" fill="url(#paint14_linear)"/>
<path fill-rule="evenodd" clip-rule="evenodd" d="M237.832 270.964C227.96 258.307 269.235 263.145 287.576 247.189C305.916 231.233 318.589 222.152 318.589 222.152L348.803 233.171C348.803 233.171 310.907 246.535 310.79 257.571C310.672 268.607 302.757 276.525 287.284 274.552C271.81 272.58 247.703 283.621 237.832 270.964Z" fill="#66D4F2"/>
<path fill-rule="evenodd" clip-rule="evenodd" d="M237.832 270.964C227.96 258.307 269.235 263.145 287.576 247.189C305.916 231.233 318.589 222.152 318.589 222.152L348.803 233.171C348.803 233.171 310.907 246.535 310.79 257.571C310.672 268.607 302.757 276.525 287.284 274.552C271.81 272.58 247.703 283.621 237.832 270.964Z" fill="url(#paint15_linear)"/>
<path fill-rule="evenodd" clip-rule="evenodd" d="M554.341 248.727C545.482 276.179 502.118 269.006 473.657 269.006C464.827 269.006 412.099 208.894 408.793 208.894C405.487 208.894 321.356 258.348 321.356 258.348C321.356 258.348 308.2 258.583 299.927 248.727C291.653 238.87 294.513 229.208 294.513 229.208C294.513 229.208 385.836 155.422 408.793 155.422C431.75 155.422 490.031 216.238 501.134 216.238C530.521 216.238 563.199 221.275 554.341 248.727Z" fill="#287CA6"/>
<path fill-rule="evenodd" clip-rule="evenodd" d="M554.341 248.727C545.482 276.179 502.118 269.006 473.657 269.006C464.827 269.006 412.099 208.894 408.793 208.894C405.487 208.894 321.356 258.348 321.356 258.348C321.356 258.348 308.2 258.583 299.927 248.727C291.653 238.87 294.513 229.208 294.513 229.208C294.513 229.208 385.836 155.422 408.793 155.422C431.75 155.422 490.031 216.238 501.134 216.238C530.521 216.238 563.199 221.275 554.341 248.727Z" fill="url(#paint16_linear)"/>
<path fill-rule="evenodd" clip-rule="evenodd" d="M491.812 135.972C476.883 135.972 472.822 206.867 472.822 211.827C472.822 216.786 492.437 221.552 494.762 219.066C497.087 216.579 515.323 183.68 517.08 169.182C518.837 154.684 506.741 135.972 491.812 135.972Z" fill="#66D4F2"/>
<path fill-rule="evenodd" clip-rule="evenodd" d="M491.812 135.972C476.883 135.972 472.822 206.867 472.822 211.827C472.822 216.786 492.437 221.552 494.762 219.066C497.087 216.579 515.323 183.68 517.08 169.182C518.837 154.684 506.741 135.972 491.812 135.972Z" fill="url(#paint17_linear)"/>
<path fill-rule="evenodd" clip-rule="evenodd" d="M491.812 135.972C476.883 135.972 472.822 206.867 472.822 211.827C472.822 216.786 492.437 221.552 494.762 219.066C497.087 216.579 515.323 183.68 517.08 169.182C518.837 154.684 506.741 135.972 491.812 135.972Z" fill="url(#paint18_linear)"/>
<path fill-rule="evenodd" clip-rule="evenodd" d="M416.542 236.154C406.797 240.046 397.738 244.308 395.159 246.914C392.579 249.519 391.521 255.095 391.521 260.096C391.521 265.096 391.251 274.197 401.065 272.227C410.88 270.256 426.874 252.342 426.874 246.914C426.874 241.485 426.287 232.263 416.542 236.154Z" fill="#DD784D"/>
<path fill-rule="evenodd" clip-rule="evenodd" d="M416.542 236.154C406.797 240.046 397.738 244.308 395.159 246.914C392.579 249.519 391.521 255.095 391.521 260.096C391.521 265.096 391.251 274.197 401.065 272.227C410.88 270.256 426.874 252.342 426.874 246.914C426.874 241.485 426.287 232.263 416.542 236.154Z" fill="url(#paint19_linear)"/>
<path fill-rule="evenodd" clip-rule="evenodd" d="M281.638 194.375H367.571L387.21 274.912H294.484C293.579 274.912 292.791 274.293 292.576 273.413L275.278 202.474C274.421 198.961 276.574 195.418 280.087 194.561C280.594 194.437 281.115 194.375 281.638 194.375Z" fill="#D6DFEA"/>
<path fill-rule="evenodd" clip-rule="evenodd" d="M328.255 240.697C331.453 240.697 334.045 238.104 334.045 234.906C334.045 231.709 331.453 229.116 328.255 229.116C325.057 229.116 322.464 231.709 322.464 234.906C322.464 238.104 325.057 240.697 328.255 240.697Z" fill="#F2F5F9"/>
<path fill-rule="evenodd" clip-rule="evenodd" d="M387.688 265.09H445.461C448.176 265.09 450.376 267.289 450.376 270.001C450.376 272.713 448.176 274.912 445.461 274.912H382.222V269.543L364.649 197.555C364.312 196.176 365.159 194.785 366.54 194.448C366.739 194.399 366.944 194.375 367.149 194.375C369.073 194.375 370.747 195.689 371.202 197.555L387.688 265.09Z" fill="#B6C5D9"/>
<path fill-rule="evenodd" clip-rule="evenodd" d="M483.929 145.49C483.929 89.0021 559.847 126.084 564.075 225.431C568.063 325.152 465.005 252.748 494.066 234.38C509.259 224.65 502.855 198.221 491.522 187.223C477.603 173.717 483.929 171.324 483.929 145.49Z" fill="#66D4F2"/>
<path fill-rule="evenodd" clip-rule="evenodd" d="M483.929 145.49C483.929 89.0021 559.847 126.084 564.075 225.431C568.063 325.152 465.005 252.748 494.066 234.38C509.259 224.65 502.855 198.221 491.522 187.223C477.603 173.717 483.929 171.324 483.929 145.49Z" fill="url(#paint20_linear)"/>
<mask id="mask4" mask-type="alpha" maskUnits="userSpaceOnUse" x="482" y="118" width="83" height="159">
<path fill-rule="evenodd" clip-rule="evenodd" d="M483.929 145.49C483.929 89.0021 559.847 126.084 564.075 225.431C568.063 325.152 465.005 252.748 494.066 234.38C509.259 224.65 502.855 198.221 491.522 187.223C477.603 173.717 483.929 171.324 483.929 145.49Z" fill="white"/>
<path fill-rule="evenodd" clip-rule="evenodd" d="M483.929 145.49C483.929 89.0021 559.847 126.084 564.075 225.431C568.063 325.152 465.005 252.748 494.066 234.38C509.259 224.65 502.855 198.221 491.522 187.223C477.603 173.717 483.929 171.324 483.929 145.49Z" stroke="white"/>
</mask>
<g mask="url(#mask4)">
<path fill-rule="evenodd" clip-rule="evenodd" d="M515.027 272.243C508.125 268.986 501.794 264.358 497.093 259.36C500.292 237.377 510.8 184.9 538.2 184.9C546.903 184.9 554.557 189.599 560.656 196.786C562.447 205.653 563.64 215.213 564.075 225.431C565.056 249.952 559.564 264.066 551.155 271.134C538.089 273.667 525.115 273.322 515.027 272.243Z" fill="url(#paint21_linear)"/>
<path fill-rule="evenodd" clip-rule="evenodd" d="M480.645 142.789C490.239 142.789 498.016 134.187 498.016 123.576C498.016 112.965 490.239 104.363 480.645 104.363C471.052 104.363 463.274 112.965 463.274 123.576C463.274 134.187 471.052 142.789 480.645 142.789Z" fill="white"/>
<path fill-rule="evenodd" clip-rule="evenodd" d="M506.438 151.211C516.032 151.211 523.809 142.609 523.809 131.998C523.809 121.387 516.032 112.785 506.438 112.785C496.845 112.785 489.067 121.387 489.067 131.998C489.067 142.609 496.845 151.211 506.438 151.211Z" fill="white"/>
</g>
<path fill-rule="evenodd" clip-rule="evenodd" d="M473.468 104.61L501.97 86.0377L511.773 102.788C516.906 111.559 515.769 122.645 508.962 130.191C504.185 135.487 496.02 135.907 490.725 131.131C489.843 130.336 489.076 129.423 488.443 128.418L473.468 104.61Z" fill="#DD784D"/>
<path fill-rule="evenodd" clip-rule="evenodd" d="M473.468 104.61L501.97 86.0377L511.773 102.788C516.906 111.559 515.769 122.645 508.962 130.191C504.185 135.487 496.02 135.907 490.725 131.131C489.843 130.336 489.076 129.423 488.443 128.418L473.468 104.61Z" fill="url(#paint22_linear)"/>
<path fill-rule="evenodd" clip-rule="evenodd" d="M513.4 106.163C509.467 117.249 500.687 126.041 489.61 129.992C489.182 129.498 488.792 128.972 488.443 128.418L473.468 104.61L501.97 86.0377L511.773 102.788C512.412 103.881 512.954 105.009 513.4 106.163Z" fill="#DD784D"/>
<path fill-rule="evenodd" clip-rule="evenodd" d="M513.4 106.163C509.467 117.249 500.687 126.041 489.61 129.992C489.182 129.498 488.792 128.972 488.443 128.418L473.468 104.61L501.97 86.0377L511.773 102.788C512.412 103.881 512.954 105.009 513.4 106.163Z" fill="url(#paint23_linear)"/>
<mask id="mask5" mask-type="alpha" maskUnits="userSpaceOnUse" x="473" y="86" width="41" height="44">
<path fill-rule="evenodd" clip-rule="evenodd" d="M513.4 106.163C509.467 117.249 500.687 126.041 489.61 129.992C489.182 129.498 488.792 128.972 488.443 128.418L473.468 104.61L501.97 86.0377L511.773 102.788C512.412 103.881 512.954 105.009 513.4 106.163Z" fill="white"/>
<path fill-rule="evenodd" clip-rule="evenodd" d="M513.4 106.163C509.467 117.249 500.687 126.041 489.61 129.992C489.182 129.498 488.792 128.972 488.443 128.418L473.468 104.61L501.97 86.0377L511.773 102.788C512.412 103.881 512.954 105.009 513.4 106.163Z" stroke="white"/>
</mask>
<g mask="url(#mask5)">
</g>
<path fill-rule="evenodd" clip-rule="evenodd" d="M527.096 124.317C509.774 124.317 494.858 185.646 494.858 191.883C494.858 198.12 408.359 239.592 408.359 239.592C408.359 239.592 413.641 240.738 416.892 247.652C420.142 254.565 424.36 255.207 424.36 255.207C424.36 255.207 521.693 221.642 527.096 214.832C532.499 208.023 547.857 186.196 548.422 159.322C548.987 132.447 544.418 124.317 527.096 124.317Z" fill="#66D4F2"/>
<path fill-rule="evenodd" clip-rule="evenodd" d="M527.096 124.317C509.774 124.317 494.858 185.646 494.858 191.883C494.858 198.12 408.359 239.592 408.359 239.592C408.359 239.592 413.641 240.738 416.892 247.652C420.142 254.565 424.36 255.207 424.36 255.207C424.36 255.207 521.693 221.642 527.096 214.832C532.499 208.023 547.857 186.196 548.422 159.322C548.987 132.447 544.418 124.317 527.096 124.317Z" fill="url(#paint24_linear)"/>
<path d="M527.096 123.001C527.532 123.001 527.886 123.355 527.886 123.791C527.886 124.227 527.532 124.58 527.096 124.58C519.934 124.58 512.249 136.299 505.223 155.506C500.202 169.232 495.648 187.312 495.648 191.357C495.648 193.913 489.081 198.57 475.326 206.172C464.487 212.163 449.237 219.9 429.556 229.392C429.435 229.45 429.313 229.509 429.191 229.568C424.845 231.663 424.084 230.277 428.38 228.206C428.513 228.142 428.645 228.079 428.776 228.015C448.469 218.518 463.732 210.776 474.562 204.79C487.359 197.718 494.069 192.959 494.069 191.357C494.069 187.078 498.659 168.851 503.74 154.963C511.019 135.066 518.931 123.001 527.096 123.001Z" fill="white"/>
<path fill-rule="evenodd" clip-rule="evenodd" d="M508.805 95.9408C498.211 121.232 498.486 153.902 511.963 184.373C525.617 214.925 601.697 248.67 578.814 177.004C555.149 105.07 563.543 79.9576 545.125 46.4607C526.669 13.3588 496.463 -0.948335 454.587 16.4567C413.508 33.9828 518.809 70.6794 508.805 95.9408Z" fill="#287CA6"/>
<path fill-rule="evenodd" clip-rule="evenodd" d="M508.805 95.9408C498.211 121.232 498.486 153.902 511.963 184.373C525.617 214.925 601.697 248.67 578.814 177.004C555.149 105.07 563.543 79.9576 545.125 46.4607C526.669 13.3588 496.463 -0.948335 454.587 16.4567C413.508 33.9828 518.809 70.6794 508.805 95.9408Z" fill="url(#paint25_linear)"/>
<path fill-rule="evenodd" clip-rule="evenodd" d="M450.902 53.83C451.781 53.83 475.272 68.3055 506.699 70.148C510.041 67.5754 518.221 67.5754 518.806 78.5701C519.25 86.374 516.581 94.6547 509.858 95.4144C505.588 110.087 498.82 122.058 480.906 124.892C462.992 127.726 451.66 115.44 447.744 107.521C442.855 99.7142 438.466 68.6335 438.796 65.4105C444.054 62.8617 449.698 53.83 450.902 53.83Z" fill="#DD784D"/>
<path fill-rule="evenodd" clip-rule="evenodd" d="M510.259 86.7417C512.806 86.7417 514.871 84.6768 514.871 82.1295C514.871 79.5823 512.806 77.5174 510.259 77.5174C507.711 77.5174 505.646 79.5823 505.646 82.1295C505.646 84.6768 507.711 86.7417 510.259 86.7417Z" fill="url(#paint26_linear)"/>
<path fill-rule="evenodd" clip-rule="evenodd" d="M357.648 417.201C346.923 401.242 392.428 386.199 393.717 370.475C394.576 359.992 395.785 354.032 397.343 352.595L417.204 350.225C417.241 364.269 418.831 374.671 421.973 381.433C426.687 391.575 420.343 402.596 404.14 403.435C387.937 404.273 368.373 433.16 357.648 417.201Z" fill="#66D4F2"/>
<path fill-rule="evenodd" clip-rule="evenodd" d="M357.648 417.201C346.923 401.242 392.428 386.199 393.717 370.475C394.576 359.992 395.785 354.032 397.343 352.595L417.204 350.225C417.241 364.269 418.831 374.671 421.973 381.433C426.687 391.575 420.343 402.596 404.14 403.435C387.937 404.273 368.373 433.16 357.648 417.201Z" fill="url(#paint27_linear)"/>
<path fill-rule="evenodd" clip-rule="evenodd" d="M518.815 292.282C501.94 292.282 465.239 292.282 454.524 292.282L423.131 362.843C423.131 362.843 418.216 368.514 406.805 368.514C395.394 368.514 392.452 362.843 392.452 362.843C392.452 362.843 399.284 244.539 431.936 237.36C507.334 220.784 563.779 230.219 563.779 230.219C563.779 230.219 568.15 292.282 518.815 292.282Z" fill="#287CA6"/>
<path fill-rule="evenodd" clip-rule="evenodd" d="M518.815 292.282C501.94 292.282 465.239 292.282 454.524 292.282L423.131 362.843C423.131 362.843 418.216 368.514 406.805 368.514C395.394 368.514 392.452 362.843 392.452 362.843C392.452 362.843 399.284 244.539 431.936 237.36C507.334 220.784 563.779 230.219 563.779 230.219C563.779 230.219 568.15 292.282 518.815 292.282Z" fill="url(#paint28_linear)"/>
<defs>
<linearGradient id="paint0_linear" x1="448.646" y1="557.882" x2="448.646" y2="596" gradientUnits="userSpaceOnUse">
<stop stop-color="#4E565C" stop-opacity="0.01"/>
<stop offset="1" stop-opacity="0.05"/>
</linearGradient>
<linearGradient id="paint1_linear" x1="424.07" y1="562.647" x2="427.631" y2="581.015" gradientUnits="userSpaceOnUse">
<stop stop-opacity="0.15"/>
<stop offset="1" stop-opacity="0.01"/>
</linearGradient>
<linearGradient id="paint2_linear" x1="270.093" y1="557.882" x2="270.093" y2="596" gradientUnits="userSpaceOnUse">
<stop stop-color="#4E565C" stop-opacity="0.01"/>
<stop offset="1" stop-opacity="0.05"/>
</linearGradient>
<linearGradient id="paint3_linear" x1="245.517" y1="562.647" x2="249.078" y2="581.015" gradientUnits="userSpaceOnUse">
<stop stop-opacity="0.15"/>
<stop offset="1" stop-opacity="0.01"/>
</linearGradient>
<linearGradient id="paint4_linear" x1="240" y1="273" x2="240" y2="557.882" gradientUnits="userSpaceOnUse">
<stop stop-color="#393E41" stop-opacity="0.01"/>
<stop offset="1" stop-opacity="0.2"/>
</linearGradient>
<linearGradient id="paint5_linear" x1="626.697" y1="503.714" x2="590.532" y2="377.668" gradientUnits="userSpaceOnUse">
<stop stop-opacity="0.3"/>
<stop offset="1" stop-color="#393E41" stop-opacity="0.01"/>
</linearGradient>
<linearGradient id="paint6_linear" x1="265.078" y1="464.593" x2="265.078" y2="532.804" gradientUnits="userSpaceOnUse">
<stop stop-color="#4E565C" stop-opacity="0.01"/>
<stop offset="1" stop-opacity="0.05"/>
</linearGradient>
<linearGradient id="paint7_linear" x1="458.176" y1="502.711" x2="452.552" y2="475.799" gradientUnits="userSpaceOnUse">
<stop stop-opacity="0.3"/>
<stop offset="1" stop-color="#393E41" stop-opacity="0.01"/>
</linearGradient>
<linearGradient id="paint8_linear" x1="626.697" y1="420.457" x2="590.532" y2="294.411" gradientUnits="userSpaceOnUse">
<stop stop-opacity="0.3"/>
<stop offset="1" stop-color="#393E41" stop-opacity="0.01"/>
</linearGradient>
<linearGradient id="paint9_linear" x1="265.078" y1="381.335" x2="265.078" y2="449.547" gradientUnits="userSpaceOnUse">
<stop stop-color="#4E565C" stop-opacity="0.01"/>
<stop offset="1" stop-opacity="0.05"/>
</linearGradient>
<linearGradient id="paint10_linear" x1="455.166" y1="419.453" x2="449.543" y2="392.542" gradientUnits="userSpaceOnUse">
<stop stop-opacity="0.3"/>
<stop offset="1" stop-color="#393E41" stop-opacity="0.01"/>
</linearGradient>
<linearGradient id="paint11_linear" x1="626.697" y1="337.199" x2="590.532" y2="211.153" gradientUnits="userSpaceOnUse">
<stop stop-opacity="0.3"/>
<stop offset="1" stop-color="#393E41" stop-opacity="0.01"/>
</linearGradient>
<linearGradient id="paint12_linear" x1="265.078" y1="298.078" x2="265.078" y2="366.289" gradientUnits="userSpaceOnUse">
<stop stop-color="#4E565C" stop-opacity="0.01"/>
<stop offset="1" stop-opacity="0.05"/>
</linearGradient>
<linearGradient id="paint13_linear" x1="455.166" y1="336.196" x2="449.543" y2="309.284" gradientUnits="userSpaceOnUse">
<stop stop-opacity="0.3"/>
<stop offset="1" stop-color="#393E41" stop-opacity="0.01"/>
</linearGradient>
<linearGradient id="paint14_linear" x1="418.266" y1="13.2984" x2="418.266" y2="224.379" gradientUnits="userSpaceOnUse">
<stop stop-color="#403F9F" stop-opacity="0.01"/>
<stop offset="1" stop-opacity="0.2"/>
</linearGradient>
<linearGradient id="paint15_linear" x1="239.281" y1="284.562" x2="354.289" y2="264.283" gradientUnits="userSpaceOnUse">
<stop stop-color="#A7A7EE" stop-opacity="0.01"/>
<stop offset="1" stop-color="#4C55A0" stop-opacity="0.2"/>
</linearGradient>
<linearGradient id="paint16_linear" x1="293.778" y1="155.422" x2="293.778" y2="269.851" gradientUnits="userSpaceOnUse">
<stop stop-color="#403F9F" stop-opacity="0.01"/>
<stop offset="1" stop-opacity="0.2"/>
</linearGradient>
<linearGradient id="paint17_linear" x1="472.822" y1="135.972" x2="472.822" y2="219.746" gradientUnits="userSpaceOnUse">
<stop stop-color="#A7A7EE" stop-opacity="0.01"/>
<stop offset="1" stop-color="#4C55A0" stop-opacity="0.2"/>
</linearGradient>
<linearGradient id="paint18_linear" x1="504.62" y1="156.339" x2="468.982" y2="153.07" gradientUnits="userSpaceOnUse">
<stop stop-color="#464D89" stop-opacity="0.6"/>
<stop offset="1" stop-color="#A7A7EE" stop-opacity="0.01"/>
</linearGradient>
<linearGradient id="paint19_linear" x1="391.52" y1="235.223" x2="391.52" y2="272.502" gradientUnits="userSpaceOnUse">
<stop stop-color="#FFC62C" stop-opacity="0.01"/>
<stop offset="1" stop-color="#FF6663" stop-opacity="0.1"/>
</linearGradient>
<linearGradient id="paint20_linear" x1="482.494" y1="118.98" x2="482.494" y2="276.98" gradientUnits="userSpaceOnUse">
<stop stop-color="#A7A7EE" stop-opacity="0.01"/>
<stop offset="1" stop-color="#4C55A0" stop-opacity="0.2"/>
</linearGradient>
<linearGradient id="paint21_linear" x1="463.545" y1="228.979" x2="548.517" y2="293.649" gradientUnits="userSpaceOnUse">
<stop stop-color="#464D89" stop-opacity="0.3"/>
<stop offset="1" stop-color="#A7A7EE" stop-opacity="0.01"/>
</linearGradient>
<linearGradient id="paint22_linear" x1="473.468" y1="86.0377" x2="473.468" y2="134.455" gradientUnits="userSpaceOnUse">
<stop stop-color="#FFC62C" stop-opacity="0.01"/>
<stop offset="1" stop-color="#FF6663" stop-opacity="0.1"/>
</linearGradient>
<linearGradient id="paint23_linear" x1="473.468" y1="86.0377" x2="473.468" y2="129.992" gradientUnits="userSpaceOnUse">
<stop stop-color="#FFC62C" stop-opacity="0.01"/>
<stop offset="1" stop-color="#FF6663" stop-opacity="0.1"/>
</linearGradient>
<linearGradient id="paint24_linear" x1="408.359" y1="124.317" x2="408.359" y2="255.207" gradientUnits="userSpaceOnUse">
<stop stop-color="#A7A7EE" stop-opacity="0.01"/>
<stop offset="1" stop-color="#4C55A0" stop-opacity="0.2"/>
</linearGradient>
<linearGradient id="paint25_linear" x1="445.033" y1="9" x2="445.033" y2="219.632" gradientUnits="userSpaceOnUse">
<stop stop-color="#403F9F" stop-opacity="0.01"/>
<stop offset="1" stop-opacity="0.2"/>
</linearGradient>
<linearGradient id="paint26_linear" x1="510.259" y1="72.9052" x2="501.034" y2="82.1295" gradientUnits="userSpaceOnUse">
<stop stop-opacity="0.2"/>
<stop offset="1" stop-color="#FF6663" stop-opacity="0.01"/>
</linearGradient>
<linearGradient id="paint27_linear" x1="356.013" y1="350.225" x2="356.013" y2="422" gradientUnits="userSpaceOnUse">
<stop stop-color="#A7A7EE" stop-opacity="0.01"/>
<stop offset="1" stop-color="#4C55A0" stop-opacity="0.2"/>
</linearGradient>
<linearGradient id="paint28_linear" x1="392.452" y1="226.797" x2="392.452" y2="368.514" gradientUnits="userSpaceOnUse">
<stop stop-color="#403F9F" stop-opacity="0.01"/>
<stop offset="1" stop-opacity="0.2"/>
</linearGradient>
</defs>
</svg>
