<svg width="84" height="141" viewBox="0 0 84 141" fill="none" xmlns="http://www.w3.org/2000/svg">
<path fill-rule="evenodd" clip-rule="evenodd" d="M8.11675 76.0658H12.2911C13.5719 76.0658 14.6102 77.1041 14.6102 78.3849C14.6102 79.6657 13.5719 80.704 12.2911 80.704H8.11675C6.83596 80.704 5.79767 79.6657 5.79767 78.3849C5.79767 77.1041 6.83596 76.0658 8.11675 76.0658Z" fill="#287CA6"/>
<path fill-rule="evenodd" clip-rule="evenodd" d="M8.11675 76.0658H12.2911C13.5719 76.0658 14.6102 77.1041 14.6102 78.3849C14.6102 79.6657 13.5719 80.704 12.2911 80.704H8.11675C6.83596 80.704 5.79767 79.6657 5.79767 78.3849C5.79767 77.1041 6.83596 76.0658 8.11675 76.0658Z" fill="url(#paint0_linear)"/>
<path fill-rule="evenodd" clip-rule="evenodd" d="M8.11675 60.296H12.2911C13.5719 60.296 14.6102 61.3343 14.6102 62.6151C14.6102 63.8959 13.5719 64.9342 12.2911 64.9342H8.11675C6.83596 64.9342 5.79767 63.8959 5.79767 62.6151C5.79767 61.3343 6.83596 60.296 8.11675 60.296Z" fill="#287CA6"/>
<path fill-rule="evenodd" clip-rule="evenodd" d="M8.11675 60.296H12.2911C13.5719 60.296 14.6102 61.3343 14.6102 62.6151C14.6102 63.8959 13.5719 64.9342 12.2911 64.9342H8.11675C6.83596 64.9342 5.79767 63.8959 5.79767 62.6151C5.79767 61.3343 6.83596 60.296 8.11675 60.296Z" fill="url(#paint1_linear)"/>
<rect x="8.34866" y="11.5953" width="3.71053" height="117.809" fill="#287CA6"/>
<rect x="8.34866" y="11.5953" width="3.71053" height="117.809" fill="url(#paint2_linear)"/>
<path fill-rule="evenodd" clip-rule="evenodd" d="M10.2039 76.0658C13.2778 76.0658 15.7697 73.5739 15.7697 70.5C15.7697 67.4261 13.2778 64.9342 10.2039 64.9342C7.13001 64.9342 4.63812 67.4261 4.63812 70.5C4.63812 73.5739 7.13001 76.0658 10.2039 76.0658Z" fill="#66D4F2"/>
<path fill-rule="evenodd" clip-rule="evenodd" d="M10.2039 76.0658C13.2778 76.0658 15.7697 73.5739 15.7697 70.5C15.7697 67.4261 13.2778 64.9342 10.2039 64.9342C7.13001 64.9342 4.63812 67.4261 4.63812 70.5C4.63812 73.5739 7.13001 76.0658 10.2039 76.0658Z" fill="url(#paint3_linear)"/>
<path fill-rule="evenodd" clip-rule="evenodd" d="M16.2336 11.5953H67.2533V43.2898C67.2533 48.9212 63.8435 53.9973 58.6155 56.1488C50.396 59.5313 46.2863 63.9072 46.2863 69.2764C46.2863 74.8535 50.7202 79.8763 59.5882 84.3448C64.2897 86.7138 67.2533 91.5137 67.2533 96.7593V129.405H16.2336L16.2336 96.6414C16.2336 91.438 19.15 86.6695 23.7936 84.2804C32.7316 79.6817 37.2006 74.6804 37.2006 69.2764C37.2006 64.0723 33.056 59.7253 24.7667 56.2354C19.5945 54.0578 16.2336 49.0103 16.2336 43.42L16.2336 11.5953Z" fill="#F2F5F9"/>
<path fill-rule="evenodd" clip-rule="evenodd" d="M16.2336 11.5953H67.2533V43.2898C67.2533 48.9212 63.8435 53.9973 58.6155 56.1488C50.396 59.5313 46.2863 63.9072 46.2863 69.2764C46.2863 74.8535 50.7202 79.8763 59.5882 84.3448C64.2897 86.7138 67.2533 91.5137 67.2533 96.7593V129.405H16.2336L16.2336 96.6414C16.2336 91.438 19.15 86.6695 23.7936 84.2804C32.7316 79.6817 37.2006 74.6804 37.2006 69.2764C37.2006 64.0723 33.056 59.7253 24.7667 56.2354C19.5945 54.0578 16.2336 49.0103 16.2336 43.42L16.2336 11.5953Z" fill="url(#paint4_linear)"/>
<path fill-rule="evenodd" clip-rule="evenodd" d="M59.4124 112.78C64.1651 117.872 64.9342 121.405 64.9342 127.086H18.5526C18.5526 121.713 19.2773 117.934 23.9794 112.78C27.3745 109.059 39.9954 100.617 39.9954 95.3091C39.9954 90.0009 39.9443 67.1621 39.9443 66.9843C39.9443 61.9877 33.8457 57.814 26.3101 54.4634C21.608 52.3726 18.5526 47.5264 18.5526 42.159C18.5526 37.1992 18.5526 33.504 18.5526 31.0734C18.5526 31.0691 23.1779 26.6694 30.148 26.6694C33.7651 26.6694 37.7112 29.421 41.7434 32.0033C45.4815 34.3972 49.3996 36.6362 53.3388 36.6362C61.5274 36.6362 64.9342 31.0498 64.9342 31.0734C64.9342 33.4667 64.9342 37.1202 64.9342 42.034C64.9342 47.4408 61.8344 52.3145 57.0817 54.3802C49.6094 57.6278 43.5426 61.8292 43.5426 66.9843C43.5426 67.1621 43.4404 90.0009 43.4915 95.3091C43.5426 100.617 56.0561 109.184 59.4124 112.78Z" fill="#DD784D"/>
<path fill-rule="evenodd" clip-rule="evenodd" d="M59.4124 112.78C64.1651 117.872 64.9342 121.405 64.9342 127.086H18.5526C18.5526 121.713 19.2773 117.934 23.9794 112.78C27.3745 109.059 39.9954 100.617 39.9954 95.3091C39.9954 90.0009 39.9443 67.1621 39.9443 66.9843C39.9443 61.9877 33.8457 57.814 26.3101 54.4634C21.608 52.3726 18.5526 47.5264 18.5526 42.159C18.5526 37.1992 18.5526 33.504 18.5526 31.0734C18.5526 31.0691 23.1779 26.6694 30.148 26.6694C33.7651 26.6694 37.7112 29.421 41.7434 32.0033C45.4815 34.3972 49.3996 36.6362 53.3388 36.6362C61.5274 36.6362 64.9342 31.0498 64.9342 31.0734C64.9342 33.4667 64.9342 37.1202 64.9342 42.034C64.9342 47.4408 61.8344 52.3145 57.0817 54.3802C49.6094 57.6278 43.5426 61.8292 43.5426 66.9843C43.5426 67.1621 43.4404 90.0009 43.4915 95.3091C43.5426 100.617 56.0561 109.184 59.4124 112.78Z" fill="url(#paint5_linear)"/>
<rect opacity="0.3" x="20.8717" y="19.2484" width="5.56579" height="16.2336" rx="2.78289" fill="white"/>
<path fill-rule="evenodd" clip-rule="evenodd" d="M39.4786 76.0658H43.6529C44.9337 76.0658 45.972 77.1041 45.972 78.3849C45.972 79.6657 44.9337 80.704 43.6529 80.704H39.4786C38.1978 80.704 37.1595 79.6657 37.1595 78.3849C37.1595 77.1041 38.1978 76.0658 39.4786 76.0658Z" fill="#287CA6"/>
<path fill-rule="evenodd" clip-rule="evenodd" d="M39.4786 76.0658H43.6529C44.9337 76.0658 45.972 77.1041 45.972 78.3849C45.972 79.6657 44.9337 80.704 43.6529 80.704H39.4786C38.1978 80.704 37.1595 79.6657 37.1595 78.3849C37.1595 77.1041 38.1978 76.0658 39.4786 76.0658Z" fill="url(#paint6_linear)"/>
<path fill-rule="evenodd" clip-rule="evenodd" d="M39.4786 60.296H43.6529C44.9337 60.296 45.972 61.3343 45.972 62.6151C45.972 63.8959 44.9337 64.9342 43.6529 64.9342H39.4786C38.1978 64.9342 37.1595 63.8959 37.1595 62.6151C37.1595 61.3343 38.1978 60.296 39.4786 60.296Z" fill="#287CA6"/>
<path fill-rule="evenodd" clip-rule="evenodd" d="M39.4786 60.296H43.6529C44.9337 60.296 45.972 61.3343 45.972 62.6151C45.972 63.8959 44.9337 64.9342 43.6529 64.9342H39.4786C38.1978 64.9342 37.1595 63.8959 37.1595 62.6151C37.1595 61.3343 38.1978 60.296 39.4786 60.296Z" fill="url(#paint7_linear)"/>
<rect x="39.7105" y="11.5953" width="3.71053" height="117.809" fill="#287CA6"/>
<rect x="39.7105" y="11.5953" width="3.71053" height="117.809" fill="url(#paint8_linear)"/>
<path fill-rule="evenodd" clip-rule="evenodd" d="M41.5658 76.0658C44.6397 76.0658 47.1315 73.5739 47.1315 70.5C47.1315 67.4261 44.6397 64.9342 41.5658 64.9342C38.4919 64.9342 36 67.4261 36 70.5C36 73.5739 38.4919 76.0658 41.5658 76.0658Z" fill="#66D4F2"/>
<path fill-rule="evenodd" clip-rule="evenodd" d="M41.5658 76.0658C44.6397 76.0658 47.1315 73.5739 47.1315 70.5C47.1315 67.4261 44.6397 64.9342 41.5658 64.9342C38.4919 64.9342 36 67.4261 36 70.5C36 73.5739 38.4919 76.0658 41.5658 76.0658Z" fill="url(#paint9_linear)"/>
<rect opacity="0.3" x="20.8717" y="37.801" width="5.56579" height="5.56579" rx="2.78289" fill="white"/>
<path fill-rule="evenodd" clip-rule="evenodd" d="M53.3388 26.6694C60.3089 26.6694 64.9342 31.0714 64.9342 31.0757C64.9342 31.0522 61.5274 36.6415 53.3388 36.6415C49.3996 36.6415 45.4814 34.3954 41.7434 32.0033C45.7757 29.423 49.7218 26.6694 53.3388 26.6694Z" fill="#B67053"/>
<path fill-rule="evenodd" clip-rule="evenodd" d="M5.7977 129.405H77.6891C80.8911 129.405 83.4868 132 83.4868 135.202C83.4868 138.404 80.8911 141 77.6891 141H5.7977C2.59572 141 0 138.404 0 135.202C0 132 2.59572 129.405 5.7977 129.405Z" fill="#287CA6"/>
<path fill-rule="evenodd" clip-rule="evenodd" d="M5.7977 129.405H77.6891C80.8911 129.405 83.4868 132 83.4868 135.202C83.4868 138.404 80.8911 141 77.6891 141H5.7977C2.59572 141 0 138.404 0 135.202C0 132 2.59572 129.405 5.7977 129.405Z" fill="url(#paint10_linear)"/>
<path fill-rule="evenodd" clip-rule="evenodd" d="M71.1957 76.0658H75.3701C76.6509 76.0658 77.6891 77.1041 77.6891 78.3849C77.6891 79.6657 76.6509 80.704 75.3701 80.704H71.1957C69.9149 80.704 68.8766 79.6657 68.8766 78.3849C68.8766 77.1041 69.9149 76.0658 71.1957 76.0658Z" fill="#287CA6"/>
<path fill-rule="evenodd" clip-rule="evenodd" d="M71.1957 76.0658H75.3701C76.6509 76.0658 77.6891 77.1041 77.6891 78.3849C77.6891 79.6657 76.6509 80.704 75.3701 80.704H71.1957C69.9149 80.704 68.8766 79.6657 68.8766 78.3849C68.8766 77.1041 69.9149 76.0658 71.1957 76.0658Z" fill="url(#paint11_linear)"/>
<path fill-rule="evenodd" clip-rule="evenodd" d="M71.1957 60.296H75.3701C76.6509 60.296 77.6891 61.3343 77.6891 62.6151C77.6891 63.8959 76.6509 64.9342 75.3701 64.9342H71.1957C69.9149 64.9342 68.8766 63.8959 68.8766 62.6151C68.8766 61.3343 69.9149 60.296 71.1957 60.296Z" fill="#287CA6"/>
<path fill-rule="evenodd" clip-rule="evenodd" d="M71.1957 60.296H75.3701C76.6509 60.296 77.6891 61.3343 77.6891 62.6151C77.6891 63.8959 76.6509 64.9342 75.3701 64.9342H71.1957C69.9149 64.9342 68.8766 63.8959 68.8766 62.6151C68.8766 61.3343 69.9149 60.296 71.1957 60.296Z" fill="url(#paint12_linear)"/>
<rect x="71.4276" y="11.5953" width="3.71053" height="117.809" fill="#287CA6"/>
<rect x="71.4276" y="11.5953" width="3.71053" height="117.809" fill="url(#paint13_linear)"/>
<path fill-rule="evenodd" clip-rule="evenodd" d="M73.2829 76.0658C76.3568 76.0658 78.8487 73.5739 78.8487 70.5C78.8487 67.4261 76.3568 64.9342 73.2829 64.9342C70.209 64.9342 67.7171 67.4261 67.7171 70.5C67.7171 73.5739 70.209 76.0658 73.2829 76.0658Z" fill="#66D4F2"/>
<path fill-rule="evenodd" clip-rule="evenodd" d="M73.2829 76.0658C76.3568 76.0658 78.8487 73.5739 78.8487 70.5C78.8487 67.4261 76.3568 64.9342 73.2829 64.9342C70.209 64.9342 67.7171 67.4261 67.7171 70.5C67.7171 73.5739 70.209 76.0658 73.2829 76.0658Z" fill="url(#paint14_linear)"/>
<path fill-rule="evenodd" clip-rule="evenodd" d="M5.7977 0H77.6891C80.8911 0 83.4868 2.59572 83.4868 5.7977C83.4868 8.99968 80.8911 11.5954 77.6891 11.5954H5.7977C2.59572 11.5954 0 8.99968 0 5.7977C0 2.59572 2.59572 0 5.7977 0Z" fill="#287CA6"/>
<path fill-rule="evenodd" clip-rule="evenodd" d="M5.7977 0H77.6891C80.8911 0 83.4868 2.59572 83.4868 5.7977C83.4868 8.99968 80.8911 11.5954 77.6891 11.5954H5.7977C2.59572 11.5954 0 8.99968 0 5.7977C0 2.59572 2.59572 0 5.7977 0Z" fill="url(#paint15_linear)"/>
<defs>
<linearGradient id="paint0_linear" x1="5.79767" y1="76.0658" x2="5.79767" y2="80.704" gradientUnits="userSpaceOnUse">
<stop stop-color="#403F9F" stop-opacity="0.01"/>
<stop offset="1" stop-opacity="0.2"/>
</linearGradient>
<linearGradient id="paint1_linear" x1="5.79767" y1="60.296" x2="5.79767" y2="64.9342" gradientUnits="userSpaceOnUse">
<stop stop-color="#403F9F" stop-opacity="0.01"/>
<stop offset="1" stop-opacity="0.2"/>
</linearGradient>
<linearGradient id="paint2_linear" x1="8.34866" y1="11.5953" x2="8.34866" y2="129.405" gradientUnits="userSpaceOnUse">
<stop stop-color="#403F9F" stop-opacity="0.01"/>
<stop offset="1" stop-opacity="0.2"/>
</linearGradient>
<linearGradient id="paint3_linear" x1="4.63812" y1="64.9342" x2="4.63812" y2="76.0658" gradientUnits="userSpaceOnUse">
<stop stop-color="#403F9F" stop-opacity="0.01"/>
<stop offset="1" stop-opacity="0.2"/>
</linearGradient>
<linearGradient id="paint4_linear" x1="-9.82093" y1="67.9848" x2="77.3632" y2="106.548" gradientUnits="userSpaceOnUse">
<stop stop-color="#F2F5F9" stop-opacity="0.01"/>
<stop offset="1" stop-color="#403F9F" stop-opacity="0.2"/>
</linearGradient>
<linearGradient id="paint5_linear" x1="18.5526" y1="26.6694" x2="18.5526" y2="127.086" gradientUnits="userSpaceOnUse">
<stop stop-color="#E2628C" stop-opacity="0.01"/>
<stop offset="1" stop-color="#C74D75" stop-opacity="0.2"/>
</linearGradient>
<linearGradient id="paint6_linear" x1="37.1595" y1="76.0658" x2="37.1595" y2="80.704" gradientUnits="userSpaceOnUse">
<stop stop-color="#403F9F" stop-opacity="0.01"/>
<stop offset="1" stop-opacity="0.2"/>
</linearGradient>
<linearGradient id="paint7_linear" x1="37.1595" y1="60.296" x2="37.1595" y2="64.9342" gradientUnits="userSpaceOnUse">
<stop stop-color="#403F9F" stop-opacity="0.01"/>
<stop offset="1" stop-opacity="0.2"/>
</linearGradient>
<linearGradient id="paint8_linear" x1="39.7105" y1="11.5953" x2="39.7105" y2="129.405" gradientUnits="userSpaceOnUse">
<stop stop-color="#403F9F" stop-opacity="0.01"/>
<stop offset="1" stop-opacity="0.2"/>
</linearGradient>
<linearGradient id="paint9_linear" x1="36" y1="64.9342" x2="36" y2="76.0658" gradientUnits="userSpaceOnUse">
<stop stop-color="#403F9F" stop-opacity="0.01"/>
<stop offset="1" stop-opacity="0.2"/>
</linearGradient>
<linearGradient id="paint10_linear" x1="0" y1="129.405" x2="0" y2="141" gradientUnits="userSpaceOnUse">
<stop stop-color="#403F9F" stop-opacity="0.01"/>
<stop offset="1" stop-opacity="0.2"/>
</linearGradient>
<linearGradient id="paint11_linear" x1="68.8766" y1="76.0658" x2="68.8766" y2="80.704" gradientUnits="userSpaceOnUse">
<stop stop-color="#403F9F" stop-opacity="0.01"/>
<stop offset="1" stop-opacity="0.2"/>
</linearGradient>
<linearGradient id="paint12_linear" x1="68.8766" y1="60.296" x2="68.8766" y2="64.9342" gradientUnits="userSpaceOnUse">
<stop stop-color="#403F9F" stop-opacity="0.01"/>
<stop offset="1" stop-opacity="0.2"/>
</linearGradient>
<linearGradient id="paint13_linear" x1="71.4276" y1="11.5953" x2="71.4276" y2="129.405" gradientUnits="userSpaceOnUse">
<stop stop-color="#403F9F" stop-opacity="0.01"/>
<stop offset="1" stop-opacity="0.2"/>
</linearGradient>
<linearGradient id="paint14_linear" x1="67.7171" y1="64.9342" x2="67.7171" y2="76.0658" gradientUnits="userSpaceOnUse">
<stop stop-color="#403F9F" stop-opacity="0.01"/>
<stop offset="1" stop-opacity="0.2"/>
</linearGradient>
<linearGradient id="paint15_linear" x1="0" y1="0" x2="0" y2="11.5954" gradientUnits="userSpaceOnUse">
<stop stop-color="#339BCF"/>
<stop offset="1" stop-opacity="0.2"/>
</linearGradient>
</defs>
</svg>
