<svg width="113" height="117" viewBox="0 0 113 117" fill="none" xmlns="http://www.w3.org/2000/svg">
<path fill-rule="evenodd" clip-rule="evenodd" d="M0 47.3704C37.3347 15.7901 56.168 0 56.5 0C56.832 0 75.6653 15.7901 113 47.3704V111.277C113 114.131 110.686 116.445 107.832 116.445H5.16768C2.31365 116.445 0 114.131 0 111.277V47.3704Z" fill="#287CA6"/>
<path fill-rule="evenodd" clip-rule="evenodd" d="M0 47.3704C37.3347 15.7901 56.168 0 56.5 0C56.832 0 75.6653 15.7901 113 47.3704V111.277C113 114.131 110.686 116.445 107.832 116.445H5.16768C2.31365 116.445 0 114.131 0 111.277V47.3704Z" fill="url(#paint0_linear)"/>
<rect x="8.61282" y="47.3704" width="95.7744" height="69.0747" rx="30" fill="#DD784D"/>
<rect x="8.61282" y="47.3704" width="95.7744" height="69.0747" rx="30" fill="url(#paint1_linear)"/>
<path fill-rule="evenodd" clip-rule="evenodd" d="M56.5 87.8505L113 47.3704V111.277C113 114.131 110.686 116.445 107.832 116.445H5.16768C2.31365 116.445 0 114.131 0 111.277V47.3704L56.5 87.8505Z" fill="#4DB2DD"/>
<path fill-rule="evenodd" clip-rule="evenodd" d="M56.5 87.8505L113 47.3704V111.277C113 114.131 110.686 116.445 107.832 116.445H5.16768C2.31365 116.445 0 114.131 0 111.277V47.3704L56.5 87.8505Z" fill="url(#paint2_linear)"/>
<path fill-rule="evenodd" clip-rule="evenodd" d="M0 47.3704V47.1982C1.45948 45.9753 2.89069 44.766 4.3064 43.5808L56.5 81.1326L108.694 43.5808C110.109 44.766 111.541 45.9753 113 47.1982V47.3704L56.5 88.0229L0 47.3704Z" fill="url(#paint3_linear)"/>
<defs>
<linearGradient id="paint0_linear" x1="0" y1="0" x2="0" y2="116.445" gradientUnits="userSpaceOnUse">
<stop stop-color="#AF3B6E" stop-opacity="0.01"/>
<stop offset="1" stop-opacity="0.2"/>
</linearGradient>
<linearGradient id="paint1_linear" x1="8.61282" y1="47.3704" x2="8.61282" y2="116.445" gradientUnits="userSpaceOnUse">
<stop stop-color="white" stop-opacity="0.01"/>
<stop offset="1" stop-opacity="0.05"/>
</linearGradient>
<linearGradient id="paint2_linear" x1="0" y1="47.3704" x2="0" y2="116.445" gradientUnits="userSpaceOnUse">
<stop stop-color="#E478A3" stop-opacity="0.01"/>
<stop offset="1" stop-color="#AF3B6E" stop-opacity="0.3"/>
</linearGradient>
<linearGradient id="paint3_linear" x1="0" y1="65.8018" x2="113" y2="65.8018" gradientUnits="userSpaceOnUse">
<stop stop-color="#AF3B6E" stop-opacity="0.01"/>
<stop offset="1" stop-opacity="0.1"/>
</linearGradient>
</defs>
</svg>
