<svg width="300" height="300" viewBox="0 0 300 300" fill="none" xmlns="http://www.w3.org/2000/svg">
<g clip-path="url(#clip0)">
<path fill-rule="evenodd" clip-rule="evenodd" d="M151.027 277.441C91.8566 252.126 53.221 339.077 38.0137 277.441C22.7524 215.774 0 235.724 0 203.034C0 170.274 23.6533 166.187 27.226 140.106C32.0462 104.997 15.088 86.0251 21.3185 64.5119C32.2956 26.6282 85.7026 -28.1184 157.449 17.0185C229.189 62.1531 313.623 34.0745 289.983 108.047C266.348 182.196 313.623 182.196 295.89 242.216C278.264 302.003 209.969 302.724 151.027 277.441Z" fill="#F2F5F9"/>
<path fill-rule="evenodd" clip-rule="evenodd" d="M192.347 164.282C193.963 168.094 196.19 172.75 194.388 177.114C192.585 181.477 188.563 184.013 188.563 180.563C188.563 177.114 189.391 174.396 188.982 172.971C188.573 171.546 188.573 174.933 187.301 174.933C186.028 174.933 186.777 165.201 186.777 165.201C186.777 165.201 190.732 160.47 192.347 164.282Z" fill="#DD784D"/>
<path fill-rule="evenodd" clip-rule="evenodd" d="M192.347 164.282C193.963 168.094 196.19 172.75 194.388 177.114C192.585 181.477 188.563 184.013 188.563 180.563C188.563 177.114 189.391 174.396 188.982 172.971C188.573 171.546 188.573 174.933 187.301 174.933C186.028 174.933 186.777 165.201 186.777 165.201C186.777 165.201 190.732 160.47 192.347 164.282Z" fill="url(#paint0_linear)"/>
<path fill-rule="evenodd" clip-rule="evenodd" d="M181.472 139.831C182.001 142.908 183.947 163.263 185.474 164.983C187.446 167.204 190.728 167.204 192.88 164.983C196.956 160.774 195.285 133.105 193.71 124.543C192.136 115.982 187.013 108.094 187.013 108.094C187.013 108.094 180.18 132.299 181.472 139.831Z" fill="#66D4F2"/>
<path fill-rule="evenodd" clip-rule="evenodd" d="M181.472 139.831C182.001 142.908 183.947 163.263 185.474 164.983C187.446 167.204 190.728 167.204 192.88 164.983C196.956 160.774 195.285 133.105 193.71 124.543C192.136 115.982 187.013 108.094 187.013 108.094C187.013 108.094 180.18 132.299 181.472 139.831Z" fill="url(#paint1_linear)"/>
<path fill-rule="evenodd" clip-rule="evenodd" d="M181.472 139.831C182.001 142.908 183.947 163.263 185.474 164.983C187.446 167.204 190.728 167.204 192.88 164.983C196.956 160.774 195.285 133.105 193.71 124.543C192.136 115.982 187.013 108.094 187.013 108.094C187.013 108.094 180.18 132.299 181.472 139.831Z" fill="url(#paint2_linear)"/>
<path fill-rule="evenodd" clip-rule="evenodd" d="M171.051 261.339C161.337 259.588 156.64 257.515 156.64 253.527C156.64 250.632 161.884 249.061 165.955 249.944C165.955 249.944 178.619 257.212 179.746 257.082C179.632 260.634 178.521 262.686 171.051 261.339Z" fill="#282828"/>
<path fill-rule="evenodd" clip-rule="evenodd" d="M171.051 261.339C161.337 259.588 156.64 257.515 156.64 253.527C156.64 250.632 161.884 249.061 165.955 249.944C165.955 249.944 178.619 257.212 179.746 257.082C179.632 260.634 178.521 262.686 171.051 261.339Z" fill="url(#paint3_linear)"/>
<path fill-rule="evenodd" clip-rule="evenodd" d="M135.342 261.032C125.629 259.28 120.931 257.207 120.931 253.22C120.931 250.739 124.781 249.23 128.444 249.404C128.402 249.884 142.355 256.634 144.048 256.229C144.018 260.111 143.187 262.446 135.342 261.032Z" fill="#282828"/>
<path fill-rule="evenodd" clip-rule="evenodd" d="M135.342 261.032C125.629 259.28 120.931 257.207 120.931 253.22C120.931 250.739 124.781 249.23 128.444 249.404C128.402 249.884 142.355 256.634 144.048 256.229C144.018 260.111 143.187 262.446 135.342 261.032Z" fill="url(#paint4_linear)"/>
<path fill-rule="evenodd" clip-rule="evenodd" d="M182.498 156.445C185.576 173.343 185.576 253.927 185.576 253.927C185.576 253.927 184.904 257.277 175.88 257.277C166.855 257.277 166.183 253.927 166.183 253.927L162.181 183.914L147.713 253.927C147.713 253.927 145.519 257.286 137.536 256.392C129.553 255.498 128.319 250.849 128.319 250.849C128.319 250.849 136.268 158.59 140.94 150.415C145.447 142.556 179.42 139.547 182.498 156.445Z" fill="#287CA6"/>
<path fill-rule="evenodd" clip-rule="evenodd" d="M182.498 156.445C185.576 173.343 185.576 253.927 185.576 253.927C185.576 253.927 184.904 257.277 175.88 257.277C166.855 257.277 166.183 253.927 166.183 253.927L162.181 183.914L147.713 253.927C147.713 253.927 145.519 257.286 137.536 256.392C129.553 255.498 128.319 250.849 128.319 250.849C128.319 250.849 136.268 158.59 140.94 150.415C145.447 142.556 179.42 139.547 182.498 156.445Z" fill="url(#paint5_linear)"/>
<mask id="mask0" mask-type="alpha" maskUnits="userSpaceOnUse" x="128" y="144" width="58" height="114">
<path fill-rule="evenodd" clip-rule="evenodd" d="M182.498 156.445C185.576 173.343 185.576 253.927 185.576 253.927C185.576 253.927 184.904 257.277 175.88 257.277C166.855 257.277 166.183 253.927 166.183 253.927L162.181 183.914L147.713 253.927C147.713 253.927 145.519 257.286 137.536 256.392C129.553 255.498 128.319 250.849 128.319 250.849C128.319 250.849 136.268 158.59 140.94 150.415C145.447 142.556 179.42 139.547 182.498 156.445Z" fill="white"/>
<path fill-rule="evenodd" clip-rule="evenodd" d="M182.498 156.445C185.576 173.343 185.576 253.927 185.576 253.927C185.576 253.927 184.904 257.277 175.88 257.277C166.855 257.277 166.183 253.927 166.183 253.927L162.181 183.914L147.713 253.927C147.713 253.927 145.519 257.286 137.536 256.392C129.553 255.498 128.319 250.849 128.319 250.849C128.319 250.849 136.268 158.59 140.94 150.415C145.447 142.556 179.42 139.547 182.498 156.445Z" stroke="white"/>
</mask>
<g mask="url(#mask0)">
<path d="M161.458 190.959C161.43 191.127 161.272 191.24 161.104 191.213C160.936 191.185 160.823 191.026 160.85 190.859L163.794 172.997C163.822 172.83 163.98 172.716 164.148 172.744C164.316 172.771 164.429 172.93 164.402 173.098L161.458 190.959Z" fill="white"/>
</g>
<path fill-rule="evenodd" clip-rule="evenodd" d="M160.334 88.7006H175.725V102.245H160.334V88.7006Z" fill="#DD784D"/>
<path fill-rule="evenodd" clip-rule="evenodd" d="M160.334 88.7006H175.725V102.245H160.334V88.7006Z" fill="url(#paint6_linear)"/>
<path fill-rule="evenodd" clip-rule="evenodd" d="M109.541 93.626C108.863 90.5733 108.378 88.4311 108.002 87.7771C106.576 85.7568 102.386 81.4642 104.616 78.5421C107.154 75.7712 110.832 76.1538 110.772 74.5402C110.832 72.9906 107.073 66.2948 108.618 65.3052C110.216 64.5037 114.478 76.0102 116.006 76.6951C117.424 77.3867 119.497 76.3814 119.392 78.5421C119.497 80.854 116.169 85.3632 116.621 87.7771C116.763 88.4784 117.139 89.7471 117.545 91.4712C114.877 90.354 111.082 91.2723 109.541 93.626Z" fill="#DD784D"/>
<path fill-rule="evenodd" clip-rule="evenodd" d="M109.541 93.626C108.863 90.5733 108.378 88.4311 108.002 87.7771C106.576 85.7568 102.386 81.4642 104.616 78.5421C107.154 75.7712 110.832 76.1538 110.772 74.5402C110.832 72.9906 107.073 66.2948 108.618 65.3052C110.216 64.5037 114.478 76.0102 116.006 76.6951C117.424 77.3867 119.497 76.3814 119.392 78.5421C119.497 80.854 116.169 85.3632 116.621 87.7771C116.763 88.4784 117.139 89.7471 117.545 91.4712C114.877 90.354 111.082 91.2723 109.541 93.626Z" fill="url(#paint7_linear)"/>
<path fill-rule="evenodd" clip-rule="evenodd" d="M147.416 101.538C150.031 100.331 154.123 99.1068 158.795 98.5037V95.4463C158.795 94.9363 159.208 94.5228 159.718 94.5228C159.785 94.5228 159.851 94.5301 159.916 94.5444C161.799 94.9582 164.504 95.1652 168.03 95.1652C171.556 95.1652 174.26 94.9582 176.143 94.5444C176.641 94.4349 177.134 94.7499 177.243 95.2481C177.258 95.3132 177.265 95.3797 177.265 95.4463V100.388C181.046 101.941 184.483 104.401 187.116 108.094C193 116.35 188.753 146.501 182.806 155.193C176.577 164.175 146.714 164.175 139.401 155.193C135.76 150.96 136.752 138.57 138.909 126.872C132.673 128.612 125.44 129.755 120.931 128.719C114.175 127.334 108.691 100.787 108.691 95.6074C108.691 90.4279 117.29 88.6621 120.05 92.864C122.81 97.066 126.68 109.002 126.68 110.582C126.68 112.162 140.022 104.636 147.228 101.612C147.292 101.585 147.354 101.561 147.416 101.538H147.416Z" fill="#66D4F2"/>
<path fill-rule="evenodd" clip-rule="evenodd" d="M147.416 101.538C150.031 100.331 154.123 99.1068 158.795 98.5037V95.4463C158.795 94.9363 159.208 94.5228 159.718 94.5228C159.785 94.5228 159.851 94.5301 159.916 94.5444C161.799 94.9582 164.504 95.1652 168.03 95.1652C171.556 95.1652 174.26 94.9582 176.143 94.5444C176.641 94.4349 177.134 94.7499 177.243 95.2481C177.258 95.3132 177.265 95.3797 177.265 95.4463V100.388C181.046 101.941 184.483 104.401 187.116 108.094C193 116.35 188.753 146.501 182.806 155.193C176.577 164.175 146.714 164.175 139.401 155.193C135.76 150.96 136.752 138.57 138.909 126.872C132.673 128.612 125.44 129.755 120.931 128.719C114.175 127.334 108.691 100.787 108.691 95.6074C108.691 90.4279 117.29 88.6621 120.05 92.864C122.81 97.066 126.68 109.002 126.68 110.582C126.68 112.162 140.022 104.636 147.228 101.612C147.292 101.585 147.354 101.561 147.416 101.538H147.416Z" fill="url(#paint8_linear)"/>
<mask id="mask1" mask-type="alpha" maskUnits="userSpaceOnUse" x="108" y="90" width="82" height="72">
<path fill-rule="evenodd" clip-rule="evenodd" d="M147.416 101.538C150.031 100.331 154.123 99.1068 158.795 98.5037V95.4463C158.795 94.9363 159.208 94.5228 159.718 94.5228C159.785 94.5228 159.851 94.5301 159.916 94.5444C161.799 94.9582 164.504 95.1652 168.03 95.1652C171.556 95.1652 174.26 94.9582 176.143 94.5444C176.641 94.4349 177.134 94.7499 177.243 95.2481C177.258 95.3132 177.265 95.3797 177.265 95.4463V100.388C181.046 101.941 184.483 104.401 187.116 108.094C193 116.35 188.753 146.501 182.806 155.193C176.577 164.175 146.714 164.175 139.401 155.193C135.76 150.96 136.752 138.57 138.909 126.872C132.673 128.612 125.44 129.755 120.931 128.719C114.175 127.334 108.691 100.787 108.691 95.6074C108.691 90.4279 117.29 88.6621 120.05 92.864C122.81 97.066 126.68 109.002 126.68 110.582C126.68 112.162 140.022 104.636 147.228 101.612C147.292 101.585 147.354 101.561 147.416 101.538H147.416Z" fill="white"/>
<path fill-rule="evenodd" clip-rule="evenodd" d="M147.416 101.538C150.031 100.331 154.123 99.1068 158.795 98.5037V95.4463C158.795 94.9363 159.208 94.5228 159.718 94.5228C159.785 94.5228 159.851 94.5301 159.916 94.5444C161.799 94.9582 164.504 95.1652 168.03 95.1652C171.556 95.1652 174.26 94.9582 176.143 94.5444C176.641 94.4349 177.134 94.7499 177.243 95.2481C177.258 95.3132 177.265 95.3797 177.265 95.4463V100.388C181.046 101.941 184.483 104.401 187.116 108.094C193 116.35 188.753 146.501 182.806 155.193C176.577 164.175 146.714 164.175 139.401 155.193C135.76 150.96 136.752 138.57 138.909 126.872C132.673 128.612 125.44 129.755 120.931 128.719C114.175 127.334 108.691 100.787 108.691 95.6074C108.691 90.4279 117.29 88.6621 120.05 92.864C122.81 97.066 126.68 109.002 126.68 110.582C126.68 112.162 140.022 104.636 147.228 101.612C147.292 101.585 147.354 101.561 147.416 101.538H147.416Z" stroke="white"/>
</mask>
<g mask="url(#mask1)">
<path fill-rule="evenodd" clip-rule="evenodd" d="M139.387 155.186C134.669 150.292 138.779 127.492 138.779 127.492C138.779 127.492 142.017 126.396 146.823 124.006C147.748 123.546 148.232 164.36 139.387 155.186Z" fill="url(#paint9_linear)"/>
<path d="M135.076 128.478C134.911 128.518 134.745 128.417 134.704 128.252C134.664 128.087 134.766 127.92 134.931 127.88C139.634 126.736 144.913 125.078 146.535 124.024C146.677 123.931 146.868 123.972 146.961 124.115C147.053 124.257 147.013 124.448 146.87 124.54C145.166 125.648 139.858 127.315 135.076 128.478Z" fill="white"/>
</g>
<path fill-rule="evenodd" clip-rule="evenodd" d="M178.588 43.3418C188.615 46.4074 194.394 58.6604 191.343 68.639C188.525 76.4544 185.284 82.2632 181.619 86.0653C176.121 91.7685 167.536 95.0127 159.326 92.5224C151.115 90.032 145.62 80.7363 148.184 73.7826C150.749 66.829 151.854 65.9082 152.804 61.3258C153.119 59.8054 152.028 56.5359 155.217 50.4518C158.405 44.3678 168.561 40.2762 178.588 43.3418Z" fill="#DD784D"/>
<path fill-rule="evenodd" clip-rule="evenodd" d="M178.588 43.3418C188.615 46.4074 194.394 58.6604 191.343 68.639C188.525 76.4544 185.284 82.2632 181.619 86.0653C176.121 91.7685 167.536 95.0127 159.326 92.5224C151.115 90.032 145.62 80.7363 148.184 73.7826C150.749 66.829 151.854 65.9082 152.804 61.3258C153.119 59.8054 152.028 56.5359 155.217 50.4518C158.405 44.3678 168.561 40.2762 178.588 43.3418Z" fill="url(#paint10_linear)"/>
<path fill-rule="evenodd" clip-rule="evenodd" d="M168.03 71.4619C162.145 71.5778 158.185 68.1579 155.101 63.4582C154.274 62.3015 153.47 60.0335 152.948 57.4462C153.046 56.4965 153.25 55.3869 153.664 54.0982C154.094 55.4626 154.593 56.5914 155.101 57.3015C158.185 62.0012 162.145 65.4211 168.03 65.3052C172.433 65.4004 172.861 69.8253 171.219 72.8371C170.566 72.0281 169.528 71.4943 168.03 71.4619Z" fill="url(#paint11_linear)"/>
<path fill-rule="evenodd" clip-rule="evenodd" d="M160.334 39.1392C149.231 33.0778 152.008 52.9726 155.101 57.3015C158.185 62.0012 162.145 65.4211 168.03 65.3052C173.389 65.4211 172.859 71.9508 169.877 74.5402C166.644 77.2705 163.142 83.419 165.875 87.7771C168.607 92.1352 174.357 93.748 183.422 87.7771C192.54 82.0612 202.015 63.5589 191.117 51.1448C180.46 38.9993 171.241 44.9209 160.334 39.1392Z" fill="#282828"/>
<path fill-rule="evenodd" clip-rule="evenodd" d="M160.334 39.1392C149.231 33.0778 152.008 52.9726 155.101 57.3015C158.185 62.0012 162.145 65.4211 168.03 65.3052C173.389 65.4211 172.859 71.9508 169.877 74.5402C166.644 77.2705 163.142 83.419 165.875 87.7771C168.607 92.1352 174.357 93.748 183.422 87.7771C192.54 82.0612 202.015 63.5589 191.117 51.1448C180.46 38.9993 171.241 44.9209 160.334 39.1392Z" fill="url(#paint12_linear)"/>
</g>
<defs>
<linearGradient id="paint0_linear" x1="186.5" y1="162.581" x2="186.5" y2="182.173" gradientUnits="userSpaceOnUse">
<stop stop-color="#FFC62C" stop-opacity="0.01"/>
<stop offset="1" stop-color="#FF6663" stop-opacity="0.1"/>
</linearGradient>
<linearGradient id="paint1_linear" x1="181.267" y1="108.094" x2="181.267" y2="166.648" gradientUnits="userSpaceOnUse">
<stop stop-color="#A7A7EE" stop-opacity="0.01"/>
<stop offset="1" stop-color="#4C55A0" stop-opacity="0.2"/>
</linearGradient>
<linearGradient id="paint2_linear" x1="182.469" y1="160.565" x2="195.114" y2="160.734" gradientUnits="userSpaceOnUse">
<stop stop-color="#464D89" stop-opacity="0.6"/>
<stop offset="1" stop-color="#A7A7EE" stop-opacity="0.01"/>
</linearGradient>
<linearGradient id="paint3_linear" x1="156.64" y1="249.698" x2="156.64" y2="261.756" gradientUnits="userSpaceOnUse">
<stop stop-color="#A7A7EE" stop-opacity="0.01"/>
<stop offset="1" stop-color="#4C55A0" stop-opacity="0.2"/>
</linearGradient>
<linearGradient id="paint4_linear" x1="120.931" y1="249.391" x2="120.931" y2="261.448" gradientUnits="userSpaceOnUse">
<stop stop-color="#A7A7EE" stop-opacity="0.01"/>
<stop offset="1" stop-color="#4C55A0" stop-opacity="0.2"/>
</linearGradient>
<linearGradient id="paint5_linear" x1="128.319" y1="144.111" x2="128.319" y2="257.277" gradientUnits="userSpaceOnUse">
<stop stop-color="#403F9F" stop-opacity="0.01"/>
<stop offset="1" stop-opacity="0.2"/>
</linearGradient>
<linearGradient id="paint6_linear" x1="160.334" y1="88.7006" x2="160.334" y2="102.245" gradientUnits="userSpaceOnUse">
<stop stop-color="#FFC62C" stop-opacity="0.01"/>
<stop offset="1" stop-color="#FF6663" stop-opacity="0.1"/>
</linearGradient>
<linearGradient id="paint7_linear" x1="104" y1="65.3052" x2="104" y2="121.331" gradientUnits="userSpaceOnUse">
<stop stop-color="#FFC62C" stop-opacity="0.01"/>
<stop offset="1" stop-color="#FF6663" stop-opacity="0.1"/>
</linearGradient>
<linearGradient id="paint8_linear" x1="108.691" y1="90.5187" x2="108.691" y2="161.929" gradientUnits="userSpaceOnUse">
<stop stop-color="#A7A7EE" stop-opacity="0.01"/>
<stop offset="1" stop-color="#4C55A0" stop-opacity="0.2"/>
</linearGradient>
<linearGradient id="paint9_linear" x1="142.083" y1="107.738" x2="123.16" y2="113.809" gradientUnits="userSpaceOnUse">
<stop stop-color="#464D89" stop-opacity="0.3"/>
<stop offset="1" stop-color="#A7A7EE" stop-opacity="0.01"/>
</linearGradient>
<linearGradient id="paint10_linear" x1="147.549" y1="42.2993" x2="147.549" y2="93.3706" gradientUnits="userSpaceOnUse">
<stop stop-color="#FFC62C" stop-opacity="0.01"/>
<stop offset="1" stop-color="#FF6663" stop-opacity="0.1"/>
</linearGradient>
<linearGradient id="paint11_linear" x1="147.681" y1="73.7304" x2="172.246" y2="80.3201" gradientUnits="userSpaceOnUse">
<stop stop-color="#FFC62C" stop-opacity="0.01"/>
<stop offset="1" stop-opacity="0.2"/>
</linearGradient>
<linearGradient id="paint12_linear" x1="152.353" y1="38" x2="152.353" y2="91.6738" gradientUnits="userSpaceOnUse">
<stop stop-color="#403F9F" stop-opacity="0.01"/>
<stop offset="1" stop-opacity="0.2"/>
</linearGradient>
<clipPath id="clip0">
<rect width="300" height="300" fill="white"/>
</clipPath>
</defs>
</svg>
