<svg width="299" height="727" viewBox="0 0 299 727" fill="none" xmlns="http://www.w3.org/2000/svg">
<path fill-rule="evenodd" clip-rule="evenodd" d="M287.079 410.226C292.328 422.61 299.563 437.735 293.707 451.91C287.851 466.085 274.786 474.323 274.786 463.116C274.786 451.91 277.474 443.082 276.146 438.453C274.818 433.823 274.818 444.824 270.685 444.824C266.552 444.824 268.983 413.211 268.983 413.211C268.983 413.211 281.83 397.843 287.079 410.226Z" fill="#E0774E"/>
<path fill-rule="evenodd" clip-rule="evenodd" d="M287.079 410.226C292.328 422.61 299.563 437.735 293.707 451.91C287.851 466.085 274.786 474.323 274.786 463.116C274.786 451.91 277.474 443.082 276.146 438.453C274.818 433.823 274.818 444.824 270.685 444.824C266.552 444.824 268.983 413.211 268.983 413.211C268.983 413.211 281.83 397.843 287.079 410.226Z" fill="url(#paint0_linear)"/>
<path fill-rule="evenodd" clip-rule="evenodd" d="M251.75 330.796C253.466 340.794 259.791 406.916 264.75 412.502C271.157 419.717 281.818 419.717 288.807 412.502C302.049 398.83 296.621 308.948 291.506 281.135C286.39 253.323 269.75 227.701 269.75 227.701C269.75 227.701 247.551 306.331 251.75 330.796Z" fill="#4DB2DD"/>
<path fill-rule="evenodd" clip-rule="evenodd" d="M251.75 330.796C253.466 340.794 259.791 406.916 264.75 412.502C271.157 419.717 281.818 419.717 288.807 412.502C302.049 398.83 296.621 308.948 291.506 281.135C286.39 253.323 269.75 227.701 269.75 227.701C269.75 227.701 247.551 306.331 251.75 330.796Z" fill="url(#paint1_linear)"/>
<path fill-rule="evenodd" clip-rule="evenodd" d="M251.75 330.796C253.466 340.794 259.791 406.916 264.75 412.502C271.157 419.717 281.818 419.717 288.807 412.502C302.049 398.83 296.621 308.948 291.506 281.135C286.39 253.323 269.75 227.701 269.75 227.701C269.75 227.701 247.551 306.331 251.75 330.796Z" fill="url(#paint2_linear)"/>
<path fill-rule="evenodd" clip-rule="evenodd" d="M217.897 725.517C186.342 719.827 171.082 713.093 171.082 700.139C171.082 690.733 188.119 685.629 201.343 688.498C201.343 688.498 242.482 712.109 246.143 711.688C245.771 723.224 242.163 729.892 217.897 725.517Z" fill="#51A9D8"/>
<path fill-rule="evenodd" clip-rule="evenodd" d="M217.897 725.517C186.342 719.827 171.082 713.093 171.082 700.139C171.082 690.733 188.119 685.629 201.343 688.498C201.343 688.498 242.482 712.109 246.143 711.688C245.771 723.224 242.163 729.892 217.897 725.517Z" fill="url(#paint3_linear)"/>
<path fill-rule="evenodd" clip-rule="evenodd" d="M101.897 724.517C70.3422 718.827 55.0824 712.093 55.0824 699.139C55.0824 691.08 67.5884 686.179 79.4875 686.745C79.3527 688.304 124.678 710.231 130.177 708.914C130.081 721.527 127.381 729.111 101.897 724.517Z" fill="#54A8D8"/>
<path fill-rule="evenodd" clip-rule="evenodd" d="M101.897 724.517C70.3422 718.827 55.0824 712.093 55.0824 699.139C55.0824 691.08 67.5884 686.179 79.4875 686.745C79.3527 688.304 124.678 710.231 130.177 708.914C130.081 721.527 127.381 729.111 101.897 724.517Z" fill="url(#paint4_linear)"/>
<path fill-rule="evenodd" clip-rule="evenodd" d="M255.082 384.767C265.082 439.661 265.082 701.438 265.082 701.438C265.082 701.438 262.898 712.32 233.582 712.32C204.267 712.32 202.082 701.438 202.082 701.438L189.082 474.001L142.082 701.438C142.082 701.438 134.955 712.349 109.022 709.445C83.0897 706.542 79.0824 691.438 79.0824 691.438C79.0824 691.438 104.903 391.735 120.082 365.179C134.722 339.649 245.082 329.874 255.082 384.767Z" fill="#282828"/>
<path fill-rule="evenodd" clip-rule="evenodd" d="M255.082 384.767C265.082 439.661 265.082 701.438 265.082 701.438C265.082 701.438 262.898 712.32 233.582 712.32C204.267 712.32 202.082 701.438 202.082 701.438L189.082 474.001L142.082 701.438C142.082 701.438 134.955 712.349 109.022 709.445C83.0897 706.542 79.0824 691.438 79.0824 691.438C79.0824 691.438 104.903 391.735 120.082 365.179C134.722 339.649 245.082 329.874 255.082 384.767Z" fill="url(#paint5_linear)"/>
<mask id="mask0" mask-type="alpha" maskUnits="userSpaceOnUse" x="79" y="344" width="187" height="369">
<path fill-rule="evenodd" clip-rule="evenodd" d="M255.082 384.767C265.082 439.661 265.082 701.438 265.082 701.438C265.082 701.438 262.898 712.32 233.582 712.32C204.267 712.32 202.082 701.438 202.082 701.438L189.082 474.001L142.082 701.438C142.082 701.438 134.955 712.349 109.022 709.445C83.0897 706.542 79.0824 691.438 79.0824 691.438C79.0824 691.438 104.903 391.735 120.082 365.179C134.722 339.649 245.082 329.874 255.082 384.767Z" fill="white"/>
<path fill-rule="evenodd" clip-rule="evenodd" d="M255.082 384.767C265.082 439.661 265.082 701.438 265.082 701.438C265.082 701.438 262.898 712.32 233.582 712.32C204.267 712.32 202.082 701.438 202.082 701.438L189.082 474.001L142.082 701.438C142.082 701.438 134.955 712.349 109.022 709.445C83.0897 706.542 79.0824 691.438 79.0824 691.438C79.0824 691.438 104.903 391.735 120.082 365.179C134.722 339.649 245.082 329.874 255.082 384.767Z" stroke="white"/>
</mask>
<g mask="url(#mask0)">
<path d="M186.734 496.886C186.644 497.431 186.129 497.8 185.584 497.71C185.039 497.62 184.67 497.106 184.76 496.561L194.323 438.538C194.413 437.993 194.927 437.624 195.472 437.714C196.017 437.804 196.386 438.318 196.296 438.863L186.734 496.886Z" fill="white"/>
</g>
<path fill-rule="evenodd" clip-rule="evenodd" d="M183.082 164.701H233.082V208.701H183.082V164.701Z" fill="#DF794D"/>
<path fill-rule="evenodd" clip-rule="evenodd" d="M183.082 164.701H233.082V208.701H183.082V164.701Z" fill="url(#paint6_linear)"/>
<path fill-rule="evenodd" clip-rule="evenodd" d="M18.0824 180.701C15.8785 170.784 14.3037 163.825 13.0824 161.701C8.44907 155.138 -5.16012 141.193 2.08237 131.701C10.3289 122.699 22.2765 123.942 22.0824 118.701C22.2765 113.667 10.0656 91.9155 15.0824 88.7007C20.2745 86.097 34.1197 123.476 39.0824 125.701C43.6907 127.947 50.4247 124.682 50.0824 131.701C50.4247 139.211 39.612 153.859 41.0824 161.701C41.5424 163.979 42.7629 168.1 44.0824 173.701C35.4153 170.072 23.0869 173.055 18.0824 180.701Z" fill="#DF784D"/>
<path fill-rule="evenodd" clip-rule="evenodd" d="M18.0824 180.701C15.8785 170.784 14.3037 163.825 13.0824 161.701C8.44907 155.138 -5.16012 141.193 2.08237 131.701C10.3289 122.699 22.2765 123.942 22.0824 118.701C22.2765 113.667 10.0656 91.9155 15.0824 88.7007C20.2745 86.097 34.1197 123.476 39.0824 125.701C43.6907 127.947 50.4247 124.682 50.0824 131.701C50.4247 139.211 39.612 153.859 41.0824 161.701C41.5424 163.979 42.7629 168.1 44.0824 173.701C35.4153 170.072 23.0869 173.055 18.0824 180.701Z" fill="url(#paint7_linear)"/>
<path fill-rule="evenodd" clip-rule="evenodd" d="M141.118 206.403C149.614 202.481 162.906 198.505 178.082 196.546V186.614C178.082 184.957 179.425 183.614 181.082 183.614C181.299 183.614 181.515 183.637 181.726 183.684C187.843 185.028 196.628 185.701 208.082 185.701C219.537 185.701 228.322 185.028 234.438 183.684C236.056 183.328 237.657 184.352 238.012 185.97C238.059 186.181 238.082 186.397 238.082 186.614V202.666C250.365 207.711 261.529 215.702 270.082 227.701C289.199 254.519 275.401 352.464 256.082 380.701C235.849 409.877 138.84 409.877 115.082 380.701C103.254 366.951 106.475 326.701 113.484 288.7C93.2272 294.353 69.7286 298.067 55.0823 294.701C33.1346 290.201 15.3218 203.963 15.3218 187.137C15.3218 170.312 43.2549 164.576 52.2205 178.225C61.1862 191.875 73.7572 230.65 73.7572 235.783C73.7572 240.916 117.098 216.466 140.51 206.642C140.714 206.556 140.917 206.477 141.118 206.403H141.118Z" fill="#4DB2DD"/>
<path fill-rule="evenodd" clip-rule="evenodd" d="M141.118 206.403C149.614 202.481 162.906 198.505 178.082 196.546V186.614C178.082 184.957 179.425 183.614 181.082 183.614C181.299 183.614 181.515 183.637 181.726 183.684C187.843 185.028 196.628 185.701 208.082 185.701C219.537 185.701 228.322 185.028 234.438 183.684C236.056 183.328 237.657 184.352 238.012 185.97C238.059 186.181 238.082 186.397 238.082 186.614V202.666C250.365 207.711 261.529 215.702 270.082 227.701C289.199 254.519 275.401 352.464 256.082 380.701C235.849 409.877 138.84 409.877 115.082 380.701C103.254 366.951 106.475 326.701 113.484 288.7C93.2272 294.353 69.7286 298.067 55.0823 294.701C33.1346 290.201 15.3218 203.963 15.3218 187.137C15.3218 170.312 43.2549 164.576 52.2205 178.225C61.1862 191.875 73.7572 230.65 73.7572 235.783C73.7572 240.916 117.098 216.466 140.51 206.642C140.714 206.556 140.917 206.477 141.118 206.403H141.118Z" fill="url(#paint8_linear)"/>
<mask id="mask1" mask-type="alpha" maskUnits="userSpaceOnUse" x="15" y="170" width="265" height="233">
<path fill-rule="evenodd" clip-rule="evenodd" d="M141.118 206.403C149.614 202.481 162.906 198.505 178.082 196.546V186.614C178.082 184.957 179.425 183.614 181.082 183.614C181.299 183.614 181.515 183.637 181.726 183.684C187.843 185.028 196.628 185.701 208.082 185.701C219.537 185.701 228.322 185.028 234.438 183.684C236.056 183.328 237.657 184.352 238.012 185.97C238.059 186.181 238.082 186.397 238.082 186.614V202.666C250.365 207.711 261.529 215.702 270.082 227.701C289.199 254.519 275.401 352.464 256.082 380.701C235.849 409.877 138.84 409.877 115.082 380.701C103.254 366.951 106.475 326.701 113.484 288.7C93.2272 294.353 69.7286 298.067 55.0823 294.701C33.1346 290.201 15.3218 203.963 15.3218 187.137C15.3218 170.312 43.2549 164.576 52.2205 178.225C61.1862 191.875 73.7572 230.65 73.7572 235.783C73.7572 240.916 117.098 216.466 140.51 206.642C140.714 206.556 140.917 206.477 141.118 206.403H141.118Z" fill="white"/>
<path fill-rule="evenodd" clip-rule="evenodd" d="M141.118 206.403C149.614 202.481 162.906 198.505 178.082 196.546V186.614C178.082 184.957 179.425 183.614 181.082 183.614C181.299 183.614 181.515 183.637 181.726 183.684C187.843 185.028 196.628 185.701 208.082 185.701C219.537 185.701 228.322 185.028 234.438 183.684C236.056 183.328 237.657 184.352 238.012 185.97C238.059 186.181 238.082 186.397 238.082 186.614V202.666C250.365 207.711 261.529 215.702 270.082 227.701C289.199 254.519 275.401 352.464 256.082 380.701C235.849 409.877 138.84 409.877 115.082 380.701C103.254 366.951 106.475 326.701 113.484 288.7C93.2272 294.353 69.7286 298.067 55.0823 294.701C33.1346 290.201 15.3218 203.963 15.3218 187.137C15.3218 170.312 43.2549 164.576 52.2205 178.225C61.1862 191.875 73.7572 230.65 73.7572 235.783C73.7572 240.916 117.098 216.466 140.51 206.642C140.714 206.556 140.917 206.477 141.118 206.403H141.118Z" stroke="white"/>
</mask>
<g mask="url(#mask1)">
<path fill-rule="evenodd" clip-rule="evenodd" d="M115.038 380.678C99.7116 364.781 113.061 290.714 113.061 290.714C113.061 290.714 123.58 287.154 139.193 279.389C142.197 277.895 143.771 410.481 115.038 380.678Z" fill="url(#paint9_linear)"/>
<path d="M101.034 293.917C100.498 294.048 99.9567 293.719 99.8262 293.182C99.6956 292.646 100.025 292.105 100.562 291.974C115.839 288.258 132.989 282.872 138.257 279.449C138.72 279.148 139.339 279.279 139.64 279.742C139.941 280.205 139.81 280.825 139.346 281.126C133.809 284.725 116.568 290.139 101.034 293.917Z" fill="white"/>
</g>
<path fill-rule="evenodd" clip-rule="evenodd" d="M242.379 17.3528C274.952 27.3113 293.725 67.1153 283.815 99.5305C274.662 124.919 264.132 143.789 252.226 156.14C234.367 174.666 206.48 185.205 179.807 177.116C153.135 169.026 135.285 138.828 143.615 116.24C151.944 93.6508 155.537 90.6597 158.621 75.7736C159.644 70.8346 156.101 60.2138 166.46 40.4497C176.818 20.6856 209.807 7.39428 242.379 17.3528Z" fill="#DD784D"/>
<path fill-rule="evenodd" clip-rule="evenodd" d="M242.379 17.3528C274.952 27.3113 293.725 67.1153 283.815 99.5305C274.662 124.919 264.132 143.789 252.226 156.14C234.367 174.666 206.48 185.205 179.807 177.116C153.135 169.026 135.285 138.828 143.615 116.24C151.944 93.6508 155.537 90.6597 158.621 75.7736C159.644 70.8346 156.101 60.2138 166.46 40.4497C176.818 20.6856 209.807 7.39428 242.379 17.3528Z" fill="url(#paint10_linear)"/>
<path fill-rule="evenodd" clip-rule="evenodd" d="M208.082 108.701C188.965 109.077 176.102 97.9677 166.082 82.7007C163.398 78.9432 160.786 71.5756 159.089 63.171C159.408 60.0856 160.071 56.4814 161.415 52.2947C162.814 56.727 164.434 60.3941 166.082 62.7007C176.102 77.9677 188.965 89.0773 208.082 88.7007C222.387 89.0101 223.776 103.384 218.443 113.168C216.323 110.54 212.95 108.806 208.082 108.701Z" fill="url(#paint11_linear)"/>
<path fill-rule="evenodd" clip-rule="evenodd" d="M183.082 3.70067C147.015 -15.9897 156.035 48.6385 166.082 62.7007C176.102 77.9677 188.965 89.0773 208.082 88.7007C225.492 89.0773 223.77 110.289 214.082 118.701C203.581 127.57 192.206 147.543 201.082 161.701C209.959 175.858 228.638 181.097 258.082 161.701C287.705 143.132 318.484 83.0278 283.082 42.7007C248.463 3.24638 218.515 22.4825 183.082 3.70067Z" fill="#282828"/>
<path fill-rule="evenodd" clip-rule="evenodd" d="M183.082 3.70067C147.015 -15.9897 156.035 48.6385 166.082 62.7007C176.102 77.9677 188.965 89.0773 208.082 88.7007C225.492 89.0773 223.77 110.289 214.082 118.701C203.581 127.57 192.206 147.543 201.082 161.701C209.959 175.858 228.638 181.097 258.082 161.701C287.705 143.132 318.484 83.0278 283.082 42.7007C248.463 3.24638 218.515 22.4825 183.082 3.70067Z" fill="url(#paint12_linear)"/>
<defs>
<linearGradient id="paint0_linear" x1="268.082" y1="404.701" x2="268.082" y2="468.345" gradientUnits="userSpaceOnUse">
<stop stop-color="#FFC62C" stop-opacity="0.01"/>
<stop offset="1" stop-color="#FF6663" stop-opacity="0.1"/>
</linearGradient>
<linearGradient id="paint1_linear" x1="251.082" y1="227.701" x2="251.082" y2="417.913" gradientUnits="userSpaceOnUse">
<stop stop-color="#A7A7EE" stop-opacity="0.01"/>
<stop offset="1" stop-color="#4C55A0" stop-opacity="0.2"/>
</linearGradient>
<linearGradient id="paint2_linear" x1="254.987" y1="398.152" x2="296.064" y2="398.701" gradientUnits="userSpaceOnUse">
<stop stop-color="#464D89" stop-opacity="0.6"/>
<stop offset="1" stop-color="#A7A7EE" stop-opacity="0.01"/>
</linearGradient>
<linearGradient id="paint3_linear" x1="171.082" y1="687.701" x2="171.082" y2="726.869" gradientUnits="userSpaceOnUse">
<stop stop-color="#A7A7EE" stop-opacity="0.01"/>
<stop offset="1" stop-color="#4C55A0" stop-opacity="0.2"/>
</linearGradient>
<linearGradient id="paint4_linear" x1="55.0824" y1="686.701" x2="55.0824" y2="725.869" gradientUnits="userSpaceOnUse">
<stop stop-color="#A7A7EE" stop-opacity="0.01"/>
<stop offset="1" stop-color="#4C55A0" stop-opacity="0.2"/>
</linearGradient>
<linearGradient id="paint5_linear" x1="79.0824" y1="344.701" x2="79.0824" y2="712.32" gradientUnits="userSpaceOnUse">
<stop stop-color="#403F9F" stop-opacity="0.01"/>
<stop offset="1" stop-opacity="0.2"/>
</linearGradient>
<linearGradient id="paint6_linear" x1="183.082" y1="164.701" x2="183.082" y2="208.701" gradientUnits="userSpaceOnUse">
<stop stop-color="#FFC62C" stop-opacity="0.01"/>
<stop offset="1" stop-color="#FF6663" stop-opacity="0.1"/>
</linearGradient>
<linearGradient id="paint7_linear" x1="0.0825155" y1="88.7007" x2="0.0825155" y2="270.701" gradientUnits="userSpaceOnUse">
<stop stop-color="#FFC62C" stop-opacity="0.01"/>
<stop offset="1" stop-color="#FF6663" stop-opacity="0.1"/>
</linearGradient>
<linearGradient id="paint8_linear" x1="15.3218" y1="170.607" x2="15.3218" y2="402.583" gradientUnits="userSpaceOnUse">
<stop stop-color="#A7A7EE" stop-opacity="0.01"/>
<stop offset="1" stop-color="#4C55A0" stop-opacity="0.2"/>
</linearGradient>
<linearGradient id="paint9_linear" x1="123.796" y1="226.543" x2="62.3239" y2="246.264" gradientUnits="userSpaceOnUse">
<stop stop-color="#464D89" stop-opacity="0.3"/>
<stop offset="1" stop-color="#A7A7EE" stop-opacity="0.01"/>
</linearGradient>
<linearGradient id="paint10_linear" x1="141.551" y1="13.9662" x2="141.551" y2="179.871" gradientUnits="userSpaceOnUse">
<stop stop-color="#FFC62C" stop-opacity="0.01"/>
<stop offset="1" stop-color="#FF6663" stop-opacity="0.1"/>
</linearGradient>
<linearGradient id="paint11_linear" x1="141.981" y1="116.07" x2="221.779" y2="137.477" gradientUnits="userSpaceOnUse">
<stop stop-color="#FFC62C" stop-opacity="0.01"/>
<stop offset="1" stop-opacity="0.2"/>
</linearGradient>
<linearGradient id="paint12_linear" x1="157.156" y1="0" x2="157.156" y2="174.359" gradientUnits="userSpaceOnUse">
<stop stop-color="#403F9F" stop-opacity="0.01"/>
<stop offset="1" stop-opacity="0.2"/>
</linearGradient>
</defs>
</svg>
