<svg width="78" height="137" viewBox="0 0 78 137" fill="none" xmlns="http://www.w3.org/2000/svg">
<path fill-rule="evenodd" clip-rule="evenodd" d="M43.3413 68.2479C34.6472 68.2479 16.1164 69.9367 5.09898 77.6614C-6.04708 85.5718 12.1056 135.319 43.3413 135.319C74.7105 135.319 76.8377 80.4419 70.9935 74.3275C65.0278 68.2479 52.1689 68.2479 43.3413 68.2479Z" fill="#287CA6"/>
<path fill-rule="evenodd" clip-rule="evenodd" d="M43.3413 68.2479C34.6472 68.2479 16.1164 69.9367 5.09898 77.6614C-6.04708 85.5718 12.1056 135.319 43.3413 135.319C74.7105 135.319 76.8377 80.4419 70.9935 74.3275C65.0278 68.2479 52.1689 68.2479 43.3413 68.2479Z" fill="url(#paint0_linear)"/>
<path fill-rule="evenodd" clip-rule="evenodd" d="M39.0268 79.7175C39.0268 79.7175 37.8152 91.5763 69.4246 131.201L26.8677 121.591C20.3241 102.21 39.0268 79.7175 39.0268 79.7175Z" fill="url(#paint1_linear)"/>
<path fill-rule="evenodd" clip-rule="evenodd" d="M70.7974 74.1313C76.6975 78.7728 77.8347 91.6601 77.8575 108.451C77.8347 125.506 75.4388 133.528 65.1101 135.711C54.7813 137.895 22.161 132.77 22.161 132.77C22.161 132.77 21.2379 120.246 26.2794 120.218C35.2516 120.246 57.8538 117.08 57.8538 117.08C57.8538 117.08 63.0603 103.66 63.1489 96.8806C63.1506 75.929 64.8973 69.4898 70.7974 74.1313Z" fill="#287CA6"/>
<path fill-rule="evenodd" clip-rule="evenodd" d="M70.7974 74.1313C76.6975 78.7728 77.8347 91.6601 77.8575 108.451C77.8347 125.506 75.4388 133.528 65.1101 135.711C54.7813 137.895 22.161 132.77 22.161 132.77C22.161 132.77 21.2379 120.246 26.2794 120.218C35.2516 120.246 57.8538 117.08 57.8538 117.08C57.8538 117.08 63.0603 103.66 63.1489 96.8806C63.1506 75.929 64.8973 69.4898 70.7974 74.1313Z" fill="url(#paint2_linear)"/>
<path d="M62.8547 96.8768C62.8569 96.7143 62.9903 96.5843 63.1527 96.5865C63.3152 96.5886 63.4452 96.722 63.443 96.8844C63.3834 101.447 61.6107 108.21 58.128 117.187C58.0895 117.286 58.0002 117.357 57.8946 117.372C42.8141 119.484 32.2781 120.531 26.2784 120.513C26.116 120.512 25.9847 120.38 25.9852 120.218C25.9857 120.055 26.1178 119.924 26.2802 119.924C32.2215 119.943 42.679 118.906 57.6419 116.813C61.06 107.976 62.7966 101.326 62.8547 96.8768Z" fill="white"/>
<path fill-rule="evenodd" clip-rule="evenodd" d="M71.3857 30.8482C71.3857 38.3019 65.3407 44.3443 57.8838 44.3443C56.2508 44.3443 54.6854 44.0545 53.1494 43.468C54.9725 56.2627 58.5536 64.3256 43.8558 64.3256C26.1728 64.3256 11.7669 49.9258 11.7669 32.0752C11.7669 14.3998 26.1728 0 43.8558 0C44.9885 0 48.9673 0 50.1684 0C61.8472 0 71.3857 6.55249 71.3857 14.723C71.3857 17.4215 70.2524 20.0258 68.2294 22.2598C70.2217 24.5785 71.3857 27.5775 71.3857 30.8482Z" fill="#282828"/>
<path fill-rule="evenodd" clip-rule="evenodd" d="M71.3857 30.8482C71.3857 38.3019 65.3407 44.3443 57.8838 44.3443C56.2508 44.3443 54.6854 44.0545 53.1494 43.468C54.9725 56.2627 58.5536 64.3256 43.8558 64.3256C26.1728 64.3256 11.7669 49.9258 11.7669 32.0752C11.7669 14.3998 26.1728 0 43.8558 0C44.9885 0 48.9673 0 50.1684 0C61.8472 0 71.3857 6.55249 71.3857 14.723C71.3857 17.4215 70.2524 20.0258 68.2294 22.2598C70.2217 24.5785 71.3857 27.5775 71.3857 30.8482Z" fill="url(#paint3_linear)"/>
<path d="M34.1239 58.4421H51.382V70.209C51.382 74.9747 47.5187 78.8381 42.753 78.8381C37.9873 78.8381 34.1239 74.9747 34.1239 70.209V58.4421Z" fill="#DD784D"/>
<path d="M34.1239 58.4421H51.382V70.209C51.382 74.9747 47.5187 78.8381 42.753 78.8381C37.9873 78.8381 34.1239 74.9747 34.1239 70.209V58.4421Z" fill="url(#paint4_linear)"/>
<mask id="mask0" mask-type="alpha" maskUnits="userSpaceOnUse" x="34" y="58" width="18" height="21">
<path d="M34.1239 58.4421H51.382V70.209C51.382 74.9747 47.5187 78.8381 42.753 78.8381C37.9873 78.8381 34.1239 74.9747 34.1239 70.209V58.4421Z" fill="white"/>
<path d="M34.1239 58.4421H51.382V70.209C51.382 74.9747 47.5187 78.8381 42.753 78.8381C37.9873 78.8381 34.1239 74.9747 34.1239 70.209V58.4421Z" stroke="white"/>
</mask>
<g mask="url(#mask0)">
<path fill-rule="evenodd" clip-rule="evenodd" d="M52.3191 72.0976C51.7936 72.1365 51.249 72.1567 50.6847 72.1567C45.1705 72.1567 40.0151 70.4902 35.8672 67.7875V56.684H53.1253V68.4508C53.1253 69.7541 52.8363 70.9899 52.3191 72.0976Z" fill="url(#paint5_linear)"/>
</g>
<path fill-rule="evenodd" clip-rule="evenodd" d="M24.7104 36.8696C26.0406 37.5683 27.5738 37.9477 29.2211 38.0463C34.8138 37.9477 39.3682 33.3952 39.419 27.8483C39.3682 27.5725 39.362 27.3671 39.419 27.0639C42.5178 28.446 46.2111 29.1819 50.2053 29.2211C54.9307 29.1819 59.3398 28.1025 62.7567 26.2794C64.1997 29.3651 64.832 32.8502 64.7178 36.4774C64.8383 46.5659 65.9198 50.5221 64.7178 54.716C63.7971 59.1568 60.3046 66.8751 49.2247 66.8751C37.9344 66.8751 28.1746 60.0585 25.2988 51.5782C21.0564 51.6741 19.0989 47.012 19.0231 42.3608C19.2082 38.0495 22.6412 36.731 24.7104 36.8696Z" fill="#DD784D"/>
<path fill-rule="evenodd" clip-rule="evenodd" d="M24.7104 36.8696C26.0406 37.5683 27.5738 37.9477 29.2211 38.0463C34.8138 37.9477 39.3682 33.3952 39.419 27.8483C39.3682 27.5725 39.362 27.3671 39.419 27.0639C42.5178 28.446 46.2111 29.1819 50.2053 29.2211C54.9307 29.1819 59.3398 28.1025 62.7567 26.2794C64.1997 29.3651 64.832 32.8502 64.7178 36.4774C64.8383 46.5659 65.9198 50.5221 64.7178 54.716C63.7971 59.1568 60.3046 66.8751 49.2247 66.8751C37.9344 66.8751 28.1746 60.0585 25.2988 51.5782C21.0564 51.6741 19.0989 47.012 19.0231 42.3608C19.2082 38.0495 22.6412 36.731 24.7104 36.8696Z" fill="url(#paint6_linear)"/>
<path fill-rule="evenodd" clip-rule="evenodd" d="M23.3428 38.8307C23.5041 38.8307 23.6616 38.8797 23.7942 38.9712L42.2159 51.6831C42.4295 51.8304 42.5569 52.0727 42.5569 52.3314V62.4422C42.5569 62.6826 42.4489 62.8979 42.2785 63.0426L40.378 64.9348V54.7633L22.5505 42.3138L20.7678 41.0713L22.7398 39.1079C22.8851 38.9382 23.1014 38.8307 23.3428 38.8307Z" fill="#F0F0F6"/>
<path fill-rule="evenodd" clip-rule="evenodd" d="M21.8373 40.898L40.2825 53.5848C40.4964 53.7319 40.6239 53.9737 40.6239 54.2319V64.3227C40.6239 64.7575 40.2687 65.11 39.8306 65.11C39.6691 65.11 39.5114 65.0611 39.3787 64.9698L20.9334 52.283C20.7196 52.1359 20.592 51.8941 20.592 51.6359V41.5451C20.592 41.1103 20.9472 40.7578 21.3854 40.7578C21.5469 40.7578 21.7045 40.8067 21.8373 40.898Z" fill="#D6DFEA"/>
<path fill-rule="evenodd" clip-rule="evenodd" d="M6.27567 76.8769C-0.453026 80.9965 -2.19564 88.9034 3.13783 103.156C5.13134 108.543 7.46742 114.131 10.0018 119.042C14.0042 126.844 18.4624 132.77 22.5532 132.77C29.2385 132.77 25.978 97.374 20.1998 87.271C14.2935 77.1061 12.8499 72.7007 6.27567 76.8769Z" fill="#287CA6"/>
<path fill-rule="evenodd" clip-rule="evenodd" d="M6.27567 76.8769C-0.453026 80.9965 -2.19564 88.9034 3.13783 103.156C5.13134 108.543 7.46742 114.131 10.0018 119.042C14.0042 126.844 18.4624 132.77 22.5532 132.77C29.2385 132.77 25.978 97.374 20.1998 87.271C14.2935 77.1061 12.8499 72.7007 6.27567 76.8769Z" fill="url(#paint7_linear)"/>
<path d="M26.4489 123.962C26.438 124.124 26.2978 124.246 26.1357 124.236C25.9736 124.225 25.851 124.084 25.8618 123.922C26.4973 114.432 24.5871 99.6385 21.6227 91.2382C21.5686 91.085 21.649 90.917 21.8022 90.8629C21.9554 90.8089 22.1235 90.8892 22.1775 91.0424C25.1691 99.5196 27.0896 114.393 26.4489 123.962Z" fill="white"/>
<path fill-rule="evenodd" clip-rule="evenodd" d="M27.6522 130.024C23.3437 134.897 20.1688 132.722 18.4348 128.455C16.5514 124.044 16.0324 117.669 16.8659 113.746C18.4846 105.886 30.3024 78.9884 30.79 72.9546C30.6158 72.6235 24.2623 61.516 24.1221 58.246C24.2623 55.022 23.8834 50.5386 25.691 49.0287C27.3956 47.5803 32.6957 40.8549 36.4773 46.0869C40.4396 51.3211 41.3015 53.2285 37.2618 55.5004C32.983 57.9288 38.636 62.9876 39.4191 64.3256C42.6235 70.9867 36.5087 120.034 27.6522 130.024Z" fill="#DD784D"/>
<path fill-rule="evenodd" clip-rule="evenodd" d="M27.6522 130.024C23.3437 134.897 20.1688 132.722 18.4348 128.455C16.5514 124.044 16.0324 117.669 16.8659 113.746C18.4846 105.886 30.3024 78.9884 30.79 72.9546C30.6158 72.6235 24.2623 61.516 24.1221 58.246C24.2623 55.022 23.8834 50.5386 25.691 49.0287C27.3956 47.5803 32.6957 40.8549 36.4773 46.0869C40.4396 51.3211 41.3015 53.2285 37.2618 55.5004C32.983 57.9288 38.636 62.9876 39.4191 64.3256C42.6235 70.9867 36.5087 120.034 27.6522 130.024Z" fill="url(#paint8_linear)"/>
<path fill-rule="evenodd" clip-rule="evenodd" d="M64.1295 30.1539C61.2412 31.5489 57.2988 32.408 52.9526 32.408C48.7093 32.408 44.851 31.5892 41.9828 30.2522C41.9936 30.4441 41.9991 30.6375 41.9991 30.8321C41.9991 36.441 37.4481 40.988 31.8342 40.988C28.5255 40.988 25.586 39.4085 23.7299 36.963C24.0561 36.9286 24.3669 36.9292 24.6487 36.9607C26.0557 37.5761 27.5884 37.9558 29.2054 38.0113C34.8259 37.9558 39.3788 33.4001 39.3702 27.8553C39.3788 27.5734 39.3726 27.3678 39.3702 27.1549C42.5274 28.4475 46.2195 29.1839 50.2361 29.2562C54.9361 29.1839 59.3438 28.1037 62.8545 26.2794C63.3931 27.5136 63.8174 28.8116 64.1295 30.1539Z" fill="url(#paint9_linear)"/>
<defs>
<linearGradient id="paint0_linear" x1="1.7973" y1="68.2479" x2="1.7973" y2="135.319" gradientUnits="userSpaceOnUse">
<stop stop-color="#A7A7EE" stop-opacity="0.01"/>
<stop offset="1" stop-color="#4C55A0" stop-opacity="0.2"/>
</linearGradient>
<linearGradient id="paint1_linear" x1="53.5548" y1="151.693" x2="97.5518" y2="108.115" gradientUnits="userSpaceOnUse">
<stop stop-color="#464D89" stop-opacity="0.3"/>
<stop offset="1" stop-color="#A7A7EE" stop-opacity="0.01"/>
</linearGradient>
<linearGradient id="paint2_linear" x1="22.0181" y1="72.7032" x2="22.0181" y2="136.364" gradientUnits="userSpaceOnUse">
<stop stop-color="#A7A7EE" stop-opacity="0.01"/>
<stop offset="1" stop-color="#4C55A0" stop-opacity="0.2"/>
</linearGradient>
<linearGradient id="paint3_linear" x1="11.7669" y1="0" x2="11.7669" y2="64.3256" gradientUnits="userSpaceOnUse">
<stop stop-color="#403F9F" stop-opacity="0.01"/>
<stop offset="1" stop-opacity="0.2"/>
</linearGradient>
<linearGradient id="paint4_linear" x1="34.1239" y1="58.4421" x2="34.1239" y2="78.8381" gradientUnits="userSpaceOnUse">
<stop stop-color="#FFC62C" stop-opacity="0.01"/>
<stop offset="1" stop-color="#FF6663" stop-opacity="0.3"/>
</linearGradient>
<linearGradient id="paint5_linear" x1="44.4962" y1="48.9476" x2="29.1153" y2="66.1033" gradientUnits="userSpaceOnUse">
<stop stop-opacity="0.25"/>
<stop offset="1" stop-color="#FFC42C" stop-opacity="0.01"/>
</linearGradient>
<linearGradient id="paint6_linear" x1="19.0231" y1="26.2794" x2="19.0231" y2="66.8751" gradientUnits="userSpaceOnUse">
<stop stop-color="#FFC62C" stop-opacity="0.01"/>
<stop offset="1" stop-color="#FF6663" stop-opacity="0.3"/>
</linearGradient>
<linearGradient id="paint7_linear" x1="0" y1="75.308" x2="0" y2="132.77" gradientUnits="userSpaceOnUse">
<stop stop-color="#A7A7EE" stop-opacity="0.01"/>
<stop offset="1" stop-color="#4C55A0" stop-opacity="0.2"/>
</linearGradient>
<linearGradient id="paint8_linear" x1="16.4736" y1="44.1258" x2="16.4736" y2="132.77" gradientUnits="userSpaceOnUse">
<stop stop-color="#FFC62C" stop-opacity="0.01"/>
<stop offset="1" stop-color="#FF6663" stop-opacity="0.3"/>
</linearGradient>
<linearGradient id="paint9_linear" x1="43.9297" y1="18.9251" x2="34.473" y2="44.8994" gradientUnits="userSpaceOnUse">
<stop stop-opacity="0.15"/>
<stop offset="1" stop-color="#FFC42C" stop-opacity="0.01"/>
</linearGradient>
</defs>
</svg>
