<svg width="300" height="300" viewBox="0 0 300 300" fill="none" xmlns="http://www.w3.org/2000/svg">
<g clip-path="url(#clip0)">
<path fill-rule="evenodd" clip-rule="evenodd" d="M151.027 277.441C91.8566 252.126 53.221 339.077 38.0137 277.441C22.7524 215.774 0 235.724 0 203.034C0 170.274 23.6533 166.187 27.226 140.106C32.0462 104.997 15.088 86.0251 21.3185 64.5119C32.2956 26.6282 85.7026 -28.1184 157.449 17.0185C229.189 62.1531 313.623 34.0745 289.983 108.047C266.348 182.196 313.623 182.196 295.89 242.216C278.264 302.003 209.969 302.724 151.027 277.441Z" fill="#F2F5F9"/>
<path fill-rule="evenodd" clip-rule="evenodd" d="M144.496 247.013C144.515 247.6 144.504 248.148 144.454 248.6C144.147 251.424 142.739 253.307 140.514 256.285C138.29 259.262 132.984 265.477 127.589 261.943C122.534 258.632 130.635 248.763 134.097 246.71C136.477 248.391 141.887 248.844 144.496 247.013Z" fill="#282828"/>
<path fill-rule="evenodd" clip-rule="evenodd" d="M144.496 247.013C144.515 247.6 144.504 248.148 144.454 248.6C144.147 251.424 142.739 253.307 140.514 256.285C138.29 259.262 132.984 265.477 127.589 261.943C122.534 258.632 130.635 248.763 134.097 246.71C136.477 248.391 141.887 248.844 144.496 247.013Z" fill="url(#paint0_linear)"/>
<path fill-rule="evenodd" clip-rule="evenodd" d="M170.818 246.084C174.555 247.611 185.131 254.034 182.672 258.855C179.956 264.178 169.221 258.124 166.731 256.383C164.241 254.642 162.123 252.539 161.054 250.535C160.674 249.824 160.469 248.192 160.403 246.534C162.891 247.812 168.196 248.392 170.818 246.084Z" fill="#282828"/>
<path fill-rule="evenodd" clip-rule="evenodd" d="M170.818 246.084C174.555 247.611 185.131 254.034 182.672 258.855C179.956 264.178 169.221 258.124 166.731 256.383C164.241 254.642 162.123 252.539 161.054 250.535C160.674 249.824 160.469 248.192 160.403 246.534C162.891 247.812 168.196 248.392 170.818 246.084Z" fill="url(#paint1_linear)"/>
<path fill-rule="evenodd" clip-rule="evenodd" d="M164.39 149.982C176.697 163.413 172.925 235.138 172.528 242.63C172.478 249.959 160.83 248.106 159.382 245.76C157.893 243.08 153.353 177.537 151.87 177.526C150.277 177.537 147.114 241.635 145.61 245.76C143.82 249.552 134.592 248.638 133.09 245.76C131.292 242.548 122.806 170.384 136.22 149.982C137.582 147.91 162.49 147.91 164.39 149.982Z" fill="#66D4F2"/>
<path fill-rule="evenodd" clip-rule="evenodd" d="M164.39 149.982C176.697 163.413 172.925 235.138 172.528 242.63C172.478 249.959 160.83 248.106 159.382 245.76C157.893 243.08 153.353 177.537 151.87 177.526C150.277 177.537 147.114 241.635 145.61 245.76C143.82 249.552 134.592 248.638 133.09 245.76C131.292 242.548 122.806 170.384 136.22 149.982C137.582 147.91 162.49 147.91 164.39 149.982Z" fill="url(#paint2_linear)"/>
<path fill-rule="evenodd" clip-rule="evenodd" d="M123.782 50.772C128.903 36.395 150.159 32.2391 161.342 43.26C172.623 54.467 177.895 47.3546 183.877 52.337C189.901 57.4712 183.898 66.8549 177.93 72.056C172.019 77.3345 185.669 87.0117 181.999 99.5999C178.375 112.162 161.479 107.36 156.021 114.937C150.463 122.604 140.421 108.192 123.156 106.486C106.087 104.641 103.317 84.3838 115.957 74.8729C128.814 65.3067 118.857 65.3067 123.782 50.772Z" fill="#287CA6"/>
<path fill-rule="evenodd" clip-rule="evenodd" d="M123.782 50.772C128.903 36.395 150.159 32.2391 161.342 43.26C172.623 54.467 177.895 47.3546 183.877 52.337C189.901 57.4712 183.898 66.8549 177.93 72.056C172.019 77.3345 185.669 87.0117 181.999 99.5999C178.375 112.162 161.479 107.36 156.021 114.937C150.463 122.604 140.421 108.192 123.156 106.486C106.087 104.641 103.317 84.3838 115.957 74.8729C128.814 65.3067 118.857 65.3067 123.782 50.772Z" fill="url(#paint3_linear)"/>
<path fill-rule="evenodd" clip-rule="evenodd" d="M170.443 108.95C166.056 110.087 161.418 110.686 158.247 112.817C157.378 113.394 156.623 114.086 156.021 114.937C154.658 116.802 152.875 117.328 150.73 117.051C145.559 116.116 138.256 109.832 128.102 107.339C117.708 95.668 126.021 69.9523 131.92 80.5069C136.5 88.6107 147.868 85.4794 166.037 71.117C174.359 84.591 176.771 95.3689 173.236 103.356C172.233 105.653 171.351 107.452 170.443 108.95V108.95Z" fill="url(#paint4_linear)"/>
<mask id="mask0" mask-type="alpha" maskUnits="userSpaceOnUse" x="123" y="71" width="52" height="47">
<path fill-rule="evenodd" clip-rule="evenodd" d="M170.443 108.95C166.056 110.087 161.418 110.686 158.247 112.817C157.378 113.394 156.623 114.086 156.021 114.937C154.658 116.802 152.875 117.328 150.73 117.051C145.559 116.116 138.256 109.832 128.102 107.339C117.708 95.668 126.021 69.9523 131.92 80.5069C136.5 88.6107 147.868 85.4794 166.037 71.117C174.359 84.591 176.771 95.3689 173.236 103.356C172.233 105.653 171.351 107.452 170.443 108.95V108.95Z" fill="white"/>
</mask>
<g mask="url(#mask0)">
</g>
<path fill-rule="evenodd" clip-rule="evenodd" d="M149.537 104.626C149.82 104.614 150.103 104.608 150.386 104.608C150.672 104.608 150.956 104.614 151.239 104.626C151.365 104.613 151.498 104.607 151.638 104.608C161.653 104.567 171.116 108.483 180.434 126.831C181.53 128.806 194.675 106.039 194.519 103.982C194.675 101.9 195.225 91.9146 196.397 91.1489C197.887 90.9057 198.954 91.7338 197.962 96.4699C197.393 101.688 214.475 89.3441 215.49 93.9659C216.937 98.8129 212.728 103.576 205.161 105.234C197.64 107.343 198.756 106.501 197.649 111.494C196.556 116.703 189.745 139.8 180.434 140.29C177.871 140.421 173.594 137.597 169.025 133.487L164.471 149.993C159.786 152.079 155.091 153.123 150.386 153.123C145.689 153.123 140.994 152.079 136.301 149.993L131.748 133.487C127.179 137.597 122.902 140.421 120.339 140.29C111.028 139.8 104.217 116.703 103.124 111.494C102.017 106.501 103.133 107.343 95.6115 105.234C88.045 103.576 83.8358 98.8129 85.2826 93.9659C86.2983 89.3441 103.38 101.688 102.811 96.4699C101.819 91.7338 102.886 90.9057 104.376 91.1489C105.547 91.9146 106.097 101.9 106.254 103.982C106.097 106.039 119.243 128.806 120.339 126.831C129.657 108.483 139.12 104.567 149.134 104.608C149.276 104.607 149.41 104.613 149.537 104.626V104.626Z" fill="#DD784D"/>
<path fill-rule="evenodd" clip-rule="evenodd" d="M149.537 104.626C149.82 104.614 150.103 104.608 150.386 104.608C150.672 104.608 150.956 104.614 151.239 104.626C151.365 104.613 151.498 104.607 151.638 104.608C161.653 104.567 171.116 108.483 180.434 126.831C181.53 128.806 194.675 106.039 194.519 103.982C194.675 101.9 195.225 91.9146 196.397 91.1489C197.887 90.9057 198.954 91.7338 197.962 96.4699C197.393 101.688 214.475 89.3441 215.49 93.9659C216.937 98.8129 212.728 103.576 205.161 105.234C197.64 107.343 198.756 106.501 197.649 111.494C196.556 116.703 189.745 139.8 180.434 140.29C177.871 140.421 173.594 137.597 169.025 133.487L164.471 149.993C159.786 152.079 155.091 153.123 150.386 153.123C145.689 153.123 140.994 152.079 136.301 149.993L131.748 133.487C127.179 137.597 122.902 140.421 120.339 140.29C111.028 139.8 104.217 116.703 103.124 111.494C102.017 106.501 103.133 107.343 95.6115 105.234C88.045 103.576 83.8358 98.8129 85.2826 93.9659C86.2983 89.3441 103.38 101.688 102.811 96.4699C101.819 91.7338 102.886 90.9057 104.376 91.1489C105.547 91.9146 106.097 101.9 106.254 103.982C106.097 106.039 119.243 128.806 120.339 126.831C129.657 108.483 139.12 104.567 149.134 104.608C149.276 104.607 149.41 104.613 149.537 104.626V104.626Z" fill="url(#paint5_linear)"/>
<mask id="mask1" mask-type="alpha" maskUnits="userSpaceOnUse" x="85" y="91" width="131" height="63">
<path fill-rule="evenodd" clip-rule="evenodd" d="M149.537 104.626C149.82 104.614 150.103 104.608 150.386 104.608C150.672 104.608 150.956 104.614 151.239 104.626C151.365 104.613 151.498 104.607 151.638 104.608C161.653 104.567 171.116 108.483 180.434 126.831C181.53 128.806 194.675 106.039 194.519 103.982C194.675 101.9 195.225 91.9146 196.397 91.1489C197.887 90.9057 198.954 91.7338 197.962 96.4699C197.393 101.688 214.475 89.3441 215.49 93.9659C216.937 98.8129 212.728 103.576 205.161 105.234C197.64 107.343 198.756 106.501 197.649 111.494C196.556 116.703 189.745 139.8 180.434 140.29C177.871 140.421 173.594 137.597 169.025 133.487L164.471 149.993C159.786 152.079 155.091 153.123 150.386 153.123C145.689 153.123 140.994 152.079 136.301 149.993L131.748 133.487C127.179 137.597 122.902 140.421 120.339 140.29C111.028 139.8 104.217 116.703 103.124 111.494C102.017 106.501 103.133 107.343 95.6115 105.234C88.045 103.576 83.8358 98.8129 85.2826 93.9659C86.2983 89.3441 103.38 101.688 102.811 96.4699C101.819 91.7338 102.886 90.9057 104.376 91.1489C105.547 91.9146 106.097 101.9 106.254 103.982C106.097 106.039 119.243 128.806 120.339 126.831C129.657 108.483 139.12 104.567 149.134 104.608C149.276 104.607 149.41 104.613 149.537 104.626V104.626Z" fill="white"/>
<path fill-rule="evenodd" clip-rule="evenodd" d="M149.537 104.626C149.82 104.614 150.103 104.608 150.386 104.608C150.672 104.608 150.956 104.614 151.239 104.626C151.365 104.613 151.498 104.607 151.638 104.608C161.653 104.567 171.116 108.483 180.434 126.831C181.53 128.806 194.675 106.039 194.519 103.982C194.675 101.9 195.225 91.9146 196.397 91.1489C197.887 90.9057 198.954 91.7338 197.962 96.4699C197.393 101.688 214.475 89.3441 215.49 93.9659C216.937 98.8129 212.728 103.576 205.161 105.234C197.64 107.343 198.756 106.501 197.649 111.494C196.556 116.703 189.745 139.8 180.434 140.29C177.871 140.421 173.594 137.597 169.025 133.487L164.471 149.993C159.786 152.079 155.091 153.123 150.386 153.123C145.689 153.123 140.994 152.079 136.301 149.993L131.748 133.487C127.179 137.597 122.902 140.421 120.339 140.29C111.028 139.8 104.217 116.703 103.124 111.494C102.017 106.501 103.133 107.343 95.6115 105.234C88.045 103.576 83.8358 98.8129 85.2826 93.9659C86.2983 89.3441 103.38 101.688 102.811 96.4699C101.819 91.7338 102.886 90.9057 104.376 91.1489C105.547 91.9146 106.097 101.9 106.254 103.982C106.097 106.039 119.243 128.806 120.339 126.831C129.657 108.483 139.12 104.567 149.134 104.608C149.276 104.607 149.41 104.613 149.537 104.626V104.626Z" stroke="white"/>
</mask>
<g mask="url(#mask1)">
<path fill-rule="evenodd" clip-rule="evenodd" d="M172.068 136.062C171.08 135.282 170.06 134.416 169.025 133.485L164.471 149.993C159.765 152.079 155.07 153.123 150.386 153.123C145.706 153.123 141.011 152.079 136.301 149.993L131.747 133.485C131.007 134.151 130.274 134.784 129.556 135.376C126.637 134.559 124.755 132.823 123.901 131.944C123.047 131.066 121.441 129.852 120.338 126.831C129.666 108.45 139.122 104.529 149.134 104.608C149.28 104.607 149.417 104.613 149.547 104.625C149.826 104.614 150.106 104.608 150.386 104.608C150.668 104.608 150.949 104.614 151.228 104.625C151.357 104.613 151.494 104.607 151.638 104.608C161.651 104.529 171.106 108.45 180.434 126.831C180.434 126.831 180.28 128.865 177.699 131.944C175.118 135.024 172.068 136.062 172.068 136.062Z" fill="#287CA6"/>
<path fill-rule="evenodd" clip-rule="evenodd" d="M172.068 136.062C171.08 135.282 170.06 134.416 169.025 133.485L164.471 149.993C159.765 152.079 155.07 153.123 150.386 153.123C145.706 153.123 141.011 152.079 136.301 149.993L131.747 133.485C131.007 134.151 130.274 134.784 129.556 135.376C126.637 134.559 124.755 132.823 123.901 131.944C123.047 131.066 121.441 129.852 120.338 126.831C129.666 108.45 139.122 104.529 149.134 104.608C149.28 104.607 149.417 104.613 149.547 104.625C149.826 104.614 150.106 104.608 150.386 104.608C150.668 104.608 150.949 104.614 151.228 104.625C151.357 104.613 151.494 104.607 151.638 104.608C161.651 104.529 171.106 108.45 180.434 126.831C180.434 126.831 180.28 128.865 177.699 131.944C175.118 135.024 172.068 136.062 172.068 136.062Z" fill="url(#paint6_linear)"/>
<path fill-rule="evenodd" clip-rule="evenodd" d="M155.082 113.998C158.193 113.998 160.715 110.915 160.715 107.112C160.715 103.309 158.193 100.226 155.082 100.226C151.97 100.226 149.448 103.309 149.448 107.112C149.448 110.915 151.97 113.998 155.082 113.998Z" fill="white"/>
<path fill-rule="evenodd" clip-rule="evenodd" d="M145.692 113.998C148.803 113.998 151.326 110.915 151.326 107.112C151.326 103.309 148.803 100.226 145.692 100.226C142.58 100.226 140.058 103.309 140.058 107.112C140.058 110.915 142.58 113.998 145.692 113.998Z" fill="white"/>
<path d="M132.629 136.691C132.674 136.857 132.576 137.029 132.409 137.074C132.242 137.12 132.07 137.021 132.025 136.854C132.017 136.826 132.017 136.826 132.01 136.798C131.905 136.414 131.389 134.603 131.265 134.128C131.015 133.177 130.866 132.433 130.798 131.709C130.534 128.917 131.548 126.331 134.624 122.479C134.732 122.344 134.929 122.322 135.064 122.43C135.199 122.537 135.221 122.734 135.114 122.869C132.13 126.606 131.175 129.042 131.421 131.65C131.486 132.335 131.628 133.048 131.87 133.969C131.993 134.436 132.508 136.244 132.614 136.634C132.621 136.662 132.621 136.662 132.629 136.691Z" fill="white"/>
<path d="M168.714 137.079C168.669 137.245 168.497 137.344 168.33 137.299C168.163 137.254 168.065 137.082 168.11 136.915C168.174 136.676 168.711 134.763 168.844 134.247C169.082 133.322 169.224 132.593 169.29 131.894C169.549 129.168 168.582 126.644 165.568 122.869C165.461 122.734 165.483 122.537 165.618 122.43C165.753 122.322 165.95 122.344 166.058 122.479C169.165 126.37 170.19 129.046 169.913 131.954C169.843 132.69 169.695 133.448 169.45 134.403C169.315 134.927 168.777 136.846 168.714 137.079Z" fill="white"/>
</g>
<path fill-rule="evenodd" clip-rule="evenodd" d="M150.386 95.8439C153.325 95.8439 155.707 98.5511 155.707 101.891V105.447C155.707 108.787 153.325 111.494 150.386 111.494C147.448 111.494 145.065 108.787 145.065 105.447V101.891C145.065 98.5511 147.448 95.8439 150.386 95.8439Z" fill="#DD784D"/>
<path fill-rule="evenodd" clip-rule="evenodd" d="M150.386 95.8439C153.325 95.8439 155.707 98.5511 155.707 101.891V105.447C155.707 108.787 153.325 111.494 150.386 111.494C147.448 111.494 145.065 108.787 145.065 105.447V101.891C145.065 98.5511 147.448 95.8439 150.386 95.8439Z" fill="url(#paint7_linear)"/>
<path fill-rule="evenodd" clip-rule="evenodd" d="M155.707 105.322C154.988 105.469 154.256 105.547 153.516 105.547C151.045 105.547 148.05 104.884 145.065 103.634L145.065 101.478C145.065 98.5398 147.448 96.1575 150.386 96.1575C153.325 96.1575 155.707 98.5398 155.707 101.478V105.322Z" fill="url(#paint8_linear)"/>
<path fill-rule="evenodd" clip-rule="evenodd" d="M128.164 83.3239C125.275 78.4492 129.647 75.494 130.981 77.6899C131.646 78.6358 131.862 79.5355 131.92 80.5069C134.48 84.8544 144.174 75.5831 147.257 72.0559C150.62 68.3363 151.103 64.4185 153.517 72.0559C155.218 77.1105 161.335 75.1107 166.037 71.1169C166.087 72.5963 166.036 74.177 166.037 75.8119C166.036 77.2881 167.915 79.2404 167.915 86.1409C167.915 92.9775 160.699 102.417 152.578 102.417C146.389 102.417 136.914 98.2559 132.546 91.1489C128.906 91.1447 131.18 88.1844 128.164 83.3239Z" fill="#DD784D"/>
<path fill-rule="evenodd" clip-rule="evenodd" d="M128.164 83.3239C125.275 78.4492 129.647 75.494 130.981 77.6899C131.646 78.6358 131.862 79.5355 131.92 80.5069C134.48 84.8544 144.174 75.5831 147.257 72.0559C150.62 68.3363 151.103 64.4185 153.517 72.0559C155.218 77.1105 161.335 75.1107 166.037 71.1169C166.087 72.5963 166.036 74.177 166.037 75.8119C166.036 77.2881 167.915 79.2404 167.915 86.1409C167.915 92.9775 160.699 102.417 152.578 102.417C146.389 102.417 136.914 98.2559 132.546 91.1489C128.906 91.1447 131.18 88.1844 128.164 83.3239Z" fill="url(#paint9_linear)"/>
<path fill-rule="evenodd" clip-rule="evenodd" d="M153.516 78.316C151.102 70.6799 150.62 74.6117 147.256 78.316C144.183 81.8844 136.179 87.6676 131.919 80.5069C134.501 84.9065 144.183 75.602 147.256 72.056C150.62 68.3293 151.102 64.3975 153.516 72.056C155.21 77.1349 161.319 75.128 166.036 71.117C166.065 72.6046 166.014 74.1909 166.036 75.812C166.014 77.3132 155.21 83.4173 153.516 78.316Z" fill="url(#paint10_linear)"/>
<path d="M131.137 89.2709C131.31 89.2709 131.45 89.4111 131.45 89.5839C131.45 89.7568 131.31 89.8969 131.137 89.8969C131.028 89.8969 130.827 90.1649 130.661 90.6873C130.467 91.2958 130.355 92.1317 130.355 93.0269C130.355 93.9221 130.467 94.758 130.661 95.3666C130.827 95.8889 131.028 96.1569 131.137 96.1569C131.246 96.1569 131.447 95.8889 131.613 95.3666C131.807 94.758 131.92 93.9221 131.92 93.0269C131.92 92.7557 131.909 92.4889 131.889 92.2306C131.876 92.0583 132.005 91.9077 132.177 91.8943C132.349 91.8809 132.5 92.0097 132.513 92.1821C132.535 92.4566 132.546 92.7396 132.546 93.0269C132.546 95.105 132.012 96.7829 131.137 96.7829C130.262 96.7829 129.729 95.105 129.729 93.0269C129.729 90.9488 130.262 89.2709 131.137 89.2709Z" fill="white"/>
</g>
<defs>
<linearGradient id="paint0_linear" x1="125.972" y1="246.71" x2="125.972" y2="263" gradientUnits="userSpaceOnUse">
<stop stop-color="#A7A7EE" stop-opacity="0.01"/>
<stop offset="1" stop-color="#4C55A0" stop-opacity="0.2"/>
</linearGradient>
<linearGradient id="paint1_linear" x1="160.403" y1="246.084" x2="160.403" y2="260.998" gradientUnits="userSpaceOnUse">
<stop stop-color="#A7A7EE" stop-opacity="0.01"/>
<stop offset="1" stop-color="#4C55A0" stop-opacity="0.2"/>
</linearGradient>
<linearGradient id="paint2_linear" x1="128.79" y1="148.428" x2="128.79" y2="248.273" gradientUnits="userSpaceOnUse">
<stop stop-color="#3F889F" stop-opacity="0.01"/>
<stop offset="1" stop-opacity="0.2"/>
</linearGradient>
<linearGradient id="paint3_linear" x1="108.132" y1="37" x2="108.132" y2="117.128" gradientUnits="userSpaceOnUse">
<stop stop-color="#403F9F" stop-opacity="0.01"/>
<stop offset="1" stop-opacity="0.2"/>
</linearGradient>
<linearGradient id="paint4_linear" x1="97.3283" y1="94.1187" x2="143.024" y2="145.43" gradientUnits="userSpaceOnUse">
<stop stop-opacity="0.3"/>
<stop offset="1" stop-color="#1F1845" stop-opacity="0.01"/>
</linearGradient>
<linearGradient id="paint5_linear" x1="85" y1="91.1109" x2="85" y2="153.123" gradientUnits="userSpaceOnUse">
<stop stop-color="#FFC62C" stop-opacity="0.01"/>
<stop offset="1" stop-color="#FF6663" stop-opacity="0.1"/>
</linearGradient>
<linearGradient id="paint6_linear" x1="120.338" y1="104.607" x2="120.338" y2="153.123" gradientUnits="userSpaceOnUse">
<stop stop-color="#A7A7EE" stop-opacity="0.01"/>
<stop offset="1" stop-color="#4C55A0" stop-opacity="0.2"/>
</linearGradient>
<linearGradient id="paint7_linear" x1="145.065" y1="95.8439" x2="145.065" y2="111.494" gradientUnits="userSpaceOnUse">
<stop stop-color="#FFC62C" stop-opacity="0.01"/>
<stop offset="1" stop-color="#FF6663" stop-opacity="0.1"/>
</linearGradient>
<linearGradient id="paint8_linear" x1="150.143" y1="91.4625" x2="140.878" y2="102.443" gradientUnits="userSpaceOnUse">
<stop stop-opacity="0.35"/>
<stop offset="1" stop-color="#FFC62C" stop-opacity="0.01"/>
</linearGradient>
<linearGradient id="paint9_linear" x1="127.225" y1="67.674" x2="127.225" y2="102.417" gradientUnits="userSpaceOnUse">
<stop stop-color="#FFC62C" stop-opacity="0.01"/>
<stop offset="1" stop-color="#FF6663" stop-opacity="0.1"/>
</linearGradient>
<linearGradient id="paint10_linear" x1="148.978" y1="59.536" x2="136.328" y2="86.0529" gradientUnits="userSpaceOnUse">
<stop stop-opacity="0.2"/>
<stop offset="1" stop-color="#FFC62C" stop-opacity="0.01"/>
</linearGradient>
<clipPath id="clip0">
<rect width="300" height="300" fill="white"/>
</clipPath>
</defs>
</svg>
