<svg width="300" height="300" viewBox="0 0 300 300" fill="none" xmlns="http://www.w3.org/2000/svg">
<g clip-path="url(#clip0)">
<path fill-rule="evenodd" clip-rule="evenodd" d="M151.027 277.441C91.8566 252.126 53.221 339.077 38.0137 277.441C22.7524 215.774 0 235.724 0 203.034C0 170.274 23.6533 166.187 27.226 140.106C32.0462 104.997 15.088 86.0251 21.3185 64.5119C32.2956 26.6282 85.7026 -28.1184 157.449 17.0185C229.189 62.1531 313.623 34.0745 289.983 108.047C266.348 182.196 313.623 182.196 295.89 242.216C278.264 302.003 209.969 302.724 151.027 277.441Z" fill="#F2F5F9"/>
<path fill-rule="evenodd" clip-rule="evenodd" d="M119.245 127.084C104.891 115.55 92.4269 89.6499 100.686 65.0432C108.842 40.6147 137.543 30.0673 159.81 44.6282C181.733 59.337 181.831 73.9387 212.305 80.4207C242.576 87.0269 254.037 127.195 226.092 142.461C197.922 157.982 133.594 138.588 119.245 127.084Z" fill="#287CA6"/>
<path fill-rule="evenodd" clip-rule="evenodd" d="M119.245 127.084C104.891 115.55 92.4269 89.6499 100.686 65.0432C108.842 40.6147 137.543 30.0673 159.81 44.6282C181.733 59.337 181.831 73.9387 212.305 80.4207C242.576 87.0269 254.037 127.195 226.092 142.461C197.922 157.982 133.594 138.588 119.245 127.084Z" fill="url(#paint0_linear)"/>
<path fill-rule="evenodd" clip-rule="evenodd" d="M223.715 143.651C201.052 153.94 159.186 145.062 134.98 135.336C128.827 129.755 122.816 123.145 117.124 115.418C106.97 101.825 105.644 88.5683 113.147 75.6484H158.484C167.463 83.2873 174.798 88.7667 180.49 92.0865C189.197 96.9275 215.064 101.4 224.501 111.971C232.398 120.937 230.094 133.747 223.715 143.651V143.651Z" fill="url(#paint1_linear)"/>
<mask id="mask0" mask-type="alpha" maskUnits="userSpaceOnUse" x="108" y="75" width="122" height="74">
<path fill-rule="evenodd" clip-rule="evenodd" d="M223.715 143.651C201.052 153.94 159.186 145.062 134.98 135.336C128.827 129.755 122.816 123.145 117.124 115.418C106.97 101.825 105.644 88.5683 113.147 75.6484H158.484C167.463 83.2873 174.798 88.7667 180.49 92.0865C189.197 96.9275 215.064 101.4 224.501 111.971C232.398 120.937 230.094 133.747 223.715 143.651V143.651Z" fill="white"/>
</mask>
<g mask="url(#mask0)">
</g>
<path fill-rule="evenodd" clip-rule="evenodd" d="M74.438 132.386C74.438 132.386 63.8025 131.337 62.5072 126.818C61.2709 122.23 56.8101 117.089 58.2651 115.153C59.9109 113.383 62.2149 119.275 63.5677 119.925C65.3567 120.643 64.6003 100.545 71.2565 105.608C77.9138 110.838 76.3638 115.299 75.4986 121.251C74.7221 127.457 74.438 132.386 74.438 132.386Z" fill="#DD784D"/>
<path fill-rule="evenodd" clip-rule="evenodd" d="M74.438 132.386C74.438 132.386 63.8025 131.337 62.5072 126.818C61.2709 122.23 56.8101 117.089 58.2651 115.153C59.9109 113.383 62.2149 119.275 63.5677 119.925C65.3567 120.643 64.6003 100.545 71.2565 105.608C77.9138 110.838 76.3638 115.299 75.4986 121.251C74.7221 127.457 74.438 132.386 74.438 132.386Z" fill="url(#paint2_linear)"/>
<path fill-rule="evenodd" clip-rule="evenodd" d="M132.767 112.236C119.526 112.236 75.0148 122.088 72.5821 122.576C70.0376 123.163 68.8564 129.662 72.5821 131.856C76.196 134.213 121.772 133.223 124.548 133.182C127.511 133.223 146.121 112.236 132.767 112.236Z" fill="#66D4F2"/>
<path fill-rule="evenodd" clip-rule="evenodd" d="M132.767 112.236C119.526 112.236 75.0148 122.088 72.5821 122.576C70.0376 123.163 68.8564 129.662 72.5821 131.856C76.196 134.213 121.772 133.223 124.548 133.182C127.511 133.223 146.121 112.236 132.767 112.236Z" fill="url(#paint3_linear)"/>
<path fill-rule="evenodd" clip-rule="evenodd" d="M169.089 244.006C170.739 248.288 185.943 257.646 186.058 260.444C185.943 263.003 191.095 264.705 191.095 259.118C191.095 253.315 185.943 249.429 186.058 245.331C185.943 241.031 183.969 233.502 178.104 234.991C171.962 236.067 167.072 239.514 169.089 244.006Z" fill="#66D4F2"/>
<path fill-rule="evenodd" clip-rule="evenodd" d="M169.089 244.006C170.739 248.288 185.943 257.646 186.058 260.444C185.943 263.003 191.095 264.705 191.095 259.118C191.095 253.315 185.943 249.429 186.058 245.331C185.943 241.031 183.969 233.502 178.104 234.991C171.962 236.067 167.072 239.514 169.089 244.006Z" fill="url(#paint4_linear)"/>
<path fill-rule="evenodd" clip-rule="evenodd" d="M132.767 112.236H207.798C215.1 112.236 213.128 123.504 207.798 123.637C204.281 123.613 161.666 129.977 161.666 132.121C161.666 134.265 166.968 164.467 166.968 164.467L132.767 170.035C123.421 156.29 116.063 145.096 116.063 135.303C116.063 125.509 119.93 112.236 132.767 112.236Z" fill="#66D4F2"/>
<path fill-rule="evenodd" clip-rule="evenodd" d="M132.767 112.236H207.798C215.1 112.236 213.128 123.504 207.798 123.637C204.281 123.613 161.666 129.977 161.666 132.121C161.666 134.265 166.968 164.467 166.968 164.467L132.767 170.035C123.421 156.29 116.063 145.096 116.063 135.303C116.063 125.509 119.93 112.236 132.767 112.236Z" fill="url(#paint5_linear)"/>
<path fill-rule="evenodd" clip-rule="evenodd" d="M135.153 172.951C131.385 182.866 130.464 199.202 135.153 205.562C139.804 211.958 165.287 242.139 169.089 244.006C172.89 245.997 178.634 241.602 178.634 237.378C178.634 233.067 165.497 208.196 155.303 198.138C145.104 188.412 138.883 163.34 135.153 172.951Z" fill="#287CA6"/>
<path fill-rule="evenodd" clip-rule="evenodd" d="M135.153 172.951C131.385 182.866 130.464 199.202 135.153 205.562C139.804 211.958 165.287 242.139 169.089 244.006C172.89 245.997 178.634 241.602 178.634 237.378C178.634 233.067 165.497 208.196 155.303 198.138C145.104 188.412 138.883 163.34 135.153 172.951Z" fill="url(#paint6_linear)"/>
<path fill-rule="evenodd" clip-rule="evenodd" d="M130.115 106.138C130.115 101.892 133.558 98.4496 137.804 98.4496V98.4496C142.051 98.4496 145.493 101.892 145.493 106.138V113.827C145.493 118.073 142.051 121.516 137.804 121.516V121.516C133.558 121.516 130.115 118.073 130.115 113.827V106.138Z" fill="#E57750"/>
<path fill-rule="evenodd" clip-rule="evenodd" d="M130.115 106.138C130.115 101.892 133.558 98.4496 137.804 98.4496V98.4496C142.051 98.4496 145.493 101.892 145.493 106.138V113.827C145.493 118.073 142.051 121.516 137.804 121.516V121.516C133.558 121.516 130.115 118.073 130.115 113.827V106.138Z" fill="url(#paint7_linear)"/>
<path fill-rule="evenodd" clip-rule="evenodd" d="M145.493 111.873C142.413 113.317 138.78 114.092 134.357 114.092C132.845 114.092 131.432 113.909 130.115 113.578V106.138C130.115 101.892 133.558 98.4496 137.804 98.4496C142.051 98.4496 145.493 101.892 145.493 106.138V111.873V111.873Z" fill="url(#paint8_linear)"/>
<path fill-rule="evenodd" clip-rule="evenodd" d="M99.8905 181.435C102.878 197.61 148.409 201.585 148.409 201.585C148.409 201.585 151.504 201.214 152.916 197.873C154.572 194.413 154.6 191.856 154.507 191.775C171.156 191.856 177.965 170.682 166.703 157.839C155.587 145.149 97.2755 165.172 99.8905 181.435Z" fill="#287CA6"/>
<path fill-rule="evenodd" clip-rule="evenodd" d="M99.8905 181.435C102.878 197.61 148.409 201.585 148.409 201.585C148.409 201.585 151.504 201.214 152.916 197.873C154.572 194.413 154.6 191.856 154.507 191.775C171.156 191.856 177.965 170.682 166.703 157.839C155.587 145.149 97.2755 165.172 99.8905 181.435Z" fill="url(#paint9_linear)"/>
<path fill-rule="evenodd" clip-rule="evenodd" d="M157.954 75.6484C157.954 75.6484 166.854 75.8052 165.378 83.3372C164.44 88.9891 162.381 94.2584 157.689 93.6772C152.595 103.041 146.402 108.79 134.357 108.79C122.441 108.79 116.691 97.4468 115.798 91.2911C113.474 85.0483 115.691 62.7869 116.594 60.536C118.307 55.1864 129.229 64.8807 141.251 68.4899C152.968 72.4145 157.954 75.6484 157.954 75.6484Z" fill="#DD784D"/>
<path fill-rule="evenodd" clip-rule="evenodd" d="M157.954 75.6484C157.954 75.6484 166.854 75.8052 165.378 83.3372C164.44 88.9891 162.381 94.2584 157.689 93.6772C152.595 103.041 146.402 108.79 134.357 108.79C122.441 108.79 116.691 97.4468 115.798 91.2911C113.474 85.0483 115.691 62.7869 116.594 60.536C118.307 55.1864 129.229 64.8807 141.251 68.4899C152.968 72.4145 157.954 75.6484 157.954 75.6484Z" fill="url(#paint10_linear)"/>
<path fill-rule="evenodd" clip-rule="evenodd" d="M117.422 69.5504C117.422 69.5504 129.637 69.5504 134.092 69.5504C138.914 69.5504 150.762 69.5504 150.762 69.5504C155.099 69.5504 159.014 74.9514 159.014 81.6138C159.014 88.2763 155.099 93.6772 150.762 93.6772C150.762 93.6772 138.44 93.6772 134.092 93.6772C129.163 93.6772 117.422 93.6772 117.422 93.6772C113.085 93.6772 109.17 88.2763 109.17 81.6138C109.17 74.9514 113.085 69.5504 117.422 69.5504Z" fill="url(#paint11_linear)"/>
<path fill-rule="evenodd" clip-rule="evenodd" d="M117.422 66.8992C117.422 66.8992 129.637 66.8992 134.092 66.8992C138.914 66.8992 150.762 66.8992 150.762 66.8992C155.099 66.8992 159.014 72.3001 159.014 78.9626C159.014 85.625 155.099 91.026 150.762 91.026C150.762 91.026 138.44 91.026 134.092 91.026C129.163 91.026 117.422 91.026 117.422 91.026C113.085 91.026 109.17 85.625 109.17 78.9626C109.17 72.3001 113.085 66.8992 117.422 66.8992Z" fill="#D6DFEA"/>
<path fill-rule="evenodd" clip-rule="evenodd" d="M113.37 70.0807C113.37 70.0807 126.612 70.0807 131.441 70.0807C136.668 70.0807 149.512 70.0807 149.512 70.0807C154.213 70.0807 155.038 74.0573 155.038 78.9626C155.038 83.8679 154.213 87.8444 149.512 87.8444C149.512 87.8444 136.154 87.8444 131.441 87.8444C126.098 87.8444 113.37 87.8444 113.37 87.8444C108.669 87.8444 107.844 83.8679 107.844 78.9626C107.844 74.0573 108.669 70.0807 113.37 70.0807Z" fill="#1F1845"/>
<path fill-rule="evenodd" clip-rule="evenodd" d="M153.447 72.732L156.101 72.8647C157.585 72.9389 158.749 74.1632 158.749 75.6484V75.6484L153.447 79.8905V72.732Z" fill="#1F1845"/>
<rect opacity="0.3" x="120.04" y="72.9971" width="19.8847" height="12.196" rx="6.09798" fill="#7BC1EB"/>
<rect x="124.017" y="76.9741" width="11.9308" height="4.24207" rx="2.12104" fill="#7BC1EB"/>
<path d="M121.262 174.395C121.05 174.338 120.925 174.12 120.982 173.908C121.039 173.696 121.258 173.57 121.47 173.628C125.619 174.751 129.259 176.668 134.186 180.027C135.284 180.776 139.128 183.476 139.215 183.536C145.295 187.763 149.569 190.161 154.897 191.928C155.106 191.997 155.219 192.222 155.15 192.431C155.081 192.639 154.856 192.752 154.647 192.683C149.231 190.887 144.898 188.456 138.761 184.19C138.67 184.126 134.831 181.43 133.738 180.685C128.877 177.371 125.308 175.491 121.262 174.395Z" fill="white"/>
<path fill-rule="evenodd" clip-rule="evenodd" d="M207.798 123.637C201.441 123.637 200.43 104.149 203.026 104.017C205.676 104.149 203.957 111.881 206.473 111.971C209.015 111.881 207.61 93.5794 214.427 94.7377C221.122 96.0121 221.918 109.526 218.669 115.683C215.466 121.782 213.921 123.637 207.798 123.637Z" fill="#DD784D"/>
<path fill-rule="evenodd" clip-rule="evenodd" d="M207.798 123.637C201.441 123.637 200.43 104.149 203.026 104.017C205.676 104.149 203.957 111.881 206.473 111.971C209.015 111.881 207.61 93.5794 214.427 94.7377C221.122 96.0121 221.918 109.526 218.669 115.683C215.466 121.782 213.921 123.637 207.798 123.637Z" fill="url(#paint12_linear)"/>
<path fill-rule="evenodd" clip-rule="evenodd" d="M148.409 201.585C148.409 201.585 174.194 205.739 178.104 200.524C181.802 195.17 166.163 193.748 162.461 190.715C158.727 187.887 155.915 187.223 153.977 189.124C152.022 191.146 154.17 193.348 153.182 196.813C152.11 200.593 148.409 201.585 148.409 201.585Z" fill="#66D4F2"/>
<path fill-rule="evenodd" clip-rule="evenodd" d="M148.409 201.585C148.409 201.585 174.194 205.739 178.104 200.524C181.802 195.17 166.163 193.748 162.461 190.715C158.727 187.887 155.915 187.223 153.977 189.124C152.022 191.146 154.17 193.348 153.182 196.813C152.11 200.593 148.409 201.585 148.409 201.585Z" fill="url(#paint13_linear)"/>
</g>
<defs>
<linearGradient id="paint0_linear" x1="98.0345" y1="38" x2="98.0345" y2="148.294" gradientUnits="userSpaceOnUse">
<stop stop-color="#403F9F" stop-opacity="0.01"/>
<stop offset="1" stop-opacity="0.2"/>
</linearGradient>
<linearGradient id="paint1_linear" x1="47.7853" y1="111.945" x2="111.795" y2="218.779" gradientUnits="userSpaceOnUse">
<stop stop-opacity="0.3"/>
<stop offset="1" stop-color="#1F1845" stop-opacity="0.01"/>
</linearGradient>
<linearGradient id="paint2_linear" x1="58" y1="104.813" x2="58" y2="132.386" gradientUnits="userSpaceOnUse">
<stop stop-color="#FFC62C" stop-opacity="0.01"/>
<stop offset="1" stop-color="#FF6663" stop-opacity="0.3"/>
</linearGradient>
<linearGradient id="paint3_linear" x1="70.1959" y1="112.236" x2="70.1959" y2="133.447" gradientUnits="userSpaceOnUse">
<stop stop-color="#A7A7EE" stop-opacity="0.01"/>
<stop offset="1" stop-color="#4C55A0" stop-opacity="0.2"/>
</linearGradient>
<linearGradient id="paint4_linear" x1="168.559" y1="234.726" x2="168.559" y2="262.83" gradientUnits="userSpaceOnUse">
<stop stop-color="#A7A7EE" stop-opacity="0.01"/>
<stop offset="1" stop-color="#4C55A0" stop-opacity="0.2"/>
</linearGradient>
<linearGradient id="paint5_linear" x1="116.063" y1="112.236" x2="116.063" y2="170.035" gradientUnits="userSpaceOnUse">
<stop stop-color="#A7A7EE" stop-opacity="0.01"/>
<stop offset="1" stop-color="#4C55A0" stop-opacity="0.2"/>
</linearGradient>
<linearGradient id="paint6_linear" x1="131.972" y1="170.795" x2="131.972" y2="244.5" gradientUnits="userSpaceOnUse">
<stop stop-color="#403F9F" stop-opacity="0.01"/>
<stop offset="1" stop-opacity="0.2"/>
</linearGradient>
<linearGradient id="paint7_linear" x1="130.115" y1="98.4496" x2="130.115" y2="121.516" gradientUnits="userSpaceOnUse">
<stop stop-color="#FFC62C" stop-opacity="0.01"/>
<stop offset="1" stop-color="#FF6663" stop-opacity="0.3"/>
</linearGradient>
<linearGradient id="paint8_linear" x1="141.648" y1="98.4496" x2="126.167" y2="106.059" gradientUnits="userSpaceOnUse">
<stop stop-opacity="0.2"/>
<stop offset="1" stop-color="#FFC42C" stop-opacity="0.01"/>
</linearGradient>
<linearGradient id="paint9_linear" x1="99.8905" y1="153.862" x2="99.8905" y2="201.585" gradientUnits="userSpaceOnUse">
<stop stop-color="#403F9F" stop-opacity="0.01"/>
<stop offset="1" stop-opacity="0.2"/>
</linearGradient>
<linearGradient id="paint10_linear" x1="114.738" y1="58.9453" x2="114.738" y2="108.79" gradientUnits="userSpaceOnUse">
<stop stop-color="#FFC62C" stop-opacity="0.01"/>
<stop offset="1" stop-color="#FF6663" stop-opacity="0.3"/>
</linearGradient>
<linearGradient id="paint11_linear" x1="134.092" y1="57.487" x2="115.169" y2="96.581" gradientUnits="userSpaceOnUse">
<stop stop-opacity="0.15"/>
<stop offset="1" stop-color="#FFC42C" stop-opacity="0.01"/>
</linearGradient>
<linearGradient id="paint12_linear" x1="201.697" y1="94.685" x2="201.697" y2="123.637" gradientUnits="userSpaceOnUse">
<stop stop-color="#FFC62C" stop-opacity="0.01"/>
<stop offset="1" stop-color="#FF6663" stop-opacity="0.3"/>
</linearGradient>
<linearGradient id="paint13_linear" x1="148.409" y1="188.063" x2="148.409" y2="203.441" gradientUnits="userSpaceOnUse">
<stop stop-color="#A7A7EE" stop-opacity="0.01"/>
<stop offset="1" stop-color="#4C55A0" stop-opacity="0.2"/>
</linearGradient>
<clipPath id="clip0">
<rect width="300" height="300" fill="white"/>
</clipPath>
</defs>
</svg>
