<svg width="405" height="342" viewBox="0 0 405 342" fill="none" xmlns="http://www.w3.org/2000/svg">
<path fill-rule="evenodd" clip-rule="evenodd" d="M0 242.231C0 174.04 26.1743 145.471 91.1463 126.22C156.16 107.279 164.777 0 249.157 0C333.77 0 444.971 191 388.868 300.7C332.784 410.509 177.006 260.715 125.986 310.445C74.8665 359.939 0 310.232 0 242.231Z" fill="#F2F5F9"/>
<path d="M135.102 274.648L129.714 292H126.798L123.006 280.144C122.902 279.856 122.806 279.504 122.718 279.088C122.67 279.288 122.622 279.476 122.574 279.652C122.526 279.828 122.474 279.992 122.418 280.144L118.59 292H115.662L110.286 274.648H112.986C113.266 274.648 113.498 274.716 113.682 274.852C113.874 274.98 114.002 275.156 114.066 275.38L117.018 285.76C117.082 286.016 117.142 286.296 117.198 286.6C117.262 286.896 117.326 287.208 117.39 287.536C117.454 287.2 117.522 286.884 117.594 286.588C117.674 286.292 117.758 286.016 117.846 285.76L121.254 275.38C121.318 275.196 121.442 275.028 121.626 274.876C121.818 274.724 122.05 274.648 122.322 274.648H123.27C123.55 274.648 123.778 274.716 123.954 274.852C124.13 274.988 124.262 275.164 124.35 275.38L127.746 285.76C127.914 286.256 128.066 286.828 128.202 287.476C128.306 286.844 128.422 286.272 128.55 285.76L131.502 275.38C131.55 275.18 131.67 275.008 131.862 274.864C132.062 274.72 132.298 274.648 132.57 274.648H135.102ZM143.244 284.428C143.244 284.044 143.188 283.684 143.076 283.348C142.972 283.004 142.812 282.704 142.596 282.448C142.38 282.192 142.104 281.992 141.768 281.848C141.44 281.696 141.056 281.62 140.616 281.62C139.76 281.62 139.084 281.864 138.588 282.352C138.1 282.84 137.788 283.532 137.652 284.428H143.244ZM137.592 286.216C137.64 286.848 137.752 287.396 137.928 287.86C138.104 288.316 138.336 288.696 138.624 289C138.912 289.296 139.252 289.52 139.644 289.672C140.044 289.816 140.484 289.888 140.964 289.888C141.444 289.888 141.856 289.832 142.2 289.72C142.552 289.608 142.856 289.484 143.112 289.348C143.376 289.212 143.604 289.088 143.796 288.976C143.996 288.864 144.188 288.808 144.372 288.808C144.62 288.808 144.804 288.9 144.924 289.084L145.776 290.164C145.448 290.548 145.08 290.872 144.672 291.136C144.264 291.392 143.836 291.6 143.388 291.76C142.948 291.912 142.496 292.02 142.032 292.084C141.576 292.148 141.132 292.18 140.7 292.18C139.844 292.18 139.048 292.04 138.312 291.76C137.576 291.472 136.936 291.052 136.392 290.5C135.848 289.94 135.42 289.252 135.108 288.436C134.796 287.612 134.64 286.66 134.64 285.58C134.64 284.74 134.776 283.952 135.048 283.216C135.32 282.472 135.708 281.828 136.212 281.284C136.724 280.732 137.344 280.296 138.072 279.976C138.808 279.656 139.636 279.496 140.556 279.496C141.332 279.496 142.048 279.62 142.704 279.868C143.36 280.116 143.924 280.48 144.396 280.96C144.868 281.432 145.236 282.016 145.5 282.712C145.772 283.4 145.908 284.188 145.908 285.076C145.908 285.524 145.86 285.828 145.764 285.988C145.668 286.14 145.484 286.216 145.212 286.216H137.592ZM162.788 282.292C162.7 282.404 162.612 282.492 162.524 282.556C162.444 282.62 162.324 282.652 162.164 282.652C162.012 282.652 161.864 282.608 161.72 282.52C161.576 282.424 161.404 282.32 161.204 282.208C161.004 282.088 160.764 281.984 160.484 281.896C160.212 281.8 159.872 281.752 159.464 281.752C158.944 281.752 158.488 281.848 158.096 282.04C157.704 282.224 157.376 282.492 157.112 282.844C156.856 283.196 156.664 283.624 156.536 284.128C156.408 284.624 156.344 285.188 156.344 285.82C156.344 286.476 156.412 287.06 156.548 287.572C156.692 288.084 156.896 288.516 157.16 288.868C157.424 289.212 157.744 289.476 158.12 289.66C158.496 289.836 158.92 289.924 159.392 289.924C159.864 289.924 160.244 289.868 160.532 289.756C160.828 289.636 161.076 289.508 161.276 289.372C161.476 289.228 161.648 289.1 161.792 288.988C161.944 288.868 162.112 288.808 162.296 288.808C162.536 288.808 162.716 288.9 162.836 289.084L163.688 290.164C163.36 290.548 163.004 290.872 162.62 291.136C162.236 291.392 161.836 291.6 161.42 291.76C161.012 291.912 160.588 292.02 160.148 292.084C159.716 292.148 159.284 292.18 158.852 292.18C158.092 292.18 157.376 292.04 156.704 291.76C156.032 291.472 155.444 291.056 154.94 290.512C154.436 289.968 154.036 289.304 153.74 288.52C153.452 287.728 153.308 286.828 153.308 285.82C153.308 284.916 153.436 284.08 153.692 283.312C153.956 282.536 154.34 281.868 154.844 281.308C155.348 280.74 155.972 280.296 156.716 279.976C157.46 279.656 158.316 279.496 159.284 279.496C160.204 279.496 161.008 279.644 161.696 279.94C162.392 280.236 163.016 280.66 163.568 281.212L162.788 282.292ZM170.783 279.496C171.695 279.496 172.523 279.644 173.267 279.94C174.019 280.236 174.659 280.656 175.187 281.2C175.723 281.744 176.135 282.408 176.423 283.192C176.711 283.976 176.855 284.852 176.855 285.82C176.855 286.796 176.711 287.676 176.423 288.46C176.135 289.244 175.723 289.912 175.187 290.464C174.659 291.016 174.019 291.44 173.267 291.736C172.523 292.032 171.695 292.18 170.783 292.18C169.863 292.18 169.027 292.032 168.275 291.736C167.523 291.44 166.879 291.016 166.343 290.464C165.815 289.912 165.403 289.244 165.107 288.46C164.819 287.676 164.675 286.796 164.675 285.82C164.675 284.852 164.819 283.976 165.107 283.192C165.403 282.408 165.815 281.744 166.343 281.2C166.879 280.656 167.523 280.236 168.275 279.94C169.027 279.644 169.863 279.496 170.783 279.496ZM170.783 289.9C171.807 289.9 172.563 289.556 173.051 288.868C173.547 288.18 173.795 287.172 173.795 285.844C173.795 284.516 173.547 283.504 173.051 282.808C172.563 282.112 171.807 281.764 170.783 281.764C169.743 281.764 168.971 282.116 168.467 282.82C167.971 283.516 167.723 284.524 167.723 285.844C167.723 287.164 167.971 288.172 168.467 288.868C168.971 289.556 169.743 289.9 170.783 289.9ZM181.888 281.2C182.136 280.952 182.396 280.724 182.668 280.516C182.948 280.3 183.24 280.12 183.544 279.976C183.856 279.824 184.188 279.708 184.54 279.628C184.892 279.54 185.276 279.496 185.692 279.496C186.364 279.496 186.96 279.612 187.48 279.844C188 280.068 188.432 280.388 188.776 280.804C189.128 281.212 189.392 281.704 189.568 282.28C189.752 282.848 189.844 283.476 189.844 284.164V292H186.88V284.164C186.88 283.412 186.708 282.832 186.364 282.424C186.02 282.008 185.496 281.8 184.792 281.8C184.28 281.8 183.8 281.916 183.352 282.148C182.904 282.38 182.48 282.696 182.08 283.096V292H179.116V279.688H180.928C181.312 279.688 181.564 279.868 181.684 280.228L181.888 281.2ZM201.483 282.292C201.395 282.404 201.307 282.492 201.219 282.556C201.139 282.62 201.019 282.652 200.859 282.652C200.707 282.652 200.559 282.608 200.415 282.52C200.271 282.424 200.099 282.32 199.899 282.208C199.699 282.088 199.459 281.984 199.179 281.896C198.907 281.8 198.567 281.752 198.159 281.752C197.639 281.752 197.183 281.848 196.791 282.04C196.399 282.224 196.071 282.492 195.807 282.844C195.551 283.196 195.359 283.624 195.231 284.128C195.103 284.624 195.039 285.188 195.039 285.82C195.039 286.476 195.107 287.06 195.243 287.572C195.387 288.084 195.591 288.516 195.855 288.868C196.119 289.212 196.439 289.476 196.815 289.66C197.191 289.836 197.615 289.924 198.087 289.924C198.559 289.924 198.939 289.868 199.227 289.756C199.523 289.636 199.771 289.508 199.971 289.372C200.171 289.228 200.343 289.1 200.487 288.988C200.639 288.868 200.807 288.808 200.991 288.808C201.231 288.808 201.411 288.9 201.531 289.084L202.383 290.164C202.055 290.548 201.699 290.872 201.315 291.136C200.931 291.392 200.531 291.6 200.115 291.76C199.707 291.912 199.283 292.02 198.843 292.084C198.411 292.148 197.979 292.18 197.547 292.18C196.787 292.18 196.071 292.04 195.399 291.76C194.727 291.472 194.139 291.056 193.635 290.512C193.131 289.968 192.731 289.304 192.435 288.52C192.147 287.728 192.003 286.828 192.003 285.82C192.003 284.916 192.131 284.08 192.387 283.312C192.651 282.536 193.035 281.868 193.539 281.308C194.043 280.74 194.667 280.296 195.411 279.976C196.155 279.656 197.011 279.496 197.979 279.496C198.899 279.496 199.703 279.644 200.391 279.94C201.087 280.236 201.711 280.66 202.263 281.212L201.483 282.292ZM211.962 284.428C211.962 284.044 211.906 283.684 211.794 283.348C211.69 283.004 211.53 282.704 211.314 282.448C211.098 282.192 210.822 281.992 210.486 281.848C210.158 281.696 209.774 281.62 209.334 281.62C208.478 281.62 207.802 281.864 207.306 282.352C206.818 282.84 206.506 283.532 206.37 284.428H211.962ZM206.31 286.216C206.358 286.848 206.47 287.396 206.646 287.86C206.822 288.316 207.054 288.696 207.342 289C207.63 289.296 207.97 289.52 208.362 289.672C208.762 289.816 209.202 289.888 209.682 289.888C210.162 289.888 210.574 289.832 210.918 289.72C211.27 289.608 211.574 289.484 211.83 289.348C212.094 289.212 212.322 289.088 212.514 288.976C212.714 288.864 212.906 288.808 213.09 288.808C213.338 288.808 213.522 288.9 213.642 289.084L214.494 290.164C214.166 290.548 213.798 290.872 213.39 291.136C212.982 291.392 212.554 291.6 212.106 291.76C211.666 291.912 211.214 292.02 210.75 292.084C210.294 292.148 209.85 292.18 209.418 292.18C208.562 292.18 207.766 292.04 207.03 291.76C206.294 291.472 205.654 291.052 205.11 290.5C204.566 289.94 204.138 289.252 203.826 288.436C203.514 287.612 203.358 286.66 203.358 285.58C203.358 284.74 203.494 283.952 203.766 283.216C204.038 282.472 204.426 281.828 204.93 281.284C205.442 280.732 206.062 280.296 206.79 279.976C207.526 279.656 208.354 279.496 209.274 279.496C210.05 279.496 210.766 279.62 211.422 279.868C212.078 280.116 212.642 280.48 213.114 280.96C213.586 281.432 213.954 282.016 214.218 282.712C214.49 283.4 214.626 284.188 214.626 285.076C214.626 285.524 214.578 285.828 214.482 285.988C214.386 286.14 214.202 286.216 213.93 286.216H206.31ZM219.815 288.808C220.151 289.216 220.515 289.504 220.907 289.672C221.307 289.84 221.739 289.924 222.203 289.924C222.651 289.924 223.055 289.84 223.415 289.672C223.775 289.504 224.079 289.248 224.327 288.904C224.583 288.56 224.779 288.128 224.915 287.608C225.051 287.08 225.119 286.46 225.119 285.748C225.119 285.028 225.059 284.42 224.939 283.924C224.827 283.42 224.663 283.012 224.447 282.7C224.231 282.388 223.967 282.16 223.655 282.016C223.351 281.872 223.003 281.8 222.611 281.8C221.995 281.8 221.471 281.932 221.039 282.196C220.607 282.452 220.199 282.816 219.815 283.288V288.808ZM219.659 281.368C220.163 280.8 220.735 280.34 221.375 279.988C222.015 279.636 222.767 279.46 223.631 279.46C224.303 279.46 224.915 279.6 225.467 279.88C226.027 280.16 226.507 280.568 226.907 281.104C227.315 281.632 227.627 282.288 227.843 283.072C228.067 283.848 228.179 284.74 228.179 285.748C228.179 286.668 228.055 287.52 227.807 288.304C227.559 289.088 227.203 289.768 226.739 290.344C226.283 290.92 225.727 291.372 225.071 291.7C224.423 292.02 223.695 292.18 222.887 292.18C222.199 292.18 221.611 292.076 221.123 291.868C220.635 291.652 220.199 291.356 219.815 290.98V296.02H216.851V279.688H218.663C219.047 279.688 219.299 279.868 219.419 280.228L219.659 281.368ZM234.431 292.192C233.359 292.192 232.535 291.892 231.959 291.292C231.391 290.684 231.107 289.848 231.107 288.784V281.908H229.847C229.687 281.908 229.551 281.856 229.439 281.752C229.327 281.648 229.271 281.492 229.271 281.284V280.108L231.251 279.784L231.875 276.424C231.915 276.264 231.991 276.14 232.103 276.052C232.215 275.964 232.359 275.92 232.535 275.92H234.071V279.796H237.359V281.908H234.071V288.58C234.071 288.964 234.163 289.264 234.347 289.48C234.539 289.696 234.799 289.804 235.127 289.804C235.311 289.804 235.463 289.784 235.583 289.744C235.711 289.696 235.819 289.648 235.907 289.6C236.003 289.552 236.087 289.508 236.159 289.468C236.231 289.42 236.303 289.396 236.375 289.396C236.463 289.396 236.535 289.42 236.591 289.468C236.647 289.508 236.707 289.572 236.771 289.66L237.659 291.1C237.227 291.46 236.731 291.732 236.171 291.916C235.611 292.1 235.031 292.192 234.431 292.192ZM249.865 279.688V292H248.053C247.661 292 247.413 291.82 247.309 291.46L247.105 290.476C246.601 290.988 246.045 291.404 245.437 291.724C244.829 292.036 244.113 292.192 243.289 292.192C242.617 292.192 242.021 292.08 241.501 291.856C240.989 291.624 240.557 291.3 240.205 290.884C239.853 290.468 239.585 289.976 239.401 289.408C239.225 288.832 239.137 288.2 239.137 287.512V279.688H242.101V287.512C242.101 288.264 242.273 288.848 242.617 289.264C242.969 289.672 243.493 289.876 244.189 289.876C244.701 289.876 245.181 289.764 245.629 289.54C246.077 289.308 246.501 288.992 246.901 288.592V279.688H249.865ZM259.308 286.744C258.452 286.784 257.732 286.86 257.148 286.972C256.564 287.076 256.096 287.212 255.744 287.38C255.392 287.548 255.14 287.744 254.988 287.968C254.836 288.192 254.76 288.436 254.76 288.7C254.76 289.22 254.912 289.592 255.216 289.816C255.528 290.04 255.932 290.152 256.428 290.152C257.036 290.152 257.56 290.044 258 289.828C258.448 289.604 258.884 289.268 259.308 288.82V286.744ZM252.516 281.404C253.932 280.108 255.636 279.46 257.628 279.46C258.348 279.46 258.992 279.58 259.56 279.82C260.128 280.052 260.608 280.38 261 280.804C261.392 281.22 261.688 281.72 261.888 282.304C262.096 282.888 262.2 283.528 262.2 284.224V292H260.856C260.576 292 260.36 291.96 260.208 291.88C260.056 291.792 259.936 291.62 259.848 291.364L259.584 290.476C259.272 290.756 258.968 291.004 258.672 291.22C258.376 291.428 258.068 291.604 257.748 291.748C257.428 291.892 257.084 292 256.716 292.072C256.356 292.152 255.956 292.192 255.516 292.192C254.996 292.192 254.516 292.124 254.076 291.988C253.636 291.844 253.256 291.632 252.936 291.352C252.616 291.072 252.368 290.724 252.192 290.308C252.016 289.892 251.928 289.408 251.928 288.856C251.928 288.544 251.98 288.236 252.084 287.932C252.188 287.62 252.356 287.324 252.588 287.044C252.828 286.764 253.136 286.5 253.512 286.252C253.888 286.004 254.348 285.788 254.892 285.604C255.444 285.42 256.084 285.272 256.812 285.16C257.54 285.04 258.372 284.968 259.308 284.944V284.224C259.308 283.4 259.132 282.792 258.78 282.4C258.428 282 257.92 281.8 257.256 281.8C256.776 281.8 256.376 281.856 256.056 281.968C255.744 282.08 255.468 282.208 255.228 282.352C254.988 282.488 254.768 282.612 254.568 282.724C254.376 282.836 254.16 282.892 253.92 282.892C253.712 282.892 253.536 282.84 253.392 282.736C253.248 282.624 253.132 282.496 253.044 282.352L252.516 281.404ZM267.991 274.168V292H265.027V274.168H267.991ZM274.016 279.688V292H271.04V279.688H274.016ZM274.424 276.1C274.424 276.356 274.372 276.596 274.268 276.82C274.164 277.044 274.024 277.24 273.848 277.408C273.68 277.576 273.48 277.712 273.248 277.816C273.016 277.912 272.768 277.96 272.504 277.96C272.248 277.96 272.004 277.912 271.772 277.816C271.548 277.712 271.352 277.576 271.184 277.408C271.016 277.24 270.88 277.044 270.776 276.82C270.68 276.596 270.632 276.356 270.632 276.1C270.632 275.836 270.68 275.588 270.776 275.356C270.88 275.124 271.016 274.924 271.184 274.756C271.352 274.588 271.548 274.456 271.772 274.36C272.004 274.256 272.248 274.204 272.504 274.204C272.768 274.204 273.016 274.256 273.248 274.36C273.48 274.456 273.68 274.588 273.848 274.756C274.024 274.924 274.164 275.124 274.268 275.356C274.372 275.588 274.424 275.836 274.424 276.1ZM285.882 280.912C285.882 281.12 285.846 281.324 285.774 281.524C285.702 281.724 285.606 281.888 285.486 282.016L279.642 289.72H285.702V292H276.198V290.764C276.198 290.628 276.23 290.468 276.294 290.284C276.358 290.092 276.454 289.912 276.582 289.744L282.486 281.956H276.546V279.688H285.882V280.912ZM295.798 284.428C295.798 284.044 295.742 283.684 295.63 283.348C295.526 283.004 295.366 282.704 295.15 282.448C294.934 282.192 294.658 281.992 294.322 281.848C293.994 281.696 293.61 281.62 293.17 281.62C292.314 281.62 291.638 281.864 291.142 282.352C290.654 282.84 290.342 283.532 290.206 284.428H295.798ZM290.146 286.216C290.194 286.848 290.306 287.396 290.482 287.86C290.658 288.316 290.89 288.696 291.178 289C291.466 289.296 291.806 289.52 292.198 289.672C292.598 289.816 293.038 289.888 293.518 289.888C293.998 289.888 294.41 289.832 294.754 289.72C295.106 289.608 295.41 289.484 295.666 289.348C295.93 289.212 296.158 289.088 296.35 288.976C296.55 288.864 296.742 288.808 296.926 288.808C297.174 288.808 297.358 288.9 297.478 289.084L298.33 290.164C298.002 290.548 297.634 290.872 297.226 291.136C296.818 291.392 296.39 291.6 295.942 291.76C295.502 291.912 295.05 292.02 294.586 292.084C294.13 292.148 293.686 292.18 293.254 292.18C292.398 292.18 291.602 292.04 290.866 291.76C290.13 291.472 289.49 291.052 288.946 290.5C288.402 289.94 287.974 289.252 287.662 288.436C287.35 287.612 287.194 286.66 287.194 285.58C287.194 284.74 287.33 283.952 287.602 283.216C287.874 282.472 288.262 281.828 288.766 281.284C289.278 280.732 289.898 280.296 290.626 279.976C291.362 279.656 292.19 279.496 293.11 279.496C293.886 279.496 294.602 279.62 295.258 279.868C295.914 280.116 296.478 280.48 296.95 280.96C297.422 281.432 297.79 282.016 298.054 282.712C298.326 283.4 298.462 284.188 298.462 285.076C298.462 285.524 298.414 285.828 298.318 285.988C298.222 286.14 298.038 286.216 297.766 286.216H290.146Z" fill="black"/>
<path d="M300.255 290.368C300.255 290.12 300.299 289.884 300.387 289.66C300.483 289.436 300.611 289.244 300.771 289.084C300.931 288.924 301.123 288.796 301.347 288.7C301.571 288.604 301.811 288.556 302.067 288.556C302.323 288.556 302.559 288.604 302.775 288.7C302.999 288.796 303.191 288.924 303.351 289.084C303.519 289.244 303.651 289.436 303.747 289.66C303.843 289.884 303.891 290.12 303.891 290.368C303.891 290.624 303.843 290.864 303.747 291.088C303.651 291.304 303.519 291.492 303.351 291.652C303.191 291.812 302.999 291.936 302.775 292.024C302.559 292.12 302.323 292.168 302.067 292.168C301.811 292.168 301.571 292.12 301.347 292.024C301.123 291.936 300.931 291.812 300.771 291.652C300.611 291.492 300.483 291.304 300.387 291.088C300.299 290.864 300.255 290.624 300.255 290.368Z" fill="#4DB2DD"/>
<path fill-rule="evenodd" clip-rule="evenodd" d="M164.167 95.2857C164.188 77.0044 179.163 65.0741 186.234 61.551C204.074 52.1985 217.25 64.1856 218.954 65.3557C220.892 66.2499 244.723 59.3619 255.479 85.9009C266.268 112.409 251.742 128.799 251.674 141.449C251.742 153.863 276.168 179.253 251.674 199.534C227.316 219.801 172.305 214.84 162.391 187.866C152.535 161.051 171.883 147.847 172.284 133.84C172.677 121.051 164.188 117.086 164.167 95.2857Z" fill="#287CA6"/>
<path fill-rule="evenodd" clip-rule="evenodd" d="M164.167 95.2857C164.188 77.0044 179.163 65.0741 186.234 61.551C204.074 52.1985 217.25 64.1856 218.954 65.3557C220.892 66.2499 244.723 59.3619 255.479 85.9009C266.268 112.409 251.742 128.799 251.674 141.449C251.742 153.863 276.168 179.253 251.674 199.534C227.316 219.801 172.305 214.84 162.391 187.866C152.535 161.051 171.883 147.847 172.284 133.84C172.677 121.051 164.188 117.086 164.167 95.2857Z" fill="url(#paint0_linear)"/>
<path fill-rule="evenodd" clip-rule="evenodd" d="M256.08 195.257C254.829 196.703 253.369 198.13 251.674 199.533C228.984 218.413 179.695 215.401 165.038 193.096C181.308 164.091 189.443 143.651 189.443 131.776C189.443 110.912 232.797 101.16 234.934 111.265C237.071 121.371 229.193 140.297 243.399 151.604C254.991 160.831 262.78 179.559 256.08 195.257Z" fill="url(#paint1_linear)"/>
<mask id="mask0" mask-type="alpha" maskUnits="userSpaceOnUse" x="165" y="107" width="94" height="105">
<path fill-rule="evenodd" clip-rule="evenodd" d="M256.08 195.257C254.829 196.703 253.369 198.13 251.674 199.533C228.984 218.413 179.695 215.401 165.038 193.096C181.308 164.091 189.443 143.651 189.443 131.776C189.443 110.912 232.797 101.16 234.934 111.265C237.071 121.371 229.193 140.297 243.399 151.604C254.991 160.831 262.78 179.559 256.08 195.257Z" fill="white"/>
</mask>
<g mask="url(#mask0)">
</g>
<path fill-rule="evenodd" clip-rule="evenodd" d="M230.875 152.356C243.175 154.113 237.725 214.804 230.875 219.825C224.026 224.846 200.222 226.38 179.386 219.825C158.549 213.271 167.323 150.101 179.386 149.312C191.361 148.455 218.362 150.531 230.875 152.356Z" fill="#66D4F2"/>
<path fill-rule="evenodd" clip-rule="evenodd" d="M230.875 152.356C243.175 154.113 237.725 214.804 230.875 219.825C224.026 224.846 200.222 226.38 179.386 219.825C158.549 213.271 167.323 150.101 179.386 149.312C191.361 148.455 218.362 150.531 230.875 152.356Z" fill="url(#paint2_linear)"/>
<mask id="mask1" mask-type="alpha" maskUnits="userSpaceOnUse" x="166" y="149" width="73" height="76">
<path fill-rule="evenodd" clip-rule="evenodd" d="M230.875 152.356C243.175 154.113 237.725 214.804 230.875 219.825C224.026 224.846 200.222 226.38 179.386 219.825C158.549 213.271 167.323 150.101 179.386 149.312C191.361 148.455 218.362 150.531 230.875 152.356Z" fill="white"/>
<path fill-rule="evenodd" clip-rule="evenodd" d="M230.875 152.356C243.175 154.113 237.725 214.804 230.875 219.825C224.026 224.846 200.222 226.38 179.386 219.825C158.549 213.271 167.323 150.101 179.386 149.312C191.361 148.455 218.362 150.531 230.875 152.356Z" stroke="white"/>
</mask>
<g mask="url(#mask1)">
<path fill-rule="evenodd" clip-rule="evenodd" d="M172.284 190.402C172.284 190.402 181.562 193.446 188.01 200.802C194.511 208.157 211.077 196.326 223.773 204.606C236.626 212.887 224.281 223.376 224.281 223.376L168.986 225.913L172.284 190.402Z" fill="url(#paint3_linear)"/>
</g>
<path d="M195.365 140.181H214.896V152.229C214.896 157.622 210.524 161.994 205.131 161.994C199.737 161.994 195.365 157.622 195.365 152.229V140.181Z" fill="#DD784D"/>
<path d="M195.365 140.181H214.896V152.229C214.896 157.622 210.524 161.994 205.131 161.994C199.737 161.994 195.365 157.622 195.365 152.229V140.181Z" fill="url(#paint4_linear)"/>
<path fill-rule="evenodd" clip-rule="evenodd" d="M199.17 150.834C197.814 150.503 196.547 150.088 195.365 149.601L195.365 140.181H214.896V150.233C210.441 151.988 205.319 152.403 199.17 150.834Z" fill="url(#paint5_linear)"/>
<path fill-rule="evenodd" clip-rule="evenodd" d="M230.875 152.356C244.023 154.307 243.287 170.636 243.304 189.134C243.287 207.834 239.676 232 228.846 232C218.049 232 180.342 232 179.639 219.825C179.298 211.38 180.342 207.456 185.219 208.411C192.625 210.105 221.744 211.455 221.744 211.455C221.744 211.455 228.842 188.135 228.846 180.764C228.93 157.658 224.261 151.568 230.875 152.356Z" fill="#4DB2DD"/>
<path fill-rule="evenodd" clip-rule="evenodd" d="M230.875 152.356C244.023 154.307 243.287 170.636 243.304 189.134C243.287 207.834 239.676 232 228.846 232C218.049 232 180.342 232 179.639 219.825C179.298 211.38 180.342 207.456 185.219 208.411C192.625 210.105 221.744 211.455 221.744 211.455C221.744 211.455 228.842 188.135 228.846 180.764C228.93 157.658 224.261 151.568 230.875 152.356Z" fill="url(#paint6_linear)"/>
<mask id="mask2" mask-type="alpha" maskUnits="userSpaceOnUse" x="179" y="152" width="65" height="80">
<path fill-rule="evenodd" clip-rule="evenodd" d="M230.875 152.356C244.023 154.307 243.287 170.636 243.304 189.134C243.287 207.834 239.676 232 228.846 232C218.049 232 180.342 232 179.639 219.825C179.298 211.38 180.342 207.456 185.219 208.411C192.625 210.105 221.744 211.455 221.744 211.455C221.744 211.455 228.842 188.135 228.846 180.764C228.93 157.658 224.261 151.568 230.875 152.356Z" fill="white"/>
<path fill-rule="evenodd" clip-rule="evenodd" d="M230.875 152.356C244.023 154.307 243.287 170.636 243.304 189.134C243.287 207.834 239.676 232 228.846 232C218.049 232 180.342 232 179.639 219.825C179.298 211.38 180.342 207.456 185.219 208.411C192.625 210.105 221.744 211.455 221.744 211.455C221.744 211.455 228.842 188.135 228.846 180.764C228.93 157.658 224.261 151.568 230.875 152.356Z" stroke="white"/>
</mask>
<g mask="url(#mask2)">
<path fill-rule="evenodd" clip-rule="evenodd" d="M190.546 228.449L213.628 217.542L195.919 233.007L190.546 228.449Z" fill="url(#paint7_linear)"/>
</g>
<path d="M221.855 211.058C221.793 211.259 221.581 211.373 221.38 211.311C221.179 211.25 221.065 211.038 221.127 210.837C222.347 206.825 223.411 203.169 224.316 199.867C226.912 190.403 228.21 183.857 228.212 180.256C228.212 180.046 228.383 179.876 228.593 179.876C228.803 179.876 228.973 180.047 228.973 180.257C228.971 183.946 227.663 190.541 225.05 200.068C224.142 203.377 223.077 207.04 221.855 211.058Z" fill="white"/>
<path fill-rule="evenodd" clip-rule="evenodd" d="M209.316 205.621C214.023 205.621 222.505 208.918 222.505 208.918L221.744 211.455C221.744 211.455 214.855 217.243 213.628 217.542C210.891 218.124 204.608 205.621 209.316 205.621Z" fill="#DD784D"/>
<path fill-rule="evenodd" clip-rule="evenodd" d="M209.316 205.621C214.023 205.621 222.505 208.918 222.505 208.918L221.744 211.455C221.744 211.455 214.855 217.243 213.628 217.542C210.891 218.124 204.608 205.621 209.316 205.621Z" fill="url(#paint8_linear)"/>
<path fill-rule="evenodd" clip-rule="evenodd" d="M179.893 149.312C172.468 149.773 164.259 158.69 160.109 180.257C155.927 202.01 149.98 227.248 160.109 230.224C164.615 231.583 180.928 231.583 190.546 228.449C203.67 224.173 213.407 217.542 213.628 217.542C214.024 217.542 211.96 205.597 209.316 205.621C206.672 205.597 175.327 209.679 175.327 209.679C175.327 209.679 175.226 207.997 170.254 187.359C165.317 166.784 187.318 148.851 179.893 149.312Z" fill="#4DB2DD"/>
<path fill-rule="evenodd" clip-rule="evenodd" d="M179.893 149.312C172.468 149.773 164.259 158.69 160.109 180.257C155.927 202.01 149.98 227.248 160.109 230.224C164.615 231.583 180.928 231.583 190.546 228.449C203.67 224.173 213.407 217.542 213.628 217.542C214.024 217.542 211.96 205.597 209.316 205.621C206.672 205.597 175.327 209.679 175.327 209.679C175.327 209.679 175.226 207.997 170.254 187.359C165.317 166.784 187.318 148.851 179.893 149.312Z" fill="url(#paint9_linear)"/>
<path d="M171.777 192.074C171.826 192.279 171.7 192.484 171.495 192.533C171.291 192.581 171.086 192.455 171.037 192.251C170.677 190.746 170.293 189.145 169.884 187.447C168.212 180.477 169.406 173.414 172.789 165.905C172.875 165.713 173.1 165.628 173.292 165.714C173.483 165.8 173.569 166.026 173.482 166.217C170.163 173.586 168.997 180.486 170.624 187.27C171.033 188.967 171.417 190.569 171.777 192.074Z" fill="white"/>
<path fill-rule="evenodd" clip-rule="evenodd" d="M185.219 208.411C185.219 208.411 176.012 192.068 172.284 190.402C168.35 188.867 159.874 186.96 157.572 188.373C155.409 189.725 153.216 196.775 154.275 199.787C155.409 202.694 161.156 207.788 165.182 208.411C166.953 208.685 175.327 209.679 175.327 209.679L185.219 208.411Z" fill="#DD784D"/>
<path fill-rule="evenodd" clip-rule="evenodd" d="M185.219 208.411C185.219 208.411 176.012 192.068 172.284 190.402C168.35 188.867 159.874 186.96 157.572 188.373C155.409 189.725 153.216 196.775 154.275 199.787C155.409 202.694 161.156 207.788 165.182 208.411C166.953 208.685 175.327 209.679 175.327 209.679L185.219 208.411Z" fill="url(#paint10_linear)"/>
<path fill-rule="evenodd" clip-rule="evenodd" d="M234.934 111.265C238.199 110.516 244.186 113.051 241.275 121.157C239.099 127.097 234.573 132.316 229.354 130.796C221.733 140.178 213.061 146.821 199.17 143.224C185.078 139.855 180.6 127.371 180.4 120.396C179.042 113.159 185.485 89.1034 186.741 86.6618C189.832 81.2297 200.765 93.8786 213.881 100.105C226.888 106.496 238.712 101.059 234.934 111.265Z" fill="#DD784D"/>
<path fill-rule="evenodd" clip-rule="evenodd" d="M234.934 111.265C238.199 110.516 244.186 113.051 241.275 121.157C239.099 127.097 234.573 132.316 229.354 130.796C221.733 140.178 213.061 146.821 199.17 143.224C185.078 139.855 180.6 127.371 180.4 120.396C179.042 113.159 185.485 89.1034 186.741 86.6618C189.832 81.2297 200.765 93.8786 213.881 100.105C226.888 106.496 238.712 101.059 234.934 111.265Z" fill="url(#paint11_linear)"/>
<mask id="mask3" mask-type="alpha" maskUnits="userSpaceOnUse" x="180" y="85" width="63" height="60">
<path fill-rule="evenodd" clip-rule="evenodd" d="M234.934 111.265C238.199 110.516 244.186 113.051 241.275 121.157C239.099 127.097 234.573 132.316 229.354 130.796C221.733 140.178 213.061 146.821 199.17 143.224C185.078 139.855 180.6 127.371 180.4 120.396C179.042 113.159 185.485 89.1034 186.741 86.6618C189.832 81.2297 200.765 93.8786 213.881 100.105C226.888 106.496 238.712 101.059 234.934 111.265Z" fill="white"/>
<path fill-rule="evenodd" clip-rule="evenodd" d="M234.934 111.265C238.199 110.516 244.186 113.051 241.275 121.157C239.099 127.097 234.573 132.316 229.354 130.796C221.733 140.178 213.061 146.821 199.17 143.224C185.078 139.855 180.6 127.371 180.4 120.396C179.042 113.159 185.485 89.1034 186.741 86.6618C189.832 81.2297 200.765 93.8786 213.881 100.105C226.888 106.496 238.712 101.059 234.934 111.265Z" stroke="white"/>
</mask>
<g mask="url(#mask3)">
<path fill-rule="evenodd" clip-rule="evenodd" d="M186.234 87.9301C186.234 87.9301 190.238 88.0807 204.243 103.91C218.247 119.739 234.934 111.265 234.934 111.265L242.797 98.5832L188.263 76.7698L186.234 87.9301Z" fill="url(#paint12_linear)"/>
</g>
<defs>
<linearGradient id="paint0_linear" x1="159.601" y1="58" x2="159.601" y2="211.962" gradientUnits="userSpaceOnUse">
<stop stop-color="#1F1845" stop-opacity="0.01"/>
<stop offset="1" stop-opacity="0.2"/>
</linearGradient>
<linearGradient id="paint1_linear" x1="125.185" y1="123.416" x2="179.376" y2="242.143" gradientUnits="userSpaceOnUse">
<stop stop-opacity="0.646003"/>
<stop offset="1" stop-color="#1F1845" stop-opacity="0.01"/>
</linearGradient>
<linearGradient id="paint2_linear" x1="166.836" y1="149.113" x2="166.836" y2="224.185" gradientUnits="userSpaceOnUse">
<stop stop-color="#403F9F" stop-opacity="0.01"/>
<stop offset="1" stop-opacity="0.1"/>
</linearGradient>
<linearGradient id="paint3_linear" x1="138.295" y1="208.157" x2="169.079" y2="261.369" gradientUnits="userSpaceOnUse">
<stop stop-opacity="0.155089"/>
<stop offset="1" stop-opacity="0.01"/>
</linearGradient>
<linearGradient id="paint4_linear" x1="196.054" y1="139.796" x2="195.195" y2="161.603" gradientUnits="userSpaceOnUse">
<stop stop-color="#C74D75" stop-opacity="0.01"/>
<stop offset="1" stop-color="#AF3B6E" stop-opacity="0.2"/>
</linearGradient>
<linearGradient id="paint5_linear" x1="185.6" y1="145.995" x2="195.823" y2="163.165" gradientUnits="userSpaceOnUse">
<stop stop-opacity="0.2"/>
<stop offset="1" stop-color="#FF6663" stop-opacity="0.01"/>
</linearGradient>
<linearGradient id="paint6_linear" x1="179.58" y1="152.29" x2="179.58" y2="232" gradientUnits="userSpaceOnUse">
<stop stop-color="#403F9F" stop-opacity="0.01"/>
<stop offset="1" stop-opacity="0.1"/>
</linearGradient>
<linearGradient id="paint7_linear" x1="182.021" y1="224.264" x2="193.83" y2="244.539" gradientUnits="userSpaceOnUse">
<stop stop-opacity="0.155089"/>
<stop offset="1" stop-opacity="0.01"/>
</linearGradient>
<linearGradient id="paint8_linear" x1="208.142" y1="205.411" x2="207.804" y2="217.357" gradientUnits="userSpaceOnUse">
<stop stop-color="#C74D75" stop-opacity="0.01"/>
<stop offset="1" stop-color="#AF3B6E" stop-opacity="0.2"/>
</linearGradient>
<linearGradient id="paint9_linear" x1="154.528" y1="149.303" x2="154.528" y2="231.089" gradientUnits="userSpaceOnUse">
<stop stop-color="#403F9F" stop-opacity="0.01"/>
<stop offset="1" stop-opacity="0.1"/>
</linearGradient>
<linearGradient id="paint10_linear" x1="155.101" y1="187.494" x2="154.564" y2="209.309" gradientUnits="userSpaceOnUse">
<stop stop-color="#C74D75" stop-opacity="0.01"/>
<stop offset="1" stop-color="#AF3B6E" stop-opacity="0.2"/>
</linearGradient>
<linearGradient id="paint11_linear" x1="182.328" y1="84.3564" x2="180.356" y2="143.209" gradientUnits="userSpaceOnUse">
<stop stop-color="#C74D75" stop-opacity="0.01"/>
<stop offset="1" stop-color="#AF3B6E" stop-opacity="0.2"/>
</linearGradient>
<linearGradient id="paint12_linear" x1="157.953" y1="95.4948" x2="192.43" y2="147.567" gradientUnits="userSpaceOnUse">
<stop stop-opacity="0.2"/>
<stop offset="1" stop-color="#FF6663" stop-opacity="0.01"/>
</linearGradient>
</defs>
</svg>
