<svg width="300" height="300" viewBox="0 0 300 300" fill="none" xmlns="http://www.w3.org/2000/svg">
<g clip-path="url(#clip0)">
<path fill-rule="evenodd" clip-rule="evenodd" d="M0 212.483C0 152.667 19.4364 127.607 67.6829 110.719C115.961 94.1044 122.359 0 185.017 0C247.849 0 330.424 167.544 288.763 263.772C247.117 360.096 131.44 228.697 93.554 272.32C55.594 315.736 0 272.133 0 212.483Z" fill="#F2F5F9"/>
<path fill-rule="evenodd" clip-rule="evenodd" d="M106.167 100.286C106.188 82.0044 121.163 70.0741 128.234 66.551C146.074 57.1985 159.25 69.1856 160.954 70.3557C162.892 71.2499 186.723 64.3619 197.479 90.9009C208.268 117.409 193.742 133.799 193.674 146.449C193.742 158.863 218.168 184.253 193.674 204.534C169.316 224.801 114.305 219.84 104.391 192.866C94.5345 166.051 113.883 152.847 114.284 138.84C114.677 126.051 106.188 122.086 106.167 100.286Z" fill="#287CA6"/>
<path fill-rule="evenodd" clip-rule="evenodd" d="M106.167 100.286C106.188 82.0044 121.163 70.0741 128.234 66.551C146.074 57.1985 159.25 69.1856 160.954 70.3557C162.892 71.2499 186.723 64.3619 197.479 90.9009C208.268 117.409 193.742 133.799 193.674 146.449C193.742 158.863 218.168 184.253 193.674 204.534C169.316 224.801 114.305 219.84 104.391 192.866C94.5345 166.051 113.883 152.847 114.284 138.84C114.677 126.051 106.188 122.086 106.167 100.286Z" fill="url(#paint0_linear)"/>
<path fill-rule="evenodd" clip-rule="evenodd" d="M198.079 200.257C196.829 201.703 195.369 203.13 193.674 204.533C170.984 223.413 121.695 220.401 107.038 198.096C123.308 169.091 131.443 148.651 131.443 136.776C131.443 115.912 174.797 106.16 176.934 116.265C179.071 126.371 171.193 145.297 185.399 156.604C196.991 165.831 204.78 184.559 198.079 200.257V200.257Z" fill="url(#paint1_linear)"/>
<mask id="mask0" mask-type="alpha" maskUnits="userSpaceOnUse" x="107" y="112" width="94" height="105">
<path fill-rule="evenodd" clip-rule="evenodd" d="M198.079 200.257C196.829 201.703 195.369 203.13 193.674 204.533C170.984 223.413 121.695 220.401 107.038 198.096C123.308 169.091 131.443 148.651 131.443 136.776C131.443 115.912 174.797 106.16 176.934 116.265C179.071 126.371 171.193 145.297 185.399 156.604C196.991 165.831 204.78 184.559 198.079 200.257V200.257Z" fill="white"/>
</mask>
<g mask="url(#mask0)">
</g>
<path fill-rule="evenodd" clip-rule="evenodd" d="M172.875 157.356C185.175 159.113 179.725 219.804 172.875 224.825C166.025 229.846 142.222 231.38 121.386 224.825C100.549 218.271 109.323 155.101 121.386 154.312C133.361 153.455 160.362 155.531 172.875 157.356Z" fill="#66D4F2"/>
<path fill-rule="evenodd" clip-rule="evenodd" d="M172.875 157.356C185.175 159.113 179.725 219.804 172.875 224.825C166.025 229.846 142.222 231.38 121.386 224.825C100.549 218.271 109.323 155.101 121.386 154.312C133.361 153.455 160.362 155.531 172.875 157.356Z" fill="url(#paint2_linear)"/>
<mask id="mask1" mask-type="alpha" maskUnits="userSpaceOnUse" x="108" y="154" width="73" height="76">
<path fill-rule="evenodd" clip-rule="evenodd" d="M172.875 157.356C185.175 159.113 179.725 219.804 172.875 224.825C166.025 229.846 142.222 231.38 121.386 224.825C100.549 218.271 109.323 155.101 121.386 154.312C133.361 153.455 160.362 155.531 172.875 157.356Z" fill="white"/>
<path fill-rule="evenodd" clip-rule="evenodd" d="M172.875 157.356C185.175 159.113 179.725 219.804 172.875 224.825C166.025 229.846 142.222 231.38 121.386 224.825C100.549 218.271 109.323 155.101 121.386 154.312C133.361 153.455 160.362 155.531 172.875 157.356Z" stroke="white"/>
</mask>
<g mask="url(#mask1)">
<path fill-rule="evenodd" clip-rule="evenodd" d="M114.284 195.402C114.284 195.402 123.562 198.446 130.01 205.802C136.511 213.157 153.077 201.326 165.773 209.606C178.626 217.887 166.281 228.376 166.281 228.376C166.281 228.376 110.986 230.913 110.986 230.913C110.986 230.913 114.284 195.402 114.284 195.402Z" fill="url(#paint3_linear)"/>
</g>
<path d="M137.365 145.181H156.896V157.229C156.896 162.622 152.524 166.994 147.131 166.994V166.994C141.737 166.994 137.365 162.622 137.365 157.229V145.181Z" fill="#DD784D"/>
<path d="M137.365 145.181H156.896V157.229C156.896 162.622 152.524 166.994 147.131 166.994V166.994C141.737 166.994 137.365 162.622 137.365 157.229V145.181Z" fill="url(#paint4_linear)"/>
<path fill-rule="evenodd" clip-rule="evenodd" d="M141.17 155.834C139.814 155.503 138.547 155.088 137.365 154.601L137.365 145.181H156.896V155.233C152.441 156.988 147.319 157.403 141.17 155.834Z" fill="url(#paint5_linear)"/>
<path fill-rule="evenodd" clip-rule="evenodd" d="M172.875 157.356C186.023 159.307 185.287 175.636 185.304 194.134C185.287 212.834 181.676 237 170.846 237C160.049 237 122.342 237 121.639 224.825C121.299 216.38 122.342 212.456 127.219 213.411C134.625 215.105 163.744 216.455 163.744 216.455C163.744 216.455 170.842 193.135 170.846 185.764C170.93 162.658 166.261 156.568 172.875 157.356Z" fill="#4DB2DD"/>
<path fill-rule="evenodd" clip-rule="evenodd" d="M172.875 157.356C186.023 159.307 185.287 175.636 185.304 194.134C185.287 212.834 181.676 237 170.846 237C160.049 237 122.342 237 121.639 224.825C121.299 216.38 122.342 212.456 127.219 213.411C134.625 215.105 163.744 216.455 163.744 216.455C163.744 216.455 170.842 193.135 170.846 185.764C170.93 162.658 166.261 156.568 172.875 157.356Z" fill="url(#paint6_linear)"/>
<mask id="mask2" mask-type="alpha" maskUnits="userSpaceOnUse" x="121" y="157" width="65" height="80">
<path fill-rule="evenodd" clip-rule="evenodd" d="M172.875 157.356C186.023 159.307 185.287 175.636 185.304 194.134C185.287 212.834 181.676 237 170.846 237C160.049 237 122.342 237 121.639 224.825C121.299 216.38 122.342 212.456 127.219 213.411C134.625 215.105 163.744 216.455 163.744 216.455C163.744 216.455 170.842 193.135 170.846 185.764C170.93 162.658 166.261 156.568 172.875 157.356Z" fill="white"/>
<path fill-rule="evenodd" clip-rule="evenodd" d="M172.875 157.356C186.023 159.307 185.287 175.636 185.304 194.134C185.287 212.834 181.676 237 170.846 237C160.049 237 122.342 237 121.639 224.825C121.299 216.38 122.342 212.456 127.219 213.411C134.625 215.105 163.744 216.455 163.744 216.455C163.744 216.455 170.842 193.135 170.846 185.764C170.93 162.658 166.261 156.568 172.875 157.356Z" stroke="white"/>
</mask>
<g mask="url(#mask2)">
<path fill-rule="evenodd" clip-rule="evenodd" d="M132.546 233.449L155.628 222.542L137.919 238.007L132.546 233.449Z" fill="url(#paint7_linear)"/>
</g>
<path d="M163.855 216.058C163.793 216.259 163.581 216.373 163.38 216.311C163.179 216.25 163.065 216.038 163.127 215.837C164.347 211.825 165.411 208.169 166.316 204.867C168.912 195.403 170.21 188.857 170.212 185.256C170.212 185.046 170.383 184.876 170.593 184.876C170.803 184.876 170.973 185.047 170.973 185.257C170.971 188.946 169.663 195.541 167.05 205.068C166.142 208.377 165.077 212.04 163.855 216.058Z" fill="white"/>
<path fill-rule="evenodd" clip-rule="evenodd" d="M151.316 210.621C156.023 210.621 164.505 213.918 164.505 213.918L163.744 216.455C163.744 216.455 156.855 222.243 155.628 222.542C152.891 223.124 146.608 210.621 151.316 210.621Z" fill="#DD784D"/>
<path fill-rule="evenodd" clip-rule="evenodd" d="M151.316 210.621C156.023 210.621 164.505 213.918 164.505 213.918L163.744 216.455C163.744 216.455 156.855 222.243 155.628 222.542C152.891 223.124 146.608 210.621 151.316 210.621Z" fill="url(#paint8_linear)"/>
<path fill-rule="evenodd" clip-rule="evenodd" d="M121.893 154.312C114.468 154.773 106.259 163.69 102.109 185.257C97.9271 207.01 91.9801 232.248 102.109 235.224C106.615 236.583 122.928 236.583 132.546 233.449C145.67 229.173 155.407 222.542 155.628 222.542C156.024 222.542 153.96 210.597 151.316 210.621C148.672 210.597 117.327 214.679 117.327 214.679C117.327 214.679 117.226 212.997 112.254 192.359C107.317 171.784 129.318 153.851 121.893 154.312Z" fill="#4DB2DD"/>
<path fill-rule="evenodd" clip-rule="evenodd" d="M121.893 154.312C114.468 154.773 106.259 163.69 102.109 185.257C97.9271 207.01 91.9801 232.248 102.109 235.224C106.615 236.583 122.928 236.583 132.546 233.449C145.67 229.173 155.407 222.542 155.628 222.542C156.024 222.542 153.96 210.597 151.316 210.621C148.672 210.597 117.327 214.679 117.327 214.679C117.327 214.679 117.226 212.997 112.254 192.359C107.317 171.784 129.318 153.851 121.893 154.312Z" fill="url(#paint9_linear)"/>
<path d="M113.777 197.074C113.826 197.279 113.7 197.484 113.495 197.533C113.291 197.581 113.086 197.455 113.037 197.251C112.677 195.746 112.293 194.145 111.884 192.447C110.212 185.477 111.406 178.414 114.789 170.905C114.875 170.713 115.1 170.628 115.292 170.714C115.483 170.8 115.569 171.026 115.482 171.217C112.163 178.586 110.997 185.486 112.624 192.27C113.033 193.967 113.417 195.569 113.777 197.074Z" fill="white"/>
<path fill-rule="evenodd" clip-rule="evenodd" d="M127.219 213.411C127.219 213.411 118.012 197.068 114.284 195.402C110.35 193.867 101.874 191.96 99.5722 193.373C97.4094 194.725 95.2159 201.775 96.2748 204.787C97.4094 207.694 103.156 212.788 107.182 213.411C108.953 213.685 117.327 214.679 117.327 214.679L127.219 213.411Z" fill="#DD784D"/>
<path fill-rule="evenodd" clip-rule="evenodd" d="M127.219 213.411C127.219 213.411 118.012 197.068 114.284 195.402C110.35 193.867 101.874 191.96 99.5722 193.373C97.4094 194.725 95.2159 201.775 96.2748 204.787C97.4094 207.694 103.156 212.788 107.182 213.411C108.953 213.685 117.327 214.679 117.327 214.679L127.219 213.411Z" fill="url(#paint10_linear)"/>
<path fill-rule="evenodd" clip-rule="evenodd" d="M176.934 116.265C180.199 115.516 186.186 118.051 183.275 126.157C181.099 132.097 176.573 137.316 171.354 135.796C163.733 145.178 155.061 151.821 141.17 148.224C127.078 144.855 122.6 132.371 122.4 125.396C121.042 118.159 127.485 94.1034 128.741 91.6618C131.832 86.2297 142.765 98.8786 155.881 105.105C168.888 111.496 180.712 106.059 176.934 116.265Z" fill="#DD784D"/>
<path fill-rule="evenodd" clip-rule="evenodd" d="M176.934 116.265C180.199 115.516 186.186 118.051 183.275 126.157C181.099 132.097 176.573 137.316 171.354 135.796C163.733 145.178 155.061 151.821 141.17 148.224C127.078 144.855 122.6 132.371 122.4 125.396C121.042 118.159 127.485 94.1034 128.741 91.6618C131.832 86.2297 142.765 98.8786 155.881 105.105C168.888 111.496 180.712 106.059 176.934 116.265Z" fill="url(#paint11_linear)"/>
<mask id="mask3" mask-type="alpha" maskUnits="userSpaceOnUse" x="122" y="90" width="63" height="60">
<path fill-rule="evenodd" clip-rule="evenodd" d="M176.934 116.265C180.199 115.516 186.186 118.051 183.275 126.157C181.099 132.097 176.573 137.316 171.354 135.796C163.733 145.178 155.061 151.821 141.17 148.224C127.078 144.855 122.6 132.371 122.4 125.396C121.042 118.159 127.485 94.1034 128.741 91.6618C131.832 86.2297 142.765 98.8786 155.881 105.105C168.888 111.496 180.712 106.059 176.934 116.265Z" fill="white"/>
<path fill-rule="evenodd" clip-rule="evenodd" d="M176.934 116.265C180.199 115.516 186.186 118.051 183.275 126.157C181.099 132.097 176.573 137.316 171.354 135.796C163.733 145.178 155.061 151.821 141.17 148.224C127.078 144.855 122.6 132.371 122.4 125.396C121.042 118.159 127.485 94.1034 128.741 91.6618C131.832 86.2297 142.765 98.8786 155.881 105.105C168.888 111.496 180.712 106.059 176.934 116.265Z" stroke="white"/>
</mask>
<g mask="url(#mask3)">
<path fill-rule="evenodd" clip-rule="evenodd" d="M128.234 92.9301C128.234 92.9301 132.238 93.0807 146.243 108.91C160.247 124.739 176.934 116.265 176.934 116.265L184.797 103.583L130.263 81.7698L128.234 92.9301Z" fill="url(#paint12_linear)"/>
</g>
</g>
<defs>
<linearGradient id="paint0_linear" x1="101.601" y1="63" x2="101.601" y2="216.962" gradientUnits="userSpaceOnUse">
<stop stop-color="#1F1845" stop-opacity="0.01"/>
<stop offset="1" stop-opacity="0.2"/>
</linearGradient>
<linearGradient id="paint1_linear" x1="67.1847" y1="128.416" x2="121.376" y2="247.143" gradientUnits="userSpaceOnUse">
<stop stop-opacity="0.646003"/>
<stop offset="1" stop-color="#1F1845" stop-opacity="0.01"/>
</linearGradient>
<linearGradient id="paint2_linear" x1="108.836" y1="154.113" x2="108.836" y2="229.185" gradientUnits="userSpaceOnUse">
<stop stop-color="#403F9F" stop-opacity="0.01"/>
<stop offset="1" stop-opacity="0.1"/>
</linearGradient>
<linearGradient id="paint3_linear" x1="80.2952" y1="213.157" x2="111.079" y2="266.369" gradientUnits="userSpaceOnUse">
<stop stop-opacity="0.155089"/>
<stop offset="1" stop-opacity="0.01"/>
</linearGradient>
<linearGradient id="paint4_linear" x1="138.054" y1="144.796" x2="137.195" y2="166.603" gradientUnits="userSpaceOnUse">
<stop stop-color="#C74D75" stop-opacity="0.01"/>
<stop offset="1" stop-color="#AF3B6E" stop-opacity="0.2"/>
</linearGradient>
<linearGradient id="paint5_linear" x1="127.6" y1="150.995" x2="137.823" y2="168.165" gradientUnits="userSpaceOnUse">
<stop stop-opacity="0.2"/>
<stop offset="1" stop-color="#FF6663" stop-opacity="0.01"/>
</linearGradient>
<linearGradient id="paint6_linear" x1="121.58" y1="157.29" x2="121.58" y2="237" gradientUnits="userSpaceOnUse">
<stop stop-color="#403F9F" stop-opacity="0.01"/>
<stop offset="1" stop-opacity="0.1"/>
</linearGradient>
<linearGradient id="paint7_linear" x1="124.021" y1="229.264" x2="135.83" y2="249.539" gradientUnits="userSpaceOnUse">
<stop stop-opacity="0.155089"/>
<stop offset="1" stop-opacity="0.01"/>
</linearGradient>
<linearGradient id="paint8_linear" x1="150.142" y1="210.411" x2="149.804" y2="222.357" gradientUnits="userSpaceOnUse">
<stop stop-color="#C74D75" stop-opacity="0.01"/>
<stop offset="1" stop-color="#AF3B6E" stop-opacity="0.2"/>
</linearGradient>
<linearGradient id="paint9_linear" x1="96.5276" y1="154.303" x2="96.5276" y2="236.089" gradientUnits="userSpaceOnUse">
<stop stop-color="#403F9F" stop-opacity="0.01"/>
<stop offset="1" stop-opacity="0.1"/>
</linearGradient>
<linearGradient id="paint10_linear" x1="97.1005" y1="192.494" x2="96.5635" y2="214.309" gradientUnits="userSpaceOnUse">
<stop stop-color="#C74D75" stop-opacity="0.01"/>
<stop offset="1" stop-color="#AF3B6E" stop-opacity="0.2"/>
</linearGradient>
<linearGradient id="paint11_linear" x1="124.328" y1="89.3564" x2="122.356" y2="148.209" gradientUnits="userSpaceOnUse">
<stop stop-color="#C74D75" stop-opacity="0.01"/>
<stop offset="1" stop-color="#AF3B6E" stop-opacity="0.2"/>
</linearGradient>
<linearGradient id="paint12_linear" x1="99.9528" y1="100.495" x2="134.43" y2="152.567" gradientUnits="userSpaceOnUse">
<stop stop-opacity="0.2"/>
<stop offset="1" stop-color="#FF6663" stop-opacity="0.01"/>
</linearGradient>
<clipPath id="clip0">
<rect width="300" height="300" fill="white"/>
</clipPath>
</defs>
</svg>
