<svg width="300" height="300" viewBox="0 0 300 300" fill="none" xmlns="http://www.w3.org/2000/svg">
<g clip-path="url(#clip0)">
<path fill-rule="evenodd" clip-rule="evenodd" d="M0 212.483C0 152.667 19.4364 127.607 67.6829 110.719C115.961 94.1044 122.359 0 185.017 0C247.849 0 330.424 167.544 288.763 263.772C247.117 360.096 131.44 228.697 93.554 272.32C55.594 315.736 0 272.133 0 212.483Z" fill="#F2F5F9"/>
<path fill-rule="evenodd" clip-rule="evenodd" d="M85.9954 201.774C38.0926 218.676 59.6908 247.583 105.97 247.583C152.249 247.583 233.908 237.954 240.708 219.864C247.507 201.774 133.898 184.871 85.9954 201.774Z" fill="#F0F0F6"/>
<rect x="93.3752" y="155.754" width="36.3005" height="64.745" fill="#A7A7EE"/>
<rect x="93.3752" y="155.754" width="36.3005" height="64.745" fill="url(#paint0_linear)"/>
<path fill-rule="evenodd" clip-rule="evenodd" d="M129.676 153.452C129.676 128.99 149.506 109.16 173.968 109.16V109.16C198.43 109.16 218.26 128.99 218.26 153.452V155.754H129.676V153.452Z" fill="#287CA6"/>
<path fill-rule="evenodd" clip-rule="evenodd" d="M129.676 153.452C129.676 128.99 149.506 109.16 173.968 109.16V109.16C198.43 109.16 218.26 128.99 218.26 153.452V155.754H129.676V153.452Z" fill="url(#paint1_linear)"/>
<path fill-rule="evenodd" clip-rule="evenodd" d="M153.225 144.051C160.281 131.057 166.139 115.661 160.817 115.661C151.688 115.661 145.884 120.461 142.981 130.693C141.982 134.214 141.182 137.683 140.537 140.774C140.537 140.774 143.343 142.492 146.819 143.161C150.295 143.83 153.225 144.051 153.225 144.051Z" fill="#F2F5F9"/>
<rect x="105.024" y="175.801" width="38.7386" height="44.6984" fill="#66D4F2"/>
<rect x="105.024" y="175.801" width="38.7386" height="44.6984" fill="url(#paint2_linear)"/>
<path d="M81.4558 167.539C81.4558 161.03 86.7317 155.754 93.2399 155.754V155.754C99.7481 155.754 105.024 161.03 105.024 167.539V220.499H87.3417C84.091 220.499 81.4558 217.864 81.4558 214.613V167.539Z" fill="#287CA6"/>
<path d="M81.4558 167.539C81.4558 161.03 86.7317 155.754 93.2399 155.754V155.754C99.7481 155.754 105.024 161.03 105.024 167.539V220.499H87.3417C84.091 220.499 81.4558 217.864 81.4558 214.613V167.539Z" fill="url(#paint3_linear)"/>
<path fill-rule="evenodd" clip-rule="evenodd" d="M89.041 227.272C84.1088 225.223 88.432 218.278 93.3754 217.52C98.3541 216.687 101.589 215.788 101.502 212.372C101.589 209.006 110.849 211.636 110.984 213.185C110.849 214.867 112.981 220.593 110.984 221.583C108.717 222.523 94.0236 229.141 89.041 227.272Z" fill="#282828"/>
<path fill-rule="evenodd" clip-rule="evenodd" d="M89.041 227.272C84.1088 225.223 88.432 218.278 93.3754 217.52C98.3541 216.687 101.589 215.788 101.502 212.372C101.589 209.006 110.849 211.636 110.984 213.185C110.849 214.867 112.981 220.593 110.984 221.583C108.717 222.523 94.0236 229.141 89.041 227.272Z" fill="url(#paint4_linear)"/>
<path fill-rule="evenodd" clip-rule="evenodd" d="M120.194 212.373C121.47 212.923 123.144 213.199 125.342 213.185C126.949 213.199 128.326 213.03 129.405 212.643C129.493 215.053 129.899 216.794 132.656 219.687C136.139 223.123 135.612 232.384 129.405 233.774C123.302 234.728 119.034 223.123 119.653 218.603C120.358 215.929 120.367 213.9 120.194 212.373Z" fill="#282828"/>
<path fill-rule="evenodd" clip-rule="evenodd" d="M120.194 212.373C121.47 212.923 123.144 213.199 125.342 213.185C126.949 213.199 128.326 213.03 129.405 212.643C129.493 215.053 129.899 216.794 132.656 219.687C136.139 223.123 135.612 232.384 129.405 233.774C123.302 234.728 119.034 223.123 119.653 218.603C120.358 215.929 120.367 213.9 120.194 212.373Z" fill="url(#paint5_linear)"/>
<path fill-rule="evenodd" clip-rule="evenodd" d="M139.496 159.018C127.512 159.018 92.7154 158.359 88.3466 166.399C83.9778 174.439 96.4017 210.764 96.4017 212.418C96.4017 214.073 110.674 213.583 113.122 213.583C115.57 213.583 105.654 180.307 106.957 178.417C108.261 176.527 149.113 179.517 152.18 173.763C155.248 168.009 151.48 159.018 139.496 159.018Z" fill="#282828"/>
<path fill-rule="evenodd" clip-rule="evenodd" d="M139.496 159.018C127.512 159.018 92.7154 158.359 88.3466 166.399C83.9778 174.439 96.4017 210.764 96.4017 212.418C96.4017 214.073 110.674 213.583 113.122 213.583C115.57 213.583 105.654 180.307 106.957 178.417C108.261 176.527 149.113 179.517 152.18 173.763C155.248 168.009 151.48 159.018 139.496 159.018Z" fill="url(#paint6_linear)"/>
<path fill-rule="evenodd" clip-rule="evenodd" d="M163.557 161.141C151.573 161.141 129.603 157.135 125.234 165.175C120.866 173.214 117.485 210.263 117.485 211.917C117.485 213.572 130.731 214.762 133.18 214.762C135.628 214.762 140.682 178.936 144.438 177.567C148.194 176.198 175.886 183.321 178.954 177.567C182.021 171.813 175.541 161.141 163.557 161.141Z" fill="#282828"/>
<path fill-rule="evenodd" clip-rule="evenodd" d="M168.611 116.474H179.251C189.161 116.474 187.481 126.764 187.481 136.675C187.481 146.586 182.772 160.902 182.772 160.902L146.507 160.551C146.507 160.551 146.377 145.862 147.597 136.284C148.816 126.706 155.487 116.474 168.611 116.474Z" fill="#F2F5F9"/>
<path fill-rule="evenodd" clip-rule="evenodd" d="M138.276 152.047C138.651 151.182 139.309 146.667 140.537 140.774C142.408 141.92 144.502 142.715 146.819 143.161C146.858 143.169 146.898 143.176 146.937 143.184C146.722 146.321 146.585 149.755 146.527 153.485C144.14 153.955 142.04 154.463 141.121 154.944C140.394 155.324 137.821 157.472 136.824 159.027L135.261 152.622C136.99 152.493 138.15 152.339 138.276 152.047Z" fill="#DD784D"/>
<path fill-rule="evenodd" clip-rule="evenodd" d="M138.276 152.047C138.651 151.182 139.309 146.667 140.537 140.774C142.408 141.92 144.502 142.715 146.819 143.161C146.858 143.169 146.898 143.176 146.937 143.184C146.722 146.321 146.585 149.755 146.527 153.485C144.14 153.955 142.04 154.463 141.121 154.944C140.394 155.324 137.821 157.472 136.824 159.027L135.261 152.622C136.99 152.493 138.15 152.339 138.276 152.047Z" fill="url(#paint7_linear)"/>
<path fill-rule="evenodd" clip-rule="evenodd" d="M138.276 152.047C138.651 151.182 139.309 146.667 140.537 140.774C142.408 141.92 144.502 142.715 146.819 143.161C146.858 143.169 146.898 143.176 146.937 143.184C146.722 146.321 146.585 149.755 146.527 153.485C144.14 153.955 142.04 154.463 141.121 154.944C140.394 155.324 137.821 157.472 136.824 159.027L135.261 152.622C136.99 152.493 138.15 152.339 138.276 152.047Z" fill="url(#paint8_linear)"/>
<path fill-rule="evenodd" clip-rule="evenodd" d="M93.0319 130.832H128.592L136.719 164.152H98.348C97.9734 164.152 97.6473 163.896 97.5585 163.532L90.4 134.183C90.0455 132.729 90.9364 131.263 92.39 130.909C92.6001 130.858 92.8156 130.832 93.0319 130.832Z" fill="#D6DFEA"/>
<path fill-rule="evenodd" clip-rule="evenodd" d="M112.338 150.066C113.685 150.066 114.776 148.974 114.776 147.628C114.776 146.281 113.685 145.189 112.338 145.189C110.992 145.189 109.9 146.281 109.9 147.628C109.9 148.974 110.992 150.066 112.338 150.066Z" fill="#F2F5F9"/>
<path fill-rule="evenodd" clip-rule="evenodd" d="M137.083 160.089H160.965C162.087 160.089 162.997 160.998 162.997 162.12C162.997 163.243 162.087 164.152 160.965 164.152H134.823V161.931L127.559 132.147C127.42 131.577 127.77 131.001 128.34 130.862C128.423 130.842 128.507 130.832 128.592 130.832C129.387 130.832 130.079 131.375 130.268 132.147L137.083 160.089Z" fill="#B6C5D9"/>
<path fill-rule="evenodd" clip-rule="evenodd" d="M194.692 155.754V120.944C194.692 114.436 199.968 109.16 206.476 109.16C212.984 109.16 218.26 114.436 218.26 120.944V155.754H194.692Z" fill="#66D4F2"/>
<path fill-rule="evenodd" clip-rule="evenodd" d="M194.692 155.754V120.944C194.692 114.436 199.968 109.16 206.476 109.16C212.984 109.16 218.26 114.436 218.26 120.944V155.754H194.692Z" fill="url(#paint9_linear)"/>
<path fill-rule="evenodd" clip-rule="evenodd" d="M218.26 155.755V210.5C218.26 216.022 213.783 220.5 208.26 220.5H155.682V155.755H218.26Z" fill="#66D4F2"/>
<path fill-rule="evenodd" clip-rule="evenodd" d="M218.26 155.755V210.5C218.26 216.022 213.783 220.5 208.26 220.5H155.682V155.755H218.26Z" fill="url(#paint10_linear)"/>
<path d="M143.762 167.539C143.762 161.031 149.038 155.755 155.547 155.755V155.755C162.055 155.755 167.331 161.031 167.331 167.539V220.5H143.762V167.539Z" fill="#287CA6"/>
<path d="M143.762 167.539C143.762 161.031 149.038 155.755 155.547 155.755V155.755C162.055 155.755 167.331 161.031 167.331 167.539V220.5H143.762V167.539Z" fill="url(#paint11_linear)"/>
<path fill-rule="evenodd" clip-rule="evenodd" d="M146.416 160.089H137.083L136.823 159.027C137.821 157.471 140.394 155.324 141.121 154.944C143.786 153.549 156.373 151.926 157.104 151.693C164.463 150.922 167.843 150.219 182.839 149.526C182.841 145.563 174.468 116.487 179.047 116.476C183.494 116.487 195.045 116.517 196.384 130.021C197.724 143.525 200.548 160.674 190.966 160.362C185.131 160.459 169.075 156.79 160.589 155.754H155.682C151.873 155.754 148.577 157.443 146.416 160.089Z" fill="#DD784D"/>
<path fill-rule="evenodd" clip-rule="evenodd" d="M146.416 160.089H137.083L136.823 159.027C137.821 157.471 140.394 155.324 141.121 154.944C143.786 153.549 156.373 151.926 157.104 151.693C164.463 150.922 167.843 150.219 182.839 149.526C182.841 145.563 174.468 116.487 179.047 116.476C183.494 116.487 195.045 116.517 196.384 130.021C197.724 143.525 200.548 160.674 190.966 160.362C185.131 160.459 169.075 156.79 160.589 155.754H155.682C151.873 155.754 148.577 157.443 146.416 160.089Z" fill="url(#paint12_linear)"/>
<path fill-rule="evenodd" clip-rule="evenodd" d="M181.748 144.09C179.647 134.484 175.113 116.484 178.813 116.476C183.38 116.487 195.243 116.517 196.619 130.021C197.037 134.129 197.597 138.574 197.896 142.763C197.943 143.416 195.589 144.593 189.81 144.919C184.031 145.245 181.748 144.09 181.748 144.09Z" fill="#F2F5F9"/>
<path fill-rule="evenodd" clip-rule="evenodd" d="M160.829 95.615H178.167L177.083 116.745C176.978 121.599 172.961 125.414 168.143 125.414C163.477 125.414 159.746 121.705 159.746 117.016C159.746 117.005 159.748 116.879 159.746 116.745L160.829 95.615Z" fill="#DD784D"/>
<path fill-rule="evenodd" clip-rule="evenodd" d="M160.829 95.615H178.167L177.083 116.745C176.978 121.599 172.961 125.414 168.143 125.414C163.477 125.414 159.746 121.705 159.746 117.016C159.746 117.005 159.748 116.879 159.746 116.745L160.829 95.615Z" fill="url(#paint13_linear)"/>
<path fill-rule="evenodd" clip-rule="evenodd" d="M177.625 106.18C174.056 111.179 167.821 114.578 163.809 114.578C162.794 114.578 161.444 114.282 160.016 113.765L160.829 95.6147H178.167L177.625 106.18V106.18Z" fill="url(#paint14_linear)"/>
<path fill-rule="evenodd" clip-rule="evenodd" d="M161.236 64.4614C170.437 64.4614 177.896 71.9205 177.896 81.1217V95.2085C177.896 104.41 166.984 111.869 161.236 111.869C155.487 111.869 144.575 104.41 144.575 95.2085C144.575 95.2085 145.388 88.8338 145.388 88.3511C145.388 87.8684 144.575 81.1217 144.575 81.1217C144.575 71.9205 152.034 64.4614 161.236 64.4614Z" fill="#DD784D"/>
<path fill-rule="evenodd" clip-rule="evenodd" d="M161.236 64.4614C170.437 64.4614 177.896 71.9205 177.896 81.1217V95.2085C177.896 104.41 166.984 111.869 161.236 111.869C155.487 111.869 144.575 104.41 144.575 95.2085C144.575 95.2085 145.388 88.8338 145.388 88.3511C145.388 87.8684 144.575 81.1217 144.575 81.1217C144.575 71.9205 152.034 64.4614 161.236 64.4614Z" fill="url(#paint15_linear)"/>
<path fill-rule="evenodd" clip-rule="evenodd" d="M177.847 101.843L178.167 95.6148L177.896 90.9739C175.149 89.4484 173.291 86.518 173.291 83.1534C173.291 82.4028 173.383 81.6738 173.557 80.9772C173.424 80.9832 173.29 80.9862 173.155 80.9862C168.621 80.9862 164.888 77.559 164.404 73.1539C163.042 73.8322 161.506 74.2138 159.881 74.2138C157.466 74.2138 155.247 73.3708 153.504 71.9631C152.737 72.3626 151.866 72.5884 150.941 72.5884C149.703 72.5884 148.559 72.1828 147.635 71.4971C146.27 73.422 145.304 75.6492 144.856 78.0586C142.695 76.2201 141.324 73.4807 141.324 70.4212C141.324 65.2109 145.3 60.9292 150.383 60.4437C151.839 56.6161 155.542 53.8963 159.881 53.8963C161.693 53.8963 163.394 54.3707 164.867 55.2022C167.056 53.2126 169.964 52 173.155 52C179.701 52 185.055 57.1028 185.457 63.5476C190.248 64.4279 193.879 68.626 193.879 73.672C193.879 76.5013 192.738 79.0641 190.89 80.9249C191.073 81.6373 191.17 82.384 191.17 83.1534C191.17 86.1212 189.724 88.7512 187.498 90.3772C187.597 90.9342 187.648 91.5077 187.648 92.0931C187.648 97.4049 183.138 101.725 177.847 101.843V101.843Z" fill="#1F1845"/>
<path fill-rule="evenodd" clip-rule="evenodd" d="M177.847 101.843L178.167 95.6148L177.896 90.9739C175.149 89.4484 173.291 86.518 173.291 83.1534C173.291 82.4028 173.383 81.6738 173.557 80.9772C173.424 80.9832 173.29 80.9862 173.155 80.9862C168.621 80.9862 164.888 77.559 164.404 73.1539C163.042 73.8322 161.506 74.2138 159.881 74.2138C157.466 74.2138 155.247 73.3708 153.504 71.9631C152.737 72.3626 151.866 72.5884 150.941 72.5884C149.703 72.5884 148.559 72.1828 147.635 71.4971C146.27 73.422 145.304 75.6492 144.856 78.0586C142.695 76.2201 141.324 73.4807 141.324 70.4212C141.324 65.2109 145.3 60.9292 150.383 60.4437C151.839 56.6161 155.542 53.8963 159.881 53.8963C161.693 53.8963 163.394 54.3707 164.867 55.2022C167.056 53.2126 169.964 52 173.155 52C179.701 52 185.055 57.1028 185.457 63.5476C190.248 64.4279 193.879 68.626 193.879 73.672C193.879 76.5013 192.738 79.0641 190.89 80.9249C191.073 81.6373 191.17 82.384 191.17 83.1534C191.17 86.1212 189.724 88.7512 187.498 90.3772C187.597 90.9342 187.648 91.5077 187.648 92.0931C187.648 97.4049 183.138 101.725 177.847 101.843V101.843Z" fill="url(#paint16_linear)"/>
<path fill-rule="evenodd" clip-rule="evenodd" d="M176 97.511C172.644 97.4533 172.857 85.2639 176 85.3206C179.407 85.3784 182.015 88.1535 181.959 91.2803C181.897 94.8855 179.195 97.5677 176 97.511Z" fill="#DD784D"/>
<path fill-rule="evenodd" clip-rule="evenodd" d="M176.812 93.7187C178.009 93.7187 178.979 92.7484 178.979 91.5515C178.979 90.3546 178.009 89.3843 176.812 89.3843C175.615 89.3843 174.645 90.3546 174.645 91.5515C174.645 92.7484 175.615 93.7187 176.812 93.7187Z" fill="url(#paint17_linear)"/>
<path fill-rule="evenodd" clip-rule="evenodd" d="M173.929 86.3989C173.677 86.4024 173.258 86.4042 173.155 86.4042C168.621 86.4042 164.888 82.9769 164.404 78.5718C163.042 79.2501 161.506 79.6317 159.881 79.6317C157.466 79.6317 155.247 78.7888 153.504 77.381C152.737 77.7805 151.866 78.0063 150.941 78.0063C149.703 78.0063 148.559 77.6007 147.635 76.9151C146.271 78.8395 145.304 81.066 144.857 83.4747C144.773 82.7668 144.679 81.9825 144.575 81.1216C144.575 77.5361 145.708 74.2152 147.635 71.4971C148.559 72.1827 149.703 72.5883 150.941 72.5883C151.866 72.5883 152.737 72.3625 153.504 71.963C155.247 73.3708 157.466 74.2137 159.881 74.2137C161.506 74.2137 163.042 73.8322 164.404 73.1538C164.888 77.5589 168.621 80.9862 173.155 80.9862C173.29 80.9862 173.424 80.9831 173.557 80.9771C173.383 81.6738 173.498 82.435 173.557 83.185C173.824 86.5716 174.006 86.3978 173.929 86.3989Z" fill="url(#paint18_linear)"/>
<path d="M146.527 153.502C146.631 146.807 146.987 141.067 147.597 136.284" stroke="white" stroke-width="2" stroke-linecap="round" stroke-linejoin="round"/>
<path d="M182.84 149.526C182.84 147.977 181.561 142.591 180.276 136.603" stroke="white" stroke-width="2" stroke-linecap="round" stroke-linejoin="round"/>
</g>
<defs>
<linearGradient id="paint0_linear" x1="93.3752" y1="155.754" x2="93.3752" y2="220.499" gradientUnits="userSpaceOnUse">
<stop stop-color="#A7A7EE" stop-opacity="0.01"/>
<stop offset="1" stop-color="#403F9F" stop-opacity="0.3"/>
</linearGradient>
<linearGradient id="paint1_linear" x1="129.676" y1="109.16" x2="129.676" y2="155.754" gradientUnits="userSpaceOnUse">
<stop stop-color="#403F9F" stop-opacity="0.01"/>
<stop offset="1" stop-opacity="0.2"/>
</linearGradient>
<linearGradient id="paint2_linear" x1="105.024" y1="175.801" x2="105.024" y2="220.499" gradientUnits="userSpaceOnUse">
<stop stop-color="#A7A7EE" stop-opacity="0.01"/>
<stop offset="1" stop-color="#403F9F" stop-opacity="0.3"/>
</linearGradient>
<linearGradient id="paint3_linear" x1="81.4558" y1="155.754" x2="81.4558" y2="220.499" gradientUnits="userSpaceOnUse">
<stop stop-color="#403F9F" stop-opacity="0.01"/>
<stop offset="1" stop-opacity="0.2"/>
</linearGradient>
<linearGradient id="paint4_linear" x1="86.8738" y1="210.747" x2="86.8738" y2="227.543" gradientUnits="userSpaceOnUse">
<stop stop-color="#403F9F" stop-opacity="0.01"/>
<stop offset="1" stop-opacity="0.1"/>
</linearGradient>
<linearGradient id="paint5_linear" x1="119.653" y1="212.373" x2="119.653" y2="233.774" gradientUnits="userSpaceOnUse">
<stop stop-color="#403F9F" stop-opacity="0.01"/>
<stop offset="1" stop-opacity="0.1"/>
</linearGradient>
<linearGradient id="paint6_linear" x1="127.419" y1="141.547" x2="73.946" y2="166.279" gradientUnits="userSpaceOnUse">
<stop stop-opacity="0.5"/>
<stop offset="1" stop-color="#053851"/>
</linearGradient>
<linearGradient id="paint7_linear" x1="135.261" y1="140.774" x2="135.261" y2="162.516" gradientUnits="userSpaceOnUse">
<stop stop-color="#C74D75" stop-opacity="0.01"/>
<stop offset="1" stop-color="#AF3B6E" stop-opacity="0.05"/>
</linearGradient>
<linearGradient id="paint8_linear" x1="181.471" y1="157.08" x2="172.943" y2="132.913" gradientUnits="userSpaceOnUse">
<stop stop-opacity="0.5"/>
<stop offset="1" stop-color="#FF6663" stop-opacity="0.01"/>
</linearGradient>
<linearGradient id="paint9_linear" x1="194.692" y1="109.16" x2="194.692" y2="155.754" gradientUnits="userSpaceOnUse">
<stop stop-color="#A7A7EE" stop-opacity="0.01"/>
<stop offset="1" stop-color="#403F9F" stop-opacity="0.3"/>
</linearGradient>
<linearGradient id="paint10_linear" x1="155.682" y1="155.755" x2="155.682" y2="220.5" gradientUnits="userSpaceOnUse">
<stop stop-color="#A7A7EE" stop-opacity="0.01"/>
<stop offset="1" stop-color="#403F9F" stop-opacity="0.3"/>
</linearGradient>
<linearGradient id="paint11_linear" x1="143.762" y1="155.755" x2="143.762" y2="220.5" gradientUnits="userSpaceOnUse">
<stop stop-color="#403F9F" stop-opacity="0.01"/>
<stop offset="1" stop-opacity="0.2"/>
</linearGradient>
<linearGradient id="paint12_linear" x1="136.823" y1="116.476" x2="136.823" y2="160.366" gradientUnits="userSpaceOnUse">
<stop stop-color="#C74D75" stop-opacity="0.01"/>
<stop offset="1" stop-color="#AF3B6E" stop-opacity="0.05"/>
</linearGradient>
<linearGradient id="paint13_linear" x1="159.746" y1="95.615" x2="159.746" y2="125.414" gradientUnits="userSpaceOnUse">
<stop stop-color="#C74D75" stop-opacity="0.01"/>
<stop offset="1" stop-color="#AF3B6E" stop-opacity="0.1"/>
</linearGradient>
<linearGradient id="paint14_linear" x1="167.645" y1="121.036" x2="186.448" y2="105.908" gradientUnits="userSpaceOnUse">
<stop stop-opacity="0.1"/>
<stop offset="1" stop-color="#FF6663" stop-opacity="0.01"/>
</linearGradient>
<linearGradient id="paint15_linear" x1="145.01" y1="65.6996" x2="145.01" y2="111.869" gradientUnits="userSpaceOnUse">
<stop stop-color="#C74D75" stop-opacity="0.01"/>
<stop offset="1" stop-color="#AF3B6E" stop-opacity="0.05"/>
</linearGradient>
<linearGradient id="paint16_linear" x1="141.324" y1="52" x2="141.324" y2="101.843" gradientUnits="userSpaceOnUse">
<stop stop-color="#1F1845" stop-opacity="0.01"/>
<stop offset="1" stop-opacity="0.2"/>
</linearGradient>
<linearGradient id="paint17_linear" x1="176.812" y1="87.2171" x2="172.478" y2="91.5515" gradientUnits="userSpaceOnUse">
<stop stop-opacity="0.2"/>
<stop offset="1" stop-color="#FF6663" stop-opacity="0.01"/>
</linearGradient>
<linearGradient id="paint18_linear" x1="152.065" y1="70.1491" x2="145.113" y2="86.6311" gradientUnits="userSpaceOnUse">
<stop stop-opacity="0.1"/>
<stop offset="1" stop-color="#FF6663" stop-opacity="0.01"/>
</linearGradient>
<clipPath id="clip0">
<rect width="300" height="300" fill="white"/>
</clipPath>
</defs>
</svg>
