<svg width="405" height="342" viewBox="0 0 405 342" fill="none" xmlns="http://www.w3.org/2000/svg">
<path fill-rule="evenodd" clip-rule="evenodd" d="M405 99.7693C405 167.96 378.826 196.529 313.854 215.78C248.84 234.721 240.223 342 155.843 342C71.2298 342 -39.9711 151 16.1324 41.2998C72.2159 -68.5094 227.994 81.2854 279.014 31.555C330.133 -17.9395 405 31.768 405 99.7693Z" fill="#F2F5F9"/>
<path d="M145.809 265.648L140.421 283H137.505L133.713 271.144C133.609 270.856 133.513 270.504 133.425 270.088C133.377 270.288 133.329 270.476 133.281 270.652C133.233 270.828 133.181 270.992 133.125 271.144L129.297 283H126.369L120.993 265.648H123.693C123.973 265.648 124.205 265.716 124.389 265.852C124.581 265.98 124.709 266.156 124.773 266.38L127.725 276.76C127.789 277.016 127.849 277.296 127.905 277.6C127.969 277.896 128.033 278.208 128.097 278.536C128.161 278.2 128.229 277.884 128.301 277.588C128.381 277.292 128.465 277.016 128.553 276.76L131.961 266.38C132.025 266.196 132.149 266.028 132.333 265.876C132.525 265.724 132.757 265.648 133.029 265.648H133.977C134.257 265.648 134.485 265.716 134.661 265.852C134.837 265.988 134.969 266.164 135.057 266.38L138.453 276.76C138.621 277.256 138.773 277.828 138.909 278.476C139.013 277.844 139.129 277.272 139.257 276.76L142.209 266.38C142.257 266.18 142.377 266.008 142.569 265.864C142.769 265.72 143.005 265.648 143.277 265.648H145.809ZM153.951 275.428C153.951 275.044 153.895 274.684 153.783 274.348C153.679 274.004 153.519 273.704 153.303 273.448C153.087 273.192 152.811 272.992 152.475 272.848C152.147 272.696 151.763 272.62 151.323 272.62C150.467 272.62 149.791 272.864 149.295 273.352C148.807 273.84 148.495 274.532 148.359 275.428H153.951ZM148.299 277.216C148.347 277.848 148.459 278.396 148.635 278.86C148.811 279.316 149.043 279.696 149.331 280C149.619 280.296 149.959 280.52 150.351 280.672C150.751 280.816 151.191 280.888 151.671 280.888C152.151 280.888 152.563 280.832 152.907 280.72C153.259 280.608 153.563 280.484 153.819 280.348C154.083 280.212 154.311 280.088 154.503 279.976C154.703 279.864 154.895 279.808 155.079 279.808C155.327 279.808 155.511 279.9 155.631 280.084L156.483 281.164C156.155 281.548 155.787 281.872 155.379 282.136C154.971 282.392 154.543 282.6 154.095 282.76C153.655 282.912 153.203 283.02 152.739 283.084C152.283 283.148 151.839 283.18 151.407 283.18C150.551 283.18 149.755 283.04 149.019 282.76C148.283 282.472 147.643 282.052 147.099 281.5C146.555 280.94 146.127 280.252 145.815 279.436C145.503 278.612 145.347 277.66 145.347 276.58C145.347 275.74 145.483 274.952 145.755 274.216C146.027 273.472 146.415 272.828 146.919 272.284C147.431 271.732 148.051 271.296 148.779 270.976C149.515 270.656 150.343 270.496 151.263 270.496C152.039 270.496 152.755 270.62 153.411 270.868C154.067 271.116 154.631 271.48 155.103 271.96C155.575 272.432 155.943 273.016 156.207 273.712C156.479 274.4 156.615 275.188 156.615 276.076C156.615 276.524 156.567 276.828 156.471 276.988C156.375 277.14 156.191 277.216 155.919 277.216H148.299ZM172.403 273.832C172.067 273.424 171.699 273.136 171.299 272.968C170.907 272.8 170.483 272.716 170.027 272.716C169.579 272.716 169.175 272.8 168.815 272.968C168.455 273.136 168.147 273.392 167.891 273.736C167.635 274.072 167.439 274.504 167.303 275.032C167.167 275.552 167.099 276.168 167.099 276.88C167.099 277.6 167.155 278.212 167.267 278.716C167.387 279.212 167.555 279.62 167.771 279.94C167.987 280.252 168.251 280.48 168.563 280.624C168.875 280.76 169.223 280.828 169.607 280.828C170.223 280.828 170.747 280.7 171.179 280.444C171.611 280.188 172.019 279.824 172.403 279.352V273.832ZM175.367 265.168V283H173.555C173.163 283 172.915 282.82 172.811 282.46L172.559 281.272C172.063 281.84 171.491 282.3 170.843 282.652C170.203 283.004 169.455 283.18 168.599 283.18C167.927 283.18 167.311 283.04 166.751 282.76C166.191 282.48 165.707 282.076 165.299 281.548C164.899 281.012 164.587 280.352 164.363 279.568C164.147 278.784 164.039 277.888 164.039 276.88C164.039 275.968 164.163 275.12 164.411 274.336C164.659 273.552 165.015 272.872 165.479 272.296C165.943 271.72 166.499 271.272 167.147 270.952C167.795 270.624 168.523 270.46 169.331 270.46C170.019 270.46 170.607 270.568 171.095 270.784C171.583 271 172.019 271.292 172.403 271.66V265.168H175.367ZM186.224 275.428C186.224 275.044 186.168 274.684 186.056 274.348C185.952 274.004 185.792 273.704 185.576 273.448C185.36 273.192 185.084 272.992 184.748 272.848C184.42 272.696 184.036 272.62 183.596 272.62C182.74 272.62 182.064 272.864 181.568 273.352C181.08 273.84 180.768 274.532 180.632 275.428H186.224ZM180.572 277.216C180.62 277.848 180.732 278.396 180.908 278.86C181.084 279.316 181.316 279.696 181.604 280C181.892 280.296 182.232 280.52 182.624 280.672C183.024 280.816 183.464 280.888 183.944 280.888C184.424 280.888 184.836 280.832 185.18 280.72C185.532 280.608 185.836 280.484 186.092 280.348C186.356 280.212 186.584 280.088 186.776 279.976C186.976 279.864 187.168 279.808 187.352 279.808C187.6 279.808 187.784 279.9 187.904 280.084L188.756 281.164C188.428 281.548 188.06 281.872 187.652 282.136C187.244 282.392 186.816 282.6 186.368 282.76C185.928 282.912 185.476 283.02 185.012 283.084C184.556 283.148 184.112 283.18 183.68 283.18C182.824 283.18 182.028 283.04 181.292 282.76C180.556 282.472 179.916 282.052 179.372 281.5C178.828 280.94 178.4 280.252 178.088 279.436C177.776 278.612 177.62 277.66 177.62 276.58C177.62 275.74 177.756 274.952 178.028 274.216C178.3 273.472 178.688 272.828 179.192 272.284C179.704 271.732 180.324 271.296 181.052 270.976C181.788 270.656 182.616 270.496 183.536 270.496C184.312 270.496 185.028 270.62 185.684 270.868C186.34 271.116 186.904 271.48 187.376 271.96C187.848 272.432 188.216 273.016 188.48 273.712C188.752 274.4 188.888 275.188 188.888 276.076C188.888 276.524 188.84 276.828 188.744 276.988C188.648 277.14 188.464 277.216 188.192 277.216H180.572ZM198.624 273.088C198.544 273.216 198.46 273.308 198.372 273.364C198.284 273.412 198.172 273.436 198.036 273.436C197.892 273.436 197.736 273.396 197.568 273.316C197.408 273.236 197.22 273.148 197.004 273.052C196.788 272.948 196.54 272.856 196.26 272.776C195.988 272.696 195.664 272.656 195.288 272.656C194.704 272.656 194.244 272.78 193.908 273.028C193.58 273.276 193.416 273.6 193.416 274C193.416 274.264 193.5 274.488 193.668 274.672C193.844 274.848 194.072 275.004 194.352 275.14C194.64 275.276 194.964 275.4 195.324 275.512C195.684 275.616 196.048 275.732 196.416 275.86C196.792 275.988 197.16 276.136 197.52 276.304C197.88 276.464 198.2 276.672 198.48 276.928C198.768 277.176 198.996 277.476 199.164 277.828C199.34 278.18 199.428 278.604 199.428 279.1C199.428 279.692 199.32 280.24 199.104 280.744C198.896 281.24 198.584 281.672 198.168 282.04C197.752 282.4 197.236 282.684 196.62 282.892C196.012 283.092 195.308 283.192 194.508 283.192C194.084 283.192 193.668 283.152 193.26 283.072C192.86 283 192.472 282.896 192.096 282.76C191.728 282.624 191.384 282.464 191.064 282.28C190.752 282.096 190.476 281.896 190.236 281.68L190.92 280.552C191.008 280.416 191.112 280.312 191.232 280.24C191.352 280.168 191.504 280.132 191.688 280.132C191.872 280.132 192.044 280.184 192.204 280.288C192.372 280.392 192.564 280.504 192.78 280.624C192.996 280.744 193.248 280.856 193.536 280.96C193.832 281.064 194.204 281.116 194.652 281.116C195.004 281.116 195.304 281.076 195.552 280.996C195.808 280.908 196.016 280.796 196.176 280.66C196.344 280.524 196.464 280.368 196.536 280.192C196.616 280.008 196.656 279.82 196.656 279.628C196.656 279.34 196.568 279.104 196.392 278.92C196.224 278.736 195.996 278.576 195.708 278.44C195.428 278.304 195.104 278.184 194.736 278.08C194.376 277.968 194.004 277.848 193.62 277.72C193.244 277.592 192.872 277.444 192.504 277.276C192.144 277.1 191.82 276.88 191.532 276.616C191.252 276.352 191.024 276.028 190.848 275.644C190.68 275.26 190.596 274.796 190.596 274.252C190.596 273.748 190.696 273.268 190.896 272.812C191.096 272.356 191.388 271.96 191.772 271.624C192.164 271.28 192.648 271.008 193.224 270.808C193.808 270.6 194.48 270.496 195.24 270.496C196.088 270.496 196.86 270.636 197.556 270.916C198.252 271.196 198.832 271.564 199.296 272.02L198.624 273.088ZM204.731 270.688V283H201.755V270.688H204.731ZM205.139 267.1C205.139 267.356 205.087 267.596 204.983 267.82C204.879 268.044 204.739 268.24 204.563 268.408C204.395 268.576 204.195 268.712 203.963 268.816C203.731 268.912 203.483 268.96 203.219 268.96C202.963 268.96 202.719 268.912 202.487 268.816C202.263 268.712 202.067 268.576 201.899 268.408C201.731 268.24 201.595 268.044 201.491 267.82C201.395 267.596 201.347 267.356 201.347 267.1C201.347 266.836 201.395 266.588 201.491 266.356C201.595 266.124 201.731 265.924 201.899 265.756C202.067 265.588 202.263 265.456 202.487 265.36C202.719 265.256 202.963 265.204 203.219 265.204C203.483 265.204 203.731 265.256 203.963 265.36C204.195 265.456 204.395 265.588 204.563 265.756C204.739 265.924 204.879 266.124 204.983 266.356C205.087 266.588 205.139 266.836 205.139 267.1ZM212.253 276.544C212.621 276.544 212.941 276.496 213.213 276.4C213.485 276.296 213.709 276.156 213.885 275.98C214.069 275.804 214.205 275.592 214.293 275.344C214.389 275.096 214.437 274.824 214.437 274.528C214.437 273.92 214.253 273.44 213.885 273.088C213.525 272.728 212.981 272.548 212.253 272.548C211.525 272.548 210.977 272.728 210.609 273.088C210.249 273.44 210.069 273.92 210.069 274.528C210.069 274.816 210.113 275.084 210.201 275.332C210.297 275.58 210.433 275.796 210.609 275.98C210.793 276.156 211.021 276.296 211.293 276.4C211.573 276.496 211.893 276.544 212.253 276.544ZM215.601 283.552C215.601 283.312 215.529 283.116 215.385 282.964C215.241 282.812 215.045 282.696 214.797 282.616C214.549 282.528 214.257 282.464 213.921 282.424C213.593 282.384 213.241 282.356 212.865 282.34C212.497 282.316 212.113 282.296 211.713 282.28C211.321 282.264 210.937 282.232 210.561 282.184C210.233 282.368 209.965 282.584 209.757 282.832C209.557 283.08 209.457 283.368 209.457 283.696C209.457 283.912 209.509 284.112 209.613 284.296C209.725 284.488 209.897 284.652 210.129 284.788C210.369 284.924 210.677 285.028 211.053 285.1C211.429 285.18 211.889 285.22 212.433 285.22C212.985 285.22 213.461 285.176 213.861 285.088C214.261 285.008 214.589 284.892 214.845 284.74C215.109 284.596 215.301 284.42 215.421 284.212C215.541 284.012 215.601 283.792 215.601 283.552ZM218.553 271.108V272.212C218.553 272.564 218.341 272.78 217.917 272.86L216.813 273.064C216.981 273.488 217.065 273.952 217.065 274.456C217.065 275.064 216.941 275.616 216.693 276.112C216.453 276.6 216.117 277.016 215.685 277.36C215.253 277.704 214.741 277.972 214.149 278.164C213.565 278.348 212.933 278.44 212.253 278.44C212.013 278.44 211.781 278.428 211.557 278.404C211.333 278.38 211.113 278.348 210.897 278.308C210.513 278.54 210.321 278.8 210.321 279.088C210.321 279.336 210.433 279.52 210.657 279.64C210.889 279.752 211.193 279.832 211.569 279.88C211.945 279.928 212.373 279.96 212.853 279.976C213.333 279.984 213.825 280.008 214.329 280.048C214.833 280.088 215.325 280.16 215.805 280.264C216.285 280.36 216.713 280.516 217.089 280.732C217.465 280.948 217.765 281.244 217.989 281.62C218.221 281.988 218.337 282.464 218.337 283.048C218.337 283.592 218.201 284.12 217.929 284.632C217.665 285.144 217.277 285.6 216.765 286C216.261 286.4 215.637 286.72 214.893 286.96C214.157 287.208 213.317 287.332 212.373 287.332C211.445 287.332 210.637 287.24 209.949 287.056C209.261 286.88 208.689 286.64 208.233 286.336C207.777 286.04 207.437 285.696 207.213 285.304C206.989 284.912 206.877 284.504 206.877 284.08C206.877 283.504 207.049 283.024 207.393 282.64C207.745 282.248 208.225 281.936 208.833 281.704C208.505 281.536 208.245 281.312 208.053 281.032C207.861 280.752 207.765 280.384 207.765 279.928C207.765 279.744 207.797 279.556 207.861 279.364C207.933 279.164 208.033 278.968 208.161 278.776C208.297 278.584 208.465 278.404 208.665 278.236C208.865 278.06 209.101 277.904 209.373 277.768C208.749 277.432 208.257 276.984 207.897 276.424C207.545 275.864 207.369 275.208 207.369 274.456C207.369 273.848 207.489 273.3 207.729 272.812C207.977 272.316 208.317 271.896 208.749 271.552C209.189 271.2 209.705 270.932 210.297 270.748C210.897 270.564 211.549 270.472 212.253 270.472C212.781 270.472 213.277 270.528 213.741 270.64C214.205 270.744 214.629 270.9 215.013 271.108H218.553ZM223.205 272.2C223.453 271.952 223.713 271.724 223.985 271.516C224.265 271.3 224.557 271.12 224.861 270.976C225.173 270.824 225.505 270.708 225.857 270.628C226.209 270.54 226.593 270.496 227.009 270.496C227.681 270.496 228.277 270.612 228.797 270.844C229.317 271.068 229.749 271.388 230.093 271.804C230.445 272.212 230.709 272.704 230.885 273.28C231.069 273.848 231.161 274.476 231.161 275.164V283H228.197V275.164C228.197 274.412 228.025 273.832 227.681 273.424C227.337 273.008 226.813 272.8 226.109 272.8C225.597 272.8 225.117 272.916 224.669 273.148C224.221 273.38 223.797 273.696 223.397 274.096V283H220.433V270.688H222.245C222.629 270.688 222.881 270.868 223.001 271.228L223.205 272.2Z" fill="black"/>
<path d="M233.548 281.368C233.548 281.12 233.592 280.884 233.68 280.66C233.776 280.436 233.904 280.244 234.064 280.084C234.224 279.924 234.416 279.796 234.64 279.7C234.864 279.604 235.104 279.556 235.36 279.556C235.616 279.556 235.852 279.604 236.068 279.7C236.292 279.796 236.484 279.924 236.644 280.084C236.812 280.244 236.944 280.436 237.04 280.66C237.136 280.884 237.184 281.12 237.184 281.368C237.184 281.624 237.136 281.864 237.04 282.088C236.944 282.304 236.812 282.492 236.644 282.652C236.484 282.812 236.292 282.936 236.068 283.024C235.852 283.12 235.616 283.168 235.36 283.168C235.104 283.168 234.864 283.12 234.64 283.024C234.416 282.936 234.224 282.812 234.064 282.652C233.904 282.492 233.776 282.304 233.68 282.088C233.592 281.864 233.548 281.624 233.548 281.368Z" fill="#4DB2DD"/>
<path fill-rule="evenodd" clip-rule="evenodd" d="M78 169.034H281.032C281.032 174.959 276.229 179.762 270.304 179.762H88.7283C82.8032 179.762 78 174.959 78 169.034Z" fill="#393E41"/>
<path fill-rule="evenodd" clip-rule="evenodd" d="M78 169.034H281.032C281.032 174.959 276.229 179.762 270.304 179.762H88.7283C82.8032 179.762 78 174.959 78 169.034Z" fill="url(#paint0_linear)"/>
<rect x="78" y="57.46" width="17.1652" height="111.574" fill="#393E41"/>
<rect x="78" y="57.46" width="17.1652" height="111.574" fill="url(#paint1_linear)"/>
<rect x="273.254" y="57.46" width="7.77798" height="111.574" fill="#393E41"/>
<rect x="273.254" y="57.46" width="7.77798" height="111.574" fill="url(#paint2_linear)"/>
<rect x="95.1652" y="57.46" width="178.089" height="111.574" fill="black"/>
<path d="M78 57.46C78 51.6831 82.6831 47 88.46 47H270.572C276.349 47 281.032 51.6831 281.032 57.46H78Z" fill="#393E41"/>
<path d="M78 57.46C78 51.6831 82.6831 47 88.46 47H270.572C276.349 47 281.032 51.6831 281.032 57.46H78Z" fill="url(#paint3_linear)"/>
<path d="M104.284 70.9202C104.284 69.2633 105.627 67.9202 107.284 67.9202H113.94V158.574H107.284C105.627 158.574 104.284 157.231 104.284 155.574V70.9202Z" fill="#393E41"/>
<path d="M237.314 67.9202H261.135C262.792 67.9202 264.135 69.2633 264.135 70.9202V155.574C264.135 157.231 262.792 158.574 261.135 158.574H237.314V67.9202Z" fill="#393E41"/>
<rect x="239.996" y="70.6021" width="21.4565" height="2.68206" rx="1.34103" fill="#4E565C"/>
<rect x="239.996" y="86.6946" width="21.4565" height="2.68206" rx="1.34103" fill="#4E565C"/>
<rect x="239.996" y="75.9663" width="21.4565" height="2.68206" rx="1.34103" fill="#4E565C"/>
<rect x="239.996" y="92.0586" width="21.4565" height="2.68206" rx="1.34103" fill="#4E565C"/>
<rect x="239.996" y="81.3303" width="21.4565" height="2.68206" rx="1.34103" fill="#4E565C"/>
<rect x="239.996" y="97.4229" width="21.4565" height="2.68206" rx="1.34103" fill="#4E565C"/>
<rect x="239.996" y="102.787" width="21.4565" height="21.4565" rx="5" fill="#4E565C"/>
<rect x="113.94" y="67.9202" width="123.375" height="6.97336" fill="#393E41"/>
<path fill-rule="evenodd" clip-rule="evenodd" d="M83.6323 88.8401H89.5328C89.9772 88.8401 90.3375 89.2003 90.3375 89.6447V93.936C90.3375 94.3804 89.9772 94.7406 89.5328 94.7406H83.6323C83.1879 94.7406 82.8277 94.3804 82.8277 93.936V89.6447C82.8277 89.2003 83.1879 88.8401 83.6323 88.8401Z" fill="#393E41"/>
<path fill-rule="evenodd" clip-rule="evenodd" d="M83.6323 88.8401H89.5328C89.9772 88.8401 90.3375 89.2003 90.3375 89.6447V93.936C90.3375 94.3804 89.9772 94.7406 89.5328 94.7406H83.6323C83.1879 94.7406 82.8277 94.3804 82.8277 93.936V89.6447C82.8277 89.2003 83.1879 88.8401 83.6323 88.8401Z" fill="url(#paint4_linear)"/>
<path fill-rule="evenodd" clip-rule="evenodd" d="M83.6323 123.975H89.5328C89.9772 123.975 90.3375 124.335 90.3375 124.78V129.071C90.3375 129.515 89.9772 129.876 89.5328 129.876H83.6323C83.1879 129.876 82.8277 129.515 82.8277 129.071V124.78C82.8277 124.335 83.1879 123.975 83.6323 123.975Z" fill="#393E41"/>
<path fill-rule="evenodd" clip-rule="evenodd" d="M83.6323 123.975H89.5328C89.9772 123.975 90.3375 124.335 90.3375 124.78V129.071C90.3375 129.515 89.9772 129.876 89.5328 129.876H83.6323C83.1879 129.876 82.8277 129.515 82.8277 129.071V124.78C82.8277 124.335 83.1879 123.975 83.6323 123.975Z" fill="url(#paint5_linear)"/>
<path fill-rule="evenodd" clip-rule="evenodd" d="M86.5826 120.488C90.582 120.488 93.8241 117.246 93.8241 113.247C93.8241 109.248 90.582 106.005 86.5826 106.005C82.5832 106.005 79.341 109.248 79.341 113.247C79.341 117.246 82.5832 120.488 86.5826 120.488Z" fill="#393E41"/>
<path fill-rule="evenodd" clip-rule="evenodd" d="M86.5826 120.488C90.582 120.488 93.8241 117.246 93.8241 113.247C93.8241 109.248 90.582 106.005 86.5826 106.005C82.5832 106.005 79.341 109.248 79.341 113.247C79.341 117.246 82.5832 120.488 86.5826 120.488Z" fill="url(#paint6_linear)"/>
<path fill-rule="evenodd" clip-rule="evenodd" d="M86.5826 116.197C88.212 116.197 89.5329 114.876 89.5329 113.247C89.5329 111.618 88.212 110.297 86.5826 110.297C84.9532 110.297 83.6323 111.618 83.6323 113.247C83.6323 114.876 84.9532 116.197 86.5826 116.197Z" fill="#393E41"/>
<path fill-rule="evenodd" clip-rule="evenodd" d="M86.5826 116.197C88.212 116.197 89.5329 114.876 89.5329 113.247C89.5329 111.618 88.212 110.297 86.5826 110.297C84.9532 110.297 83.6323 111.618 83.6323 113.247C83.6323 114.876 84.9532 116.197 86.5826 116.197Z" fill="url(#paint7_linear)"/>
<path fill-rule="evenodd" clip-rule="evenodd" d="M83.6323 96.6182H89.5328C89.9772 96.6182 90.3375 96.9784 90.3375 97.4228V101.714C90.3375 102.158 89.9772 102.519 89.5328 102.519H83.6323C83.1879 102.519 82.8277 102.158 82.8277 101.714V97.4228C82.8277 96.9784 83.1879 96.6182 83.6323 96.6182Z" fill="#393E41"/>
<path fill-rule="evenodd" clip-rule="evenodd" d="M83.6323 96.6182H89.5328C89.9772 96.6182 90.3375 96.9784 90.3375 97.4228V101.714C90.3375 102.158 89.9772 102.519 89.5328 102.519H83.6323C83.1879 102.519 82.8277 102.158 82.8277 101.714V97.4228C82.8277 96.9784 83.1879 96.6182 83.6323 96.6182Z" fill="url(#paint8_linear)"/>
<path fill-rule="evenodd" clip-rule="evenodd" d="M83.6323 131.753H89.5328C89.9772 131.753 90.3375 132.113 90.3375 132.558V136.849C90.3375 137.293 89.9772 137.654 89.5328 137.654H83.6323C83.1879 137.654 82.8277 137.293 82.8277 136.849V132.558C82.8277 132.113 83.1879 131.753 83.6323 131.753Z" fill="#393E41"/>
<path fill-rule="evenodd" clip-rule="evenodd" d="M83.6323 131.753H89.5328C89.9772 131.753 90.3375 132.113 90.3375 132.558V136.849C90.3375 137.293 89.9772 137.654 89.5328 137.654H83.6323C83.1879 137.654 82.8277 137.293 82.8277 136.849V132.558C82.8277 132.113 83.1879 131.753 83.6323 131.753Z" fill="url(#paint9_linear)"/>
<path fill-rule="evenodd" clip-rule="evenodd" d="M89.5328 88.8401H83.6323C83.1879 88.8401 82.8277 89.2003 82.8277 89.6447V93.936C82.8277 94.3804 83.1879 94.7406 83.6323 94.7406H89.5328C89.9772 94.7406 90.3375 94.3804 90.3375 93.936V89.6447C90.3375 89.2003 89.9772 88.8401 89.5328 88.8401ZM83.0959 89.6448C83.0959 89.3485 83.3361 89.1083 83.6323 89.1083H89.5329C89.8291 89.1083 90.0693 89.3485 90.0693 89.6448V93.9361C90.0693 94.2323 89.8291 94.4725 89.5329 94.4725H83.6323C83.3361 94.4725 83.0959 94.2323 83.0959 93.9361V89.6448Z" fill="black" fill-opacity="0.1"/>
<path fill-rule="evenodd" clip-rule="evenodd" d="M89.5328 123.975H83.6323C83.1879 123.975 82.8277 124.335 82.8277 124.78V129.071C82.8277 129.515 83.1879 129.876 83.6323 129.876H89.5328C89.9772 129.876 90.3375 129.515 90.3375 129.071V124.78C90.3375 124.335 89.9772 123.975 89.5328 123.975ZM83.0959 124.78C83.0959 124.483 83.3361 124.243 83.6323 124.243H89.5329C89.8291 124.243 90.0693 124.483 90.0693 124.78V129.071C90.0693 129.367 89.8291 129.607 89.5329 129.607H83.6323C83.3361 129.607 83.0959 129.367 83.0959 129.071V124.78Z" fill="black" fill-opacity="0.1"/>
<path fill-rule="evenodd" clip-rule="evenodd" d="M79.341 113.247C79.341 117.246 82.5832 120.488 86.5826 120.488C90.582 120.488 93.8241 117.246 93.8241 113.247C93.8241 109.248 90.582 106.005 86.5826 106.005C82.5832 106.005 79.341 109.248 79.341 113.247ZM93.5559 113.247C93.5559 117.098 90.4338 120.22 86.5826 120.22C82.7313 120.22 79.6092 117.098 79.6092 113.247C79.6092 109.396 82.7313 106.274 86.5826 106.274C90.4338 106.274 93.5559 109.396 93.5559 113.247Z" fill="black" fill-opacity="0.1"/>
<path fill-rule="evenodd" clip-rule="evenodd" d="M83.6323 113.247C83.6323 114.876 84.9532 116.197 86.5826 116.197C88.212 116.197 89.5329 114.876 89.5329 113.247C89.5329 111.618 88.212 110.297 86.5826 110.297C84.9532 110.297 83.6323 111.618 83.6323 113.247ZM89.2647 113.247C89.2647 114.728 88.0639 115.929 86.5826 115.929C85.1013 115.929 83.9005 114.728 83.9005 113.247C83.9005 111.766 85.1013 110.565 86.5826 110.565C88.0639 110.565 89.2647 111.766 89.2647 113.247Z" fill="black" fill-opacity="0.1"/>
<path fill-rule="evenodd" clip-rule="evenodd" d="M89.5328 96.6182H83.6323C83.1879 96.6182 82.8277 96.9784 82.8277 97.4228V101.714C82.8277 102.158 83.1879 102.519 83.6323 102.519H89.5328C89.9772 102.519 90.3375 102.158 90.3375 101.714V97.4228C90.3375 96.9784 89.9772 96.6182 89.5328 96.6182ZM83.0959 97.4227C83.0959 97.1265 83.3361 96.8863 83.6323 96.8863H89.5329C89.8291 96.8863 90.0693 97.1265 90.0693 97.4227V101.714C90.0693 102.01 89.8291 102.25 89.5329 102.25H83.6323C83.3361 102.25 83.0959 102.01 83.0959 101.714V97.4227Z" fill="black" fill-opacity="0.1"/>
<path fill-rule="evenodd" clip-rule="evenodd" d="M89.5328 131.753H83.6323C83.1879 131.753 82.8277 132.113 82.8277 132.558V136.849C82.8277 137.293 83.1879 137.654 83.6323 137.654H89.5328C89.9772 137.654 90.3375 137.293 90.3375 136.849V132.558C90.3375 132.113 89.9772 131.753 89.5328 131.753ZM83.0959 132.558C83.0959 132.261 83.3361 132.021 83.6323 132.021H89.5329C89.8291 132.021 90.0693 132.261 90.0693 132.558V136.849C90.0693 137.145 89.8291 137.385 89.5329 137.385H83.6323C83.3361 137.385 83.0959 137.145 83.0959 136.849V132.558Z" fill="black" fill-opacity="0.1"/>
<path fill-rule="evenodd" clip-rule="evenodd" d="M109.112 74.8933C110.297 74.8933 111.258 73.9327 111.258 72.7477C111.258 71.5627 110.297 70.6021 109.112 70.6021C107.927 70.6021 106.966 71.5627 106.966 72.7477C106.966 73.9327 107.927 74.8933 109.112 74.8933Z" fill="#4E565C"/>
<path fill-rule="evenodd" clip-rule="evenodd" d="M109.112 81.8667C110.297 81.8667 111.258 80.9061 111.258 79.7211C111.258 78.5361 110.297 77.5754 109.112 77.5754C107.927 77.5754 106.966 78.5361 106.966 79.7211C106.966 80.9061 107.927 81.8667 109.112 81.8667Z" fill="#4E565C"/>
<path fill-rule="evenodd" clip-rule="evenodd" d="M109.112 88.8401C110.297 88.8401 111.258 87.8795 111.258 86.6945C111.258 85.5095 110.297 84.5488 109.112 84.5488C107.927 84.5488 106.966 85.5095 106.966 86.6945C106.966 87.8795 107.927 88.8401 109.112 88.8401Z" fill="#4E565C"/>
<rect x="116.622" y="70.0657" width="21.4565" height="2.68206" rx="1.34103" fill="#4E565C"/>
<path fill-rule="evenodd" clip-rule="evenodd" d="M109.112 95.8135C110.297 95.8135 111.258 94.8529 111.258 93.6679C111.258 92.4829 110.297 91.5222 109.112 91.5222C107.927 91.5222 106.966 92.4829 106.966 93.6679C106.966 94.8529 107.927 95.8135 109.112 95.8135Z" fill="#4E565C"/>
<path fill-rule="evenodd" clip-rule="evenodd" d="M109.112 102.787C110.297 102.787 111.258 101.826 111.258 100.641C111.258 99.4562 110.297 98.4956 109.112 98.4956C107.927 98.4956 106.966 99.4562 106.966 100.641C106.966 101.826 107.927 102.787 109.112 102.787Z" fill="#4E565C"/>
<path fill-rule="evenodd" clip-rule="evenodd" d="M109.112 109.76C110.297 109.76 111.258 108.8 111.258 107.615C111.258 106.43 110.297 105.469 109.112 105.469C107.927 105.469 106.966 106.43 106.966 107.615C106.966 108.8 107.927 109.76 109.112 109.76Z" fill="#4E565C"/>
<path fill-rule="evenodd" clip-rule="evenodd" d="M109.112 116.734C110.297 116.734 111.258 115.773 111.258 114.588C111.258 113.403 110.297 112.442 109.112 112.442C107.927 112.442 106.966 113.403 106.966 114.588C106.966 115.773 107.927 116.734 109.112 116.734Z" fill="#4E565C"/>
<rect x="113.94" y="74.8933" width="123.375" height="83.6803" fill="url(#paint10_linear)"/>
<mask id="mask0" mask-type="alpha" maskUnits="userSpaceOnUse" x="113" y="74" width="125" height="85">
<rect x="113.94" y="74.8933" width="123.375" height="83.6803" fill="white"/>
</mask>
<g mask="url(#mask0)">
<path opacity="0.4" fill-rule="evenodd" clip-rule="evenodd" d="M143.845 80.5258C144.067 80.5258 144.247 80.3457 144.247 80.1235C144.247 79.9013 144.067 79.7212 143.845 79.7212C143.622 79.7212 143.442 79.9013 143.442 80.1235C143.442 80.3457 143.622 80.5258 143.845 80.5258Z" fill="#F7F7F8"/>
<path opacity="0.4" fill-rule="evenodd" clip-rule="evenodd" d="M157.255 85.8898C157.477 85.8898 157.657 85.7097 157.657 85.4875C157.657 85.2653 157.477 85.0852 157.255 85.0852C157.033 85.0852 156.853 85.2653 156.853 85.4875C156.853 85.7097 157.033 85.8898 157.255 85.8898Z" fill="#F7F7F8"/>
<path opacity="0.4" fill-rule="evenodd" clip-rule="evenodd" d="M140.894 78.9164C141.117 78.9164 141.297 78.7363 141.297 78.5141C141.297 78.2919 141.117 78.1118 140.894 78.1118C140.672 78.1118 140.492 78.2919 140.492 78.5141C140.492 78.7363 140.672 78.9164 140.894 78.9164Z" fill="#F7F7F8"/>
<path opacity="0.4" fill-rule="evenodd" clip-rule="evenodd" d="M162.619 77.8437C162.841 77.8437 163.021 77.6636 163.021 77.4414C163.021 77.2192 162.841 77.0391 162.619 77.0391C162.397 77.0391 162.217 77.2192 162.217 77.4414C162.217 77.6636 162.397 77.8437 162.619 77.8437Z" fill="#F7F7F8"/>
<path opacity="0.4" fill-rule="evenodd" clip-rule="evenodd" d="M173.347 80.5258C173.569 80.5258 173.75 80.3457 173.75 80.1235C173.75 79.9013 173.569 79.7212 173.347 79.7212C173.125 79.7212 172.945 79.9013 172.945 80.1235C172.945 80.3457 173.125 80.5258 173.347 80.5258Z" fill="#F7F7F8"/>
<path opacity="0.4" fill-rule="evenodd" clip-rule="evenodd" d="M122.12 86.9628C122.342 86.9628 122.522 86.7827 122.522 86.5605C122.522 86.3383 122.342 86.1582 122.12 86.1582C121.898 86.1582 121.718 86.3383 121.718 86.5605C121.718 86.7827 121.898 86.9628 122.12 86.9628Z" fill="#F7F7F8"/>
<path opacity="0.4" fill-rule="evenodd" clip-rule="evenodd" d="M143.576 89.6447C143.799 89.6447 143.979 89.4646 143.979 89.2424C143.979 89.0202 143.799 88.8401 143.576 88.8401C143.354 88.8401 143.174 89.0202 143.174 89.2424C143.174 89.4646 143.354 89.6447 143.576 89.6447Z" fill="#F7F7F8"/>
<path opacity="0.4" fill-rule="evenodd" clip-rule="evenodd" d="M199.9 76.2345C200.122 76.2345 200.302 76.0544 200.302 75.8322C200.302 75.6101 200.122 75.4299 199.9 75.4299C199.677 75.4299 199.497 75.6101 199.497 75.8322C199.497 76.0544 199.677 76.2345 199.9 76.2345Z" fill="#F7F7F8"/>
<path opacity="0.4" fill-rule="evenodd" clip-rule="evenodd" d="M199.9 92.3268C200.122 92.3268 200.302 92.1467 200.302 91.9245C200.302 91.7023 200.122 91.5222 199.9 91.5222C199.677 91.5222 199.497 91.7023 199.497 91.9245C199.497 92.1467 199.677 92.3268 199.9 92.3268Z" fill="#F7F7F8"/>
<path opacity="0.4" fill-rule="evenodd" clip-rule="evenodd" d="M191.853 86.9628C192.076 86.9628 192.256 86.7827 192.256 86.5605C192.256 86.3383 192.076 86.1582 191.853 86.1582C191.631 86.1582 191.451 86.3383 191.451 86.5605C191.451 86.7827 191.631 86.9628 191.853 86.9628Z" fill="#F7F7F8"/>
<path opacity="0.4" fill-rule="evenodd" clip-rule="evenodd" d="M224.038 84.2807C224.26 84.2807 224.44 84.1006 224.44 83.8784C224.44 83.6562 224.26 83.4761 224.038 83.4761C223.816 83.4761 223.636 83.6562 223.636 83.8784C223.636 84.1006 223.816 84.2807 224.038 84.2807Z" fill="#F7F7F8"/>
<path opacity="0.4" fill-rule="evenodd" clip-rule="evenodd" d="M189.44 91.2541C189.662 91.2541 189.842 91.074 189.842 90.8518C189.842 90.6296 189.662 90.4495 189.44 90.4495C189.217 90.4495 189.037 90.6296 189.037 90.8518C189.037 91.074 189.217 91.2541 189.44 91.2541Z" fill="#F7F7F8"/>
<path opacity="0.4" fill-rule="evenodd" clip-rule="evenodd" d="M173.079 84.2807C173.301 84.2807 173.481 84.1006 173.481 83.8784C173.481 83.6562 173.301 83.4761 173.079 83.4761C172.857 83.4761 172.677 83.6562 172.677 83.8784C172.677 84.1006 172.857 84.2807 173.079 84.2807Z" fill="#F7F7F8"/>
<path opacity="0.4" fill-rule="evenodd" clip-rule="evenodd" d="M200.436 80.5258C200.658 80.5258 200.838 80.3457 200.838 80.1235C200.838 79.9013 200.658 79.7212 200.436 79.7212C200.214 79.7212 200.034 79.9013 200.034 80.1235C200.034 80.3457 200.214 80.5258 200.436 80.5258Z" fill="#F7F7F8"/>
<path opacity="0.4" fill-rule="evenodd" clip-rule="evenodd" d="M202.85 91.2541C203.072 91.2541 203.252 91.074 203.252 90.8518C203.252 90.6296 203.072 90.4495 202.85 90.4495C202.628 90.4495 202.448 90.6296 202.448 90.8518C202.448 91.074 202.628 91.2541 202.85 91.2541Z" fill="#F7F7F8"/>
<path opacity="0.4" fill-rule="evenodd" clip-rule="evenodd" d="M186.489 84.2807C186.712 84.2807 186.892 84.1006 186.892 83.8784C186.892 83.6562 186.712 83.4761 186.489 83.4761C186.267 83.4761 186.087 83.6562 186.087 83.8784C186.087 84.1006 186.267 84.2807 186.489 84.2807Z" fill="#F7F7F8"/>
<path opacity="0.4" fill-rule="evenodd" clip-rule="evenodd" d="M205.532 77.8437C205.754 77.8437 205.934 77.6636 205.934 77.4414C205.934 77.2192 205.754 77.0391 205.532 77.0391C205.31 77.0391 205.13 77.2192 205.13 77.4414C205.13 77.6636 205.31 77.8437 205.532 77.8437Z" fill="#F7F7F8"/>
<path opacity="0.4" fill-rule="evenodd" clip-rule="evenodd" d="M151.891 107.346C152.113 107.346 152.293 107.166 152.293 106.944C152.293 106.722 152.113 106.542 151.891 106.542C151.669 106.542 151.488 106.722 151.488 106.944C151.488 107.166 151.669 107.346 151.891 107.346Z" fill="#F7F7F8"/>
<path opacity="0.4" fill-rule="evenodd" clip-rule="evenodd" d="M135.53 100.373C135.752 100.373 135.932 100.193 135.932 99.9707C135.932 99.7485 135.752 99.5684 135.53 99.5684C135.308 99.5684 135.128 99.7485 135.128 99.9707C135.128 100.193 135.308 100.373 135.53 100.373Z" fill="#F7F7F8"/>
<path opacity="0.4" fill-rule="evenodd" clip-rule="evenodd" d="M189.171 108.419C189.394 108.419 189.574 108.239 189.574 108.017C189.574 107.795 189.394 107.615 189.171 107.615C188.949 107.615 188.769 107.795 188.769 108.017C188.769 108.239 188.949 108.419 189.171 108.419Z" fill="#F7F7F8"/>
<path opacity="0.4" fill-rule="evenodd" clip-rule="evenodd" d="M154.573 115.393C154.795 115.393 154.975 115.212 154.975 114.99C154.975 114.768 154.795 114.588 154.573 114.588C154.351 114.588 154.171 114.768 154.171 114.99C154.171 115.212 154.351 115.393 154.573 115.393Z" fill="#F7F7F8"/>
<path opacity="0.4" fill-rule="evenodd" clip-rule="evenodd" d="M138.212 108.419C138.434 108.419 138.615 108.239 138.615 108.017C138.615 107.795 138.434 107.615 138.212 107.615C137.99 107.615 137.81 107.795 137.81 108.017C137.81 108.239 137.99 108.419 138.212 108.419Z" fill="#F7F7F8"/>
<path opacity="0.4" fill-rule="evenodd" clip-rule="evenodd" d="M165.569 104.664C165.791 104.664 165.972 104.484 165.972 104.262C165.972 104.04 165.791 103.86 165.569 103.86C165.347 103.86 165.167 104.04 165.167 104.262C165.167 104.484 165.347 104.664 165.569 104.664Z" fill="#F7F7F8"/>
<path opacity="0.4" fill-rule="evenodd" clip-rule="evenodd" d="M167.983 115.393C168.205 115.393 168.385 115.212 168.385 114.99C168.385 114.768 168.205 114.588 167.983 114.588C167.761 114.588 167.581 114.768 167.581 114.99C167.581 115.212 167.761 115.393 167.983 115.393Z" fill="#F7F7F8"/>
<path opacity="0.4" fill-rule="evenodd" clip-rule="evenodd" d="M151.623 108.419C151.845 108.419 152.025 108.239 152.025 108.017C152.025 107.795 151.845 107.615 151.623 107.615C151.4 107.615 151.22 107.795 151.22 108.017C151.22 108.239 151.4 108.419 151.623 108.419Z" fill="#F7F7F8"/>
<path opacity="0.4" fill-rule="evenodd" clip-rule="evenodd" d="M170.665 101.982C170.887 101.982 171.067 101.802 171.067 101.58C171.067 101.358 170.887 101.178 170.665 101.178C170.443 101.178 170.263 101.358 170.263 101.58C170.263 101.802 170.443 101.982 170.665 101.982Z" fill="#F7F7F8"/>
<path opacity="0.4" fill-rule="evenodd" clip-rule="evenodd" d="M167.983 123.439C168.205 123.439 168.385 123.259 168.385 123.036C168.385 122.814 168.205 122.634 167.983 122.634C167.761 122.634 167.581 122.814 167.581 123.036C167.581 123.259 167.761 123.439 167.983 123.439Z" fill="#F7F7F8"/>
<path opacity="0.4" fill-rule="evenodd" clip-rule="evenodd" d="M151.623 116.465C151.845 116.465 152.025 116.285 152.025 116.063C152.025 115.841 151.845 115.661 151.623 115.661C151.4 115.661 151.22 115.841 151.22 116.063C151.22 116.285 151.4 116.465 151.623 116.465Z" fill="#F7F7F8"/>
<path opacity="0.4" fill-rule="evenodd" clip-rule="evenodd" d="M181.393 128.803C181.616 128.803 181.796 128.623 181.796 128.401C181.796 128.178 181.616 127.998 181.393 127.998C181.171 127.998 180.991 128.178 180.991 128.401C180.991 128.623 181.171 128.803 181.393 128.803Z" fill="#F7F7F8"/>
<path opacity="0.4" fill-rule="evenodd" clip-rule="evenodd" d="M165.033 121.83C165.255 121.83 165.435 121.649 165.435 121.427C165.435 121.205 165.255 121.025 165.033 121.025C164.811 121.025 164.631 121.205 164.631 121.427C164.631 121.649 164.811 121.83 165.033 121.83Z" fill="#F7F7F8"/>
<path opacity="0.4" fill-rule="evenodd" clip-rule="evenodd" d="M186.489 127.194C186.712 127.194 186.892 127.013 186.892 126.791C186.892 126.569 186.712 126.389 186.489 126.389C186.267 126.389 186.087 126.569 186.087 126.791C186.087 127.013 186.267 127.194 186.489 127.194Z" fill="#F7F7F8"/>
<path opacity="0.4" fill-rule="evenodd" clip-rule="evenodd" d="M213.578 134.167C213.8 134.167 213.98 133.987 213.98 133.765C213.98 133.542 213.8 133.362 213.578 133.362C213.356 133.362 213.176 133.542 213.176 133.765C213.176 133.987 213.356 134.167 213.578 134.167Z" fill="#F7F7F8"/>
<path opacity="0.4" fill-rule="evenodd" clip-rule="evenodd" d="M197.218 127.194C197.44 127.194 197.62 127.013 197.62 126.791C197.62 126.569 197.44 126.389 197.218 126.389C196.995 126.389 196.815 126.569 196.815 126.791C196.815 127.013 196.995 127.194 197.218 127.194Z" fill="#F7F7F8"/>
<path opacity="0.4" fill-rule="evenodd" clip-rule="evenodd" d="M224.575 123.439C224.797 123.439 224.977 123.259 224.977 123.036C224.977 122.814 224.797 122.634 224.575 122.634C224.352 122.634 224.172 122.814 224.172 123.036C224.172 123.259 224.352 123.439 224.575 123.439Z" fill="#F7F7F8"/>
<path opacity="0.4" fill-rule="evenodd" clip-rule="evenodd" d="M226.988 134.167C227.211 134.167 227.391 133.987 227.391 133.765C227.391 133.542 227.211 133.362 226.988 133.362C226.766 133.362 226.586 133.542 226.586 133.765C226.586 133.987 226.766 134.167 226.988 134.167Z" fill="#F7F7F8"/>
<path opacity="0.4" fill-rule="evenodd" clip-rule="evenodd" d="M210.628 127.194C210.85 127.194 211.03 127.013 211.03 126.791C211.03 126.569 210.85 126.389 210.628 126.389C210.406 126.389 210.226 126.569 210.226 126.791C210.226 127.013 210.406 127.194 210.628 127.194Z" fill="#F7F7F8"/>
<path opacity="0.4" fill-rule="evenodd" clip-rule="evenodd" d="M229.67 120.757C229.893 120.757 230.073 120.577 230.073 120.354C230.073 120.132 229.893 119.952 229.67 119.952C229.448 119.952 229.268 120.132 229.268 120.354C229.268 120.577 229.448 120.757 229.67 120.757Z" fill="#F7F7F8"/>
<path opacity="0.4" fill-rule="evenodd" clip-rule="evenodd" d="M221.624 104.664C221.847 104.664 222.027 104.484 222.027 104.262C222.027 104.04 221.847 103.86 221.624 103.86C221.402 103.86 221.222 104.04 221.222 104.262C221.222 104.484 221.402 104.664 221.624 104.664Z" fill="#F7F7F8"/>
<path opacity="0.4" fill-rule="evenodd" clip-rule="evenodd" d="M205.264 97.6908C205.486 97.6908 205.666 97.5107 205.666 97.2885C205.666 97.0664 205.486 96.8862 205.264 96.8862C205.042 96.8862 204.861 97.0664 204.861 97.2885C204.861 97.5107 205.042 97.6908 205.264 97.6908Z" fill="#F7F7F8"/>
<path opacity="0.4" fill-rule="evenodd" clip-rule="evenodd" d="M235.035 110.028C235.257 110.028 235.437 109.848 235.437 109.626C235.437 109.404 235.257 109.224 235.035 109.224C234.812 109.224 234.632 109.404 234.632 109.626C234.632 109.848 234.812 110.028 235.035 110.028Z" fill="#F7F7F8"/>
<path opacity="0.4" fill-rule="evenodd" clip-rule="evenodd" d="M218.674 103.055C218.896 103.055 219.076 102.875 219.076 102.653C219.076 102.431 218.896 102.25 218.674 102.25C218.452 102.25 218.272 102.431 218.272 102.653C218.272 102.875 218.452 103.055 218.674 103.055Z" fill="#F7F7F8"/>
<path opacity="0.4" fill-rule="evenodd" clip-rule="evenodd" d="M234.766 97.6908C234.989 97.6908 235.169 97.5107 235.169 97.2885C235.169 97.0664 234.989 96.8862 234.766 96.8862C234.544 96.8862 234.364 97.0664 234.364 97.2885C234.364 97.5107 234.544 97.6908 234.766 97.6908Z" fill="#F7F7F8"/>
<path opacity="0.4" fill-rule="evenodd" clip-rule="evenodd" d="M199.9 111.101C200.122 111.101 200.302 110.921 200.302 110.699C200.302 110.477 200.122 110.297 199.9 110.297C199.677 110.297 199.497 110.477 199.497 110.699C199.497 110.921 199.677 111.101 199.9 111.101Z" fill="#F7F7F8"/>
<path opacity="0.4" fill-rule="evenodd" clip-rule="evenodd" d="M221.356 113.783C221.578 113.783 221.758 113.603 221.758 113.381C221.758 113.159 221.578 112.979 221.356 112.979C221.134 112.979 220.954 113.159 220.954 113.381C220.954 113.603 221.134 113.783 221.356 113.783Z" fill="#F7F7F8"/>
<path opacity="0.4" fill-rule="evenodd" clip-rule="evenodd" d="M132.848 127.194C133.07 127.194 133.25 127.013 133.25 126.791C133.25 126.569 133.07 126.389 132.848 126.389C132.626 126.389 132.446 126.569 132.446 126.791C132.446 127.013 132.626 127.194 132.848 127.194Z" fill="#F7F7F8"/>
<path opacity="0.4" fill-rule="evenodd" clip-rule="evenodd" d="M130.434 131.485C130.656 131.485 130.837 131.305 130.837 131.082C130.837 130.86 130.656 130.68 130.434 130.68C130.212 130.68 130.032 130.86 130.032 131.082C130.032 131.305 130.212 131.485 130.434 131.485Z" fill="#F7F7F8"/>
<path opacity="0.4" fill-rule="evenodd" clip-rule="evenodd" d="M114.074 124.512C114.296 124.512 114.476 124.332 114.476 124.109C114.476 123.887 114.296 123.707 114.074 123.707C113.852 123.707 113.671 123.887 113.671 124.109C113.671 124.332 113.852 124.512 114.074 124.512Z" fill="#F7F7F8"/>
<path opacity="0.4" fill-rule="evenodd" clip-rule="evenodd" d="M114.074 140.604C114.296 140.604 114.476 140.424 114.476 140.202C114.476 139.979 114.296 139.799 114.074 139.799C113.852 139.799 113.671 139.979 113.671 140.202C113.671 140.424 113.852 140.604 114.074 140.604Z" fill="#F7F7F8"/>
<path opacity="0.4" fill-rule="evenodd" clip-rule="evenodd" d="M138.212 132.558C138.434 132.558 138.615 132.378 138.615 132.155C138.615 131.933 138.434 131.753 138.212 131.753C137.99 131.753 137.81 131.933 137.81 132.155C137.81 132.378 137.99 132.558 138.212 132.558Z" fill="#F7F7F8"/>
<path opacity="0.4" fill-rule="evenodd" clip-rule="evenodd" d="M117.024 139.531C117.246 139.531 117.426 139.351 117.426 139.129C117.426 138.907 117.246 138.727 117.024 138.727C116.802 138.727 116.622 138.907 116.622 139.129C116.622 139.351 116.802 139.531 117.024 139.531Z" fill="#F7F7F8"/>
<path opacity="0.4" fill-rule="evenodd" clip-rule="evenodd" d="M119.706 126.121C119.928 126.121 120.108 125.941 120.108 125.718C120.108 125.496 119.928 125.316 119.706 125.316C119.484 125.316 119.304 125.496 119.304 125.718C119.304 125.941 119.484 126.121 119.706 126.121Z" fill="#F7F7F8"/>
<path opacity="0.2" fill-rule="evenodd" clip-rule="evenodd" d="M175.627 187.004C197.846 187.004 215.858 168.992 215.858 146.773C215.858 124.554 197.846 106.542 175.627 106.542C153.408 106.542 135.396 124.554 135.396 146.773C135.396 168.992 153.408 187.004 175.627 187.004Z" fill="#FCFCFC"/>
<path fill-rule="evenodd" clip-rule="evenodd" d="M113.94 149.242C113.94 149.242 162.694 155.99 187.428 154.203C212.162 152.416 237.314 148.219 237.314 148.219V158.574H113.94V149.242Z" fill="#287CA6"/>
<path fill-rule="evenodd" clip-rule="evenodd" d="M179.965 143.333L182.332 158.574H170.263L172.745 142.595C172.292 142.696 171.82 142.749 171.336 142.749C167.781 142.749 164.899 139.868 164.899 136.313C164.899 136.222 164.901 136.132 164.904 136.042C162.816 135.974 161.144 134.26 161.144 132.155C161.144 130.096 162.745 128.411 164.77 128.275C164.678 127.794 164.631 127.298 164.631 126.791C164.631 122.422 168.173 118.879 172.543 118.879C176.614 118.879 179.967 121.954 180.406 125.907C181.5 125.194 182.806 124.78 184.21 124.78C188.061 124.78 191.183 127.902 191.183 131.753C191.183 134.96 189.019 137.661 186.071 138.475C186.082 138.602 186.087 138.731 186.087 138.861C186.087 141.453 183.986 143.554 181.393 143.554C180.895 143.554 180.415 143.476 179.965 143.333Z" fill="#287CA6"/>
<path fill-rule="evenodd" clip-rule="evenodd" d="M205.412 150.297C205.538 150.272 205.668 150.259 205.8 150.259C206.911 150.259 207.812 151.16 207.812 152.271C207.812 153.382 206.911 154.282 205.8 154.282C205.287 154.282 204.819 154.09 204.464 153.774C204.007 154.094 203.45 154.282 202.85 154.282C202.269 154.282 201.73 154.107 201.282 153.806C200.886 155.612 199.277 156.964 197.352 156.964C195.58 156.964 194.076 155.819 193.539 154.229C193.385 154.264 193.225 154.282 193.06 154.282C192.674 154.282 192.311 154.18 191.998 154.001C191.264 154.986 190.091 155.623 188.769 155.623C187.667 155.623 186.668 155.18 185.942 154.462C185.592 155.451 184.648 156.16 183.539 156.16C182.132 156.16 180.991 155.019 180.991 153.612C180.991 152.205 182.132 151.064 183.539 151.064C183.676 151.064 183.811 151.075 183.942 151.095C183.942 151.085 183.941 151.074 183.941 151.064C183.941 150.348 184.503 149.763 185.209 149.725C185.883 148.448 187.225 147.577 188.769 147.577C190.448 147.577 191.887 148.606 192.49 150.068C192.672 150.018 192.863 149.991 193.06 149.991C193.507 149.991 193.922 150.127 194.265 150.361C195.003 149.479 196.112 148.918 197.352 148.918C198.527 148.918 199.585 149.422 200.321 150.226C200.779 149.293 201.74 148.65 202.85 148.65C203.988 148.65 204.968 149.325 205.412 150.297Z" fill="#287CA6"/>
<path fill-rule="evenodd" clip-rule="evenodd" d="M152.776 155.727C152.37 156 151.881 156.16 151.354 156.16C150.554 156.16 149.841 155.791 149.373 155.215C148.885 155.476 148.326 155.623 147.734 155.623C145.808 155.623 144.247 154.062 144.247 152.137C144.247 150.211 145.808 148.65 147.734 148.65C149.291 148.65 150.61 149.672 151.058 151.081C151.155 151.07 151.254 151.064 151.354 151.064C151.881 151.064 152.37 151.224 152.776 151.497C153.391 150.742 154.328 150.259 155.377 150.259C156.399 150.259 157.314 150.716 157.929 151.437C158.538 149.809 160.108 148.65 161.949 148.65C162.585 148.65 163.189 148.789 163.732 149.037C164.117 148.027 165.095 147.309 166.24 147.309C167.721 147.309 168.922 148.51 168.922 149.991C168.922 149.994 168.922 149.997 168.922 150C169.011 149.994 169.1 149.991 169.19 149.991C171.412 149.991 173.213 151.792 173.213 154.014C173.213 156.236 171.412 158.037 169.19 158.037C167.474 158.037 166.009 156.963 165.431 155.45C164.651 156.53 163.382 157.233 161.949 157.233C160.419 157.233 159.076 156.432 158.316 155.227C157.746 156.263 156.643 156.965 155.377 156.965C154.328 156.965 153.391 156.482 152.776 155.727Z" fill="#287CA6"/>
</g>
<path fill-rule="evenodd" clip-rule="evenodd" d="M222.681 194.76C221.149 195.853 216.624 198 215.858 198C214.933 198 213.1 197.444 210.494 197.444H137.522C135.755 197.444 134.323 196.012 134.323 194.245C134.323 192.479 135.755 191.048 137.521 191.048C183.622 191.064 207.946 191.064 210.494 191.047C213.1 191.029 214.933 190.49 215.858 190.49C216.624 190.49 221.149 192.638 222.681 193.73C222.729 193.716 222.779 193.709 222.831 193.709H223.904C224.2 193.709 224.44 193.949 224.44 194.245C224.44 194.541 224.2 194.782 223.904 194.782H222.831C222.779 194.782 222.729 194.774 222.681 194.76Z" fill="#393E41"/>
<path fill-rule="evenodd" clip-rule="evenodd" d="M222.681 194.76C221.149 195.853 216.624 198 215.858 198C214.933 198 213.1 197.444 210.494 197.444H137.522C135.755 197.444 134.323 196.012 134.323 194.245C134.323 192.479 135.755 191.048 137.521 191.048C183.622 191.064 207.946 191.064 210.494 191.047C213.1 191.029 214.933 190.49 215.858 190.49C216.624 190.49 221.149 192.638 222.681 193.73C222.729 193.716 222.779 193.709 222.831 193.709H223.904C224.2 193.709 224.44 193.949 224.44 194.245C224.44 194.541 224.2 194.782 223.904 194.782H222.831C222.779 194.782 222.729 194.774 222.681 194.76Z" fill="url(#paint11_linear)"/>
<mask id="mask1" mask-type="alpha" maskUnits="userSpaceOnUse" x="134" y="190" width="91" height="8">
<path fill-rule="evenodd" clip-rule="evenodd" d="M222.681 194.76C221.149 195.853 216.624 198 215.858 198C214.933 198 213.1 197.444 210.494 197.444H137.522C135.755 197.444 134.323 196.012 134.323 194.245C134.323 192.479 135.755 191.048 137.521 191.048C183.622 191.064 207.946 191.064 210.494 191.047C213.1 191.029 214.933 190.49 215.858 190.49C216.624 190.49 221.149 192.638 222.681 193.73C222.729 193.716 222.779 193.709 222.831 193.709H223.904C224.2 193.709 224.44 193.949 224.44 194.245C224.44 194.541 224.2 194.782 223.904 194.782H222.831C222.779 194.782 222.729 194.774 222.681 194.76Z" fill="white"/>
<path fill-rule="evenodd" clip-rule="evenodd" d="M222.681 194.76C221.149 195.853 216.624 198 215.858 198C214.933 198 213.1 197.444 210.494 197.444H137.522C135.755 197.444 134.323 196.012 134.323 194.245C134.323 192.479 135.755 191.048 137.521 191.048C183.622 191.064 207.946 191.064 210.494 191.047C213.1 191.029 214.933 190.49 215.858 190.49C216.624 190.49 221.149 192.638 222.681 193.73C222.729 193.716 222.779 193.709 222.831 193.709H223.904C224.2 193.709 224.44 193.949 224.44 194.245C224.44 194.541 224.2 194.782 223.904 194.782H222.831C222.779 194.782 222.729 194.774 222.681 194.76Z" stroke="white"/>
</mask>
<g mask="url(#mask1)">
<path d="M215.184 199.905L214.922 199.849C215.355 197.816 215.456 196.412 215.456 194.245C215.456 192.078 215.355 190.674 214.922 188.641L215.184 188.585C215.622 190.64 215.724 192.061 215.724 194.245C215.724 196.429 215.622 197.85 215.184 199.905Z" fill="#272B2C"/>
</g>
<rect x="140.76" y="193.172" width="12.3375" height="2.14565" rx="1.07282" fill="#4E5458"/>
<rect x="187.16" y="192.904" width="15.8242" height="2.68206" rx="1.34103" fill="#393E41"/>
<rect x="187.16" y="192.904" width="15.8242" height="2.68206" rx="1.34103" fill="url(#paint12_linear)"/>
<rect x="187.66" y="193.404" width="14.8242" height="1.68206" rx="0.84103" stroke="black" stroke-opacity="0.1"/>
<rect x="194.938" y="192.904" width="0.268206" height="2.68206" fill="#272B2C"/>
<defs>
<linearGradient id="paint0_linear" x1="78" y1="169.034" x2="78" y2="179.762" gradientUnits="userSpaceOnUse">
<stop stop-color="#393E41" stop-opacity="0.01"/>
<stop offset="1" stop-opacity="0.3"/>
</linearGradient>
<linearGradient id="paint1_linear" x1="95.1652" y1="57.46" x2="78" y2="57.46" gradientUnits="userSpaceOnUse">
<stop stop-color="#393E41" stop-opacity="0.01"/>
<stop offset="1" stop-opacity="0.3"/>
</linearGradient>
<linearGradient id="paint2_linear" x1="273.254" y1="157.452" x2="281.032" y2="157.452" gradientUnits="userSpaceOnUse">
<stop stop-color="#393E41" stop-opacity="0.01"/>
<stop offset="1" stop-opacity="0.3"/>
</linearGradient>
<linearGradient id="paint3_linear" x1="291.136" y1="57.46" x2="291.136" y2="47" gradientUnits="userSpaceOnUse">
<stop stop-color="#393E41" stop-opacity="0.01"/>
<stop offset="1" stop-opacity="0.3"/>
</linearGradient>
<linearGradient id="paint4_linear" x1="79.0728" y1="91.7904" x2="84.8058" y2="99.0869" gradientUnits="userSpaceOnUse">
<stop stop-opacity="0.441491"/>
<stop offset="1" stop-opacity="0.01"/>
</linearGradient>
<linearGradient id="paint5_linear" x1="79.0728" y1="126.925" x2="84.8058" y2="134.222" gradientUnits="userSpaceOnUse">
<stop stop-opacity="0.441491"/>
<stop offset="1" stop-opacity="0.01"/>
</linearGradient>
<linearGradient id="paint6_linear" x1="72.0994" y1="113.247" x2="86.5826" y2="127.73" gradientUnits="userSpaceOnUse">
<stop stop-opacity="0.441491"/>
<stop offset="1" stop-opacity="0.01"/>
</linearGradient>
<linearGradient id="paint7_linear" x1="80.6821" y1="113.247" x2="86.5826" y2="119.147" gradientUnits="userSpaceOnUse">
<stop stop-opacity="0.441491"/>
<stop offset="1" stop-opacity="0.01"/>
</linearGradient>
<linearGradient id="paint8_linear" x1="79.0728" y1="99.5684" x2="84.8058" y2="106.865" gradientUnits="userSpaceOnUse">
<stop stop-opacity="0.441491"/>
<stop offset="1" stop-opacity="0.01"/>
</linearGradient>
<linearGradient id="paint9_linear" x1="79.0728" y1="134.703" x2="84.8058" y2="142" gradientUnits="userSpaceOnUse">
<stop stop-opacity="0.441491"/>
<stop offset="1" stop-opacity="0.01"/>
</linearGradient>
<linearGradient id="paint10_linear" x1="113.94" y1="74.8933" x2="113.94" y2="158.574" gradientUnits="userSpaceOnUse">
<stop stop-color="#287CA6"/>
<stop offset="1" stop-color="white"/>
</linearGradient>
<linearGradient id="paint11_linear" x1="134.323" y1="190.49" x2="134.323" y2="198" gradientUnits="userSpaceOnUse">
<stop stop-color="#393E41" stop-opacity="0.01"/>
<stop offset="1" stop-opacity="0.3"/>
</linearGradient>
<linearGradient id="paint12_linear" x1="179.248" y1="194.245" x2="180.132" y2="199.459" gradientUnits="userSpaceOnUse">
<stop stop-opacity="0.441491"/>
<stop offset="1" stop-opacity="0.01"/>
</linearGradient>
</defs>
</svg>
