<svg width="342" height="405" viewBox="0 0 342 405" fill="none" xmlns="http://www.w3.org/2000/svg">
<path fill-rule="evenodd" clip-rule="evenodd" d="M99.7693 2.88857e-06C167.96 2.0754e-06 196.529 26.1743 215.78 91.1463C234.721 156.16 342 164.777 342 249.157C342 333.77 151 444.971 41.2999 388.868C-68.5094 332.784 81.2855 177.006 31.555 125.986C-17.9395 74.8665 31.768 3.69948e-06 99.7693 2.88857e-06Z" fill="#F2F5F9"/>
<path fill-rule="evenodd" clip-rule="evenodd" d="M74.9954 249.774C27.0926 266.676 48.6908 295.583 94.9697 295.583C141.249 295.583 222.908 285.954 229.708 267.864C236.507 249.774 122.898 232.871 74.9954 249.774Z" fill="#F0F0F6"/>
<rect x="82.3752" y="203.754" width="36.3005" height="64.745" fill="#A7A7EE"/>
<rect x="82.3752" y="203.754" width="36.3005" height="64.745" fill="url(#paint0_linear)"/>
<path fill-rule="evenodd" clip-rule="evenodd" d="M118.676 201.452C118.676 176.99 138.506 157.16 162.968 157.16C187.43 157.16 207.26 176.99 207.26 201.452V203.754H118.676V201.452Z" fill="#287CA6"/>
<path fill-rule="evenodd" clip-rule="evenodd" d="M118.676 201.452C118.676 176.99 138.506 157.16 162.968 157.16C187.43 157.16 207.26 176.99 207.26 201.452V203.754H118.676V201.452Z" fill="url(#paint1_linear)"/>
<path fill-rule="evenodd" clip-rule="evenodd" d="M142.226 192.051C149.281 179.057 155.139 163.661 149.817 163.661C140.688 163.661 134.885 168.461 131.981 178.693C130.983 182.214 130.182 185.683 129.537 188.774C129.537 188.774 132.343 190.492 135.819 191.161C139.295 191.83 142.226 192.051 142.226 192.051Z" fill="#F2F5F9"/>
<rect x="94.0239" y="223.801" width="38.7386" height="44.6984" fill="#66D4F2"/>
<rect x="94.0239" y="223.801" width="38.7386" height="44.6984" fill="url(#paint2_linear)"/>
<path d="M70.4557 215.539C70.4557 209.03 75.7316 203.754 82.2398 203.754C88.748 203.754 94.0239 209.03 94.0239 215.539V268.499H76.3416C73.0909 268.499 70.4557 265.864 70.4557 262.613V215.539Z" fill="#287CA6"/>
<path d="M70.4557 215.539C70.4557 209.03 75.7316 203.754 82.2398 203.754C88.748 203.754 94.0239 209.03 94.0239 215.539V268.499H76.3416C73.0909 268.499 70.4557 265.864 70.4557 262.613V215.539Z" fill="url(#paint3_linear)"/>
<path fill-rule="evenodd" clip-rule="evenodd" d="M78.0409 275.272C73.1086 273.223 77.4319 266.278 82.3752 265.52C87.354 264.687 90.5887 263.788 90.5022 260.372C90.5887 257.006 99.8488 259.636 99.9837 261.185C99.8488 262.867 101.981 268.593 99.9837 269.583C97.7166 270.523 83.0235 277.141 78.0409 275.272Z" fill="#282828"/>
<path fill-rule="evenodd" clip-rule="evenodd" d="M78.0409 275.272C73.1086 273.223 77.4319 266.278 82.3752 265.52C87.354 264.687 90.5887 263.788 90.5022 260.372C90.5887 257.006 99.8488 259.636 99.9837 261.185C99.8488 262.867 101.981 268.593 99.9837 269.583C97.7166 270.523 83.0235 277.141 78.0409 275.272Z" fill="url(#paint4_linear)"/>
<path fill-rule="evenodd" clip-rule="evenodd" d="M109.194 260.373C110.47 260.923 112.144 261.199 114.341 261.185C115.949 261.199 117.325 261.03 118.405 260.643C118.493 263.053 118.898 264.794 121.656 267.687C125.139 271.123 124.612 280.384 118.405 281.774C112.302 282.728 108.033 271.123 108.653 266.603C109.358 263.929 109.366 261.9 109.194 260.373Z" fill="#282828"/>
<path fill-rule="evenodd" clip-rule="evenodd" d="M109.194 260.373C110.47 260.923 112.144 261.199 114.341 261.185C115.949 261.199 117.325 261.03 118.405 260.643C118.493 263.053 118.898 264.794 121.656 267.687C125.139 271.123 124.612 280.384 118.405 281.774C112.302 282.728 108.033 271.123 108.653 266.603C109.358 263.929 109.366 261.9 109.194 260.373Z" fill="url(#paint5_linear)"/>
<path fill-rule="evenodd" clip-rule="evenodd" d="M128.496 207.018C116.512 207.018 81.7154 206.359 77.3466 214.399C72.9778 222.439 85.4017 258.764 85.4017 260.418C85.4017 262.073 99.6738 261.583 102.122 261.583C104.57 261.583 94.6536 228.307 95.9571 226.417C97.2607 224.527 138.113 227.517 141.18 221.763C144.248 216.009 140.48 207.018 128.496 207.018Z" fill="#282828"/>
<path fill-rule="evenodd" clip-rule="evenodd" d="M128.496 207.018C116.512 207.018 81.7154 206.359 77.3466 214.399C72.9778 222.439 85.4017 258.764 85.4017 260.418C85.4017 262.073 99.6738 261.583 102.122 261.583C104.57 261.583 94.6536 228.307 95.9571 226.417C97.2607 224.527 138.113 227.517 141.18 221.763C144.248 216.009 140.48 207.018 128.496 207.018Z" fill="url(#paint6_linear)"/>
<path fill-rule="evenodd" clip-rule="evenodd" d="M152.557 209.141C140.573 209.141 118.603 205.135 114.234 213.175C109.866 221.214 106.485 258.263 106.485 259.917C106.485 261.572 119.731 262.762 122.18 262.762C124.628 262.762 129.682 226.936 133.438 225.567C137.194 224.198 164.886 231.321 167.954 225.567C171.021 219.813 164.541 209.141 152.557 209.141Z" fill="#282828"/>
<path fill-rule="evenodd" clip-rule="evenodd" d="M157.611 164.474H168.25C178.161 164.474 176.481 174.764 176.481 184.675C176.481 194.586 171.772 208.902 171.772 208.902L135.507 208.551C135.507 208.551 135.377 193.862 136.597 184.284C137.816 174.706 144.486 164.474 157.611 164.474Z" fill="#F2F5F9"/>
<path fill-rule="evenodd" clip-rule="evenodd" d="M127.276 200.047C127.651 199.182 128.309 194.667 129.537 188.774C131.408 189.92 133.502 190.715 135.819 191.161C135.858 191.169 135.898 191.176 135.937 191.184C135.722 194.321 135.585 197.755 135.527 201.485C133.14 201.955 131.04 202.463 130.121 202.944C129.394 203.324 126.821 205.472 125.824 207.027L124.261 200.622C125.99 200.493 127.15 200.339 127.276 200.047Z" fill="#DD784D"/>
<path fill-rule="evenodd" clip-rule="evenodd" d="M127.276 200.047C127.651 199.182 128.309 194.667 129.537 188.774C131.408 189.92 133.502 190.715 135.819 191.161C135.858 191.169 135.898 191.176 135.937 191.184C135.722 194.321 135.585 197.755 135.527 201.485C133.14 201.955 131.04 202.463 130.121 202.944C129.394 203.324 126.821 205.472 125.824 207.027L124.261 200.622C125.99 200.493 127.15 200.339 127.276 200.047Z" fill="url(#paint7_linear)"/>
<path fill-rule="evenodd" clip-rule="evenodd" d="M127.276 200.047C127.651 199.182 128.309 194.667 129.537 188.774C131.408 189.92 133.502 190.715 135.819 191.161C135.858 191.169 135.898 191.176 135.937 191.184C135.722 194.321 135.585 197.755 135.527 201.485C133.14 201.955 131.04 202.463 130.121 202.944C129.394 203.324 126.821 205.472 125.824 207.027L124.261 200.622C125.99 200.493 127.15 200.339 127.276 200.047Z" fill="url(#paint8_linear)"/>
<path fill-rule="evenodd" clip-rule="evenodd" d="M82.0319 178.832H117.592L125.719 212.152H87.348C86.9734 212.152 86.6473 211.896 86.5585 211.532L79.4 182.183C79.0455 180.729 79.9364 179.263 81.39 178.909C81.6001 178.858 81.8156 178.832 82.0319 178.832Z" fill="#D6DFEA"/>
<path fill-rule="evenodd" clip-rule="evenodd" d="M101.338 198.066C102.685 198.066 103.776 196.974 103.776 195.628C103.776 194.281 102.685 193.189 101.338 193.189C99.9917 193.189 98.9001 194.281 98.9001 195.628C98.9001 196.974 99.9917 198.066 101.338 198.066Z" fill="#F2F5F9"/>
<path fill-rule="evenodd" clip-rule="evenodd" d="M126.083 208.089H149.965C151.087 208.089 151.997 208.998 151.997 210.12C151.997 211.243 151.087 212.152 149.965 212.152H123.823V209.931L116.559 180.147C116.42 179.577 116.769 179.001 117.34 178.862C117.423 178.842 117.507 178.832 117.592 178.832C118.387 178.832 119.079 179.375 119.268 180.147L126.083 208.089Z" fill="#B6C5D9"/>
<path fill-rule="evenodd" clip-rule="evenodd" d="M183.692 203.754V168.944C183.692 162.436 188.968 157.16 195.476 157.16C201.984 157.16 207.26 162.436 207.26 168.944V203.754H183.692Z" fill="#66D4F2"/>
<path fill-rule="evenodd" clip-rule="evenodd" d="M183.692 203.754V168.944C183.692 162.436 188.968 157.16 195.476 157.16C201.984 157.16 207.26 162.436 207.26 168.944V203.754H183.692Z" fill="url(#paint9_linear)"/>
<path fill-rule="evenodd" clip-rule="evenodd" d="M207.26 203.755V258.5C207.26 264.022 202.783 268.5 197.26 268.5H144.682V203.755H207.26Z" fill="#66D4F2"/>
<path fill-rule="evenodd" clip-rule="evenodd" d="M207.26 203.755V258.5C207.26 264.022 202.783 268.5 197.26 268.5H144.682V203.755H207.26Z" fill="url(#paint10_linear)"/>
<path d="M132.763 215.539C132.763 209.031 138.039 203.755 144.547 203.755C151.055 203.755 156.331 209.031 156.331 215.539V268.5H132.763V215.539Z" fill="#287CA6"/>
<path d="M132.763 215.539C132.763 209.031 138.039 203.755 144.547 203.755C151.055 203.755 156.331 209.031 156.331 215.539V268.5H132.763V215.539Z" fill="url(#paint11_linear)"/>
<path fill-rule="evenodd" clip-rule="evenodd" d="M135.416 208.089H126.083L125.823 207.027C126.821 205.471 129.394 203.324 130.121 202.944C132.786 201.549 145.373 199.926 146.104 199.693C153.463 198.922 156.843 198.219 171.839 197.526C171.841 193.563 163.468 164.487 168.047 164.476C172.494 164.487 184.045 164.517 185.384 178.021C186.724 191.525 189.548 208.674 179.966 208.362C174.131 208.459 158.075 204.79 149.589 203.754H144.682C140.873 203.754 137.577 205.443 135.416 208.089Z" fill="#DD784D"/>
<path fill-rule="evenodd" clip-rule="evenodd" d="M135.416 208.089H126.083L125.823 207.027C126.821 205.471 129.394 203.324 130.121 202.944C132.786 201.549 145.373 199.926 146.104 199.693C153.463 198.922 156.843 198.219 171.839 197.526C171.841 193.563 163.468 164.487 168.047 164.476C172.494 164.487 184.045 164.517 185.384 178.021C186.724 191.525 189.548 208.674 179.966 208.362C174.131 208.459 158.075 204.79 149.589 203.754H144.682C140.873 203.754 137.577 205.443 135.416 208.089Z" fill="url(#paint12_linear)"/>
<path fill-rule="evenodd" clip-rule="evenodd" d="M170.748 192.09C168.647 182.484 164.113 164.484 167.813 164.476C172.38 164.487 184.243 164.517 185.619 178.021C186.037 182.129 186.597 186.574 186.896 190.763C186.943 191.416 184.589 192.593 178.81 192.919C173.031 193.245 170.748 192.09 170.748 192.09Z" fill="#F2F5F9"/>
<path fill-rule="evenodd" clip-rule="evenodd" d="M149.829 143.615H167.167L166.083 164.745C165.978 169.599 161.961 173.414 157.144 173.414C152.478 173.414 148.746 169.705 148.746 165.016C148.746 165.005 148.749 164.879 148.746 164.745L149.829 143.615Z" fill="#DD784D"/>
<path fill-rule="evenodd" clip-rule="evenodd" d="M149.829 143.615H167.167L166.083 164.745C165.978 169.599 161.961 173.414 157.144 173.414C152.478 173.414 148.746 169.705 148.746 165.016C148.746 165.005 148.749 164.879 148.746 164.745L149.829 143.615Z" fill="url(#paint13_linear)"/>
<path fill-rule="evenodd" clip-rule="evenodd" d="M166.625 154.18C163.056 159.179 156.821 162.578 152.809 162.578C151.794 162.578 150.444 162.282 149.016 161.765L149.829 143.615H167.167L166.625 154.18Z" fill="url(#paint14_linear)"/>
<path fill-rule="evenodd" clip-rule="evenodd" d="M150.236 112.461C159.437 112.461 166.896 119.921 166.896 129.122V143.209C166.896 152.41 155.984 159.869 150.236 159.869C144.487 159.869 133.575 152.41 133.575 143.209C133.575 143.209 134.388 136.834 134.388 136.351C134.388 135.868 133.575 129.122 133.575 129.122C133.575 119.921 141.034 112.461 150.236 112.461Z" fill="#DD784D"/>
<path fill-rule="evenodd" clip-rule="evenodd" d="M150.236 112.461C159.437 112.461 166.896 119.921 166.896 129.122V143.209C166.896 152.41 155.984 159.869 150.236 159.869C144.487 159.869 133.575 152.41 133.575 143.209C133.575 143.209 134.388 136.834 134.388 136.351C134.388 135.868 133.575 129.122 133.575 129.122C133.575 119.921 141.034 112.461 150.236 112.461Z" fill="url(#paint15_linear)"/>
<path fill-rule="evenodd" clip-rule="evenodd" d="M166.847 149.843L167.167 143.615L166.896 138.974C164.149 137.448 162.291 134.518 162.291 131.153C162.291 130.403 162.383 129.674 162.557 128.977C162.424 128.983 162.29 128.986 162.155 128.986C157.621 128.986 153.888 125.559 153.404 121.154C152.042 121.832 150.506 122.214 148.881 122.214C146.466 122.214 144.247 121.371 142.504 119.963C141.737 120.363 140.866 120.588 139.941 120.588C138.703 120.588 137.559 120.183 136.635 119.497C135.27 121.422 134.304 123.649 133.856 126.059C131.695 124.22 130.324 121.481 130.324 118.421C130.324 113.211 134.3 108.929 139.383 108.444C140.839 104.616 144.542 101.896 148.881 101.896C150.693 101.896 152.394 102.371 153.867 103.202C156.056 101.213 158.964 100 162.155 100C168.701 100 174.055 105.103 174.457 111.548C179.248 112.428 182.879 116.626 182.879 121.672C182.879 124.501 181.738 127.064 179.89 128.925C180.073 129.637 180.17 130.384 180.17 131.153C180.17 134.121 178.724 136.751 176.498 138.377C176.597 138.934 176.648 139.508 176.648 140.093C176.648 145.405 172.138 149.725 166.847 149.843Z" fill="#1F1845"/>
<path fill-rule="evenodd" clip-rule="evenodd" d="M166.847 149.843L167.167 143.615L166.896 138.974C164.149 137.448 162.291 134.518 162.291 131.153C162.291 130.403 162.383 129.674 162.557 128.977C162.424 128.983 162.29 128.986 162.155 128.986C157.621 128.986 153.888 125.559 153.404 121.154C152.042 121.832 150.506 122.214 148.881 122.214C146.466 122.214 144.247 121.371 142.504 119.963C141.737 120.363 140.866 120.588 139.941 120.588C138.703 120.588 137.559 120.183 136.635 119.497C135.27 121.422 134.304 123.649 133.856 126.059C131.695 124.22 130.324 121.481 130.324 118.421C130.324 113.211 134.3 108.929 139.383 108.444C140.839 104.616 144.542 101.896 148.881 101.896C150.693 101.896 152.394 102.371 153.867 103.202C156.056 101.213 158.964 100 162.155 100C168.701 100 174.055 105.103 174.457 111.548C179.248 112.428 182.879 116.626 182.879 121.672C182.879 124.501 181.738 127.064 179.89 128.925C180.073 129.637 180.17 130.384 180.17 131.153C180.17 134.121 178.724 136.751 176.498 138.377C176.597 138.934 176.648 139.508 176.648 140.093C176.648 145.405 172.138 149.725 166.847 149.843Z" fill="url(#paint16_linear)"/>
<path fill-rule="evenodd" clip-rule="evenodd" d="M165 145.511C161.644 145.453 161.857 133.264 165 133.321C168.407 133.378 171.015 136.153 170.959 139.28C170.897 142.885 168.195 145.568 165 145.511Z" fill="#DD784D"/>
<path fill-rule="evenodd" clip-rule="evenodd" d="M165.812 141.719C167.009 141.719 167.98 140.748 167.98 139.551C167.98 138.355 167.009 137.384 165.812 137.384C164.615 137.384 163.645 138.355 163.645 139.551C163.645 140.748 164.615 141.719 165.812 141.719Z" fill="url(#paint17_linear)"/>
<path fill-rule="evenodd" clip-rule="evenodd" d="M162.929 134.399C162.678 134.402 162.258 134.404 162.155 134.404C157.621 134.404 153.888 130.977 153.404 126.572C152.042 127.25 150.506 127.632 148.881 127.632C146.466 127.632 144.247 126.789 142.504 125.381C141.737 125.78 140.866 126.006 139.941 126.006C138.703 126.006 137.559 125.601 136.635 124.915C135.271 126.839 134.305 129.066 133.857 131.475C133.773 130.767 133.679 129.982 133.575 129.122C133.575 125.536 134.708 122.215 136.635 119.497C137.559 120.183 138.703 120.588 139.941 120.588C140.866 120.588 141.737 120.362 142.504 119.963C144.247 121.371 146.466 122.214 148.881 122.214C150.506 122.214 152.042 121.832 153.404 121.154C153.888 125.559 157.621 128.986 162.155 128.986C162.29 128.986 162.424 128.983 162.557 128.977C162.383 129.674 162.498 130.435 162.557 131.185C162.824 134.572 163.006 134.398 162.929 134.399Z" fill="url(#paint18_linear)"/>
<path d="M135.527 201.502C135.631 194.807 135.988 189.067 136.597 184.284" stroke="white" stroke-width="2" stroke-linecap="round" stroke-linejoin="round"/>
<path d="M171.84 197.526C171.84 195.977 170.561 190.591 169.276 184.603" stroke="white" stroke-width="2" stroke-linecap="round" stroke-linejoin="round"/>
<path d="M103.145 332.648L97.757 350H94.841L91.049 338.144C90.945 337.856 90.849 337.504 90.761 337.088C90.713 337.288 90.665 337.476 90.617 337.652C90.569 337.828 90.517 337.992 90.461 338.144L86.633 350H83.705L78.329 332.648H81.029C81.309 332.648 81.541 332.716 81.725 332.852C81.917 332.98 82.045 333.156 82.109 333.38L85.061 343.76C85.125 344.016 85.185 344.296 85.241 344.6C85.305 344.896 85.369 345.208 85.433 345.536C85.497 345.2 85.565 344.884 85.637 344.588C85.717 344.292 85.801 344.016 85.889 343.76L89.297 333.38C89.361 333.196 89.485 333.028 89.669 332.876C89.861 332.724 90.093 332.648 90.365 332.648H91.313C91.593 332.648 91.821 332.716 91.997 332.852C92.173 332.988 92.305 333.164 92.393 333.38L95.789 343.76C95.957 344.256 96.109 344.828 96.245 345.476C96.349 344.844 96.465 344.272 96.593 343.76L99.545 333.38C99.593 333.18 99.713 333.008 99.905 332.864C100.105 332.72 100.341 332.648 100.613 332.648H103.145ZM111.287 342.428C111.287 342.044 111.231 341.684 111.119 341.348C111.015 341.004 110.855 340.704 110.639 340.448C110.423 340.192 110.147 339.992 109.811 339.848C109.483 339.696 109.099 339.62 108.659 339.62C107.803 339.62 107.127 339.864 106.631 340.352C106.143 340.84 105.831 341.532 105.695 342.428H111.287ZM105.635 344.216C105.683 344.848 105.795 345.396 105.971 345.86C106.147 346.316 106.379 346.696 106.667 347C106.955 347.296 107.295 347.52 107.687 347.672C108.087 347.816 108.527 347.888 109.007 347.888C109.487 347.888 109.899 347.832 110.243 347.72C110.595 347.608 110.899 347.484 111.155 347.348C111.419 347.212 111.647 347.088 111.839 346.976C112.039 346.864 112.231 346.808 112.415 346.808C112.663 346.808 112.847 346.9 112.967 347.084L113.819 348.164C113.491 348.548 113.123 348.872 112.715 349.136C112.307 349.392 111.879 349.6 111.431 349.76C110.991 349.912 110.539 350.02 110.075 350.084C109.619 350.148 109.175 350.18 108.743 350.18C107.887 350.18 107.091 350.04 106.355 349.76C105.619 349.472 104.979 349.052 104.435 348.5C103.891 347.94 103.463 347.252 103.151 346.436C102.839 345.612 102.683 344.66 102.683 343.58C102.683 342.74 102.819 341.952 103.091 341.216C103.363 340.472 103.751 339.828 104.255 339.284C104.767 338.732 105.387 338.296 106.115 337.976C106.851 337.656 107.679 337.496 108.599 337.496C109.375 337.496 110.091 337.62 110.747 337.868C111.403 338.116 111.967 338.48 112.439 338.96C112.911 339.432 113.279 340.016 113.543 340.712C113.815 341.4 113.951 342.188 113.951 343.076C113.951 343.524 113.903 343.828 113.807 343.988C113.711 344.14 113.527 344.216 113.255 344.216H105.635ZM129.739 340.832C129.403 340.424 129.035 340.136 128.635 339.968C128.243 339.8 127.819 339.716 127.363 339.716C126.915 339.716 126.511 339.8 126.151 339.968C125.791 340.136 125.483 340.392 125.227 340.736C124.971 341.072 124.775 341.504 124.639 342.032C124.503 342.552 124.435 343.168 124.435 343.88C124.435 344.6 124.491 345.212 124.603 345.716C124.723 346.212 124.891 346.62 125.107 346.94C125.323 347.252 125.587 347.48 125.899 347.624C126.211 347.76 126.559 347.828 126.943 347.828C127.559 347.828 128.083 347.7 128.515 347.444C128.947 347.188 129.355 346.824 129.739 346.352V340.832ZM132.703 332.168V350H130.891C130.499 350 130.251 349.82 130.147 349.46L129.895 348.272C129.399 348.84 128.827 349.3 128.179 349.652C127.539 350.004 126.791 350.18 125.935 350.18C125.263 350.18 124.647 350.04 124.087 349.76C123.527 349.48 123.043 349.076 122.635 348.548C122.235 348.012 121.923 347.352 121.699 346.568C121.483 345.784 121.375 344.888 121.375 343.88C121.375 342.968 121.499 342.12 121.747 341.336C121.995 340.552 122.351 339.872 122.815 339.296C123.279 338.72 123.835 338.272 124.483 337.952C125.131 337.624 125.859 337.46 126.667 337.46C127.355 337.46 127.943 337.568 128.431 337.784C128.919 338 129.355 338.292 129.739 338.66V332.168H132.703ZM143.56 342.428C143.56 342.044 143.504 341.684 143.392 341.348C143.288 341.004 143.128 340.704 142.912 340.448C142.696 340.192 142.42 339.992 142.084 339.848C141.756 339.696 141.372 339.62 140.932 339.62C140.076 339.62 139.4 339.864 138.904 340.352C138.416 340.84 138.104 341.532 137.968 342.428H143.56ZM137.908 344.216C137.956 344.848 138.068 345.396 138.244 345.86C138.42 346.316 138.652 346.696 138.94 347C139.228 347.296 139.568 347.52 139.96 347.672C140.36 347.816 140.8 347.888 141.28 347.888C141.76 347.888 142.172 347.832 142.516 347.72C142.868 347.608 143.172 347.484 143.428 347.348C143.692 347.212 143.92 347.088 144.112 346.976C144.312 346.864 144.504 346.808 144.688 346.808C144.936 346.808 145.12 346.9 145.24 347.084L146.092 348.164C145.764 348.548 145.396 348.872 144.988 349.136C144.58 349.392 144.152 349.6 143.704 349.76C143.264 349.912 142.812 350.02 142.348 350.084C141.892 350.148 141.448 350.18 141.016 350.18C140.16 350.18 139.364 350.04 138.628 349.76C137.892 349.472 137.252 349.052 136.708 348.5C136.164 347.94 135.736 347.252 135.424 346.436C135.112 345.612 134.956 344.66 134.956 343.58C134.956 342.74 135.092 341.952 135.364 341.216C135.636 340.472 136.024 339.828 136.528 339.284C137.04 338.732 137.66 338.296 138.388 337.976C139.124 337.656 139.952 337.496 140.872 337.496C141.648 337.496 142.364 337.62 143.02 337.868C143.676 338.116 144.24 338.48 144.712 338.96C145.184 339.432 145.552 340.016 145.816 340.712C146.088 341.4 146.224 342.188 146.224 343.076C146.224 343.524 146.176 343.828 146.08 343.988C145.984 344.14 145.8 344.216 145.528 344.216H137.908ZM159.244 337.688L154.36 350H151.672L146.788 337.688H149.236C149.46 337.688 149.644 337.74 149.788 337.844C149.94 337.948 150.04 338.08 150.088 338.24L152.464 344.816C152.592 345.2 152.704 345.576 152.8 345.944C152.896 346.312 152.98 346.68 153.052 347.048C153.132 346.68 153.22 346.312 153.316 345.944C153.412 345.576 153.528 345.2 153.664 344.816L156.088 338.24C156.144 338.08 156.244 337.948 156.388 337.844C156.532 337.74 156.704 337.688 156.904 337.688H159.244ZM168.38 342.428C168.38 342.044 168.324 341.684 168.212 341.348C168.108 341.004 167.948 340.704 167.732 340.448C167.516 340.192 167.24 339.992 166.904 339.848C166.576 339.696 166.192 339.62 165.752 339.62C164.896 339.62 164.22 339.864 163.724 340.352C163.236 340.84 162.924 341.532 162.788 342.428H168.38ZM162.728 344.216C162.776 344.848 162.888 345.396 163.064 345.86C163.24 346.316 163.472 346.696 163.76 347C164.048 347.296 164.388 347.52 164.78 347.672C165.18 347.816 165.62 347.888 166.1 347.888C166.58 347.888 166.992 347.832 167.336 347.72C167.688 347.608 167.992 347.484 168.248 347.348C168.512 347.212 168.74 347.088 168.932 346.976C169.132 346.864 169.324 346.808 169.508 346.808C169.756 346.808 169.94 346.9 170.06 347.084L170.912 348.164C170.584 348.548 170.216 348.872 169.808 349.136C169.4 349.392 168.972 349.6 168.524 349.76C168.084 349.912 167.632 350.02 167.168 350.084C166.712 350.148 166.268 350.18 165.836 350.18C164.98 350.18 164.184 350.04 163.448 349.76C162.712 349.472 162.072 349.052 161.528 348.5C160.984 347.94 160.556 347.252 160.244 346.436C159.932 345.612 159.776 344.66 159.776 343.58C159.776 342.74 159.912 341.952 160.184 341.216C160.456 340.472 160.844 339.828 161.348 339.284C161.86 338.732 162.48 338.296 163.208 337.976C163.944 337.656 164.772 337.496 165.692 337.496C166.468 337.496 167.184 337.62 167.84 337.868C168.496 338.116 169.06 338.48 169.532 338.96C170.004 339.432 170.372 340.016 170.636 340.712C170.908 341.4 171.044 342.188 171.044 343.076C171.044 343.524 170.996 343.828 170.9 343.988C170.804 344.14 170.62 344.216 170.348 344.216H162.728ZM176.269 332.168V350H173.305V332.168H176.269ZM184.67 337.496C185.582 337.496 186.41 337.644 187.154 337.94C187.906 338.236 188.546 338.656 189.074 339.2C189.61 339.744 190.022 340.408 190.31 341.192C190.598 341.976 190.742 342.852 190.742 343.82C190.742 344.796 190.598 345.676 190.31 346.46C190.022 347.244 189.61 347.912 189.074 348.464C188.546 349.016 187.906 349.44 187.154 349.736C186.41 350.032 185.582 350.18 184.67 350.18C183.75 350.18 182.914 350.032 182.162 349.736C181.41 349.44 180.766 349.016 180.23 348.464C179.702 347.912 179.29 347.244 178.994 346.46C178.706 345.676 178.562 344.796 178.562 343.82C178.562 342.852 178.706 341.976 178.994 341.192C179.29 340.408 179.702 339.744 180.23 339.2C180.766 338.656 181.41 338.236 182.162 337.94C182.914 337.644 183.75 337.496 184.67 337.496ZM184.67 347.9C185.694 347.9 186.45 347.556 186.938 346.868C187.434 346.18 187.682 345.172 187.682 343.844C187.682 342.516 187.434 341.504 186.938 340.808C186.45 340.112 185.694 339.764 184.67 339.764C183.63 339.764 182.858 340.116 182.354 340.82C181.858 341.516 181.61 342.524 181.61 343.844C181.61 345.164 181.858 346.172 182.354 346.868C182.858 347.556 183.63 347.9 184.67 347.9ZM195.967 346.808C196.303 347.216 196.667 347.504 197.059 347.672C197.459 347.84 197.891 347.924 198.355 347.924C198.803 347.924 199.207 347.84 199.567 347.672C199.927 347.504 200.231 347.248 200.479 346.904C200.735 346.56 200.931 346.128 201.067 345.608C201.203 345.08 201.271 344.46 201.271 343.748C201.271 343.028 201.211 342.42 201.091 341.924C200.979 341.42 200.815 341.012 200.599 340.7C200.383 340.388 200.119 340.16 199.807 340.016C199.503 339.872 199.155 339.8 198.763 339.8C198.147 339.8 197.623 339.932 197.191 340.196C196.759 340.452 196.351 340.816 195.967 341.288V346.808ZM195.811 339.368C196.315 338.8 196.887 338.34 197.527 337.988C198.167 337.636 198.919 337.46 199.783 337.46C200.455 337.46 201.067 337.6 201.619 337.88C202.179 338.16 202.659 338.568 203.059 339.104C203.467 339.632 203.779 340.288 203.995 341.072C204.219 341.848 204.331 342.74 204.331 343.748C204.331 344.668 204.207 345.52 203.959 346.304C203.711 347.088 203.355 347.768 202.891 348.344C202.435 348.92 201.879 349.372 201.223 349.7C200.575 350.02 199.847 350.18 199.039 350.18C198.351 350.18 197.763 350.076 197.275 349.868C196.787 349.652 196.351 349.356 195.967 348.98V354.02H193.003V337.688H194.815C195.199 337.688 195.451 337.868 195.571 338.228L195.811 339.368Z" fill="black"/>
<path d="M206.212 348.368C206.212 348.12 206.256 347.884 206.344 347.66C206.44 347.436 206.568 347.244 206.728 347.084C206.888 346.924 207.08 346.796 207.304 346.7C207.528 346.604 207.768 346.556 208.024 346.556C208.28 346.556 208.516 346.604 208.732 346.7C208.956 346.796 209.148 346.924 209.308 347.084C209.476 347.244 209.608 347.436 209.704 347.66C209.8 347.884 209.848 348.12 209.848 348.368C209.848 348.624 209.8 348.864 209.704 349.088C209.608 349.304 209.476 349.492 209.308 349.652C209.148 349.812 208.956 349.936 208.732 350.024C208.516 350.12 208.28 350.168 208.024 350.168C207.768 350.168 207.528 350.12 207.304 350.024C207.08 349.936 206.888 349.812 206.728 349.652C206.568 349.492 206.44 349.304 206.344 349.088C206.256 348.864 206.212 348.624 206.212 348.368Z" fill="#4DB2DD"/>
<defs>
<linearGradient id="paint0_linear" x1="82.3752" y1="203.754" x2="82.3752" y2="268.499" gradientUnits="userSpaceOnUse">
<stop stop-color="#A7A7EE" stop-opacity="0.01"/>
<stop offset="1" stop-color="#403F9F" stop-opacity="0.3"/>
</linearGradient>
<linearGradient id="paint1_linear" x1="118.676" y1="157.16" x2="118.676" y2="203.754" gradientUnits="userSpaceOnUse">
<stop stop-color="#403F9F" stop-opacity="0.01"/>
<stop offset="1" stop-opacity="0.2"/>
</linearGradient>
<linearGradient id="paint2_linear" x1="94.0239" y1="223.801" x2="94.0239" y2="268.499" gradientUnits="userSpaceOnUse">
<stop stop-color="#A7A7EE" stop-opacity="0.01"/>
<stop offset="1" stop-color="#403F9F" stop-opacity="0.3"/>
</linearGradient>
<linearGradient id="paint3_linear" x1="70.4557" y1="203.754" x2="70.4557" y2="268.499" gradientUnits="userSpaceOnUse">
<stop stop-color="#403F9F" stop-opacity="0.01"/>
<stop offset="1" stop-opacity="0.2"/>
</linearGradient>
<linearGradient id="paint4_linear" x1="75.8737" y1="258.747" x2="75.8737" y2="275.543" gradientUnits="userSpaceOnUse">
<stop stop-color="#403F9F" stop-opacity="0.01"/>
<stop offset="1" stop-opacity="0.1"/>
</linearGradient>
<linearGradient id="paint5_linear" x1="108.653" y1="260.373" x2="108.653" y2="281.774" gradientUnits="userSpaceOnUse">
<stop stop-color="#403F9F" stop-opacity="0.01"/>
<stop offset="1" stop-opacity="0.1"/>
</linearGradient>
<linearGradient id="paint6_linear" x1="116.419" y1="189.547" x2="62.946" y2="214.279" gradientUnits="userSpaceOnUse">
<stop stop-opacity="0.5"/>
<stop offset="1" stop-color="#053851"/>
</linearGradient>
<linearGradient id="paint7_linear" x1="124.261" y1="188.774" x2="124.261" y2="210.516" gradientUnits="userSpaceOnUse">
<stop stop-color="#C74D75" stop-opacity="0.01"/>
<stop offset="1" stop-color="#AF3B6E" stop-opacity="0.05"/>
</linearGradient>
<linearGradient id="paint8_linear" x1="170.471" y1="205.08" x2="161.943" y2="180.913" gradientUnits="userSpaceOnUse">
<stop stop-opacity="0.5"/>
<stop offset="1" stop-color="#FF6663" stop-opacity="0.01"/>
</linearGradient>
<linearGradient id="paint9_linear" x1="183.692" y1="157.16" x2="183.692" y2="203.754" gradientUnits="userSpaceOnUse">
<stop stop-color="#A7A7EE" stop-opacity="0.01"/>
<stop offset="1" stop-color="#403F9F" stop-opacity="0.3"/>
</linearGradient>
<linearGradient id="paint10_linear" x1="144.682" y1="203.755" x2="144.682" y2="268.5" gradientUnits="userSpaceOnUse">
<stop stop-color="#A7A7EE" stop-opacity="0.01"/>
<stop offset="1" stop-color="#403F9F" stop-opacity="0.3"/>
</linearGradient>
<linearGradient id="paint11_linear" x1="132.763" y1="203.755" x2="132.763" y2="268.5" gradientUnits="userSpaceOnUse">
<stop stop-color="#403F9F" stop-opacity="0.01"/>
<stop offset="1" stop-opacity="0.2"/>
</linearGradient>
<linearGradient id="paint12_linear" x1="125.823" y1="164.476" x2="125.823" y2="208.366" gradientUnits="userSpaceOnUse">
<stop stop-color="#C74D75" stop-opacity="0.01"/>
<stop offset="1" stop-color="#AF3B6E" stop-opacity="0.05"/>
</linearGradient>
<linearGradient id="paint13_linear" x1="148.746" y1="143.615" x2="148.746" y2="173.414" gradientUnits="userSpaceOnUse">
<stop stop-color="#C74D75" stop-opacity="0.01"/>
<stop offset="1" stop-color="#AF3B6E" stop-opacity="0.1"/>
</linearGradient>
<linearGradient id="paint14_linear" x1="156.645" y1="169.036" x2="175.448" y2="153.908" gradientUnits="userSpaceOnUse">
<stop stop-opacity="0.1"/>
<stop offset="1" stop-color="#FF6663" stop-opacity="0.01"/>
</linearGradient>
<linearGradient id="paint15_linear" x1="134.01" y1="113.7" x2="134.01" y2="159.869" gradientUnits="userSpaceOnUse">
<stop stop-color="#C74D75" stop-opacity="0.01"/>
<stop offset="1" stop-color="#AF3B6E" stop-opacity="0.05"/>
</linearGradient>
<linearGradient id="paint16_linear" x1="130.324" y1="100" x2="130.324" y2="149.843" gradientUnits="userSpaceOnUse">
<stop stop-color="#1F1845" stop-opacity="0.01"/>
<stop offset="1" stop-opacity="0.2"/>
</linearGradient>
<linearGradient id="paint17_linear" x1="165.812" y1="135.217" x2="161.478" y2="139.551" gradientUnits="userSpaceOnUse">
<stop stop-opacity="0.2"/>
<stop offset="1" stop-color="#FF6663" stop-opacity="0.01"/>
</linearGradient>
<linearGradient id="paint18_linear" x1="141.065" y1="118.149" x2="134.113" y2="134.631" gradientUnits="userSpaceOnUse">
<stop stop-opacity="0.1"/>
<stop offset="1" stop-color="#FF6663" stop-opacity="0.01"/>
</linearGradient>
</defs>
</svg>
