<svg width="300" height="300" viewBox="0 0 300 300" fill="none" xmlns="http://www.w3.org/2000/svg">
<g clip-path="url(#clip0)">
<path fill-rule="evenodd" clip-rule="evenodd" d="M0 212.483C0 152.667 19.4364 127.607 67.6829 110.719C115.961 94.1044 122.359 0 185.017 0C247.849 0 330.424 167.544 288.763 263.772C247.117 360.096 131.44 228.697 93.554 272.32C55.594 315.736 0 272.133 0 212.483Z" fill="#F2F5F9"/>
<path fill-rule="evenodd" clip-rule="evenodd" d="M48 196.034H251.032V196.034C251.032 201.959 246.229 206.762 240.304 206.762H58.7283C52.8032 206.762 48 201.959 48 196.034V196.034Z" fill="#393E41"/>
<path fill-rule="evenodd" clip-rule="evenodd" d="M48 196.034H251.032V196.034C251.032 201.959 246.229 206.762 240.304 206.762H58.7283C52.8032 206.762 48 201.959 48 196.034V196.034Z" fill="url(#paint0_linear)"/>
<rect x="48" y="84.46" width="17.1652" height="111.574" fill="#393E41"/>
<rect x="48" y="84.46" width="17.1652" height="111.574" fill="url(#paint1_linear)"/>
<rect x="243.254" y="84.46" width="7.77798" height="111.574" fill="#393E41"/>
<rect x="243.254" y="84.46" width="7.77798" height="111.574" fill="url(#paint2_linear)"/>
<rect x="65.1652" y="84.46" width="178.089" height="111.574" fill="black"/>
<path d="M48 84.46C48 78.6831 52.6831 74 58.46 74H240.572C246.349 74 251.032 78.6831 251.032 84.46V84.46H48V84.46Z" fill="#393E41"/>
<path d="M48 84.46C48 78.6831 52.6831 74 58.46 74H240.572C246.349 74 251.032 78.6831 251.032 84.46V84.46H48V84.46Z" fill="url(#paint3_linear)"/>
<path d="M74.2842 97.9202C74.2842 96.2633 75.6273 94.9202 77.2842 94.9202H83.9396V185.574H77.2842C75.6273 185.574 74.2842 184.231 74.2842 182.574V97.9202Z" fill="#393E41"/>
<path d="M207.314 94.9202H231.135C232.792 94.9202 234.135 96.2633 234.135 97.9202V182.574C234.135 184.231 232.792 185.574 231.135 185.574H207.314V94.9202Z" fill="#393E41"/>
<rect x="209.996" y="97.6021" width="21.4565" height="2.68206" rx="1.34103" fill="#4E565C"/>
<rect x="209.996" y="113.695" width="21.4565" height="2.68206" rx="1.34103" fill="#4E565C"/>
<rect x="209.996" y="102.966" width="21.4565" height="2.68206" rx="1.34103" fill="#4E565C"/>
<rect x="209.996" y="119.059" width="21.4565" height="2.68206" rx="1.34103" fill="#4E565C"/>
<rect x="209.996" y="108.33" width="21.4565" height="2.68206" rx="1.34103" fill="#4E565C"/>
<rect x="209.996" y="124.423" width="21.4565" height="2.68206" rx="1.34103" fill="#4E565C"/>
<rect x="209.996" y="129.787" width="21.4565" height="21.4565" rx="5" fill="#4E565C"/>
<rect x="83.9397" y="94.9202" width="123.375" height="6.97336" fill="#393E41"/>
<path fill-rule="evenodd" clip-rule="evenodd" d="M53.6324 115.84H59.5329C59.9773 115.84 60.3375 116.2 60.3375 116.645V120.936C60.3375 121.38 59.9773 121.741 59.5329 121.741H53.6324C53.188 121.741 52.8278 121.38 52.8278 120.936V116.645C52.8278 116.2 53.188 115.84 53.6324 115.84Z" fill="#393E41"/>
<path fill-rule="evenodd" clip-rule="evenodd" d="M53.6324 115.84H59.5329C59.9773 115.84 60.3375 116.2 60.3375 116.645V120.936C60.3375 121.38 59.9773 121.741 59.5329 121.741H53.6324C53.188 121.741 52.8278 121.38 52.8278 120.936V116.645C52.8278 116.2 53.188 115.84 53.6324 115.84Z" fill="url(#paint4_linear)"/>
<path fill-rule="evenodd" clip-rule="evenodd" d="M53.6324 150.975H59.5329C59.9773 150.975 60.3375 151.335 60.3375 151.78V156.071C60.3375 156.515 59.9773 156.876 59.5329 156.876H53.6324C53.188 156.876 52.8278 156.515 52.8278 156.071V151.78C52.8278 151.335 53.188 150.975 53.6324 150.975Z" fill="#393E41"/>
<path fill-rule="evenodd" clip-rule="evenodd" d="M53.6324 150.975H59.5329C59.9773 150.975 60.3375 151.335 60.3375 151.78V156.071C60.3375 156.515 59.9773 156.876 59.5329 156.876H53.6324C53.188 156.876 52.8278 156.515 52.8278 156.071V151.78C52.8278 151.335 53.188 150.975 53.6324 150.975Z" fill="url(#paint5_linear)"/>
<path fill-rule="evenodd" clip-rule="evenodd" d="M56.5826 147.488C60.582 147.488 63.8242 144.246 63.8242 140.247C63.8242 136.248 60.582 133.005 56.5826 133.005C52.5832 133.005 49.3411 136.248 49.3411 140.247C49.3411 144.246 52.5832 147.488 56.5826 147.488Z" fill="#393E41"/>
<path fill-rule="evenodd" clip-rule="evenodd" d="M56.5826 147.488C60.582 147.488 63.8242 144.246 63.8242 140.247C63.8242 136.248 60.582 133.005 56.5826 133.005C52.5832 133.005 49.3411 136.248 49.3411 140.247C49.3411 144.246 52.5832 147.488 56.5826 147.488Z" fill="url(#paint6_linear)"/>
<path fill-rule="evenodd" clip-rule="evenodd" d="M56.5826 143.197C58.212 143.197 59.5329 141.876 59.5329 140.247C59.5329 138.618 58.212 137.297 56.5826 137.297C54.9532 137.297 53.6323 138.618 53.6323 140.247C53.6323 141.876 54.9532 143.197 56.5826 143.197Z" fill="#393E41"/>
<path fill-rule="evenodd" clip-rule="evenodd" d="M56.5826 143.197C58.212 143.197 59.5329 141.876 59.5329 140.247C59.5329 138.618 58.212 137.297 56.5826 137.297C54.9532 137.297 53.6323 138.618 53.6323 140.247C53.6323 141.876 54.9532 143.197 56.5826 143.197Z" fill="url(#paint7_linear)"/>
<path fill-rule="evenodd" clip-rule="evenodd" d="M53.6324 123.618H59.5329C59.9773 123.618 60.3375 123.978 60.3375 124.423V128.714C60.3375 129.158 59.9773 129.519 59.5329 129.519H53.6324C53.188 129.519 52.8278 129.158 52.8278 128.714V124.423C52.8278 123.978 53.188 123.618 53.6324 123.618Z" fill="#393E41"/>
<path fill-rule="evenodd" clip-rule="evenodd" d="M53.6324 123.618H59.5329C59.9773 123.618 60.3375 123.978 60.3375 124.423V128.714C60.3375 129.158 59.9773 129.519 59.5329 129.519H53.6324C53.188 129.519 52.8278 129.158 52.8278 128.714V124.423C52.8278 123.978 53.188 123.618 53.6324 123.618Z" fill="url(#paint8_linear)"/>
<path fill-rule="evenodd" clip-rule="evenodd" d="M53.6324 158.753H59.5329C59.9773 158.753 60.3375 159.113 60.3375 159.558V163.849C60.3375 164.293 59.9773 164.654 59.5329 164.654H53.6324C53.188 164.654 52.8278 164.293 52.8278 163.849V159.558C52.8278 159.113 53.188 158.753 53.6324 158.753Z" fill="#393E41"/>
<path fill-rule="evenodd" clip-rule="evenodd" d="M53.6324 158.753H59.5329C59.9773 158.753 60.3375 159.113 60.3375 159.558V163.849C60.3375 164.293 59.9773 164.654 59.5329 164.654H53.6324C53.188 164.654 52.8278 164.293 52.8278 163.849V159.558C52.8278 159.113 53.188 158.753 53.6324 158.753Z" fill="url(#paint9_linear)"/>
<path fill-rule="evenodd" clip-rule="evenodd" d="M59.5329 115.84H53.6324C53.188 115.84 52.8278 116.2 52.8278 116.645V120.936C52.8278 121.38 53.188 121.741 53.6324 121.741H59.5329C59.9773 121.741 60.3375 121.38 60.3375 120.936V116.645C60.3375 116.2 59.9773 115.84 59.5329 115.84ZM53.096 116.645C53.096 116.349 53.3361 116.108 53.6324 116.108H59.5329C59.8292 116.108 60.0693 116.349 60.0693 116.645V120.936C60.0693 121.232 59.8292 121.472 59.5329 121.472H53.6324C53.3361 121.472 53.096 121.232 53.096 120.936V116.645Z" fill="black" fill-opacity="0.1"/>
<path fill-rule="evenodd" clip-rule="evenodd" d="M59.5329 150.975H53.6324C53.188 150.975 52.8278 151.335 52.8278 151.78V156.071C52.8278 156.515 53.188 156.876 53.6324 156.876H59.5329C59.9773 156.876 60.3375 156.515 60.3375 156.071V151.78C60.3375 151.335 59.9773 150.975 59.5329 150.975ZM53.096 151.78C53.096 151.483 53.3361 151.243 53.6324 151.243H59.5329C59.8292 151.243 60.0693 151.483 60.0693 151.78V156.071C60.0693 156.367 59.8292 156.607 59.5329 156.607H53.6324C53.3361 156.607 53.096 156.367 53.096 156.071V151.78Z" fill="black" fill-opacity="0.1"/>
<path fill-rule="evenodd" clip-rule="evenodd" d="M49.3411 140.247C49.3411 144.246 52.5832 147.488 56.5826 147.488C60.582 147.488 63.8242 144.246 63.8242 140.247C63.8242 136.248 60.582 133.005 56.5826 133.005C52.5832 133.005 49.3411 136.248 49.3411 140.247ZM63.556 140.247C63.556 144.098 60.4339 147.22 56.5826 147.22C52.7313 147.22 49.6093 144.098 49.6093 140.247C49.6093 136.396 52.7313 133.274 56.5826 133.274C60.4339 133.274 63.556 136.396 63.556 140.247Z" fill="black" fill-opacity="0.1"/>
<path fill-rule="evenodd" clip-rule="evenodd" d="M53.6323 140.247C53.6323 141.876 54.9532 143.197 56.5826 143.197C58.212 143.197 59.5329 141.876 59.5329 140.247C59.5329 138.618 58.212 137.297 56.5826 137.297C54.9532 137.297 53.6323 138.618 53.6323 140.247ZM59.2647 140.247C59.2647 141.728 58.0639 142.929 56.5826 142.929C55.1013 142.929 53.9005 141.728 53.9005 140.247C53.9005 138.766 55.1013 137.565 56.5826 137.565C58.0639 137.565 59.2647 138.766 59.2647 140.247Z" fill="black" fill-opacity="0.1"/>
<path fill-rule="evenodd" clip-rule="evenodd" d="M59.5329 123.618H53.6324C53.188 123.618 52.8278 123.978 52.8278 124.423V128.714C52.8278 129.158 53.188 129.519 53.6324 129.519H59.5329C59.9773 129.519 60.3375 129.158 60.3375 128.714V124.423C60.3375 123.978 59.9773 123.618 59.5329 123.618ZM53.096 124.423C53.096 124.126 53.3361 123.886 53.6324 123.886H59.5329C59.8292 123.886 60.0693 124.126 60.0693 124.423V128.714C60.0693 129.01 59.8292 129.25 59.5329 129.25H53.6324C53.3361 129.25 53.096 129.01 53.096 128.714V124.423Z" fill="black" fill-opacity="0.1"/>
<path fill-rule="evenodd" clip-rule="evenodd" d="M59.5329 158.753H53.6324C53.188 158.753 52.8278 159.113 52.8278 159.558V163.849C52.8278 164.293 53.188 164.654 53.6324 164.654H59.5329C59.9773 164.654 60.3375 164.293 60.3375 163.849V159.558C60.3375 159.113 59.9773 158.753 59.5329 158.753ZM53.096 159.558C53.096 159.261 53.3361 159.021 53.6324 159.021H59.5329C59.8292 159.021 60.0693 159.261 60.0693 159.558V163.849C60.0693 164.145 59.8292 164.385 59.5329 164.385H53.6324C53.3361 164.385 53.096 164.145 53.096 163.849V159.558Z" fill="black" fill-opacity="0.1"/>
<path fill-rule="evenodd" clip-rule="evenodd" d="M79.112 101.893C80.297 101.893 81.2576 100.933 81.2576 99.7477C81.2576 98.5627 80.297 97.6021 79.112 97.6021C77.9269 97.6021 76.9663 98.5627 76.9663 99.7477C76.9663 100.933 77.9269 101.893 79.112 101.893Z" fill="#4E565C"/>
<path fill-rule="evenodd" clip-rule="evenodd" d="M79.112 108.867C80.297 108.867 81.2576 107.906 81.2576 106.721C81.2576 105.536 80.297 104.575 79.112 104.575C77.9269 104.575 76.9663 105.536 76.9663 106.721C76.9663 107.906 77.9269 108.867 79.112 108.867Z" fill="#4E565C"/>
<path fill-rule="evenodd" clip-rule="evenodd" d="M79.112 115.84C80.297 115.84 81.2576 114.879 81.2576 113.694C81.2576 112.509 80.297 111.549 79.112 111.549C77.9269 111.549 76.9663 112.509 76.9663 113.694C76.9663 114.879 77.9269 115.84 79.112 115.84Z" fill="#4E565C"/>
<rect x="86.6216" y="97.0657" width="21.4565" height="2.68206" rx="1.34103" fill="#4E565C"/>
<path fill-rule="evenodd" clip-rule="evenodd" d="M79.112 122.814C80.297 122.814 81.2576 121.853 81.2576 120.668C81.2576 119.483 80.297 118.522 79.112 118.522C77.9269 118.522 76.9663 119.483 76.9663 120.668C76.9663 121.853 77.9269 122.814 79.112 122.814Z" fill="#4E565C"/>
<path fill-rule="evenodd" clip-rule="evenodd" d="M79.112 129.787C80.297 129.787 81.2576 128.826 81.2576 127.641C81.2576 126.456 80.297 125.496 79.112 125.496C77.9269 125.496 76.9663 126.456 76.9663 127.641C76.9663 128.826 77.9269 129.787 79.112 129.787Z" fill="#4E565C"/>
<path fill-rule="evenodd" clip-rule="evenodd" d="M79.112 136.76C80.297 136.76 81.2576 135.8 81.2576 134.615C81.2576 133.43 80.297 132.469 79.112 132.469C77.9269 132.469 76.9663 133.43 76.9663 134.615C76.9663 135.8 77.9269 136.76 79.112 136.76Z" fill="#4E565C"/>
<path fill-rule="evenodd" clip-rule="evenodd" d="M79.112 143.734C80.297 143.734 81.2576 142.773 81.2576 141.588C81.2576 140.403 80.297 139.442 79.112 139.442C77.9269 139.442 76.9663 140.403 76.9663 141.588C76.9663 142.773 77.9269 143.734 79.112 143.734Z" fill="#4E565C"/>
<rect x="83.9397" y="101.893" width="123.375" height="83.6803" fill="url(#paint10_linear)"/>
<mask id="mask0" mask-type="alpha" maskUnits="userSpaceOnUse" x="83" y="101" width="125" height="85">
<rect x="83.9397" y="101.893" width="123.375" height="83.6803" fill="white"/>
</mask>
<g mask="url(#mask0)">
<path opacity="0.4" fill-rule="evenodd" clip-rule="evenodd" d="M113.845 107.526C114.067 107.526 114.247 107.346 114.247 107.124C114.247 106.901 114.067 106.721 113.845 106.721C113.623 106.721 113.442 106.901 113.442 107.124C113.442 107.346 113.623 107.526 113.845 107.526Z" fill="#F7F7F8"/>
<path opacity="0.4" fill-rule="evenodd" clip-rule="evenodd" d="M127.255 112.89C127.477 112.89 127.657 112.71 127.657 112.488C127.657 112.265 127.477 112.085 127.255 112.085C127.033 112.085 126.853 112.265 126.853 112.488C126.853 112.71 127.033 112.89 127.255 112.89Z" fill="#F7F7F8"/>
<path opacity="0.4" fill-rule="evenodd" clip-rule="evenodd" d="M110.894 105.916C111.117 105.916 111.297 105.736 111.297 105.514C111.297 105.292 111.117 105.112 110.894 105.112C110.672 105.112 110.492 105.292 110.492 105.514C110.492 105.736 110.672 105.916 110.894 105.916Z" fill="#F7F7F8"/>
<path opacity="0.4" fill-rule="evenodd" clip-rule="evenodd" d="M132.619 104.844C132.841 104.844 133.021 104.664 133.021 104.441C133.021 104.219 132.841 104.039 132.619 104.039C132.397 104.039 132.217 104.219 132.217 104.441C132.217 104.664 132.397 104.844 132.619 104.844Z" fill="#F7F7F8"/>
<path opacity="0.4" fill-rule="evenodd" clip-rule="evenodd" d="M143.347 107.526C143.57 107.526 143.75 107.346 143.75 107.124C143.75 106.901 143.57 106.721 143.347 106.721C143.125 106.721 142.945 106.901 142.945 107.124C142.945 107.346 143.125 107.526 143.347 107.526Z" fill="#F7F7F8"/>
<path opacity="0.4" fill-rule="evenodd" clip-rule="evenodd" d="M92.1201 113.963C92.3423 113.963 92.5224 113.783 92.5224 113.561C92.5224 113.338 92.3423 113.158 92.1201 113.158C91.8979 113.158 91.7178 113.338 91.7178 113.561C91.7178 113.783 91.8979 113.963 92.1201 113.963Z" fill="#F7F7F8"/>
<path opacity="0.4" fill-rule="evenodd" clip-rule="evenodd" d="M113.576 116.645C113.799 116.645 113.979 116.465 113.979 116.242C113.979 116.02 113.799 115.84 113.576 115.84C113.354 115.84 113.174 116.02 113.174 116.242C113.174 116.465 113.354 116.645 113.576 116.645Z" fill="#F7F7F8"/>
<path opacity="0.4" fill-rule="evenodd" clip-rule="evenodd" d="M169.9 103.235C170.122 103.235 170.302 103.054 170.302 102.832C170.302 102.61 170.122 102.43 169.9 102.43C169.678 102.43 169.498 102.61 169.498 102.832C169.498 103.054 169.678 103.235 169.9 103.235Z" fill="#F7F7F8"/>
<path opacity="0.4" fill-rule="evenodd" clip-rule="evenodd" d="M169.9 119.327C170.122 119.327 170.302 119.147 170.302 118.925C170.302 118.702 170.122 118.522 169.9 118.522C169.678 118.522 169.498 118.702 169.498 118.925C169.498 119.147 169.678 119.327 169.9 119.327Z" fill="#F7F7F8"/>
<path opacity="0.4" fill-rule="evenodd" clip-rule="evenodd" d="M161.853 113.963C162.076 113.963 162.256 113.783 162.256 113.561C162.256 113.338 162.076 113.158 161.853 113.158C161.631 113.158 161.451 113.338 161.451 113.561C161.451 113.783 161.631 113.963 161.853 113.963Z" fill="#F7F7F8"/>
<path opacity="0.4" fill-rule="evenodd" clip-rule="evenodd" d="M194.038 111.281C194.26 111.281 194.441 111.101 194.441 110.878C194.441 110.656 194.26 110.476 194.038 110.476C193.816 110.476 193.636 110.656 193.636 110.878C193.636 111.101 193.816 111.281 194.038 111.281Z" fill="#F7F7F8"/>
<path opacity="0.4" fill-rule="evenodd" clip-rule="evenodd" d="M159.44 118.254C159.662 118.254 159.842 118.074 159.842 117.852C159.842 117.63 159.662 117.449 159.44 117.449C159.217 117.449 159.037 117.63 159.037 117.852C159.037 118.074 159.217 118.254 159.44 118.254Z" fill="#F7F7F8"/>
<path opacity="0.4" fill-rule="evenodd" clip-rule="evenodd" d="M143.079 111.281C143.301 111.281 143.481 111.101 143.481 110.878C143.481 110.656 143.301 110.476 143.079 110.476C142.857 110.476 142.677 110.656 142.677 110.878C142.677 111.101 142.857 111.281 143.079 111.281Z" fill="#F7F7F8"/>
<path opacity="0.4" fill-rule="evenodd" clip-rule="evenodd" d="M170.436 107.526C170.658 107.526 170.839 107.346 170.839 107.124C170.839 106.901 170.658 106.721 170.436 106.721C170.214 106.721 170.034 106.901 170.034 107.124C170.034 107.346 170.214 107.526 170.436 107.526Z" fill="#F7F7F8"/>
<path opacity="0.4" fill-rule="evenodd" clip-rule="evenodd" d="M172.85 118.254C173.072 118.254 173.252 118.074 173.252 117.852C173.252 117.63 173.072 117.449 172.85 117.449C172.628 117.449 172.448 117.63 172.448 117.852C172.448 118.074 172.628 118.254 172.85 118.254Z" fill="#F7F7F8"/>
<path opacity="0.4" fill-rule="evenodd" clip-rule="evenodd" d="M156.489 111.281C156.712 111.281 156.892 111.101 156.892 110.878C156.892 110.656 156.712 110.476 156.489 110.476C156.267 110.476 156.087 110.656 156.087 110.878C156.087 111.101 156.267 111.281 156.489 111.281Z" fill="#F7F7F8"/>
<path opacity="0.4" fill-rule="evenodd" clip-rule="evenodd" d="M175.532 104.844C175.754 104.844 175.935 104.664 175.935 104.441C175.935 104.219 175.754 104.039 175.532 104.039C175.31 104.039 175.13 104.219 175.13 104.441C175.13 104.664 175.31 104.844 175.532 104.844Z" fill="#F7F7F8"/>
<path opacity="0.4" fill-rule="evenodd" clip-rule="evenodd" d="M121.891 134.346C122.113 134.346 122.293 134.166 122.293 133.944C122.293 133.722 122.113 133.542 121.891 133.542C121.669 133.542 121.489 133.722 121.489 133.944C121.489 134.166 121.669 134.346 121.891 134.346Z" fill="#F7F7F8"/>
<path opacity="0.4" fill-rule="evenodd" clip-rule="evenodd" d="M105.53 127.373C105.752 127.373 105.933 127.193 105.933 126.971C105.933 126.748 105.752 126.568 105.53 126.568C105.308 126.568 105.128 126.748 105.128 126.971C105.128 127.193 105.308 127.373 105.53 127.373Z" fill="#F7F7F8"/>
<path opacity="0.4" fill-rule="evenodd" clip-rule="evenodd" d="M159.172 135.419C159.394 135.419 159.574 135.239 159.574 135.017C159.574 134.795 159.394 134.615 159.172 134.615C158.949 134.615 158.769 134.795 158.769 135.017C158.769 135.239 158.949 135.419 159.172 135.419Z" fill="#F7F7F8"/>
<path opacity="0.4" fill-rule="evenodd" clip-rule="evenodd" d="M124.573 142.393C124.795 142.393 124.975 142.212 124.975 141.99C124.975 141.768 124.795 141.588 124.573 141.588C124.351 141.588 124.171 141.768 124.171 141.99C124.171 142.212 124.351 142.393 124.573 142.393Z" fill="#F7F7F8"/>
<path opacity="0.4" fill-rule="evenodd" clip-rule="evenodd" d="M108.212 135.419C108.435 135.419 108.615 135.239 108.615 135.017C108.615 134.795 108.435 134.615 108.212 134.615C107.99 134.615 107.81 134.795 107.81 135.017C107.81 135.239 107.99 135.419 108.212 135.419Z" fill="#F7F7F8"/>
<path opacity="0.4" fill-rule="evenodd" clip-rule="evenodd" d="M135.569 131.664C135.791 131.664 135.972 131.484 135.972 131.262C135.972 131.04 135.791 130.86 135.569 130.86C135.347 130.86 135.167 131.04 135.167 131.262C135.167 131.484 135.347 131.664 135.569 131.664Z" fill="#F7F7F8"/>
<path opacity="0.4" fill-rule="evenodd" clip-rule="evenodd" d="M137.983 142.393C138.206 142.393 138.386 142.212 138.386 141.99C138.386 141.768 138.206 141.588 137.983 141.588C137.761 141.588 137.581 141.768 137.581 141.99C137.581 142.212 137.761 142.393 137.983 142.393Z" fill="#F7F7F8"/>
<path opacity="0.4" fill-rule="evenodd" clip-rule="evenodd" d="M121.623 135.419C121.845 135.419 122.025 135.239 122.025 135.017C122.025 134.795 121.845 134.615 121.623 134.615C121.401 134.615 121.22 134.795 121.22 135.017C121.22 135.239 121.401 135.419 121.623 135.419Z" fill="#F7F7F8"/>
<path opacity="0.4" fill-rule="evenodd" clip-rule="evenodd" d="M140.665 128.982C140.887 128.982 141.068 128.802 141.068 128.58C141.068 128.358 140.887 128.178 140.665 128.178C140.443 128.178 140.263 128.358 140.263 128.58C140.263 128.802 140.443 128.982 140.665 128.982Z" fill="#F7F7F8"/>
<path opacity="0.4" fill-rule="evenodd" clip-rule="evenodd" d="M137.983 150.439C138.206 150.439 138.386 150.259 138.386 150.036C138.386 149.814 138.206 149.634 137.983 149.634C137.761 149.634 137.581 149.814 137.581 150.036C137.581 150.259 137.761 150.439 137.983 150.439Z" fill="#F7F7F8"/>
<path opacity="0.4" fill-rule="evenodd" clip-rule="evenodd" d="M121.623 143.465C121.845 143.465 122.025 143.285 122.025 143.063C122.025 142.841 121.845 142.661 121.623 142.661C121.401 142.661 121.22 142.841 121.22 143.063C121.22 143.285 121.401 143.465 121.623 143.465Z" fill="#F7F7F8"/>
<path opacity="0.4" fill-rule="evenodd" clip-rule="evenodd" d="M151.394 155.803C151.616 155.803 151.796 155.623 151.796 155.401C151.796 155.178 151.616 154.998 151.394 154.998C151.171 154.998 150.991 155.178 150.991 155.401C150.991 155.623 151.171 155.803 151.394 155.803Z" fill="#F7F7F8"/>
<path opacity="0.4" fill-rule="evenodd" clip-rule="evenodd" d="M135.033 148.83C135.255 148.83 135.435 148.649 135.435 148.427C135.435 148.205 135.255 148.025 135.033 148.025C134.811 148.025 134.631 148.205 134.631 148.427C134.631 148.649 134.811 148.83 135.033 148.83Z" fill="#F7F7F8"/>
<path opacity="0.4" fill-rule="evenodd" clip-rule="evenodd" d="M156.489 154.194C156.712 154.194 156.892 154.013 156.892 153.791C156.892 153.569 156.712 153.389 156.489 153.389C156.267 153.389 156.087 153.569 156.087 153.791C156.087 154.013 156.267 154.194 156.489 154.194Z" fill="#F7F7F8"/>
<path opacity="0.4" fill-rule="evenodd" clip-rule="evenodd" d="M183.578 161.167C183.801 161.167 183.981 160.987 183.981 160.765C183.981 160.542 183.801 160.362 183.578 160.362C183.356 160.362 183.176 160.542 183.176 160.765C183.176 160.987 183.356 161.167 183.578 161.167Z" fill="#F7F7F8"/>
<path opacity="0.4" fill-rule="evenodd" clip-rule="evenodd" d="M167.218 154.194C167.44 154.194 167.62 154.013 167.62 153.791C167.62 153.569 167.44 153.389 167.218 153.389C166.996 153.389 166.815 153.569 166.815 153.791C166.815 154.013 166.996 154.194 167.218 154.194Z" fill="#F7F7F8"/>
<path opacity="0.4" fill-rule="evenodd" clip-rule="evenodd" d="M194.575 150.439C194.797 150.439 194.977 150.259 194.977 150.036C194.977 149.814 194.797 149.634 194.575 149.634C194.352 149.634 194.172 149.814 194.172 150.036C194.172 150.259 194.352 150.439 194.575 150.439Z" fill="#F7F7F8"/>
<path opacity="0.4" fill-rule="evenodd" clip-rule="evenodd" d="M196.988 161.167C197.211 161.167 197.391 160.987 197.391 160.765C197.391 160.542 197.211 160.362 196.988 160.362C196.766 160.362 196.586 160.542 196.586 160.765C196.586 160.987 196.766 161.167 196.988 161.167Z" fill="#F7F7F8"/>
<path opacity="0.4" fill-rule="evenodd" clip-rule="evenodd" d="M180.628 154.194C180.85 154.194 181.03 154.013 181.03 153.791C181.03 153.569 180.85 153.389 180.628 153.389C180.406 153.389 180.226 153.569 180.226 153.791C180.226 154.013 180.406 154.194 180.628 154.194Z" fill="#F7F7F8"/>
<path opacity="0.4" fill-rule="evenodd" clip-rule="evenodd" d="M199.671 147.757C199.893 147.757 200.073 147.577 200.073 147.354C200.073 147.132 199.893 146.952 199.671 146.952C199.448 146.952 199.268 147.132 199.268 147.354C199.268 147.577 199.448 147.757 199.671 147.757Z" fill="#F7F7F8"/>
<path opacity="0.4" fill-rule="evenodd" clip-rule="evenodd" d="M191.624 131.664C191.847 131.664 192.027 131.484 192.027 131.262C192.027 131.04 191.847 130.86 191.624 130.86C191.402 130.86 191.222 131.04 191.222 131.262C191.222 131.484 191.402 131.664 191.624 131.664Z" fill="#F7F7F8"/>
<path opacity="0.4" fill-rule="evenodd" clip-rule="evenodd" d="M175.264 124.691C175.486 124.691 175.666 124.511 175.666 124.289C175.666 124.066 175.486 123.886 175.264 123.886C175.042 123.886 174.862 124.066 174.862 124.289C174.862 124.511 175.042 124.691 175.264 124.691Z" fill="#F7F7F8"/>
<path opacity="0.4" fill-rule="evenodd" clip-rule="evenodd" d="M205.035 137.028C205.257 137.028 205.437 136.848 205.437 136.626C205.437 136.404 205.257 136.224 205.035 136.224C204.812 136.224 204.632 136.404 204.632 136.626C204.632 136.848 204.812 137.028 205.035 137.028Z" fill="#F7F7F8"/>
<path opacity="0.4" fill-rule="evenodd" clip-rule="evenodd" d="M188.674 130.055C188.896 130.055 189.077 129.875 189.077 129.653C189.077 129.431 188.896 129.25 188.674 129.25C188.452 129.25 188.272 129.431 188.272 129.653C188.272 129.875 188.452 130.055 188.674 130.055Z" fill="#F7F7F8"/>
<path opacity="0.4" fill-rule="evenodd" clip-rule="evenodd" d="M204.767 124.691C204.989 124.691 205.169 124.511 205.169 124.289C205.169 124.066 204.989 123.886 204.767 123.886C204.544 123.886 204.364 124.066 204.364 124.289C204.364 124.511 204.544 124.691 204.767 124.691Z" fill="#F7F7F8"/>
<path opacity="0.4" fill-rule="evenodd" clip-rule="evenodd" d="M169.9 138.101C170.122 138.101 170.302 137.921 170.302 137.699C170.302 137.477 170.122 137.297 169.9 137.297C169.678 137.297 169.498 137.477 169.498 137.699C169.498 137.921 169.678 138.101 169.9 138.101Z" fill="#F7F7F8"/>
<path opacity="0.4" fill-rule="evenodd" clip-rule="evenodd" d="M191.356 140.783C191.578 140.783 191.758 140.603 191.758 140.381C191.758 140.159 191.578 139.979 191.356 139.979C191.134 139.979 190.954 140.159 190.954 140.381C190.954 140.603 191.134 140.783 191.356 140.783Z" fill="#F7F7F8"/>
<path opacity="0.4" fill-rule="evenodd" clip-rule="evenodd" d="M102.848 154.194C103.071 154.194 103.251 154.013 103.251 153.791C103.251 153.569 103.071 153.389 102.848 153.389C102.626 153.389 102.446 153.569 102.446 153.791C102.446 154.013 102.626 154.194 102.848 154.194Z" fill="#F7F7F8"/>
<path opacity="0.4" fill-rule="evenodd" clip-rule="evenodd" d="M100.434 158.485C100.656 158.485 100.837 158.305 100.837 158.082C100.837 157.86 100.656 157.68 100.434 157.68C100.212 157.68 100.032 157.86 100.032 158.082C100.032 158.305 100.212 158.485 100.434 158.485Z" fill="#F7F7F8"/>
<path opacity="0.4" fill-rule="evenodd" clip-rule="evenodd" d="M84.0739 151.512C84.2961 151.512 84.4762 151.332 84.4762 151.109C84.4762 150.887 84.2961 150.707 84.0739 150.707C83.8518 150.707 83.6716 150.887 83.6716 151.109C83.6716 151.332 83.8518 151.512 84.0739 151.512Z" fill="#F7F7F8"/>
<path opacity="0.4" fill-rule="evenodd" clip-rule="evenodd" d="M84.0739 167.604C84.2961 167.604 84.4762 167.424 84.4762 167.202C84.4762 166.979 84.2961 166.799 84.0739 166.799C83.8518 166.799 83.6716 166.979 83.6716 167.202C83.6716 167.424 83.8518 167.604 84.0739 167.604Z" fill="#F7F7F8"/>
<path opacity="0.4" fill-rule="evenodd" clip-rule="evenodd" d="M108.212 159.558C108.435 159.558 108.615 159.378 108.615 159.155C108.615 158.933 108.435 158.753 108.212 158.753C107.99 158.753 107.81 158.933 107.81 159.155C107.81 159.378 107.99 159.558 108.212 159.558Z" fill="#F7F7F8"/>
<path opacity="0.4" fill-rule="evenodd" clip-rule="evenodd" d="M87.0241 166.531C87.2463 166.531 87.4264 166.351 87.4264 166.129C87.4264 165.907 87.2463 165.727 87.0241 165.727C86.8019 165.727 86.6218 165.907 86.6218 166.129C86.6218 166.351 86.8019 166.531 87.0241 166.531Z" fill="#F7F7F8"/>
<path opacity="0.4" fill-rule="evenodd" clip-rule="evenodd" d="M89.7063 153.121C89.9285 153.121 90.1086 152.941 90.1086 152.718C90.1086 152.496 89.9285 152.316 89.7063 152.316C89.4841 152.316 89.304 152.496 89.304 152.718C89.304 152.941 89.4841 153.121 89.7063 153.121Z" fill="#F7F7F8"/>
<path opacity="0.2" fill-rule="evenodd" clip-rule="evenodd" d="M145.627 214.004C167.846 214.004 185.858 195.992 185.858 173.773C185.858 151.554 167.846 133.542 145.627 133.542C123.408 133.542 105.396 151.554 105.396 173.773C105.396 195.992 123.408 214.004 145.627 214.004Z" fill="#FCFCFC"/>
<path fill-rule="evenodd" clip-rule="evenodd" d="M83.9397 176.242C83.9397 176.242 132.694 182.99 157.428 181.203C182.162 179.416 207.314 175.219 207.314 175.219V185.574H83.9397V176.242Z" fill="#287CA6"/>
<path fill-rule="evenodd" clip-rule="evenodd" d="M149.965 170.333L152.332 185.574H140.263L142.745 169.595C142.292 169.696 141.82 169.749 141.336 169.749C137.781 169.749 134.899 166.868 134.899 163.313C134.899 163.222 134.901 163.132 134.904 163.042C132.816 162.974 131.144 161.26 131.144 159.155C131.144 157.096 132.745 155.411 134.77 155.275C134.678 154.794 134.631 154.298 134.631 153.791C134.631 149.422 138.173 145.879 142.543 145.879C146.614 145.879 149.967 148.954 150.406 152.907C151.5 152.194 152.806 151.78 154.21 151.78C158.061 151.78 161.183 154.902 161.183 158.753C161.183 161.96 159.019 164.661 156.072 165.475C156.082 165.602 156.087 165.731 156.087 165.861C156.087 168.453 153.986 170.554 151.394 170.554C150.895 170.554 150.415 170.476 149.965 170.333Z" fill="#287CA6"/>
<path fill-rule="evenodd" clip-rule="evenodd" d="M175.413 177.297C175.538 177.272 175.668 177.259 175.8 177.259C176.911 177.259 177.812 178.16 177.812 179.271C177.812 180.382 176.911 181.282 175.8 181.282C175.287 181.282 174.819 181.09 174.464 180.774C174.007 181.094 173.45 181.282 172.85 181.282C172.269 181.282 171.73 181.107 171.282 180.806C170.886 182.612 169.277 183.964 167.352 183.964C165.58 183.964 164.076 182.819 163.539 181.229C163.385 181.264 163.225 181.282 163.06 181.282C162.674 181.282 162.311 181.18 161.998 181.001C161.264 181.986 160.091 182.623 158.769 182.623C157.667 182.623 156.668 182.18 155.942 181.462C155.592 182.451 154.648 183.16 153.539 183.16C152.132 183.16 150.991 182.019 150.991 180.612C150.991 179.205 152.132 178.064 153.539 178.064C153.676 178.064 153.811 178.075 153.942 178.095C153.942 178.085 153.941 178.074 153.941 178.064C153.941 177.348 154.503 176.763 155.209 176.725C155.883 175.448 157.225 174.577 158.769 174.577C160.448 174.577 161.887 175.606 162.49 177.068C162.672 177.018 162.863 176.991 163.06 176.991C163.507 176.991 163.922 177.127 164.265 177.361C165.003 176.479 166.112 175.918 167.352 175.918C168.527 175.918 169.585 176.422 170.321 177.226C170.779 176.293 171.74 175.65 172.85 175.65C173.988 175.65 174.968 176.325 175.413 177.297V177.297Z" fill="#287CA6"/>
<path fill-rule="evenodd" clip-rule="evenodd" d="M122.776 182.727C122.37 183 121.881 183.16 121.355 183.16C120.555 183.16 119.841 182.791 119.374 182.215C118.885 182.476 118.327 182.623 117.734 182.623C115.808 182.623 114.247 181.062 114.247 179.137C114.247 177.211 115.808 175.65 117.734 175.65C119.291 175.65 120.61 176.672 121.058 178.081C121.155 178.07 121.254 178.064 121.355 178.064C121.881 178.064 122.37 178.224 122.776 178.497C123.391 177.742 124.328 177.259 125.378 177.259C126.399 177.259 127.314 177.716 127.929 178.437C128.538 176.809 130.108 175.65 131.949 175.65C132.585 175.65 133.189 175.789 133.732 176.037C134.117 175.027 135.095 174.309 136.24 174.309C137.721 174.309 138.922 175.51 138.922 176.991C138.922 176.994 138.922 176.997 138.922 177C139.011 176.994 139.1 176.991 139.19 176.991C141.412 176.991 143.213 178.792 143.213 181.014C143.213 183.236 141.412 185.037 139.19 185.037C137.474 185.037 136.009 183.963 135.431 182.45C134.652 183.53 133.382 184.233 131.949 184.233C130.419 184.233 129.076 183.432 128.316 182.227C127.746 183.263 126.644 183.965 125.378 183.965C124.328 183.965 123.391 183.482 122.776 182.727V182.727Z" fill="#287CA6"/>
</g>
<path fill-rule="evenodd" clip-rule="evenodd" d="M192.681 221.76C191.149 222.853 186.624 225 185.858 225C184.933 225 183.1 224.444 180.494 224.444H107.522C105.755 224.444 104.323 223.012 104.323 221.245C104.323 219.479 105.755 218.048 107.521 218.048C153.622 218.064 177.946 218.064 180.494 218.047C183.1 218.029 184.933 217.49 185.858 217.49C186.624 217.49 191.149 219.638 192.681 220.73C192.729 220.716 192.779 220.709 192.831 220.709H193.904C194.2 220.709 194.44 220.949 194.44 221.245C194.44 221.541 194.2 221.782 193.904 221.782H192.831C192.779 221.782 192.729 221.774 192.681 221.76V221.76Z" fill="#393E41"/>
<path fill-rule="evenodd" clip-rule="evenodd" d="M192.681 221.76C191.149 222.853 186.624 225 185.858 225C184.933 225 183.1 224.444 180.494 224.444H107.522C105.755 224.444 104.323 223.012 104.323 221.245C104.323 219.479 105.755 218.048 107.521 218.048C153.622 218.064 177.946 218.064 180.494 218.047C183.1 218.029 184.933 217.49 185.858 217.49C186.624 217.49 191.149 219.638 192.681 220.73C192.729 220.716 192.779 220.709 192.831 220.709H193.904C194.2 220.709 194.44 220.949 194.44 221.245C194.44 221.541 194.2 221.782 193.904 221.782H192.831C192.779 221.782 192.729 221.774 192.681 221.76V221.76Z" fill="url(#paint11_linear)"/>
<mask id="mask1" mask-type="alpha" maskUnits="userSpaceOnUse" x="104" y="217" width="91" height="8">
<path fill-rule="evenodd" clip-rule="evenodd" d="M192.681 221.76C191.149 222.853 186.624 225 185.858 225C184.933 225 183.1 224.444 180.494 224.444H107.522C105.755 224.444 104.323 223.012 104.323 221.245C104.323 219.479 105.755 218.048 107.521 218.048C153.622 218.064 177.946 218.064 180.494 218.047C183.1 218.029 184.933 217.49 185.858 217.49C186.624 217.49 191.149 219.638 192.681 220.73C192.729 220.716 192.779 220.709 192.831 220.709H193.904C194.2 220.709 194.44 220.949 194.44 221.245C194.44 221.541 194.2 221.782 193.904 221.782H192.831C192.779 221.782 192.729 221.774 192.681 221.76V221.76Z" fill="white"/>
<path fill-rule="evenodd" clip-rule="evenodd" d="M192.681 221.76C191.149 222.853 186.624 225 185.858 225C184.933 225 183.1 224.444 180.494 224.444H107.522C105.755 224.444 104.323 223.012 104.323 221.245C104.323 219.479 105.755 218.048 107.521 218.048C153.622 218.064 177.946 218.064 180.494 218.047C183.1 218.029 184.933 217.49 185.858 217.49C186.624 217.49 191.149 219.638 192.681 220.73C192.729 220.716 192.779 220.709 192.831 220.709H193.904C194.2 220.709 194.44 220.949 194.44 221.245C194.44 221.541 194.2 221.782 193.904 221.782H192.831C192.779 221.782 192.729 221.774 192.681 221.76V221.76Z" stroke="white"/>
</mask>
<g mask="url(#mask1)">
<path d="M185.184 226.905L184.922 226.849C185.355 224.816 185.456 223.412 185.456 221.245C185.456 219.078 185.355 217.674 184.922 215.641L185.184 215.585C185.622 217.64 185.724 219.061 185.724 221.245C185.724 223.429 185.622 224.85 185.184 226.905Z" fill="#272B2C"/>
</g>
<rect x="110.76" y="220.172" width="12.3375" height="2.14565" rx="1.07282" fill="#4E5458"/>
<rect x="157.16" y="219.904" width="15.8242" height="2.68206" rx="1.34103" fill="#393E41"/>
<rect x="157.16" y="219.904" width="15.8242" height="2.68206" rx="1.34103" fill="url(#paint12_linear)"/>
<rect x="157.66" y="220.404" width="14.8242" height="1.68206" rx="0.84103" stroke="black" stroke-opacity="0.1"/>
<rect x="164.938" y="219.904" width="0.268206" height="2.68206" fill="#272B2C"/>
</g>
<defs>
<linearGradient id="paint0_linear" x1="48" y1="196.034" x2="48" y2="206.762" gradientUnits="userSpaceOnUse">
<stop stop-color="#393E41" stop-opacity="0.01"/>
<stop offset="1" stop-opacity="0.3"/>
</linearGradient>
<linearGradient id="paint1_linear" x1="65.1652" y1="84.46" x2="48" y2="84.46" gradientUnits="userSpaceOnUse">
<stop stop-color="#393E41" stop-opacity="0.01"/>
<stop offset="1" stop-opacity="0.3"/>
</linearGradient>
<linearGradient id="paint2_linear" x1="243.254" y1="184.452" x2="251.032" y2="184.452" gradientUnits="userSpaceOnUse">
<stop stop-color="#393E41" stop-opacity="0.01"/>
<stop offset="1" stop-opacity="0.3"/>
</linearGradient>
<linearGradient id="paint3_linear" x1="261.136" y1="84.46" x2="261.136" y2="74" gradientUnits="userSpaceOnUse">
<stop stop-color="#393E41" stop-opacity="0.01"/>
<stop offset="1" stop-opacity="0.3"/>
</linearGradient>
<linearGradient id="paint4_linear" x1="49.0729" y1="118.79" x2="54.8059" y2="126.087" gradientUnits="userSpaceOnUse">
<stop stop-opacity="0.441491"/>
<stop offset="1" stop-opacity="0.01"/>
</linearGradient>
<linearGradient id="paint5_linear" x1="49.0729" y1="153.925" x2="54.8059" y2="161.222" gradientUnits="userSpaceOnUse">
<stop stop-opacity="0.441491"/>
<stop offset="1" stop-opacity="0.01"/>
</linearGradient>
<linearGradient id="paint6_linear" x1="42.0995" y1="140.247" x2="56.5826" y2="154.73" gradientUnits="userSpaceOnUse">
<stop stop-opacity="0.441491"/>
<stop offset="1" stop-opacity="0.01"/>
</linearGradient>
<linearGradient id="paint7_linear" x1="50.6821" y1="140.247" x2="56.5826" y2="146.147" gradientUnits="userSpaceOnUse">
<stop stop-opacity="0.441491"/>
<stop offset="1" stop-opacity="0.01"/>
</linearGradient>
<linearGradient id="paint8_linear" x1="49.0729" y1="126.568" x2="54.8059" y2="133.865" gradientUnits="userSpaceOnUse">
<stop stop-opacity="0.441491"/>
<stop offset="1" stop-opacity="0.01"/>
</linearGradient>
<linearGradient id="paint9_linear" x1="49.0729" y1="161.703" x2="54.8059" y2="169" gradientUnits="userSpaceOnUse">
<stop stop-opacity="0.441491"/>
<stop offset="1" stop-opacity="0.01"/>
</linearGradient>
<linearGradient id="paint10_linear" x1="83.9397" y1="101.893" x2="83.9397" y2="185.574" gradientUnits="userSpaceOnUse">
<stop stop-color="#287CA6"/>
<stop offset="1" stop-color="white"/>
</linearGradient>
<linearGradient id="paint11_linear" x1="104.323" y1="217.49" x2="104.323" y2="225" gradientUnits="userSpaceOnUse">
<stop stop-color="#393E41" stop-opacity="0.01"/>
<stop offset="1" stop-opacity="0.3"/>
</linearGradient>
<linearGradient id="paint12_linear" x1="149.248" y1="221.245" x2="150.132" y2="226.459" gradientUnits="userSpaceOnUse">
<stop stop-opacity="0.441491"/>
<stop offset="1" stop-opacity="0.01"/>
</linearGradient>
<clipPath id="clip0">
<rect width="300" height="300" fill="white"/>
</clipPath>
</defs>
</svg>
