<svg width="300" height="300" viewBox="0 0 300 300" fill="none" xmlns="http://www.w3.org/2000/svg">
<g clip-path="url(#clip0)">
<path fill-rule="evenodd" clip-rule="evenodd" d="M0 212.483C0 152.667 19.4364 127.607 67.6829 110.719C115.961 94.1044 122.359 0 185.017 0C247.849 0 330.424 167.544 288.763 263.772C247.117 360.096 131.44 228.697 93.554 272.32C55.594 315.736 0 272.133 0 212.483Z" fill="#F2F5F9"/>
<path fill-rule="evenodd" clip-rule="evenodd" d="M179.409 171.77L181.207 169.972C182 169.078 183.428 169.078 184.352 169.972L187.498 173.118L173.118 187.498L169.972 184.352C169.078 183.428 169.078 182 169.972 181.206L171.545 179.634L160.536 168.624L168.4 160.76L179.409 171.77Z" fill="#D6DFEA"/>
<path fill-rule="evenodd" clip-rule="evenodd" d="M179.409 171.77L181.207 169.972C182 169.078 183.428 169.078 184.352 169.972L187.498 173.118L173.118 187.498L169.972 184.352C169.078 183.428 169.078 182 169.972 181.206L171.545 179.634L160.536 168.624L168.4 160.76L179.409 171.77Z" fill="url(#paint0_linear)"/>
<path fill-rule="evenodd" clip-rule="evenodd" d="M173.118 187.498L187.498 173.118L217.83 203.45C221.739 207.431 221.739 213.837 217.83 217.83C213.837 221.739 207.431 221.739 203.45 217.83L173.118 187.498Z" fill="#282828"/>
<path fill-rule="evenodd" clip-rule="evenodd" d="M173.118 187.498L187.498 173.118L217.83 203.45C221.739 207.431 221.739 213.837 217.83 217.83C213.837 221.739 207.431 221.739 203.45 217.83L173.118 187.498Z" fill="url(#paint1_linear)"/>
<path fill-rule="evenodd" clip-rule="evenodd" d="M78.7507 129.305C78.7507 157.225 101.384 179.858 129.305 179.858C157.225 179.858 179.858 157.225 179.858 129.305C179.858 101.384 157.225 78.7507 129.305 78.7507C101.384 78.7507 78.7507 101.384 78.7507 129.305ZM170.871 129.304C170.871 152.261 152.261 170.871 129.305 170.871C106.348 170.871 87.7381 152.261 87.7381 129.304C87.7381 106.348 106.348 87.738 129.305 87.738C152.261 87.738 170.871 106.348 170.871 129.304Z" fill="#282828"/>
<path fill-rule="evenodd" clip-rule="evenodd" d="M78.7507 129.305C78.7507 157.225 101.384 179.858 129.305 179.858C157.225 179.858 179.858 157.225 179.858 129.305C179.858 101.384 157.225 78.7507 129.305 78.7507C101.384 78.7507 78.7507 101.384 78.7507 129.305ZM170.871 129.304C170.871 152.261 152.261 170.871 129.305 170.871C106.348 170.871 87.7381 152.261 87.7381 129.304C87.7381 106.348 106.348 87.738 129.305 87.738C152.261 87.738 170.871 106.348 170.871 129.304Z" fill="url(#paint2_linear)"/>
<path opacity="0.3" d="M130.316 95.3774C132.239 95.3774 133.798 96.9367 133.798 98.86C133.798 100.783 132.239 102.343 130.316 102.343C114.867 102.343 102.343 114.867 102.343 130.316C102.343 132.239 100.783 133.798 98.86 133.798C96.9367 133.798 95.3774 132.239 95.3774 130.316C95.3774 111.02 111.02 95.3774 130.316 95.3774Z" fill="white"/>
<path fill-rule="evenodd" clip-rule="evenodd" d="M129.304 168.624C151.02 168.624 168.624 151.02 168.624 129.304C168.624 107.589 151.02 89.9849 129.304 89.9849C107.589 89.9849 89.9849 107.589 89.9849 129.304C89.9849 151.02 107.589 168.624 129.304 168.624Z" fill="url(#paint3_linear)"/>
<path fill-rule="evenodd" clip-rule="evenodd" d="M87.738 129.304C87.738 152.261 106.348 170.871 129.304 170.871C152.261 170.871 170.871 152.261 170.871 129.304C170.871 106.348 152.261 87.738 129.304 87.738C106.348 87.738 87.738 106.348 87.738 129.304ZM168.624 129.305C168.624 151.02 151.02 168.624 129.305 168.624C107.589 168.624 89.985 151.02 89.985 129.305C89.985 107.589 107.589 89.985 129.305 89.985C151.02 89.985 168.624 107.589 168.624 129.305Z" fill="#6F7981"/>
<path fill-rule="evenodd" clip-rule="evenodd" d="M87.738 129.304C87.738 152.261 106.348 170.871 129.304 170.871C152.261 170.871 170.871 152.261 170.871 129.304C170.871 106.348 152.261 87.738 129.304 87.738C106.348 87.738 87.738 106.348 87.738 129.304ZM168.624 129.305C168.624 151.02 151.02 168.624 129.305 168.624C107.589 168.624 89.985 151.02 89.985 129.305C89.985 107.589 107.589 89.985 129.305 89.985C151.02 89.985 168.624 107.589 168.624 129.305Z" fill="url(#paint4_linear)"/>
</g>
<defs>
<linearGradient id="paint0_linear" x1="160.536" y1="160.76" x2="160.536" y2="187.498" gradientUnits="userSpaceOnUse">
<stop stop-color="#D6DFEA" stop-opacity="0.01"/>
<stop offset="1" stop-opacity="0.1"/>
</linearGradient>
<linearGradient id="paint1_linear" x1="212.825" y1="220.751" x2="212.825" y2="173.118" gradientUnits="userSpaceOnUse">
<stop stop-opacity="0.5"/>
<stop offset="1" stop-opacity="0.01"/>
</linearGradient>
<linearGradient id="paint2_linear" x1="179.858" y1="179.858" x2="179.858" y2="78.7507" gradientUnits="userSpaceOnUse">
<stop stop-opacity="0.5"/>
<stop offset="1" stop-opacity="0.01"/>
</linearGradient>
<linearGradient id="paint3_linear" x1="89.9849" y1="89.9849" x2="89.9849" y2="168.624" gradientUnits="userSpaceOnUse">
<stop stop-color="#4DB2DD"/>
<stop offset="1" stop-color="#A9A9A9" stop-opacity="0.01"/>
</linearGradient>
<linearGradient id="paint4_linear" x1="170.871" y1="170.871" x2="170.871" y2="87.738" gradientUnits="userSpaceOnUse">
<stop stop-opacity="0.3"/>
<stop offset="1" stop-color="#6F7981" stop-opacity="0.01"/>
</linearGradient>
<clipPath id="clip0">
<rect width="300" height="300" fill="white"/>
</clipPath>
</defs>
</svg>
