<svg width="362" height="399" viewBox="0 0 362 399" fill="none" xmlns="http://www.w3.org/2000/svg">
<path fill-rule="evenodd" clip-rule="evenodd" d="M40.2829 371.954C-7.93529 323.736 -9.62818 285.027 22.701 225.472C55.2796 166.107 -14.4853 84.1564 45.1804 24.4906C105.011 -35.3401 318.699 21.0862 356.598 138.327C394.588 255.631 178.515 259.862 177.603 331.103C176.454 402.248 88.3671 420.038 40.2829 371.954Z" fill="#F2F5F9"/>
<path d="M139.583 282.399L134.195 299.751H131.279L127.487 287.895C127.383 287.607 127.287 287.255 127.199 286.839C127.151 287.039 127.103 287.227 127.055 287.403C127.007 287.579 126.955 287.743 126.899 287.895L123.071 299.751H120.143L114.767 282.399H117.467C117.747 282.399 117.979 282.467 118.163 282.603C118.355 282.731 118.483 282.907 118.547 283.131L121.499 293.511C121.563 293.767 121.623 294.047 121.679 294.351C121.743 294.647 121.807 294.959 121.871 295.287C121.935 294.951 122.003 294.635 122.075 294.339C122.155 294.043 122.239 293.767 122.327 293.511L125.735 283.131C125.799 282.947 125.923 282.779 126.107 282.627C126.299 282.475 126.531 282.399 126.803 282.399H127.751C128.031 282.399 128.259 282.467 128.435 282.603C128.611 282.739 128.743 282.915 128.831 283.131L132.227 293.511C132.395 294.007 132.547 294.579 132.683 295.227C132.787 294.595 132.903 294.023 133.031 293.511L135.983 283.131C136.031 282.931 136.151 282.759 136.343 282.615C136.543 282.471 136.779 282.399 137.051 282.399H139.583ZM147.725 292.179C147.725 291.795 147.669 291.435 147.557 291.099C147.453 290.755 147.293 290.455 147.077 290.199C146.861 289.943 146.585 289.743 146.249 289.599C145.921 289.447 145.537 289.371 145.097 289.371C144.241 289.371 143.565 289.615 143.069 290.103C142.581 290.591 142.269 291.283 142.133 292.179H147.725ZM142.073 293.967C142.121 294.599 142.233 295.147 142.409 295.611C142.585 296.067 142.817 296.447 143.105 296.751C143.393 297.047 143.733 297.271 144.125 297.423C144.525 297.567 144.965 297.639 145.445 297.639C145.925 297.639 146.337 297.583 146.681 297.471C147.033 297.359 147.337 297.235 147.593 297.099C147.857 296.963 148.085 296.839 148.277 296.727C148.477 296.615 148.669 296.559 148.853 296.559C149.101 296.559 149.285 296.651 149.405 296.835L150.257 297.915C149.929 298.299 149.561 298.623 149.153 298.887C148.745 299.143 148.317 299.351 147.869 299.511C147.429 299.663 146.977 299.771 146.513 299.835C146.057 299.899 145.613 299.931 145.181 299.931C144.325 299.931 143.529 299.791 142.793 299.511C142.057 299.223 141.417 298.803 140.873 298.251C140.329 297.691 139.901 297.003 139.589 296.187C139.277 295.363 139.121 294.411 139.121 293.331C139.121 292.491 139.257 291.703 139.529 290.967C139.801 290.223 140.189 289.579 140.693 289.035C141.205 288.483 141.825 288.047 142.553 287.727C143.289 287.407 144.117 287.247 145.037 287.247C145.813 287.247 146.529 287.371 147.185 287.619C147.841 287.867 148.405 288.231 148.877 288.711C149.349 289.183 149.717 289.767 149.981 290.463C150.253 291.151 150.389 291.939 150.389 292.827C150.389 293.275 150.341 293.579 150.245 293.739C150.149 293.891 149.965 293.967 149.693 293.967H142.073ZM161.245 289.575C161.629 288.839 162.085 288.263 162.613 287.847C163.141 287.423 163.765 287.211 164.485 287.211C165.053 287.211 165.509 287.335 165.853 287.583L165.661 289.803C165.621 289.947 165.561 290.051 165.481 290.115C165.409 290.171 165.309 290.199 165.181 290.199C165.061 290.199 164.881 290.179 164.641 290.139C164.409 290.099 164.181 290.079 163.957 290.079C163.629 290.079 163.337 290.127 163.081 290.223C162.825 290.319 162.593 290.459 162.385 290.643C162.185 290.819 162.005 291.035 161.845 291.291C161.693 291.547 161.549 291.839 161.413 292.167V299.751H158.449V287.439H160.189C160.493 287.439 160.705 287.495 160.825 287.607C160.945 287.711 161.025 287.903 161.065 288.183L161.245 289.575ZM174.983 292.179C174.983 291.795 174.927 291.435 174.815 291.099C174.711 290.755 174.551 290.455 174.335 290.199C174.119 289.943 173.843 289.743 173.507 289.599C173.179 289.447 172.795 289.371 172.355 289.371C171.499 289.371 170.823 289.615 170.327 290.103C169.839 290.591 169.527 291.283 169.391 292.179H174.983ZM169.331 293.967C169.379 294.599 169.491 295.147 169.667 295.611C169.843 296.067 170.075 296.447 170.363 296.751C170.651 297.047 170.991 297.271 171.383 297.423C171.783 297.567 172.223 297.639 172.703 297.639C173.183 297.639 173.595 297.583 173.939 297.471C174.291 297.359 174.595 297.235 174.851 297.099C175.115 296.963 175.343 296.839 175.535 296.727C175.735 296.615 175.927 296.559 176.111 296.559C176.359 296.559 176.543 296.651 176.663 296.835L177.515 297.915C177.187 298.299 176.819 298.623 176.411 298.887C176.003 299.143 175.575 299.351 175.127 299.511C174.687 299.663 174.235 299.771 173.771 299.835C173.315 299.899 172.871 299.931 172.439 299.931C171.583 299.931 170.787 299.791 170.051 299.511C169.315 299.223 168.675 298.803 168.131 298.251C167.587 297.691 167.159 297.003 166.847 296.187C166.535 295.363 166.379 294.411 166.379 293.331C166.379 292.491 166.515 291.703 166.787 290.967C167.059 290.223 167.447 289.579 167.951 289.035C168.463 288.483 169.083 288.047 169.811 287.727C170.547 287.407 171.375 287.247 172.295 287.247C173.071 287.247 173.787 287.371 174.443 287.619C175.099 287.867 175.663 288.231 176.135 288.711C176.607 289.183 176.975 289.767 177.239 290.463C177.511 291.151 177.647 291.939 177.647 292.827C177.647 293.275 177.599 293.579 177.503 293.739C177.407 293.891 177.223 293.967 176.951 293.967H169.331ZM190.666 287.439L185.782 299.751H183.094L178.21 287.439H180.658C180.882 287.439 181.066 287.491 181.21 287.595C181.362 287.699 181.462 287.831 181.51 287.991L183.886 294.567C184.014 294.951 184.126 295.327 184.222 295.695C184.318 296.063 184.402 296.431 184.474 296.799C184.554 296.431 184.642 296.063 184.738 295.695C184.834 295.327 184.95 294.951 185.086 294.567L187.51 287.991C187.566 287.831 187.666 287.699 187.81 287.595C187.954 287.491 188.126 287.439 188.326 287.439H190.666ZM195.318 287.439V299.751H192.342V287.439H195.318ZM195.726 283.851C195.726 284.107 195.674 284.347 195.57 284.571C195.466 284.795 195.326 284.991 195.15 285.159C194.982 285.327 194.782 285.463 194.55 285.567C194.318 285.663 194.07 285.711 193.806 285.711C193.55 285.711 193.306 285.663 193.074 285.567C192.85 285.463 192.654 285.327 192.486 285.159C192.318 284.991 192.182 284.795 192.078 284.571C191.982 284.347 191.934 284.107 191.934 283.851C191.934 283.587 191.982 283.339 192.078 283.107C192.182 282.875 192.318 282.675 192.486 282.507C192.654 282.339 192.85 282.207 193.074 282.111C193.306 282.007 193.55 281.955 193.806 281.955C194.07 281.955 194.318 282.007 194.55 282.111C194.782 282.207 194.982 282.339 195.15 282.507C195.326 282.675 195.466 282.875 195.57 283.107C195.674 283.339 195.726 283.587 195.726 283.851ZM205.852 289.839C205.772 289.967 205.688 290.059 205.6 290.115C205.512 290.163 205.4 290.187 205.264 290.187C205.12 290.187 204.964 290.147 204.796 290.067C204.636 289.987 204.448 289.899 204.232 289.803C204.016 289.699 203.768 289.607 203.488 289.527C203.216 289.447 202.892 289.407 202.516 289.407C201.932 289.407 201.472 289.531 201.136 289.779C200.808 290.027 200.644 290.351 200.644 290.751C200.644 291.015 200.728 291.239 200.896 291.423C201.072 291.599 201.3 291.755 201.58 291.891C201.868 292.027 202.192 292.151 202.552 292.263C202.912 292.367 203.276 292.483 203.644 292.611C204.02 292.739 204.388 292.887 204.748 293.055C205.108 293.215 205.428 293.423 205.708 293.679C205.996 293.927 206.224 294.227 206.392 294.579C206.568 294.931 206.656 295.355 206.656 295.851C206.656 296.443 206.548 296.991 206.332 297.495C206.124 297.991 205.812 298.423 205.396 298.791C204.98 299.151 204.464 299.435 203.848 299.643C203.24 299.843 202.536 299.943 201.736 299.943C201.312 299.943 200.896 299.903 200.488 299.823C200.088 299.751 199.7 299.647 199.324 299.511C198.956 299.375 198.612 299.215 198.292 299.031C197.98 298.847 197.704 298.647 197.464 298.431L198.148 297.303C198.236 297.167 198.34 297.063 198.46 296.991C198.58 296.919 198.732 296.883 198.916 296.883C199.1 296.883 199.272 296.935 199.432 297.039C199.6 297.143 199.792 297.255 200.008 297.375C200.224 297.495 200.476 297.607 200.764 297.711C201.06 297.815 201.432 297.867 201.88 297.867C202.232 297.867 202.532 297.827 202.78 297.747C203.036 297.659 203.244 297.547 203.404 297.411C203.572 297.275 203.692 297.119 203.764 296.943C203.844 296.759 203.884 296.571 203.884 296.379C203.884 296.091 203.796 295.855 203.62 295.671C203.452 295.487 203.224 295.327 202.936 295.191C202.656 295.055 202.332 294.935 201.964 294.831C201.604 294.719 201.232 294.599 200.848 294.471C200.472 294.343 200.1 294.195 199.732 294.027C199.372 293.851 199.048 293.631 198.76 293.367C198.48 293.103 198.252 292.779 198.076 292.395C197.908 292.011 197.824 291.547 197.824 291.003C197.824 290.499 197.924 290.019 198.124 289.563C198.324 289.107 198.616 288.711 199 288.375C199.392 288.031 199.876 287.759 200.452 287.559C201.036 287.351 201.708 287.247 202.468 287.247C203.316 287.247 204.088 287.387 204.784 287.667C205.48 287.947 206.06 288.315 206.524 288.771L205.852 289.839ZM216.819 292.179C216.819 291.795 216.763 291.435 216.651 291.099C216.547 290.755 216.387 290.455 216.171 290.199C215.955 289.943 215.679 289.743 215.343 289.599C215.015 289.447 214.631 289.371 214.191 289.371C213.335 289.371 212.659 289.615 212.163 290.103C211.675 290.591 211.363 291.283 211.227 292.179H216.819ZM211.167 293.967C211.215 294.599 211.327 295.147 211.503 295.611C211.679 296.067 211.911 296.447 212.199 296.751C212.487 297.047 212.827 297.271 213.219 297.423C213.619 297.567 214.059 297.639 214.539 297.639C215.019 297.639 215.431 297.583 215.775 297.471C216.127 297.359 216.431 297.235 216.687 297.099C216.951 296.963 217.179 296.839 217.371 296.727C217.571 296.615 217.763 296.559 217.947 296.559C218.195 296.559 218.379 296.651 218.499 296.835L219.351 297.915C219.023 298.299 218.655 298.623 218.247 298.887C217.839 299.143 217.411 299.351 216.963 299.511C216.523 299.663 216.071 299.771 215.607 299.835C215.151 299.899 214.707 299.931 214.275 299.931C213.419 299.931 212.623 299.791 211.887 299.511C211.151 299.223 210.511 298.803 209.967 298.251C209.423 297.691 208.995 297.003 208.683 296.187C208.371 295.363 208.215 294.411 208.215 293.331C208.215 292.491 208.351 291.703 208.623 290.967C208.895 290.223 209.283 289.579 209.787 289.035C210.299 288.483 210.919 288.047 211.647 287.727C212.383 287.407 213.211 287.247 214.131 287.247C214.907 287.247 215.623 287.371 216.279 287.619C216.935 287.867 217.499 288.231 217.971 288.711C218.443 289.183 218.811 289.767 219.075 290.463C219.347 291.151 219.483 291.939 219.483 292.827C219.483 293.275 219.435 293.579 219.339 293.739C219.243 293.891 219.059 293.967 218.787 293.967H211.167Z" fill="black"/>
<path d="M221.275 298.119C221.275 297.871 221.319 297.635 221.407 297.411C221.503 297.187 221.631 296.995 221.791 296.835C221.951 296.675 222.143 296.547 222.367 296.451C222.591 296.355 222.831 296.307 223.087 296.307C223.343 296.307 223.579 296.355 223.795 296.451C224.019 296.547 224.211 296.675 224.371 296.835C224.539 296.995 224.671 297.187 224.767 297.411C224.863 297.635 224.911 297.871 224.911 298.119C224.911 298.375 224.863 298.615 224.767 298.839C224.671 299.055 224.539 299.243 224.371 299.403C224.211 299.563 224.019 299.687 223.795 299.775C223.579 299.871 223.343 299.919 223.087 299.919C222.831 299.919 222.591 299.871 222.367 299.775C222.143 299.687 221.951 299.563 221.791 299.403C221.631 299.243 221.503 299.055 221.407 298.839C221.319 298.615 221.275 298.375 221.275 298.119Z" fill="#4DB2DD"/>
<path fill-rule="evenodd" clip-rule="evenodd" d="M189.409 188.77L191.207 186.972C192 186.078 193.428 186.078 194.352 186.972L197.498 190.118L183.118 204.498L179.972 201.352C179.078 200.428 179.078 199 179.972 198.206L181.545 196.634L170.536 185.624L178.4 177.76L189.409 188.77Z" fill="#D6DFEA"/>
<path fill-rule="evenodd" clip-rule="evenodd" d="M189.409 188.77L191.207 186.972C192 186.078 193.428 186.078 194.352 186.972L197.498 190.118L183.118 204.498L179.972 201.352C179.078 200.428 179.078 199 179.972 198.206L181.545 196.634L170.536 185.624L178.4 177.76L189.409 188.77Z" fill="url(#paint0_linear)"/>
<path fill-rule="evenodd" clip-rule="evenodd" d="M183.118 204.498L197.498 190.118L227.83 220.45C231.739 224.431 231.739 230.837 227.83 234.83C223.837 238.739 217.431 238.739 213.45 234.83L183.118 204.498Z" fill="#282828"/>
<path fill-rule="evenodd" clip-rule="evenodd" d="M183.118 204.498L197.498 190.118L227.83 220.45C231.739 224.431 231.739 230.837 227.83 234.83C223.837 238.739 217.431 238.739 213.45 234.83L183.118 204.498Z" fill="url(#paint1_linear)"/>
<path fill-rule="evenodd" clip-rule="evenodd" d="M88.7509 146.305C88.7509 174.225 111.385 196.858 139.305 196.858C167.225 196.858 189.858 174.225 189.858 146.305C189.858 118.384 167.225 95.7507 139.305 95.7507C111.385 95.7507 88.7509 118.384 88.7509 146.305ZM180.871 146.304C180.871 169.261 162.261 187.871 139.305 187.871C116.348 187.871 97.7382 169.261 97.7382 146.304C97.7382 123.348 116.348 104.738 139.305 104.738C162.261 104.738 180.871 123.348 180.871 146.304Z" fill="#282828"/>
<path fill-rule="evenodd" clip-rule="evenodd" d="M88.7509 146.305C88.7509 174.225 111.385 196.858 139.305 196.858C167.225 196.858 189.858 174.225 189.858 146.305C189.858 118.384 167.225 95.7507 139.305 95.7507C111.385 95.7507 88.7509 118.384 88.7509 146.305ZM180.871 146.304C180.871 169.261 162.261 187.871 139.305 187.871C116.348 187.871 97.7382 169.261 97.7382 146.304C97.7382 123.348 116.348 104.738 139.305 104.738C162.261 104.738 180.871 123.348 180.871 146.304Z" fill="url(#paint2_linear)"/>
<path opacity="0.3" d="M140.316 112.377C142.239 112.377 143.798 113.937 143.798 115.86C143.798 117.783 142.239 119.343 140.316 119.343C124.867 119.343 112.343 131.867 112.343 147.316C112.343 149.239 110.783 150.798 108.86 150.798C106.937 150.798 105.377 149.239 105.377 147.316C105.377 128.02 121.02 112.377 140.316 112.377Z" fill="white"/>
<path fill-rule="evenodd" clip-rule="evenodd" d="M139.305 185.624C161.02 185.624 178.624 168.02 178.624 146.304C178.624 124.589 161.02 106.985 139.305 106.985C117.589 106.985 99.9851 124.589 99.9851 146.304C99.9851 168.02 117.589 185.624 139.305 185.624Z" fill="url(#paint3_linear)"/>
<path fill-rule="evenodd" clip-rule="evenodd" d="M97.7382 146.304C97.7382 169.261 116.348 187.871 139.305 187.871C162.261 187.871 180.871 169.261 180.871 146.304C180.871 123.348 162.261 104.738 139.305 104.738C116.348 104.738 97.7382 123.348 97.7382 146.304ZM178.624 146.305C178.624 168.02 161.02 185.624 139.305 185.624C117.589 185.624 99.9851 168.02 99.9851 146.305C99.9851 124.589 117.589 106.985 139.305 106.985C161.02 106.985 178.624 124.589 178.624 146.305Z" fill="#6F7981"/>
<path fill-rule="evenodd" clip-rule="evenodd" d="M97.7382 146.304C97.7382 169.261 116.348 187.871 139.305 187.871C162.261 187.871 180.871 169.261 180.871 146.304C180.871 123.348 162.261 104.738 139.305 104.738C116.348 104.738 97.7382 123.348 97.7382 146.304ZM178.624 146.305C178.624 168.02 161.02 185.624 139.305 185.624C117.589 185.624 99.9851 168.02 99.9851 146.305C99.9851 124.589 117.589 106.985 139.305 106.985C161.02 106.985 178.624 124.589 178.624 146.305Z" fill="url(#paint4_linear)"/>
<defs>
<linearGradient id="paint0_linear" x1="170.536" y1="177.76" x2="170.536" y2="204.498" gradientUnits="userSpaceOnUse">
<stop stop-color="#D6DFEA" stop-opacity="0.01"/>
<stop offset="1" stop-opacity="0.1"/>
</linearGradient>
<linearGradient id="paint1_linear" x1="222.825" y1="237.751" x2="222.825" y2="190.118" gradientUnits="userSpaceOnUse">
<stop stop-opacity="0.5"/>
<stop offset="1" stop-opacity="0.01"/>
</linearGradient>
<linearGradient id="paint2_linear" x1="189.858" y1="196.858" x2="189.858" y2="95.7507" gradientUnits="userSpaceOnUse">
<stop stop-opacity="0.5"/>
<stop offset="1" stop-opacity="0.01"/>
</linearGradient>
<linearGradient id="paint3_linear" x1="99.9851" y1="106.985" x2="99.9851" y2="185.624" gradientUnits="userSpaceOnUse">
<stop stop-color="#4DB2DD"/>
<stop offset="1" stop-color="#A9A9A9" stop-opacity="0.01"/>
</linearGradient>
<linearGradient id="paint4_linear" x1="180.871" y1="187.871" x2="180.871" y2="104.738" gradientUnits="userSpaceOnUse">
<stop stop-opacity="0.3"/>
<stop offset="1" stop-color="#6F7981" stop-opacity="0.01"/>
</linearGradient>
</defs>
</svg>
