<svg width="399" height="376" viewBox="0 0 399 376" fill="none" xmlns="http://www.w3.org/2000/svg">
<path fill-rule="evenodd" clip-rule="evenodd" d="M388.613 62.4601C410.562 127.022 394.976 162.495 339.658 201.635C284.2 240.494 310.572 344.837 230.683 371.996C150.572 399.231 -16.1882 254.188 1.62032 132.267C19.3748 10.2501 215.077 101.933 247.376 38.4271C279.844 -24.8873 366.726 -1.92239 388.613 62.4601Z" fill="#F2F5F9"/>
<path d="M147.586 266.648L142.198 284H139.282L135.49 272.144C135.386 271.856 135.29 271.504 135.202 271.088C135.154 271.288 135.106 271.476 135.058 271.652C135.01 271.828 134.958 271.992 134.902 272.144L131.074 284H128.146L122.77 266.648H125.47C125.75 266.648 125.982 266.716 126.166 266.852C126.358 266.98 126.486 267.156 126.55 267.38L129.502 277.76C129.566 278.016 129.626 278.296 129.682 278.6C129.746 278.896 129.81 279.208 129.874 279.536C129.938 279.2 130.006 278.884 130.078 278.588C130.158 278.292 130.242 278.016 130.33 277.76L133.738 267.38C133.802 267.196 133.926 267.028 134.11 266.876C134.302 266.724 134.534 266.648 134.806 266.648H135.754C136.034 266.648 136.262 266.716 136.438 266.852C136.614 266.988 136.746 267.164 136.834 267.38L140.23 277.76C140.398 278.256 140.55 278.828 140.686 279.476C140.79 278.844 140.906 278.272 141.034 277.76L143.986 267.38C144.034 267.18 144.154 267.008 144.346 266.864C144.546 266.72 144.782 266.648 145.054 266.648H147.586ZM155.728 276.428C155.728 276.044 155.672 275.684 155.56 275.348C155.456 275.004 155.296 274.704 155.08 274.448C154.864 274.192 154.588 273.992 154.252 273.848C153.924 273.696 153.54 273.62 153.1 273.62C152.244 273.62 151.568 273.864 151.072 274.352C150.584 274.84 150.272 275.532 150.136 276.428H155.728ZM150.076 278.216C150.124 278.848 150.236 279.396 150.412 279.86C150.588 280.316 150.82 280.696 151.108 281C151.396 281.296 151.736 281.52 152.128 281.672C152.528 281.816 152.968 281.888 153.448 281.888C153.928 281.888 154.34 281.832 154.684 281.72C155.036 281.608 155.34 281.484 155.596 281.348C155.86 281.212 156.088 281.088 156.28 280.976C156.48 280.864 156.672 280.808 156.856 280.808C157.104 280.808 157.288 280.9 157.408 281.084L158.26 282.164C157.932 282.548 157.564 282.872 157.156 283.136C156.748 283.392 156.32 283.6 155.872 283.76C155.432 283.912 154.98 284.02 154.516 284.084C154.06 284.148 153.616 284.18 153.184 284.18C152.328 284.18 151.532 284.04 150.796 283.76C150.06 283.472 149.42 283.052 148.876 282.5C148.332 281.94 147.904 281.252 147.592 280.436C147.28 279.612 147.124 278.66 147.124 277.58C147.124 276.74 147.26 275.952 147.532 275.216C147.804 274.472 148.192 273.828 148.696 273.284C149.208 272.732 149.828 272.296 150.556 271.976C151.292 271.656 152.12 271.496 153.04 271.496C153.816 271.496 154.532 271.62 155.188 271.868C155.844 272.116 156.408 272.48 156.88 272.96C157.352 273.432 157.72 274.016 157.984 274.712C158.256 275.4 158.392 276.188 158.392 277.076C158.392 277.524 158.344 277.828 158.248 277.988C158.152 278.14 157.968 278.216 157.696 278.216H150.076ZM169.248 273.824C169.632 273.088 170.088 272.512 170.616 272.096C171.144 271.672 171.768 271.46 172.488 271.46C173.056 271.46 173.512 271.584 173.856 271.832L173.664 274.052C173.624 274.196 173.564 274.3 173.484 274.364C173.412 274.42 173.312 274.448 173.184 274.448C173.064 274.448 172.884 274.428 172.644 274.388C172.412 274.348 172.184 274.328 171.96 274.328C171.632 274.328 171.34 274.376 171.084 274.472C170.828 274.568 170.596 274.708 170.388 274.892C170.188 275.068 170.008 275.284 169.848 275.54C169.696 275.796 169.552 276.088 169.416 276.416V284H166.452V271.688H168.192C168.496 271.688 168.708 271.744 168.828 271.856C168.948 271.96 169.028 272.152 169.068 272.432L169.248 273.824ZM182.986 276.428C182.986 276.044 182.93 275.684 182.818 275.348C182.714 275.004 182.554 274.704 182.338 274.448C182.122 274.192 181.846 273.992 181.51 273.848C181.182 273.696 180.798 273.62 180.358 273.62C179.502 273.62 178.826 273.864 178.33 274.352C177.842 274.84 177.53 275.532 177.394 276.428H182.986ZM177.334 278.216C177.382 278.848 177.494 279.396 177.67 279.86C177.846 280.316 178.078 280.696 178.366 281C178.654 281.296 178.994 281.52 179.386 281.672C179.786 281.816 180.226 281.888 180.706 281.888C181.186 281.888 181.598 281.832 181.942 281.72C182.294 281.608 182.598 281.484 182.854 281.348C183.118 281.212 183.346 281.088 183.538 280.976C183.738 280.864 183.93 280.808 184.114 280.808C184.362 280.808 184.546 280.9 184.666 281.084L185.518 282.164C185.19 282.548 184.822 282.872 184.414 283.136C184.006 283.392 183.578 283.6 183.13 283.76C182.69 283.912 182.238 284.02 181.774 284.084C181.318 284.148 180.874 284.18 180.442 284.18C179.586 284.18 178.79 284.04 178.054 283.76C177.318 283.472 176.678 283.052 176.134 282.5C175.59 281.94 175.162 281.252 174.85 280.436C174.538 279.612 174.382 278.66 174.382 277.58C174.382 276.74 174.518 275.952 174.79 275.216C175.062 274.472 175.45 273.828 175.954 273.284C176.466 272.732 177.086 272.296 177.814 271.976C178.55 271.656 179.378 271.496 180.298 271.496C181.074 271.496 181.79 271.62 182.446 271.868C183.102 272.116 183.666 272.48 184.138 272.96C184.61 273.432 184.978 274.016 185.242 274.712C185.514 275.4 185.65 276.188 185.65 277.076C185.65 277.524 185.602 277.828 185.506 277.988C185.41 278.14 185.226 278.216 184.954 278.216H177.334ZM190.874 266.168V284H187.91V266.168H190.874ZM201.759 276.428C201.759 276.044 201.703 275.684 201.591 275.348C201.487 275.004 201.327 274.704 201.111 274.448C200.895 274.192 200.619 273.992 200.283 273.848C199.955 273.696 199.571 273.62 199.131 273.62C198.275 273.62 197.599 273.864 197.103 274.352C196.615 274.84 196.303 275.532 196.167 276.428H201.759ZM196.107 278.216C196.155 278.848 196.267 279.396 196.443 279.86C196.619 280.316 196.851 280.696 197.139 281C197.427 281.296 197.767 281.52 198.159 281.672C198.559 281.816 198.999 281.888 199.479 281.888C199.959 281.888 200.371 281.832 200.715 281.72C201.067 281.608 201.371 281.484 201.627 281.348C201.891 281.212 202.119 281.088 202.311 280.976C202.511 280.864 202.703 280.808 202.887 280.808C203.135 280.808 203.319 280.9 203.439 281.084L204.291 282.164C203.963 282.548 203.595 282.872 203.187 283.136C202.779 283.392 202.351 283.6 201.903 283.76C201.463 283.912 201.011 284.02 200.547 284.084C200.091 284.148 199.647 284.18 199.215 284.18C198.359 284.18 197.563 284.04 196.827 283.76C196.091 283.472 195.451 283.052 194.907 282.5C194.363 281.94 193.935 281.252 193.623 280.436C193.311 279.612 193.155 278.66 193.155 277.58C193.155 276.74 193.291 275.952 193.563 275.216C193.835 274.472 194.223 273.828 194.727 273.284C195.239 272.732 195.859 272.296 196.587 271.976C197.323 271.656 198.151 271.496 199.071 271.496C199.847 271.496 200.563 271.62 201.219 271.868C201.875 272.116 202.439 272.48 202.911 272.96C203.383 273.432 203.751 274.016 204.015 274.712C204.287 275.4 204.423 276.188 204.423 277.076C204.423 277.524 204.375 277.828 204.279 277.988C204.183 278.14 203.999 278.216 203.727 278.216H196.107ZM213.152 278.744C212.296 278.784 211.576 278.86 210.992 278.972C210.408 279.076 209.94 279.212 209.588 279.38C209.236 279.548 208.984 279.744 208.832 279.968C208.68 280.192 208.604 280.436 208.604 280.7C208.604 281.22 208.756 281.592 209.06 281.816C209.372 282.04 209.776 282.152 210.272 282.152C210.88 282.152 211.404 282.044 211.844 281.828C212.292 281.604 212.728 281.268 213.152 280.82V278.744ZM206.36 273.404C207.776 272.108 209.48 271.46 211.472 271.46C212.192 271.46 212.836 271.58 213.404 271.82C213.972 272.052 214.452 272.38 214.844 272.804C215.236 273.22 215.532 273.72 215.732 274.304C215.94 274.888 216.044 275.528 216.044 276.224V284H214.7C214.42 284 214.204 283.96 214.052 283.88C213.9 283.792 213.78 283.62 213.692 283.364L213.428 282.476C213.116 282.756 212.812 283.004 212.516 283.22C212.22 283.428 211.912 283.604 211.592 283.748C211.272 283.892 210.928 284 210.56 284.072C210.2 284.152 209.8 284.192 209.36 284.192C208.84 284.192 208.36 284.124 207.92 283.988C207.48 283.844 207.1 283.632 206.78 283.352C206.46 283.072 206.212 282.724 206.036 282.308C205.86 281.892 205.772 281.408 205.772 280.856C205.772 280.544 205.824 280.236 205.928 279.932C206.032 279.62 206.2 279.324 206.432 279.044C206.672 278.764 206.98 278.5 207.356 278.252C207.732 278.004 208.192 277.788 208.736 277.604C209.288 277.42 209.928 277.272 210.656 277.16C211.384 277.04 212.216 276.968 213.152 276.944V276.224C213.152 275.4 212.976 274.792 212.624 274.4C212.272 274 211.764 273.8 211.1 273.8C210.62 273.8 210.22 273.856 209.9 273.968C209.588 274.08 209.312 274.208 209.072 274.352C208.832 274.488 208.612 274.612 208.412 274.724C208.22 274.836 208.004 274.892 207.764 274.892C207.556 274.892 207.38 274.84 207.236 274.736C207.092 274.624 206.976 274.496 206.888 274.352L206.36 273.404ZM226.347 274.088C226.267 274.216 226.183 274.308 226.095 274.364C226.007 274.412 225.895 274.436 225.759 274.436C225.615 274.436 225.459 274.396 225.291 274.316C225.131 274.236 224.943 274.148 224.727 274.052C224.511 273.948 224.263 273.856 223.983 273.776C223.711 273.696 223.387 273.656 223.011 273.656C222.427 273.656 221.967 273.78 221.631 274.028C221.303 274.276 221.139 274.6 221.139 275C221.139 275.264 221.223 275.488 221.391 275.672C221.567 275.848 221.795 276.004 222.075 276.14C222.363 276.276 222.687 276.4 223.047 276.512C223.407 276.616 223.771 276.732 224.139 276.86C224.515 276.988 224.883 277.136 225.243 277.304C225.603 277.464 225.923 277.672 226.203 277.928C226.491 278.176 226.719 278.476 226.887 278.828C227.063 279.18 227.151 279.604 227.151 280.1C227.151 280.692 227.043 281.24 226.827 281.744C226.619 282.24 226.307 282.672 225.891 283.04C225.475 283.4 224.959 283.684 224.343 283.892C223.735 284.092 223.031 284.192 222.231 284.192C221.807 284.192 221.391 284.152 220.983 284.072C220.583 284 220.195 283.896 219.819 283.76C219.451 283.624 219.107 283.464 218.787 283.28C218.475 283.096 218.199 282.896 217.959 282.68L218.643 281.552C218.731 281.416 218.835 281.312 218.955 281.24C219.075 281.168 219.227 281.132 219.411 281.132C219.595 281.132 219.767 281.184 219.927 281.288C220.095 281.392 220.287 281.504 220.503 281.624C220.719 281.744 220.971 281.856 221.259 281.96C221.555 282.064 221.927 282.116 222.375 282.116C222.727 282.116 223.027 282.076 223.275 281.996C223.531 281.908 223.739 281.796 223.899 281.66C224.067 281.524 224.187 281.368 224.259 281.192C224.339 281.008 224.379 280.82 224.379 280.628C224.379 280.34 224.291 280.104 224.115 279.92C223.947 279.736 223.719 279.576 223.431 279.44C223.151 279.304 222.827 279.184 222.459 279.08C222.099 278.968 221.727 278.848 221.343 278.72C220.967 278.592 220.595 278.444 220.227 278.276C219.867 278.1 219.543 277.88 219.255 277.616C218.975 277.352 218.747 277.028 218.571 276.644C218.403 276.26 218.319 275.796 218.319 275.252C218.319 274.748 218.419 274.268 218.619 273.812C218.819 273.356 219.111 272.96 219.495 272.624C219.887 272.28 220.371 272.008 220.947 271.808C221.531 271.6 222.203 271.496 222.963 271.496C223.811 271.496 224.583 271.636 225.279 271.916C225.975 272.196 226.555 272.564 227.019 273.02L226.347 274.088ZM237.314 276.428C237.314 276.044 237.258 275.684 237.146 275.348C237.042 275.004 236.882 274.704 236.666 274.448C236.45 274.192 236.174 273.992 235.838 273.848C235.51 273.696 235.126 273.62 234.686 273.62C233.83 273.62 233.154 273.864 232.658 274.352C232.17 274.84 231.858 275.532 231.722 276.428H237.314ZM231.662 278.216C231.71 278.848 231.822 279.396 231.998 279.86C232.174 280.316 232.406 280.696 232.694 281C232.982 281.296 233.322 281.52 233.714 281.672C234.114 281.816 234.554 281.888 235.034 281.888C235.514 281.888 235.926 281.832 236.27 281.72C236.622 281.608 236.926 281.484 237.182 281.348C237.446 281.212 237.674 281.088 237.866 280.976C238.066 280.864 238.258 280.808 238.442 280.808C238.69 280.808 238.874 280.9 238.994 281.084L239.846 282.164C239.518 282.548 239.15 282.872 238.742 283.136C238.334 283.392 237.906 283.6 237.458 283.76C237.018 283.912 236.566 284.02 236.102 284.084C235.646 284.148 235.202 284.18 234.77 284.18C233.914 284.18 233.118 284.04 232.382 283.76C231.646 283.472 231.006 283.052 230.462 282.5C229.918 281.94 229.49 281.252 229.178 280.436C228.866 279.612 228.71 278.66 228.71 277.58C228.71 276.74 228.846 275.952 229.118 275.216C229.39 274.472 229.778 273.828 230.282 273.284C230.794 272.732 231.414 272.296 232.142 271.976C232.878 271.656 233.706 271.496 234.626 271.496C235.402 271.496 236.118 271.62 236.774 271.868C237.43 272.116 237.994 272.48 238.466 272.96C238.938 273.432 239.306 274.016 239.57 274.712C239.842 275.4 239.978 276.188 239.978 277.076C239.978 277.524 239.93 277.828 239.834 277.988C239.738 278.14 239.554 278.216 239.282 278.216H231.662Z" fill="black"/>
<path d="M241.77 282.368C241.77 282.12 241.814 281.884 241.902 281.66C241.998 281.436 242.126 281.244 242.286 281.084C242.446 280.924 242.638 280.796 242.862 280.7C243.086 280.604 243.326 280.556 243.582 280.556C243.838 280.556 244.074 280.604 244.29 280.7C244.514 280.796 244.706 280.924 244.866 281.084C245.034 281.244 245.166 281.436 245.262 281.66C245.358 281.884 245.406 282.12 245.406 282.368C245.406 282.624 245.358 282.864 245.262 283.088C245.166 283.304 245.034 283.492 244.866 283.652C244.706 283.812 244.514 283.936 244.29 284.024C244.074 284.12 243.838 284.168 243.582 284.168C243.326 284.168 243.086 284.12 242.862 284.024C242.638 283.936 242.446 283.812 242.286 283.652C242.126 283.492 241.998 283.304 241.902 283.088C241.814 282.864 241.77 282.624 241.77 282.368Z" fill="#4DB2DD"/>
<path d="M34 80.7853C34 75.3812 38.3809 71.0002 43.7851 71.0002H327.943C333.348 71.0002 337.729 75.3812 337.729 80.7853V80.7853H34V80.7853Z" fill="#282828"/>
<path fill-rule="evenodd" clip-rule="evenodd" d="M38.8925 77.2628C39.6491 77.2628 40.2624 76.6494 40.2624 75.8929C40.2624 75.1363 39.6491 74.5229 38.8925 74.5229C38.1359 74.5229 37.5226 75.1363 37.5226 75.8929C37.5226 76.6494 38.1359 77.2628 38.8925 77.2628Z" fill="#4DB2DD"/>
<path fill-rule="evenodd" clip-rule="evenodd" d="M43.5894 77.2628C44.3459 77.2628 44.9593 76.6494 44.9593 75.8929C44.9593 75.1363 44.3459 74.5229 43.5894 74.5229C42.8328 74.5229 42.2195 75.1363 42.2195 75.8929C42.2195 76.6494 42.8328 77.2628 43.5894 77.2628Z" fill="#00C67E"/>
<path fill-rule="evenodd" clip-rule="evenodd" d="M48.2862 77.2628C49.0428 77.2628 49.6561 76.6494 49.6561 75.8929C49.6561 75.1363 49.0428 74.5229 48.2862 74.5229C47.5296 74.5229 46.9163 75.1363 46.9163 75.8929C46.9163 76.6494 47.5296 77.2628 48.2862 77.2628Z" fill="#D85050"/>
<path d="M52.3959 75.8928C52.3959 74.2716 53.7102 72.9573 55.3315 72.9573H55.7229C57.3441 72.9573 58.6584 74.2716 58.6584 75.8928V75.8928C58.6584 77.514 57.3441 78.8283 55.7229 78.8283H55.3315C53.7102 78.8283 52.3959 77.514 52.3959 75.8928V75.8928Z" fill="#287CA6"/>
<path d="M58.6584 75.8928C58.6584 74.2716 59.9727 72.9573 61.5939 72.9573H61.9853C63.6066 72.9573 64.9208 74.2716 64.9208 75.8928V75.8928C64.9208 77.514 63.6066 78.8283 61.9853 78.8283H61.5939C59.9727 78.8283 58.6584 77.514 58.6584 75.8928V75.8928Z" fill="#287CA6"/>
<path d="M66.8778 75.8928C66.8778 74.2716 68.1921 72.9573 69.8134 72.9573H72.5532C74.1744 72.9573 75.4887 74.2716 75.4887 75.8928V75.8928C75.4887 77.514 74.1744 78.8283 72.5532 78.8283H69.8134C68.1921 78.8283 66.8778 77.514 66.8778 75.8928V75.8928Z" fill="#287CA6"/>
<path d="M124.023 75.8928C124.023 74.2716 125.337 72.9573 126.958 72.9573H244.77C246.392 72.9573 247.706 74.2716 247.706 75.8928V75.8928C247.706 77.514 246.392 78.8283 244.77 78.8283H126.958C125.337 78.8283 124.023 77.514 124.023 75.8928V75.8928Z" fill="#287CA6"/>
<path d="M314.244 75.8928C314.244 74.2716 315.559 72.9573 317.18 72.9573H320.311C321.932 72.9573 323.247 74.2716 323.247 75.8928V75.8928C323.247 77.514 321.932 78.8283 320.311 78.8283H317.18C315.559 78.8283 314.244 77.514 314.244 75.8928V75.8928Z" fill="#287CA6"/>
<path d="M325.204 75.8928C325.204 74.2716 326.518 72.9573 328.139 72.9573H331.27C332.892 72.9573 334.206 74.2716 334.206 75.8928V75.8928C334.206 77.514 332.892 78.8283 331.27 78.8283H328.139C326.518 78.8283 325.204 77.514 325.204 75.8928V75.8928Z" fill="#287CA6"/>
<path d="M34 80.7854H337.729V234C337.729 239.523 333.251 244 327.729 244H44C38.4771 244 34 239.523 34 234V80.7854Z" fill="url(#paint0_linear)"/>
<path d="M34 80.7854H337.729V96.0501H34V80.7854Z" fill="#F2F5F9"/>
<path fill-rule="evenodd" clip-rule="evenodd" d="M41.2409 84.6992H76.4672C78.5208 84.6992 80.1855 86.364 80.1855 88.4175C80.1855 90.4711 78.5208 92.1359 76.4672 92.1359H41.2409C39.1874 92.1359 37.5226 90.4711 37.5226 88.4175C37.5226 86.364 39.1874 84.6992 41.2409 84.6992Z" fill="#D6DFEA"/>
<path fill-rule="evenodd" clip-rule="evenodd" d="M68.8349 200.163H111.889C112.97 200.163 113.846 201.039 113.846 202.12C113.846 203.201 112.97 204.077 111.889 204.077H68.8349C67.754 204.077 66.8778 203.201 66.8778 202.12C66.8778 201.039 67.754 200.163 68.8349 200.163Z" fill="white"/>
<path fill-rule="evenodd" clip-rule="evenodd" d="M130.285 200.163H173.339C174.42 200.163 175.296 201.039 175.296 202.12C175.296 203.201 174.42 204.077 173.339 204.077H130.285C129.204 204.077 128.328 203.201 128.328 202.12C128.328 201.039 129.204 200.163 130.285 200.163Z" fill="white"/>
<path fill-rule="evenodd" clip-rule="evenodd" d="M191.735 200.163H234.79C235.87 200.163 236.747 201.039 236.747 202.12C236.747 203.201 235.87 204.077 234.79 204.077H191.735C190.654 204.077 189.778 203.201 189.778 202.12C189.778 201.039 190.654 200.163 191.735 200.163Z" fill="white"/>
<path fill-rule="evenodd" clip-rule="evenodd" d="M253.186 200.163H296.24C297.321 200.163 298.197 201.039 298.197 202.12C298.197 203.201 297.321 204.077 296.24 204.077H253.186C252.105 204.077 251.229 203.201 251.229 202.12C251.229 201.039 252.105 200.163 253.186 200.163Z" fill="white"/>
<path fill-rule="evenodd" clip-rule="evenodd" d="M68.8349 207.991H92.319C93.3998 207.991 94.276 208.867 94.276 209.948C94.276 211.029 93.3998 211.905 92.319 211.905H68.8349C67.754 211.905 66.8778 211.029 66.8778 209.948C66.8778 208.867 67.754 207.991 68.8349 207.991Z" fill="white"/>
<path fill-rule="evenodd" clip-rule="evenodd" d="M68.8349 117.186H264.536C265.617 117.186 266.493 118.062 266.493 119.143C266.493 120.224 265.617 121.1 264.536 121.1H68.8349C67.754 121.1 66.8778 120.224 66.8778 119.143C66.8778 118.062 67.754 117.186 68.8349 117.186Z" fill="#F2F5F9"/>
<path fill-rule="evenodd" clip-rule="evenodd" d="M68.8349 125.014H244.966C246.047 125.014 246.923 125.89 246.923 126.971C246.923 128.052 246.047 128.928 244.966 128.928H68.8349C67.754 128.928 66.8778 128.052 66.8778 126.971C66.8778 125.89 67.754 125.014 68.8349 125.014Z" fill="#F2F5F9"/>
<path fill-rule="evenodd" clip-rule="evenodd" d="M130.285 207.991H153.769C154.85 207.991 155.726 208.867 155.726 209.948C155.726 211.029 154.85 211.905 153.769 211.905H130.285C129.204 211.905 128.328 211.029 128.328 209.948C128.328 208.867 129.204 207.991 130.285 207.991Z" fill="white"/>
<path fill-rule="evenodd" clip-rule="evenodd" d="M191.735 207.991H215.219C216.3 207.991 217.176 208.867 217.176 209.948C217.176 211.029 216.3 211.905 215.219 211.905H191.735C190.654 211.905 189.778 211.029 189.778 209.948C189.778 208.867 190.654 207.991 191.735 207.991Z" fill="white"/>
<path fill-rule="evenodd" clip-rule="evenodd" d="M253.186 207.991H276.67C277.751 207.991 278.627 208.867 278.627 209.948C278.627 211.029 277.751 211.905 276.67 211.905H253.186C252.105 211.905 251.229 211.029 251.229 209.948C251.229 208.867 252.105 207.991 253.186 207.991Z" fill="white"/>
<path fill-rule="evenodd" clip-rule="evenodd" d="M319.137 92.1359C321.19 92.1359 322.855 90.4711 322.855 88.4175C322.855 86.364 321.19 84.6992 319.137 84.6992C317.083 84.6992 315.419 86.364 315.419 88.4175C315.419 90.4711 317.083 92.1359 319.137 92.1359Z" fill="#D6DFEA"/>
<path fill-rule="evenodd" clip-rule="evenodd" d="M330.488 92.1359C332.541 92.1359 334.206 90.4711 334.206 88.4175C334.206 86.364 332.541 84.6992 330.488 84.6992C328.434 84.6992 326.769 86.364 326.769 88.4175C326.769 90.4711 328.434 92.1359 330.488 92.1359Z" fill="#D6DFEA"/>
<path fill-rule="evenodd" clip-rule="evenodd" d="M129.502 142.627H180.776C181.425 142.627 181.95 143.153 181.95 143.801V195.075C181.95 195.723 181.425 196.249 180.776 196.249H129.502C128.854 196.249 128.328 195.723 128.328 195.075V143.801C128.328 143.153 128.854 142.627 129.502 142.627Z" fill="#282828"/>
<path fill-rule="evenodd" clip-rule="evenodd" d="M152.976 163.234C152.311 162.791 151.421 163.267 151.421 164.066V174.419C151.421 175.218 152.311 175.694 152.976 175.251L160.741 170.074C161.334 169.679 161.334 168.806 160.741 168.41L152.976 163.234Z" fill="#F2F5F9"/>
<path fill-rule="evenodd" clip-rule="evenodd" d="M190.952 142.627H242.226C242.875 142.627 243.4 143.153 243.4 143.801V195.075C243.4 195.723 242.875 196.249 242.226 196.249H190.952C190.304 196.249 189.778 195.723 189.778 195.075V143.801C189.778 143.153 190.304 142.627 190.952 142.627Z" fill="#282828"/>
<path fill-rule="evenodd" clip-rule="evenodd" d="M214.426 163.234C213.761 162.791 212.871 163.267 212.871 164.066V174.419C212.871 175.218 213.761 175.694 214.426 175.251L222.191 170.074C222.785 169.679 222.785 168.806 222.191 168.41L214.426 163.234Z" fill="#F2F5F9"/>
<path fill-rule="evenodd" clip-rule="evenodd" d="M252.403 142.627H303.676C304.325 142.627 304.851 143.153 304.851 143.801V195.075C304.851 195.723 304.325 196.249 303.676 196.249H252.403C251.754 196.249 251.229 195.723 251.229 195.075V143.801C251.229 143.153 251.754 142.627 252.403 142.627Z" fill="#282828"/>
<path fill-rule="evenodd" clip-rule="evenodd" d="M275.876 163.234C275.211 162.791 274.321 163.267 274.321 164.066V174.419C274.321 175.218 275.211 175.694 275.876 175.251L283.641 170.074C284.235 169.679 284.235 168.806 283.641 168.41L275.876 163.234Z" fill="#F2F5F9"/>
<path d="M34 222.865H337.729V234C337.729 239.523 333.251 244 327.729 244H44C38.4771 244 34 239.523 34 234V222.865Z" fill="#282828"/>
<path d="M34 222.865H337.729V225.213H34V222.865Z" fill="#F2F5F9"/>
<path d="M34 222.865H229.701V225.213H34V222.865Z" fill="#DD784D"/>
<path fill-rule="evenodd" clip-rule="evenodd" d="M39.4796 228.736H98.9728C100.054 228.736 100.93 229.612 100.93 230.693C100.93 231.773 100.054 232.65 98.9728 232.65H39.4796C38.3988 232.65 37.5226 231.773 37.5226 230.693C37.5226 229.612 38.3988 228.736 39.4796 228.736Z" fill="#287CA6"/>
<path fill-rule="evenodd" clip-rule="evenodd" d="M231.267 226.778C232.78 226.778 234.007 225.552 234.007 224.039C234.007 222.525 232.78 221.299 231.267 221.299C229.754 221.299 228.527 222.525 228.527 224.039C228.527 225.552 229.754 226.778 231.267 226.778Z" fill="#DD784D"/>
<path fill-rule="evenodd" clip-rule="evenodd" d="M185.864 241.652C189.755 241.652 192.909 238.498 192.909 234.607C192.909 230.716 189.755 227.561 185.864 227.561C181.973 227.561 178.819 230.716 178.819 234.607C178.819 238.498 181.973 241.652 185.864 241.652Z" fill="#DD784D"/>
<path fill-rule="evenodd" clip-rule="evenodd" d="M202.292 231.729C201.628 231.286 200.738 231.762 200.738 232.561V236.652C200.738 237.451 201.628 237.927 202.292 237.484L205.361 235.439C205.954 235.043 205.954 234.17 205.361 233.774L202.292 231.729Z" fill="#DD784D"/>
<path fill-rule="evenodd" clip-rule="evenodd" d="M169.436 231.729C170.101 231.286 170.991 231.762 170.991 232.561V236.652C170.991 237.451 170.101 237.927 169.436 237.484L166.368 235.439C165.774 235.043 165.774 234.17 166.368 233.774L169.436 231.729Z" fill="#DD784D"/>
<path fill-rule="evenodd" clip-rule="evenodd" d="M39.4796 236.563H72.3575C73.4383 236.563 74.3145 237.44 74.3145 238.52C74.3145 239.601 73.4383 240.478 72.3575 240.478H39.4796C38.3988 240.478 37.5226 239.601 37.5226 238.52C37.5226 237.44 38.3988 236.563 39.4796 236.563Z" fill="#287CA6"/>
<path d="M207.783 231.671C207.783 231.347 208.046 231.084 208.37 231.084V231.084C208.694 231.084 208.957 231.347 208.957 231.671V237.542C208.957 237.866 208.694 238.129 208.37 238.129V238.129C208.046 238.129 207.783 237.866 207.783 237.542V231.671Z" fill="#DD784D"/>
<path fill-rule="evenodd" clip-rule="evenodd" d="M330.488 238.129C332.541 238.129 334.206 236.465 334.206 234.411C334.206 232.357 332.541 230.693 330.488 230.693C328.434 230.693 326.769 232.357 326.769 234.411C326.769 236.465 328.434 238.129 330.488 238.129Z" fill="#287CA6"/>
<path d="M162.771 231.671C162.771 231.347 163.034 231.084 163.359 231.084V231.084C163.683 231.084 163.946 231.347 163.946 231.671V237.542C163.946 237.866 163.683 238.129 163.359 238.129V238.129C163.034 238.129 162.771 237.866 162.771 237.542V231.671Z" fill="#DD784D"/>
<path fill-rule="evenodd" clip-rule="evenodd" d="M185.462 231.729C184.797 231.286 183.907 231.762 183.907 232.561V236.652C183.907 237.451 184.797 237.927 185.462 237.484L188.53 235.439C189.124 235.043 189.124 234.17 188.53 233.774L185.462 231.729Z" fill="#F2F5F9"/>
<path fill-rule="evenodd" clip-rule="evenodd" d="M68.052 142.627H119.326C119.974 142.627 120.5 143.153 120.5 143.801V195.075C120.5 195.723 119.974 196.249 119.326 196.249H68.052C67.4035 196.249 66.8778 195.723 66.8778 195.075V143.801C66.8778 143.153 67.4035 142.627 68.052 142.627Z" fill="#282828"/>
<path fill-rule="evenodd" clip-rule="evenodd" d="M91.5253 163.234C90.8607 162.791 89.9706 163.267 89.9706 164.066V174.419C89.9706 175.218 90.8607 175.694 91.5253 175.251L99.2904 170.074C99.8841 169.679 99.8841 168.806 99.2904 168.41L91.5253 163.234Z" fill="#F2F5F9"/>
<defs>
<linearGradient id="paint0_linear" x1="-117.864" y1="162.393" x2="18.2456" y2="415.681" gradientUnits="userSpaceOnUse">
<stop stop-color="#66D4F2"/>
</linearGradient>
</defs>
</svg>
