<svg width="300" height="300" viewBox="0 0 300 300" fill="none" xmlns="http://www.w3.org/2000/svg">
<g clip-path="url(#clip0)">
<path fill-rule="evenodd" clip-rule="evenodd" d="M0 212.483C0 152.667 19.4364 127.607 67.6829 110.719C115.961 94.1044 122.359 0 185.017 0C247.849 0 330.424 167.544 288.763 263.772C247.117 360.096 131.44 228.697 93.554 272.32C55.594 315.736 0 272.133 0 212.483Z" fill="#F2F5F9"/>
<path d="M31 89.6675C31 85.4329 34.4329 82 38.6675 82H261.332C265.567 82 269 85.4329 269 89.6675V89.6675H31V89.6675Z" fill="#282828"/>
<path fill-rule="evenodd" clip-rule="evenodd" d="M34.8337 86.9072C35.4266 86.9072 35.9072 86.4266 35.9072 85.8337C35.9072 85.2409 35.4266 84.7603 34.8337 84.7603C34.2409 84.7603 33.7603 85.2409 33.7603 85.8337C33.7603 86.4266 34.2409 86.9072 34.8337 86.9072Z" fill="#4DB2DD"/>
<path fill-rule="evenodd" clip-rule="evenodd" d="M38.5141 86.9072C39.107 86.9072 39.5876 86.4266 39.5876 85.8337C39.5876 85.2409 39.107 84.7603 38.5141 84.7603C37.9213 84.7603 37.4407 85.2409 37.4407 85.8337C37.4407 86.4266 37.9213 86.9072 38.5141 86.9072Z" fill="#00C67E"/>
<path fill-rule="evenodd" clip-rule="evenodd" d="M42.1945 86.9072C42.7874 86.9072 43.268 86.4266 43.268 85.8337C43.268 85.2409 42.7874 84.7603 42.1945 84.7603C41.6017 84.7603 41.1211 85.2409 41.1211 85.8337C41.1211 86.4266 41.6017 86.9072 42.1945 86.9072Z" fill="#D85050"/>
<path d="M45.415 85.8337C45.415 84.5633 46.4449 83.5334 47.7153 83.5334H48.022C49.2924 83.5334 50.3223 84.5633 50.3223 85.8337V85.8337C50.3223 87.1041 49.2924 88.134 48.022 88.134H47.7153C46.4449 88.134 45.415 87.1041 45.415 85.8337V85.8337Z" fill="#287CA6"/>
<path d="M50.3223 85.8337C50.3223 84.5633 51.3521 83.5334 52.6225 83.5334H52.9292C54.1996 83.5334 55.2295 84.5633 55.2295 85.8337V85.8337C55.2295 87.1041 54.1996 88.134 52.9292 88.134H52.6225C51.3521 88.134 50.3223 87.1041 50.3223 85.8337V85.8337Z" fill="#287CA6"/>
<path d="M56.7629 85.8337C56.7629 84.5633 57.7928 83.5334 59.0632 83.5334H61.2101C62.4805 83.5334 63.5104 84.5633 63.5104 85.8337V85.8337C63.5104 87.1041 62.4805 88.134 61.2101 88.134H59.0632C57.7928 88.134 56.7629 87.1041 56.7629 85.8337V85.8337Z" fill="#287CA6"/>
<path d="M101.541 85.8337C101.541 84.5633 102.571 83.5334 103.842 83.5334H196.159C197.429 83.5334 198.459 84.5633 198.459 85.8337V85.8337C198.459 87.1041 197.429 88.134 196.159 88.134H103.842C102.571 88.134 101.541 87.1041 101.541 85.8337V85.8337Z" fill="#287CA6"/>
<path d="M250.598 85.8337C250.598 84.5633 251.628 83.5334 252.898 83.5334H255.352C256.622 83.5334 257.652 84.5633 257.652 85.8337V85.8337C257.652 87.1041 256.622 88.134 255.352 88.134H252.898C251.628 88.134 250.598 87.1041 250.598 85.8337V85.8337Z" fill="#287CA6"/>
<path d="M259.186 85.8337C259.186 84.5633 260.215 83.5334 261.486 83.5334H263.939C265.21 83.5334 266.24 84.5633 266.24 85.8337V85.8337C266.24 87.1041 265.21 88.134 263.939 88.134H261.486C260.215 88.134 259.186 87.1041 259.186 85.8337V85.8337Z" fill="#287CA6"/>
<path d="M31 89.6675H269V209.726C269 214.054 265.492 217.562 261.164 217.562H38.8359C34.5083 217.562 31 214.054 31 209.726V89.6675Z" fill="url(#paint0_linear)"/>
<path d="M31 89.6675H269V101.629H31V89.6675Z" fill="#F2F5F9"/>
<path fill-rule="evenodd" clip-rule="evenodd" d="M36.6739 92.7344H64.277C65.8862 92.7344 67.1907 94.0389 67.1907 95.648C67.1907 97.2572 65.8862 98.5617 64.277 98.5617H36.6739C35.0647 98.5617 33.7603 97.2572 33.7603 95.648C33.7603 94.0389 35.0647 92.7344 36.6739 92.7344Z" fill="#D6DFEA"/>
<path fill-rule="evenodd" clip-rule="evenodd" d="M58.2964 183.211H92.0336C92.8805 183.211 93.5671 183.898 93.5671 184.745C93.5671 185.592 92.8805 186.278 92.0336 186.278H58.2964C57.4495 186.278 56.7629 185.592 56.7629 184.745C56.7629 183.898 57.4495 183.211 58.2964 183.211Z" fill="white"/>
<path fill-rule="evenodd" clip-rule="evenodd" d="M106.449 183.211H140.186C141.033 183.211 141.719 183.898 141.719 184.745C141.719 185.592 141.033 186.278 140.186 186.278H106.449C105.602 186.278 104.915 185.592 104.915 184.745C104.915 183.898 105.602 183.211 106.449 183.211Z" fill="white"/>
<path fill-rule="evenodd" clip-rule="evenodd" d="M154.601 183.211H188.338C189.185 183.211 189.871 183.898 189.871 184.745C189.871 185.592 189.185 186.278 188.338 186.278H154.601C153.754 186.278 153.067 185.592 153.067 184.745C153.067 183.898 153.754 183.211 154.601 183.211Z" fill="white"/>
<path fill-rule="evenodd" clip-rule="evenodd" d="M202.752 183.211H236.49C237.337 183.211 238.023 183.898 238.023 184.745C238.023 185.592 237.337 186.278 236.49 186.278H202.752C201.906 186.278 201.219 185.592 201.219 184.745C201.219 183.898 201.906 183.211 202.752 183.211Z" fill="white"/>
<path fill-rule="evenodd" clip-rule="evenodd" d="M58.2964 189.345H76.6985C77.5454 189.345 78.232 190.032 78.232 190.879C78.232 191.726 77.5454 192.412 76.6985 192.412H58.2964C57.4495 192.412 56.7629 191.726 56.7629 190.879C56.7629 190.032 57.4495 189.345 58.2964 189.345Z" fill="white"/>
<path fill-rule="evenodd" clip-rule="evenodd" d="M58.2964 118.191H211.647C212.494 118.191 213.18 118.877 213.18 119.724C213.18 120.571 212.494 121.258 211.647 121.258H58.2964C57.4495 121.258 56.7629 120.571 56.7629 119.724C56.7629 118.877 57.4495 118.191 58.2964 118.191Z" fill="#F2F5F9"/>
<path fill-rule="evenodd" clip-rule="evenodd" d="M58.2964 124.325H196.312C197.159 124.325 197.845 125.011 197.845 125.858C197.845 126.705 197.159 127.392 196.312 127.392H58.2964C57.4495 127.392 56.7629 126.705 56.7629 125.858C56.7629 125.011 57.4495 124.325 58.2964 124.325Z" fill="#F2F5F9"/>
<path fill-rule="evenodd" clip-rule="evenodd" d="M106.449 189.345H124.851C125.698 189.345 126.384 190.032 126.384 190.879C126.384 191.726 125.698 192.412 124.851 192.412H106.449C105.602 192.412 104.915 191.726 104.915 190.879C104.915 190.032 105.602 189.345 106.449 189.345Z" fill="white"/>
<path fill-rule="evenodd" clip-rule="evenodd" d="M154.601 189.345H173.003C173.85 189.345 174.536 190.032 174.536 190.879C174.536 191.726 173.85 192.412 173.003 192.412H154.601C153.754 192.412 153.067 191.726 153.067 190.879C153.067 190.032 153.754 189.345 154.601 189.345Z" fill="white"/>
<path fill-rule="evenodd" clip-rule="evenodd" d="M202.752 189.345H221.155C222.001 189.345 222.688 190.032 222.688 190.879C222.688 191.726 222.001 192.412 221.155 192.412H202.752C201.906 192.412 201.219 191.726 201.219 190.879C201.219 190.032 201.906 189.345 202.752 189.345Z" fill="white"/>
<path fill-rule="evenodd" clip-rule="evenodd" d="M254.432 98.5617C256.041 98.5617 257.345 97.2572 257.345 95.648C257.345 94.0389 256.041 92.7344 254.432 92.7344C252.823 92.7344 251.518 94.0389 251.518 95.648C251.518 97.2572 252.823 98.5617 254.432 98.5617Z" fill="#D6DFEA"/>
<path fill-rule="evenodd" clip-rule="evenodd" d="M263.326 98.5617C264.935 98.5617 266.24 97.2572 266.24 95.648C266.24 94.0389 264.935 92.7344 263.326 92.7344C261.717 92.7344 260.412 94.0389 260.412 95.648C260.412 97.2572 261.717 98.5617 263.326 98.5617Z" fill="#D6DFEA"/>
<path fill-rule="evenodd" clip-rule="evenodd" d="M105.835 138.126H146.013C146.521 138.126 146.933 138.538 146.933 139.046V179.224C146.933 179.732 146.521 180.144 146.013 180.144H105.835C105.327 180.144 104.915 179.732 104.915 179.224V139.046C104.915 138.538 105.327 138.126 105.835 138.126Z" fill="#282828"/>
<path fill-rule="evenodd" clip-rule="evenodd" d="M124.229 154.274C123.708 153.926 123.01 154.3 123.01 154.926V163.038C123.01 163.664 123.708 164.038 124.229 163.69L130.313 159.634C130.778 159.324 130.778 158.64 130.313 158.33L124.229 154.274Z" fill="#F2F5F9"/>
<path fill-rule="evenodd" clip-rule="evenodd" d="M153.987 138.126H194.165C194.673 138.126 195.085 138.538 195.085 139.046V179.224C195.085 179.732 194.673 180.144 194.165 180.144H153.987C153.479 180.144 153.067 179.732 153.067 179.224V139.046C153.067 138.538 153.479 138.126 153.987 138.126Z" fill="#282828"/>
<path fill-rule="evenodd" clip-rule="evenodd" d="M172.381 154.274C171.86 153.926 171.162 154.3 171.162 154.926V163.038C171.162 163.664 171.86 164.038 172.381 163.69L178.465 159.634C178.931 159.324 178.931 158.64 178.465 158.33L172.381 154.274Z" fill="#F2F5F9"/>
<path fill-rule="evenodd" clip-rule="evenodd" d="M202.139 138.126H242.317C242.825 138.126 243.237 138.538 243.237 139.046V179.224C243.237 179.732 242.825 180.144 242.317 180.144H202.139C201.631 180.144 201.219 179.732 201.219 179.224V139.046C201.219 138.538 201.631 138.126 202.139 138.126Z" fill="#282828"/>
<path fill-rule="evenodd" clip-rule="evenodd" d="M220.533 154.274C220.012 153.926 219.314 154.3 219.314 154.926V163.038C219.314 163.664 220.012 164.038 220.533 163.69L226.617 159.634C227.083 159.324 227.083 158.64 226.617 158.33L220.533 154.274Z" fill="#F2F5F9"/>
<path d="M31 201H269V209.726C269 214.054 265.492 217.562 261.164 217.562H38.8359C34.5083 217.562 31 214.054 31 209.726V201Z" fill="#282828"/>
<path d="M31 201H269V202.84H31V201Z" fill="#F2F5F9"/>
<path d="M31 201H184.351V202.84H31V201Z" fill="#DD784D"/>
<path fill-rule="evenodd" clip-rule="evenodd" d="M35.2938 205.601H81.9123C82.7592 205.601 83.4458 206.287 83.4458 207.134C83.4458 207.981 82.7592 208.668 81.9123 208.668H35.2938C34.4468 208.668 33.7603 207.981 33.7603 207.134C33.7603 206.287 34.4468 205.601 35.2938 205.601Z" fill="#287CA6"/>
<path fill-rule="evenodd" clip-rule="evenodd" d="M185.577 204.067C186.763 204.067 187.724 203.106 187.724 201.92C187.724 200.734 186.763 199.773 185.577 199.773C184.392 199.773 183.43 200.734 183.43 201.92C183.43 203.106 184.392 204.067 185.577 204.067Z" fill="#DD784D"/>
<path fill-rule="evenodd" clip-rule="evenodd" d="M150 215.722C153.049 215.722 155.521 213.25 155.521 210.201C155.521 207.152 153.049 204.68 150 204.68C146.951 204.68 144.479 207.152 144.479 210.201C144.479 213.25 146.951 215.722 150 215.722Z" fill="#DD784D"/>
<path fill-rule="evenodd" clip-rule="evenodd" d="M162.873 207.946C162.352 207.599 161.655 207.972 161.655 208.598V211.804C161.655 212.43 162.352 212.803 162.873 212.456L165.277 210.853C165.742 210.543 165.742 209.859 165.277 209.549L162.873 207.946Z" fill="#DD784D"/>
<path fill-rule="evenodd" clip-rule="evenodd" d="M137.127 207.946C137.648 207.599 138.345 207.972 138.345 208.598V211.804C138.345 212.43 137.648 212.803 137.127 212.456L134.723 210.853C134.258 210.543 134.258 209.859 134.723 209.549L137.127 207.946Z" fill="#DD784D"/>
<path fill-rule="evenodd" clip-rule="evenodd" d="M35.2938 211.734H61.0566C61.9036 211.734 62.5901 212.421 62.5901 213.268C62.5901 214.115 61.9036 214.801 61.0566 214.801H35.2938C34.4468 214.801 33.7603 214.115 33.7603 213.268C33.7603 212.421 34.4468 211.734 35.2938 211.734Z" fill="#287CA6"/>
<path d="M167.175 207.901C167.175 207.647 167.381 207.441 167.635 207.441V207.441C167.889 207.441 168.095 207.647 168.095 207.901V212.501C168.095 212.755 167.889 212.961 167.635 212.961V212.961C167.381 212.961 167.175 212.755 167.175 212.501V207.901Z" fill="#DD784D"/>
<path fill-rule="evenodd" clip-rule="evenodd" d="M263.326 212.961C264.935 212.961 266.24 211.657 266.24 210.048C266.24 208.439 264.935 207.134 263.326 207.134C261.717 207.134 260.412 208.439 260.412 210.048C260.412 211.657 261.717 212.961 263.326 212.961Z" fill="#287CA6"/>
<path d="M131.905 207.901C131.905 207.647 132.111 207.441 132.365 207.441V207.441C132.619 207.441 132.825 207.647 132.825 207.901V212.501C132.825 212.755 132.619 212.961 132.365 212.961V212.961C132.111 212.961 131.905 212.755 131.905 212.501V207.901Z" fill="#DD784D"/>
<path fill-rule="evenodd" clip-rule="evenodd" d="M149.685 207.946C149.164 207.599 148.467 207.972 148.467 208.598V211.804C148.467 212.43 149.164 212.803 149.685 212.456L152.089 210.853C152.554 210.543 152.554 209.859 152.089 209.549L149.685 207.946Z" fill="#F2F5F9"/>
<path fill-rule="evenodd" clip-rule="evenodd" d="M57.683 138.126H97.8609C98.369 138.126 98.781 138.538 98.781 139.046V179.224C98.781 179.732 98.369 180.144 97.8609 180.144H57.683C57.1749 180.144 56.7629 179.732 56.7629 179.224V139.046C56.7629 138.538 57.1749 138.126 57.683 138.126Z" fill="#282828"/>
<path fill-rule="evenodd" clip-rule="evenodd" d="M76.0767 154.274C75.5559 153.926 74.8584 154.3 74.8584 154.926V163.038C74.8584 163.664 75.5559 164.038 76.0767 163.69L82.1613 159.634C82.6266 159.324 82.6266 158.64 82.1613 158.33L76.0767 154.274Z" fill="#F2F5F9"/>
</g>
<defs>
<linearGradient id="paint0_linear" x1="-88" y1="153.615" x2="18.6549" y2="352.09" gradientUnits="userSpaceOnUse">
<stop stop-color="#66D4F2"/>
</linearGradient>
<clipPath id="clip0">
<rect width="300" height="300" fill="white"/>
</clipPath>
</defs>
</svg>
