<svg width="249" height="262" viewBox="0 0 249 262" fill="none" xmlns="http://www.w3.org/2000/svg">
<path fill-rule="evenodd" clip-rule="evenodd" d="M249 9.43732V169.509C249 174.751 244.801 178.946 239.563 178.946H9.43732C4.19891 178.946 0 174.751 0 169.509V9.43732C0 4.1946 4.19891 0 9.43732 0H239.563C244.801 0 249 4.1946 249 9.43732Z" fill="#393E41"/>
<path fill-rule="evenodd" clip-rule="evenodd" d="M249 9.43732V169.509C249 174.751 244.801 178.946 239.563 178.946H9.43732C4.19891 178.946 0 174.751 0 169.509V9.43732C0 4.1946 4.19891 0 9.43732 0H239.563C244.801 0 249 4.1946 249 9.43732Z" fill="url(#paint0_linear)"/>
<path fill-rule="evenodd" clip-rule="evenodd" d="M8.30845 93.5051C10.6383 93.5051 12.527 91.6186 12.527 89.2915C12.527 86.9645 10.6383 85.078 8.30845 85.078C5.97861 85.078 4.0899 86.9645 4.0899 89.2915C4.0899 91.6186 5.97861 93.5051 8.30845 93.5051Z" fill="#ECDFF7"/>
<path fill-rule="evenodd" clip-rule="evenodd" d="M8.30847 93.0369C10.3794 93.0369 12.0583 91.36 12.0583 89.2915C12.0583 87.223 10.3794 85.5461 8.30847 85.5461C6.23751 85.5461 4.55865 87.223 4.55865 89.2915C4.55865 91.36 6.23751 93.0369 8.30847 93.0369Z" fill="#393E41"/>
<path fill-rule="evenodd" clip-rule="evenodd" d="M8.30847 93.0369C10.3794 93.0369 12.0583 91.36 12.0583 89.2915C12.0583 87.223 10.3794 85.5461 8.30847 85.5461C6.23751 85.5461 4.55865 87.223 4.55865 89.2915C4.55865 91.36 6.23751 93.0369 8.30847 93.0369Z" fill="url(#paint1_linear)"/>
<path fill-rule="evenodd" clip-rule="evenodd" d="M231.94 9.07522V169.871C231.94 170.025 231.73 170.235 231.577 170.235H17.0598C16.9067 170.235 16.6968 170.025 16.6968 169.871V9.07522C16.6968 8.92165 16.9067 8.71143 17.0598 8.71143H231.577C231.73 8.71143 231.94 8.92165 231.94 9.07522Z" fill="#4DB2DD"/>
<mask id="mask0" mask-type="alpha" maskUnits="userSpaceOnUse" x="16" y="8" width="216" height="163">
<path fill-rule="evenodd" clip-rule="evenodd" d="M231.94 9.07522V169.871C231.94 170.025 231.73 170.235 231.577 170.235H17.0598C16.9067 170.235 16.6968 170.025 16.6968 169.871V9.07522C16.6968 8.92165 16.9067 8.71143 17.0598 8.71143H231.577C231.73 8.71143 231.94 8.92165 231.94 9.07522Z" fill="white"/>
</mask>
<g mask="url(#mask0)">
<path d="M143.696 52.6684C142.878 61.2845 143.918 70.6154 146.596 81.3853C147.19 75.9575 149.256 72.0051 152.793 69.5279C158.83 65.3012 165.769 64.7972 168.294 68.4021C170.818 72.007 167.971 78.3558 161.934 82.5825C158.087 85.2766 153.195 85.738 147.259 83.9666C148.839 89.9317 150.767 95.9162 154.081 105.544C154.206 105.908 154.329 106.266 154.45 106.619C155.002 101.04 157.078 96.99 160.679 94.4685C166.715 90.2418 173.655 89.7378 176.179 93.3427C178.703 96.9476 175.856 103.296 169.82 107.523C165.994 110.202 161.137 110.673 155.246 108.938C159.351 120.911 160.946 125.903 162.31 131.555C163.094 126.871 165.093 123.404 168.307 121.154C174.343 116.927 181.283 116.423 183.807 120.028C186.331 123.633 183.484 129.982 177.448 134.209C173.704 136.83 168.972 137.338 163.251 135.732C165.176 145.048 165.351 152.772 163.501 159.571C163.422 159.862 163.123 160.033 162.833 159.954C162.543 159.875 162.372 159.576 162.451 159.286C164.287 152.535 164.069 144.796 162.063 135.372C162.024 135.36 161.986 135.347 161.947 135.335C161.952 135.193 161.957 135.052 161.964 134.912C161.924 134.728 161.883 134.542 161.841 134.357C160.191 126.976 158.691 122.286 153.051 105.898C149.299 94.9947 147.316 88.7452 145.603 81.905C142.823 70.8066 141.752 61.197 142.637 52.3016C142.86 45.6865 144.979 40.9728 148.995 38.1606C155.032 33.9338 161.971 33.4298 164.496 37.0347C167.02 40.6397 164.173 46.9885 158.136 51.2152C154.34 53.8736 149.526 54.358 143.696 52.6684Z" fill="#66D4F2"/>
<path fill-rule="evenodd" clip-rule="evenodd" d="M155.19 111.852C148.186 100.883 126.112 130.1 118.561 105.947C111.011 81.7949 116.76 70.2425 107.048 64.5462C97.3349 58.8499 99.1569 102.531 89.1003 92.6774C79.0437 82.8239 87.8248 50.4229 77.799 46.266C67.7732 42.109 72.4361 64.1741 64.8702 67.0981C57.3043 70.0221 58.7905 41.3328 51.5072 34.7831C44.2239 28.2333 33.2771 38.6629 41.4621 64.5462C49.6472 90.4295 22.8674 64.5228 17.3873 76.5029C11.9072 88.483 55.3004 93.7615 51.5072 105.947C47.714 118.133 -3.96503 96.6364 6.71112 120.883C17.3873 145.13 64.8702 117.157 64.8702 135.92C64.8702 154.682 41.4621 140.077 41.4621 160.098C41.4621 170.227 88.9331 184.889 118.561 171.45C147.498 158.324 158.65 117.271 155.19 111.852Z" fill="#287CA6"/>
<path fill-rule="evenodd" clip-rule="evenodd" d="M138.146 165.286C140.911 156.719 128.511 142.691 133.124 135.465C137.738 128.24 152.28 147.486 157.254 131.576C162.228 115.665 158.44 108.054 164.838 104.302C171.237 100.549 170.037 129.325 176.661 122.834C183.286 116.343 177.502 94.9979 184.106 92.2595C190.711 89.521 187.639 104.057 192.623 105.983C197.608 107.909 196.629 89.0097 201.427 84.6949C206.224 80.3802 213.436 87.2508 208.044 104.302C202.652 121.353 220.293 104.286 223.904 112.179C227.514 120.071 198.928 123.548 201.427 131.576C203.925 139.603 237.97 125.442 230.937 141.415C223.904 157.388 192.623 138.96 192.623 151.32C192.623 163.68 208.044 154.059 208.044 167.248C208.044 180.437 135.382 173.852 138.146 165.286Z" fill="#287CA6"/>
<path fill-rule="evenodd" clip-rule="evenodd" d="M53.1928 127.423C55.6159 110.034 74.5821 137.9 82.8996 157.275C89.9706 120.487 116.777 47.6549 119.89 85.9457C124.221 139.232 107.223 155.57 86.2816 175.073C82.8827 178.239 49.513 153.832 53.1928 127.423Z" fill="#66D4F2"/>
<path fill-rule="evenodd" clip-rule="evenodd" d="M16.6968 55.5349H27.223C29.2277 55.5349 30.8528 57.16 30.8528 59.1646V119.418C30.8528 121.423 29.2277 123.048 27.223 123.048H16.6968V55.5349Z" fill="#393E41"/>
<path fill-rule="evenodd" clip-rule="evenodd" d="M16.6968 55.5349H27.223C29.2277 55.5349 30.8528 57.16 30.8528 59.1646V119.418C30.8528 121.423 29.2277 123.048 27.223 123.048H16.6968V55.5349Z" fill="url(#paint2_linear)"/>
<path fill-rule="evenodd" clip-rule="evenodd" d="M21.234 64.6093H26.3156C27.8191 64.6093 29.0379 65.8281 29.0379 67.3316C29.0379 68.835 27.8191 70.0539 26.3156 70.0539H21.234C19.7305 70.0539 18.5117 68.835 18.5117 67.3316C18.5117 65.8281 19.7305 64.6093 21.234 64.6093Z" fill="#4E565C"/>
<path fill-rule="evenodd" clip-rule="evenodd" d="M21.234 93.6472H26.3156C27.8191 93.6472 29.0379 94.866 29.0379 96.3695C29.0379 97.873 27.8191 99.0918 26.3156 99.0918H21.234C19.7305 99.0918 18.5117 97.873 18.5117 96.3695C18.5117 94.866 19.7305 93.6472 21.234 93.6472Z" fill="#4E565C"/>
<path fill-rule="evenodd" clip-rule="evenodd" d="M16.6968 8.71143H231.94V22.8674H16.6968V8.71143Z" fill="#393E41"/>
<path fill-rule="evenodd" clip-rule="evenodd" d="M16.6968 8.71143H231.94V22.8674H16.6968V8.71143Z" fill="url(#paint3_linear)"/>
<path fill-rule="evenodd" clip-rule="evenodd" d="M26.6786 13.067H78.9468C80.4503 13.067 81.6691 14.2858 81.6691 15.7893C81.6691 17.2928 80.4503 18.5116 78.9468 18.5116H26.6786C25.1751 18.5116 23.9563 17.2928 23.9563 15.7893C23.9563 14.2858 25.1751 13.067 26.6786 13.067Z" fill="#4E565C"/>
</g>
<path fill-rule="evenodd" clip-rule="evenodd" d="M202.343 170.207C201.827 154.418 199.899 137.44 198.844 134.658C197.185 130.289 195.481 129.402 194.872 129.402C194.263 129.402 195.883 124.693 192.08 121.4C188.278 118.107 169.141 109.94 166.298 107.294C163.456 104.647 152.438 91.7609 148.64 91.7609C144.842 91.7609 108.589 102.267 108.589 104.78C108.589 107.294 109.315 111.87 120.396 113.019C131.476 114.167 137.616 108.258 142.123 109.806C146.63 111.353 156.497 129.534 148.64 142.499C140.784 155.465 117.271 132.218 117.271 127.542C117.271 122.865 114.201 113.7 110.133 111.353C106.066 109.006 100.438 109.606 100.438 111.154C100.438 116.857 100.762 132.479 101.953 134.658C103.143 136.838 111.685 151.328 115.044 157.973C116.258 160.375 118.288 165.139 121.046 170.207H202.343Z" fill="url(#paint4_linear)"/>
<path fill-rule="evenodd" clip-rule="evenodd" d="M142.154 123.121C135.22 127.16 123.765 136.139 122.101 147.932C120.437 159.726 128.005 162.512 132.128 155.959C136.251 149.406 147.746 136.216 153.624 134.763C159.501 133.309 149.089 119.082 142.154 123.121Z" fill="#DD784D"/>
<path fill-rule="evenodd" clip-rule="evenodd" d="M142.154 123.121C135.22 127.16 123.765 136.139 122.101 147.932C120.437 159.726 128.005 162.512 132.128 155.959C136.251 149.406 147.746 136.216 153.624 134.763C159.501 133.309 149.089 119.082 142.154 123.121Z" fill="url(#paint5_linear)"/>
<path fill-rule="evenodd" clip-rule="evenodd" d="M133.724 110.467C126.79 114.506 115.279 124.048 111.967 135.712C108.654 147.376 119.574 149.858 123.697 143.305C127.82 136.751 139.316 123.562 145.194 122.109C151.071 120.655 140.658 106.428 133.724 110.467Z" fill="#DD784D"/>
<path fill-rule="evenodd" clip-rule="evenodd" d="M133.724 110.467C126.79 114.506 115.279 124.048 111.967 135.712C108.654 147.376 119.574 149.858 123.697 143.305C127.82 136.751 139.316 123.562 145.194 122.109C151.071 120.655 140.658 106.428 133.724 110.467Z" fill="url(#paint6_linear)"/>
<path fill-rule="evenodd" clip-rule="evenodd" d="M90.4433 111.299C90.4433 116.987 90.3416 132.367 91.5317 134.54C92.7218 136.714 101.264 151.165 104.623 157.791C107.981 164.418 120.318 187.213 124.629 192.98C128.941 198.747 141.44 210.162 143.303 218.071C145.166 225.98 146.076 224.527 146.076 245.882C146.076 267.236 207.651 267.236 200.101 245.882C192.551 224.527 192.523 223.823 191 218.071C189.478 212.319 188.11 208.013 191 192.98C193.891 177.947 190.081 138.898 188.423 134.54C186.764 130.183 185.06 129.299 184.451 129.299C183.842 129.299 185.462 124.602 181.659 121.318C177.857 118.034 158.72 109.89 155.877 107.251C153.035 104.612 142.018 91.7609 138.22 91.7609C134.422 91.7609 98.168 102.238 98.168 104.745C98.168 107.251 98.8945 111.815 109.975 112.96C121.055 114.106 127.195 108.213 131.702 109.756C136.209 111.299 146.076 129.43 138.22 142.36C130.363 155.29 106.85 132.107 106.85 127.443C106.85 122.78 103.78 113.64 99.7125 111.299C95.6451 108.958 90.4433 109.756 90.4433 111.299Z" fill="#DD784D"/>
<mask id="mask1" mask-type="alpha" maskUnits="userSpaceOnUse" x="90" y="91" width="111" height="171">
<path fill-rule="evenodd" clip-rule="evenodd" d="M90.4433 111.299C90.4433 116.987 90.3416 132.367 91.5317 134.54C92.7218 136.714 101.264 151.165 104.623 157.791C107.981 164.418 120.318 187.213 124.629 192.98C128.941 198.747 141.44 210.162 143.303 218.071C145.166 225.98 146.076 224.527 146.076 245.882C146.076 267.236 207.651 267.236 200.101 245.882C192.551 224.527 192.523 223.823 191 218.071C189.478 212.319 188.11 208.013 191 192.98C193.891 177.947 190.081 138.898 188.423 134.54C186.764 130.183 185.06 129.299 184.451 129.299C183.842 129.299 185.462 124.602 181.659 121.318C177.857 118.034 158.72 109.89 155.877 107.251C153.035 104.612 142.018 91.7609 138.22 91.7609C134.422 91.7609 98.168 102.238 98.168 104.745C98.168 107.251 98.8945 111.815 109.975 112.96C121.055 114.106 127.195 108.213 131.702 109.756C136.209 111.299 146.076 129.43 138.22 142.36C130.363 155.29 106.85 132.107 106.85 127.443C106.85 122.78 103.78 113.64 99.7125 111.299C95.6451 108.958 90.4433 109.756 90.4433 111.299Z" fill="white"/>
<path fill-rule="evenodd" clip-rule="evenodd" d="M90.4433 111.299C90.4433 116.987 90.3416 132.367 91.5317 134.54C92.7218 136.714 101.264 151.165 104.623 157.791C107.981 164.418 120.318 187.213 124.629 192.98C128.941 198.747 141.44 210.162 143.303 218.071C145.166 225.98 146.076 224.527 146.076 245.882C146.076 267.236 207.651 267.236 200.101 245.882C192.551 224.527 192.523 223.823 191 218.071C189.478 212.319 188.11 208.013 191 192.98C193.891 177.947 190.081 138.898 188.423 134.54C186.764 130.183 185.06 129.299 184.451 129.299C183.842 129.299 185.462 124.602 181.659 121.318C177.857 118.034 158.72 109.89 155.877 107.251C153.035 104.612 142.018 91.7609 138.22 91.7609C134.422 91.7609 98.168 102.238 98.168 104.745C98.168 107.251 98.8945 111.815 109.975 112.96C121.055 114.106 127.195 108.213 131.702 109.756C136.209 111.299 146.076 129.43 138.22 142.36C130.363 155.29 106.85 132.107 106.85 127.443C106.85 122.78 103.78 113.64 99.7125 111.299C95.6451 108.958 90.4433 109.756 90.4433 111.299Z" stroke="white"/>
</mask>
<g mask="url(#mask1)">
<path d="M152.612 103.731C152.474 103.585 152.481 103.355 152.627 103.217C152.773 103.08 153.002 103.087 153.14 103.233C153.401 103.509 155.492 105.709 156.166 106.428C157.455 107.8 158.551 109.001 159.6 110.2C163.122 114.229 165.73 117.832 167.413 121.263C169.009 124.517 169.693 127.493 169.331 130.178C169.304 130.377 169.121 130.516 168.923 130.49C168.724 130.463 168.585 130.28 168.612 130.081C168.952 127.558 168.3 124.718 166.762 121.582C165.112 118.219 162.537 114.663 159.053 110.678C158.011 109.486 156.921 108.291 155.637 106.924C154.964 106.208 152.874 104.009 152.612 103.731Z" fill="white"/>
<path d="M184.039 124.396C183.999 124.2 184.126 124.008 184.322 123.968C184.519 123.928 184.71 124.055 184.75 124.251C185.254 126.718 185.209 129.68 184.755 133.323C184.73 133.522 184.549 133.663 184.35 133.638C184.151 133.614 184.01 133.432 184.035 133.233C184.479 129.662 184.524 126.77 184.039 124.396Z" fill="white"/>
<path fill-rule="evenodd" clip-rule="evenodd" d="M131.919 134.467C139.574 140.032 154.883 151.162 154.883 151.162C157.394 152.988 157.951 156.505 156.126 159.018C154.302 161.531 150.787 162.088 148.276 160.262C148.276 160.262 131.699 148.21 123.411 142.184C117.791 138.098 124.547 129.107 131.919 134.467Z" fill="url(#paint7_linear)"/>
<mask id="mask2" mask-type="alpha" maskUnits="userSpaceOnUse" x="121" y="132" width="37" height="30">
<path fill-rule="evenodd" clip-rule="evenodd" d="M131.919 134.467C139.574 140.032 154.883 151.162 154.883 151.162C157.394 152.988 157.951 156.505 156.126 159.018C154.302 161.531 150.787 162.088 148.276 160.262C148.276 160.262 131.699 148.21 123.411 142.184C117.791 138.098 124.547 129.107 131.919 134.467Z" fill="white"/>
</mask>
<g mask="url(#mask2)">
</g>
</g>
<path fill-rule="evenodd" clip-rule="evenodd" d="M106.551 124.482L83.834 107.966C83.352 107.615 82.9412 107.176 82.6237 106.671L76.9124 97.5953C76.4989 96.9382 76.696 96.0701 77.3527 95.6563C77.678 95.4513 78.0732 95.3886 78.446 95.483L88.8369 98.1139C89.4145 98.2601 89.959 98.5153 90.441 98.8658L98.239 104.535C98.1921 104.61 98.168 104.68 98.168 104.745C98.168 107.238 98.8869 111.767 109.802 112.942L154.883 145.718C157.394 147.544 157.951 151.061 156.126 153.574C154.302 156.086 150.787 156.644 148.276 154.818L106.551 124.482C105.685 119.644 103.031 113.209 99.7125 111.299C95.6451 108.958 90.4434 109.756 90.4434 111.299C90.4434 111.736 90.4428 112.23 90.4422 112.77L106.551 124.482Z" fill="#F2F5F9"/>
<mask id="mask3" mask-type="alpha" maskUnits="userSpaceOnUse" x="76" y="95" width="82" height="61">
<path fill-rule="evenodd" clip-rule="evenodd" d="M106.551 124.482L83.834 107.966C83.352 107.615 82.9412 107.176 82.6237 106.671L76.9124 97.5953C76.4989 96.9382 76.696 96.0701 77.3527 95.6563C77.678 95.4513 78.0732 95.3886 78.446 95.483L88.8369 98.1139C89.4145 98.2601 89.959 98.5153 90.441 98.8658L98.239 104.535C98.1921 104.61 98.168 104.68 98.168 104.745C98.168 107.238 98.8869 111.767 109.802 112.942L154.883 145.718C157.394 147.544 157.951 151.061 156.126 153.574C154.302 156.086 150.787 156.644 148.276 154.818L106.551 124.482C105.685 119.644 103.031 113.209 99.7125 111.299C95.6451 108.958 90.4434 109.756 90.4434 111.299C90.4434 111.736 90.4428 112.23 90.4422 112.77L106.551 124.482Z" fill="white"/>
</mask>
<g mask="url(#mask3)">
<path fill-rule="evenodd" clip-rule="evenodd" d="M132.459 143.301C132.692 141.916 133.541 140.216 135.004 138.2C136.468 136.184 137.822 134.851 139.066 134.201L141.718 136.129C140.474 136.78 139.12 138.113 137.657 140.128C136.193 142.144 135.345 143.845 135.111 145.229L132.459 143.301Z" fill="#D6DFEA"/>
<path fill-rule="evenodd" clip-rule="evenodd" d="M151.672 152.665C151.672 154.418 153.093 155.84 154.845 155.84C156.598 155.84 158.018 154.418 158.018 152.665C158.018 150.911 156.598 149.49 154.845 149.49C153.093 149.49 151.672 150.911 151.672 152.665ZM157.292 152.665C157.292 154.017 156.196 155.114 154.845 155.114C153.494 155.114 152.398 154.017 152.398 152.665C152.398 151.312 153.494 150.215 154.845 150.215C156.196 150.215 157.292 151.312 157.292 152.665Z" fill="#D6DFEA"/>
</g>
<defs>
<linearGradient id="paint0_linear" x1="0" y1="0" x2="0" y2="178.946" gradientUnits="userSpaceOnUse">
<stop stop-color="#393E41" stop-opacity="0.01"/>
<stop offset="1" stop-opacity="0.3"/>
</linearGradient>
<linearGradient id="paint1_linear" x1="4.55865" y1="85.5461" x2="4.55865" y2="93.0369" gradientUnits="userSpaceOnUse">
<stop stop-color="#393E41" stop-opacity="0.01"/>
<stop offset="1" stop-opacity="0.3"/>
</linearGradient>
<linearGradient id="paint2_linear" x1="16.6968" y1="55.5349" x2="16.6968" y2="123.048" gradientUnits="userSpaceOnUse">
<stop stop-color="#393E41" stop-opacity="0.01"/>
<stop offset="1" stop-opacity="0.3"/>
</linearGradient>
<linearGradient id="paint3_linear" x1="16.6968" y1="8.71143" x2="16.6968" y2="22.8674" gradientUnits="userSpaceOnUse">
<stop stop-color="#393E41" stop-opacity="0.01"/>
<stop offset="1" stop-opacity="0.3"/>
</linearGradient>
<linearGradient id="paint4_linear" x1="49.4862" y1="130.984" x2="125.322" y2="229.497" gradientUnits="userSpaceOnUse">
<stop stop-opacity="0.4"/>
<stop offset="1" stop-opacity="0.01"/>
</linearGradient>
<linearGradient id="paint5_linear" x1="122.513" y1="92.389" x2="100.448" y2="147.774" gradientUnits="userSpaceOnUse">
<stop stop-color="#FFC62C" stop-opacity="0.01"/>
<stop offset="1" stop-color="#FF6663" stop-opacity="0.7"/>
</linearGradient>
<linearGradient id="paint6_linear" x1="112.038" y1="79.658" x2="90.842" y2="136.028" gradientUnits="userSpaceOnUse">
<stop stop-color="#FFC62C" stop-opacity="0.01"/>
<stop offset="1" stop-color="#FF6663" stop-opacity="0.7"/>
</linearGradient>
<linearGradient id="paint7_linear" x1="139.265" y1="125.675" x2="127.02" y2="156.467" gradientUnits="userSpaceOnUse">
<stop stop-opacity="0.4"/>
<stop offset="1" stop-color="#FFC62C" stop-opacity="0.01"/>
</linearGradient>
</defs>
</svg>
