<svg width="38" height="41" viewBox="0 0 38 41" fill="none" xmlns="http://www.w3.org/2000/svg">
<path d="M22.9138 28.232L17.5138 14.24C17.3538 13.824 17.1858 13.344 17.0098 12.8C16.8338 12.24 16.6658 11.648 16.5058 11.024C16.1698 12.32 15.8258 13.4 15.4738 14.264L10.0738 28.232H22.9138ZM32.6098 41H29.0098C28.5938 41 28.2578 40.896 28.0018 40.688C27.7458 40.48 27.5538 40.216 27.4258 39.896L24.2098 31.592H8.77779L5.56179 39.896C5.46579 40.184 5.28179 40.44 5.00979 40.664C4.73779 40.888 4.40179 41 4.00179 41H0.401794L14.1538 6.608H18.8578L32.6098 41Z" fill="white"/>
<path d="M38 5.4C38 8.38234 35.5596 10.8 32.5493 10.8C29.5389 10.8 27.0986 8.38234 27.0986 5.4C27.0986 2.41766 29.5389 0 32.5493 0C35.5596 0 38 2.41766 38 5.4Z" fill="white"/>
</svg>
